<svg width="36" height="39" viewBox="0 0 36 39" fill="none" xmlns="http://www.w3.org/2000/svg">
<path fill-rule="evenodd" clip-rule="evenodd" d="M18.9965 0.64026V1.28032L20.6407 1.30989L22.2848 1.33935L22.6747 2.83933C22.8892 3.66431 23.1791 4.79733 23.319 5.35714C23.617 6.54961 24.2088 8.82047 24.5196 9.96419C24.6396 10.4061 24.8174 10.8281 24.9145 10.9017C25.172 11.097 33.5965 11.0952 33.8569 10.8999C33.9832 10.805 34.2732 9.79523 34.8185 7.5517C35.2479 5.78484 35.6922 3.99388 35.8059 3.57174C36.0612 2.62322 36.0632 2.43755 35.8205 2.21202C35.6459 2.04991 35.1589 2.03631 30.4704 2.06148L25.3122 2.08934V2.62504V3.16075L29.8831 3.18871C33.7061 3.21196 34.4633 3.24132 34.5106 3.36796C34.5417 3.45121 34.4873 3.82427 34.3898 4.19712C34.2922 4.56997 34.0798 5.42946 33.9177 6.10712C33.7557 6.78479 33.4897 7.8937 33.3265 8.57136L33.0301 9.80348L29.5887 9.83337C27.6959 9.84987 26.0467 9.8382 25.9237 9.80745C25.7484 9.76363 25.6661 9.60645 25.5438 9.08114C25.4579 8.71236 25.2223 7.78388 25.0202 7.01782C23.9682 3.02961 23.7573 2.22498 23.5315 1.33935C23.1808 -0.0365485 23.2524 9.37033e-05 20.9162 9.37033e-05H18.9965V0.64026ZM11.9609 1.38135L11.5642 1.79835L12.279 2.53312L12.9939 3.26789L10.3319 3.32521C7.4493 3.38735 7.26338 3.42207 6.1184 4.11066C5.51011 4.47655 4.61285 5.4977 4.31711 6.16069C3.77249 7.38178 3.75516 7.59499 3.75516 13.0938V18.214H4.38152H5.00787V13.1301C5.00787 9.86573 5.04859 7.85138 5.12166 7.50167C5.35258 6.39673 6.34504 5.27014 7.49711 4.80536C8.02743 4.5914 8.31848 4.56269 10.3604 4.52304C11.6105 4.49883 12.7113 4.50965 12.8067 4.54726C12.9453 4.60179 12.8393 4.76122 12.2812 5.33849L11.5823 6.06127L11.9983 6.47826L12.4142 6.89514L13.0695 6.26655C14.3413 5.04643 15.134 4.13273 15.134 3.88663C15.134 3.73031 12.5653 0.964361 12.42 0.964361C12.3857 0.964361 12.1792 1.15196 11.9609 1.38135ZM29.1434 5.22321L29.1747 5.83927L30.9755 5.86863L32.7763 5.89788V5.25257V4.60715H30.9442H29.1121L29.1434 5.22321ZM26.6171 7.82138V8.46915L28.4701 8.4399L30.3231 8.41065V7.82138V7.2321L28.4701 7.20285L26.6171 7.1736V7.82138ZM25.3644 12.3749V12.9641H29.4357H33.507V12.3749V11.7856H29.4357H25.3644V12.3749ZM26.3457 14.0784C26.0373 14.3949 25.9908 14.5125 25.9908 14.9746C25.9908 15.6367 26.2582 16.0215 26.8277 16.1789C27.1424 16.2658 27.3164 16.2571 27.5876 16.1409C28.9009 15.5776 28.5125 13.7141 27.0817 13.7141C26.7875 13.7141 26.6197 13.7972 26.3457 14.0784ZM30.8809 13.9557C30.3535 14.4133 30.2126 15.1368 30.5519 15.6455C30.7748 15.9798 30.8694 16.0471 31.2887 16.1694C32.11 16.4087 32.7763 15.8735 32.7763 14.9746C32.7763 14.5125 32.7297 14.3949 32.4214 14.0784C32.1262 13.7755 31.9899 13.7142 31.6123 13.7147C31.2941 13.715 31.0752 13.7872 30.8809 13.9557ZM6.0518 20.2862C4.21157 20.7238 2.92629 22.1003 2.58148 24.0028C2.43418 24.8157 2.59515 25.9421 2.97159 26.7317C3.23905 27.2928 4.07147 28.2853 4.27462 28.2853C4.35062 28.2853 4.38162 28.4673 4.36116 28.7942L4.32932 29.3031L3.75516 29.3305C2.36893 29.3967 1.04764 30.3247 0.390383 31.694L0.0492276 32.4045L0.0156126 34.5654C-0.0178974 36.7158 -0.0169579 36.7272 0.221475 36.8987C0.433496 37.051 1.04054 37.0708 5.50468 37.0708H10.5483L11.0403 37.5591C11.5702 38.0848 12.705 38.7051 13.4637 38.8835C14.971 39.2383 16.6219 38.7707 17.8455 37.6426C18.6215 36.9273 19.155 36.0436 19.3546 35.1428C19.7797 33.2247 19.3609 31.6029 18.0911 30.2502C16.5327 28.5901 14.211 28.1939 12.2254 29.2493C11.4768 29.6471 11.4422 29.6549 11.0436 29.5105C10.8178 29.4288 10.3539 29.3506 10.0128 29.3368L9.39236 29.3116V28.8593C9.39236 28.4845 9.4432 28.3698 9.68957 28.1898C9.85294 28.0704 10.1759 27.7175 10.4072 27.4058C11.5126 25.915 11.6134 24.0506 10.6775 22.4041C9.78269 20.8298 7.72605 19.8881 6.0518 20.2862ZM32.8828 25.9149C32.8857 29.1467 32.8471 31.1218 32.7743 31.4549C32.5207 32.6161 31.7517 33.568 30.5967 34.1501C30.0119 34.4449 30.0012 34.446 27.4711 34.4796C24.5598 34.5183 24.6832 34.5847 25.7317 33.5433L26.3168 32.9623L25.8928 32.5271L25.4688 32.0919L24.1117 33.4816C23.1129 34.5045 22.7546 34.9403 22.7546 35.1327C22.7546 35.3244 23.1089 35.7585 24.0856 36.763L25.4166 38.1321L25.879 37.7038L26.3413 37.2756L25.6354 36.5455L24.9296 35.8155L25.2644 35.7468C25.4487 35.709 26.5682 35.6775 27.7524 35.6767C30.0913 35.6753 30.5966 35.5963 31.5047 35.0889C32.7226 34.4086 33.8096 32.8408 34.0305 31.4459C34.0864 31.0924 34.1325 28.5733 34.1328 25.8478L34.1334 20.8926H33.5058H32.8782L32.8828 25.9149ZM6.41717 21.4948C5.34203 21.7688 4.65524 22.2379 4.2243 22.9925C4.08108 23.2433 3.96395 23.4762 3.96395 23.5098C3.96395 23.5435 4.23412 23.57 4.56421 23.5687C5.20632 23.5663 5.75063 23.3593 6.35913 22.8862C6.55695 22.7326 6.80009 22.6068 6.89957 22.6068C6.99906 22.6068 7.36767 22.8103 7.71874 23.0589C8.29071 23.4639 8.43268 23.5154 9.08357 23.5532C9.93458 23.6025 9.98113 23.5244 9.50385 22.8482C9.14641 22.3416 8.6471 21.9293 8.11564 21.7013C7.70517 21.5252 6.75217 21.4094 6.41717 21.4948ZM6.44922 24.329C6.06715 24.6217 4.79042 24.8846 4.1958 24.7931L3.72478 24.7206L3.77688 25.1948C3.88597 26.188 4.66254 27.2299 5.67024 27.7354C6.11329 27.9576 6.28825 27.9836 7.07954 27.9444C7.90633 27.9034 8.02962 27.8674 8.53196 27.5197C9.27053 27.0085 9.76462 26.3316 9.95932 25.5643C10.047 25.2188 10.0962 24.8988 10.0687 24.8531C10.0412 24.8074 9.83102 24.7958 9.60167 24.8274C9.03534 24.9054 7.97742 24.6815 7.42185 24.3661C6.87358 24.0548 6.81011 24.0525 6.44922 24.329ZM5.63517 29.3862C5.6359 29.6384 5.79792 29.955 6.23543 30.5586C6.5651 31.0134 6.86648 31.3871 6.90521 31.3889C6.94404 31.3909 7.26369 31.0002 7.6155 30.521C8.08652 29.8794 8.24686 29.5757 8.22358 29.3692C8.19466 29.1142 8.15875 29.0937 7.82647 29.1424C7.33562 29.2144 6.39097 29.1985 5.9735 29.1114C5.64644 29.0432 5.63423 29.0531 5.63517 29.3862ZM13.6203 29.9976C11.2627 30.6247 10.0301 33.3223 11.0803 35.5563C11.391 36.2172 12.2294 37.0407 12.9399 37.3828C13.4329 37.6201 13.6587 37.6601 14.5076 37.6601C15.3627 37.6601 15.5785 37.6213 16.0735 37.3789C16.96 36.9445 17.4778 36.4159 17.9235 35.4903C18.284 34.7416 18.3174 34.5971 18.3118 33.8086C18.3068 33.1194 18.2522 32.8274 18.04 32.3566C17.7319 31.6725 17.0646 30.8123 16.6332 30.5432C15.7333 29.9814 14.5123 29.7604 13.6203 29.9976ZM2.86689 30.8399C2.13395 31.1959 1.66616 31.6992 1.39307 32.4257C1.23795 32.8383 1.19755 33.234 1.19755 34.3387V35.7316L5.50374 35.7595C8.16022 35.7768 9.80993 35.7487 9.80993 35.6861C9.80993 35.6304 9.76327 35.4588 9.70617 35.3047C9.25269 34.0805 9.50312 32.202 10.2757 31.0336C10.5699 30.5886 10.5046 30.5352 9.66535 30.5352H9.12032L8.44729 31.4679C7.41089 32.9041 7.21786 33.1066 6.8859 33.1066C6.63462 33.1066 6.4583 32.9249 5.63851 31.8209L4.68374 30.5352L4.08901 30.5353C3.65223 30.5353 3.32747 30.6163 2.86689 30.8399ZM13.9509 30.7138C13.9126 30.7531 13.8811 30.8857 13.8809 31.0085C13.8808 31.1549 13.7491 31.3054 13.4979 31.4459C12.9841 31.7336 12.7195 32.129 12.6635 32.6926C12.5679 33.6566 13.1407 34.2602 14.3243 34.443C15.0292 34.5518 15.0818 34.5782 15.0818 34.8243C15.0818 35.0829 15.0617 35.0894 14.1683 35.1197L13.2549 35.1507V35.7287C13.2549 36.2793 13.2685 36.3082 13.5414 36.3406C13.768 36.3673 13.8393 36.4418 13.8818 36.6958C13.9339 37.0073 13.9534 37.0173 14.5086 37.0173C15.0789 37.0173 15.082 37.0155 15.1144 36.6691C15.1337 36.4633 15.2053 36.3208 15.2892 36.3208C15.4962 36.3208 16.0567 35.8079 16.2338 35.4563C16.7512 34.4294 15.9532 33.2138 14.7617 33.2138C14.0909 33.2138 13.8812 33.1396 13.8812 32.9023C13.8812 32.5591 14.1128 32.4638 14.946 32.4638H15.7603V31.8816C15.7603 31.3262 15.7472 31.2979 15.4732 31.2655C15.2477 31.2389 15.179 31.1684 15.1532 30.937C15.1217 30.6572 15.0925 30.6424 14.5702 30.6424C14.2678 30.6424 13.9891 30.6745 13.9509 30.7138Z" fill="white"/>
</svg>
