<svg width="24" height="49" viewBox="0 0 24 49" fill="none" xmlns="http://www.w3.org/2000/svg">
<path fill-rule="evenodd" clip-rule="evenodd" d="M11.3657 0.260373C10.7225 0.72784 9.14754 2.26733 8.37715 3.18159C6.8873 4.94979 5.90845 6.68716 5.18092 8.85457C4.50019 10.8829 4.39611 11.7177 4.3471 15.5447C4.32355 17.3876 4.28549 18.984 4.26262 19.0923C4.23763 19.2107 3.92624 19.4752 3.48156 19.7558C2.12529 20.6116 1.06725 21.8529 0.498586 23.2554C0.00670977 24.4682 -0.0210654 24.8273 0.00786279 29.5847L0.0346773 33.9892L0.348563 34.2686C0.59873 34.4912 0.751925 34.5478 1.10396 34.5478C1.54164 34.5478 1.55567 34.5375 2.71222 33.3676C4.14181 31.9215 5.84829 30.5517 6.05886 30.6814C6.10374 30.709 6.20254 30.8797 6.27846 31.0607C6.35919 31.2533 6.52065 31.4293 6.6677 31.4849C7.00724 31.6136 16.9928 31.6136 17.3323 31.4849C17.4794 31.4293 17.6408 31.2533 17.7215 31.0607C17.7975 30.8797 17.8978 30.708 17.9445 30.6793C18.1599 30.5467 19.9319 31.9824 21.3769 33.4601C22.4327 34.5399 22.4438 34.5478 22.889 34.5478C23.2488 34.5478 23.3997 34.4926 23.6514 34.2686L23.9653 33.9892L23.9921 29.5847C24.0211 24.8273 23.9933 24.4682 23.5014 23.2554C22.9377 21.865 21.9373 20.6796 20.5868 19.8013C20.1738 19.5328 19.8034 19.2621 19.7637 19.1999C19.724 19.1378 19.6909 17.8035 19.69 16.235C19.6885 13.109 19.6088 12.0768 19.2422 10.4305C18.4733 6.97723 16.8128 4.14581 13.9673 1.43598C12.3468 -0.107148 12.0537 -0.239548 11.3657 0.260373ZM10.8517 3.21902L9.83759 4.24815L10.9188 4.27525C11.5135 4.29008 12.4866 4.29008 13.0812 4.27525L14.1624 4.24815L13.1483 3.21902C12.5905 2.65304 12.0737 2.18988 12 2.18988C11.9263 2.18988 11.4095 2.65304 10.8517 3.21902ZM8.36062 6.31495C8.0747 6.62062 7.24943 8.35417 6.91815 9.34491C6.40523 10.8789 6.23752 11.9187 6.127 14.2523C5.92777 18.4585 6.35439 23.0928 7.35207 27.5593C7.4873 28.1648 7.66942 28.8756 7.75668 29.1389L7.91545 29.6175L11.9634 29.6425C15.1291 29.6621 16.0323 29.6412 16.1079 29.5468C16.2257 29.3996 16.7107 27.3839 17.0352 25.6925C17.735 22.0446 18.0502 17.672 17.8736 14.0608C17.7387 11.3017 17.3257 9.55763 16.3199 7.50061C15.5691 5.96504 16.0366 6.11496 12 6.11496C8.62222 6.11496 8.54361 6.11927 8.36062 6.31495ZM11.2355 8.99041C10.1373 9.21864 8.99704 10.1036 8.50296 11.1112C7.24463 13.6769 9.09863 16.6504 11.9635 16.6616C14.1423 16.6702 15.8562 15.0055 15.8733 12.8642C15.8809 11.9075 15.68 11.2821 15.1231 10.5285C14.2301 9.32012 12.6525 8.69593 11.2355 8.99041ZM11.5421 10.8019C10.3461 11.0922 9.64913 12.5225 10.164 13.63C10.7866 14.9698 12.5344 15.2324 13.5044 14.132C14.0985 13.4579 14.1712 12.5384 13.6944 11.728C13.2733 11.0123 12.3362 10.609 11.5421 10.8019ZM3.56123 22.0739C2.79083 22.8372 2.47628 23.3077 2.08647 24.2796C1.87301 24.8119 1.86427 24.9471 1.83236 28.2146L1.79939 31.5983L2.76988 30.7312C3.30376 30.2544 4.07434 29.6507 4.48251 29.3897C4.89058 29.1287 5.32556 28.8358 5.44906 28.7385L5.67366 28.5618L5.42109 27.3704C5.14257 26.0564 4.7717 23.811 4.59419 22.3639C4.53114 21.8495 4.44243 21.4059 4.39707 21.378C4.35181 21.3501 3.97564 21.6632 3.56123 22.0739ZM19.5608 21.406C19.5356 21.4468 19.4643 21.911 19.4025 22.4375C19.2641 23.6181 18.7985 26.3745 18.5261 27.6268L18.3234 28.5592L18.5494 28.7332C18.6738 28.8288 19.1122 29.1248 19.5236 29.391C19.9352 29.6573 20.7028 30.2601 21.2295 30.7307L22.1873 31.5864V28.4441C22.1873 24.9814 22.1527 24.7001 21.5885 23.5707C21.2618 22.9168 20.5977 22.1136 19.9824 21.6281C19.7758 21.4652 19.5861 21.3652 19.5608 21.406ZM11.4528 23.5778L11.1831 23.8087L11.1534 25.6242C11.1237 27.4331 11.1245 27.4407 11.3594 27.7127C11.5493 27.9325 11.674 27.9858 12 27.9858C12.326 27.9858 12.4507 27.9325 12.6406 27.7127C12.8755 27.4407 12.8763 27.4331 12.8466 25.6242L12.8169 23.8087L12.5472 23.5778C12.3969 23.4491 12.1547 23.347 12 23.347C11.8453 23.347 11.6031 23.4491 11.4528 23.5778ZM7.51728 33.4904C6.98206 33.7149 7.00244 33.4177 7.00244 40.9906V47.9653L7.28336 48.2451C7.66173 48.622 8.07365 48.6214 8.45327 48.2433L8.73601 47.9616L8.71016 40.9222C8.68479 34.0242 8.68047 33.8791 8.49181 33.6912C8.26355 33.4639 7.80531 33.3694 7.51728 33.4904ZM11.6452 33.4921C11.1103 33.7159 11.1293 33.4113 11.1573 41.3393L11.1831 48.6376L11.41 48.8206C11.7066 49.0598 12.2934 49.0598 12.59 48.8206L12.8169 48.6376L12.8427 41.3129L12.8684 33.9882L12.6505 33.7414C12.4082 33.467 11.9667 33.3576 11.6452 33.4921ZM15.5968 33.6203L15.3157 33.861L15.2898 40.9113L15.264 47.9616L15.5467 48.2433C15.9264 48.6214 16.3383 48.622 16.7166 48.2451L16.9976 47.9653V40.9747V33.9841L16.7813 33.7362C16.4581 33.3657 15.9517 33.3161 15.5968 33.6203Z" fill="white"/>
</svg>
