<svg width="36" height="36" viewBox="0 0 36 36" fill="none" xmlns="http://www.w3.org/2000/svg">
<path fill-rule="evenodd" clip-rule="evenodd" d="M16.4216 0.262608C16.275 0.409144 16.1589 0.700245 16.1589 0.92123C16.1589 1.24174 16.0744 1.35755 15.7159 1.52851C15.2921 1.73046 15.2554 1.72678 14.8725 1.44382C14.3323 1.04452 13.977 1.156 13.2235 1.96129C12.548 2.68307 12.4808 2.99255 12.879 3.55138C13.127 3.8996 13.1322 3.95974 12.9514 4.39239C12.7918 4.77396 12.6877 4.85825 12.3761 4.85825C11.7631 4.85825 11.5608 5.20529 11.5608 6.25717C11.5608 7.04775 11.6033 7.21582 11.8648 7.46149C12.0321 7.61853 12.3287 7.74695 12.5239 7.74695C12.7984 7.74695 12.9272 7.84845 13.0925 8.19483C13.2967 8.62275 13.2936 8.65859 13.0247 9.00038C12.6147 9.52126 12.6718 9.78282 13.3549 10.5126C14.1076 11.317 14.4638 11.4292 15.0017 11.0317C15.5752 10.6079 16.1656 10.7872 16.3529 11.4417C16.5826 12.2446 16.7394 12.3426 17.7942 12.3426C18.6136 12.3426 18.7788 12.3018 19.0262 12.0388C19.1877 11.8667 19.3118 11.5646 19.3118 11.3428C19.3118 11.0127 19.3857 10.9242 19.781 10.7814C20.1936 10.6324 20.2808 10.6397 20.5052 10.8426C20.9382 11.2343 21.4906 11.1353 22.0879 10.5591C22.761 9.90953 22.9201 9.52467 22.7175 9.03583C22.6332 8.83244 22.5123 8.66608 22.4489 8.66608C22.26 8.66608 22.3176 8.09044 22.538 7.77623C22.6544 7.61 22.8806 7.48434 23.0634 7.48434C23.6364 7.48434 23.9099 7.05721 23.9099 6.16263C23.9099 5.03355 23.6515 4.60156 22.9735 4.59762C22.4049 4.59433 22.016 3.83789 22.377 3.43728C22.4863 3.31609 22.6168 3.05243 22.667 2.85127C22.7471 2.53063 22.67 2.39735 22.0403 1.76801C21.2378 0.965874 20.8821 0.876587 20.3032 1.33182C19.9612 1.6006 19.9253 1.60362 19.4972 1.39957C19.1797 1.24818 19.0491 1.09823 19.0491 0.884859C19.0491 0.719153 18.957 0.452343 18.8445 0.291889C18.6644 0.0346643 18.5237 0 17.6622 0C16.8595 0 16.6373 0.0470069 16.4216 0.262608ZM17.4289 1.13801C17.3806 1.18607 17.3412 1.38381 17.3412 1.57723C17.3412 1.94737 16.9898 2.36243 16.674 2.36505C16.5714 2.36597 16.2301 2.51369 15.9156 2.69331C15.2139 3.09418 15.0132 3.10022 14.621 2.73191C14.3408 2.46891 14.2961 2.46195 14.1056 2.65234C13.9152 2.84287 13.9226 2.89539 14.1918 3.25936C14.3668 3.49597 14.4552 3.75491 14.4094 3.89698C14.136 4.7431 13.8169 5.5262 13.6761 5.69584C13.5857 5.80456 13.3241 5.91171 13.0947 5.9339C12.7796 5.96449 12.6775 6.03815 12.6775 6.23511C12.6775 6.39517 12.779 6.51137 12.9402 6.53567C13.711 6.65226 13.7572 6.69166 14.044 7.4779C14.2017 7.9099 14.3872 8.29842 14.4565 8.34123C14.6767 8.47713 14.5924 8.96676 14.2942 9.28399C14.0281 9.56709 14.0224 9.607 14.2195 9.80409C14.4167 10.0012 14.4642 9.99146 14.8371 9.67778L15.2412 9.33796L15.9299 9.63904C16.3088 9.80462 16.7804 9.97938 16.978 10.0273C17.2293 10.0882 17.3608 10.2223 17.4159 10.4735C17.5542 11.1047 17.5907 11.1609 17.8627 11.1609C18.0616 11.1609 18.1295 11.0751 18.1295 10.8239C18.1295 10.3808 18.3523 9.97912 18.5982 9.97912C18.7065 9.97912 19.0868 9.8314 19.4432 9.65086C20.1872 9.27401 20.5251 9.24027 20.7569 9.51955C20.9631 9.76785 21.3632 9.77494 21.4566 9.5319C21.4955 9.4304 21.4131 9.24395 21.2736 9.11763C20.9322 8.8088 20.9537 8.50392 21.394 7.41869C21.7387 6.56862 21.8004 6.49457 22.2143 6.43391C22.5866 6.37928 22.6618 6.31311 22.6618 6.03999C22.6618 5.80378 22.5881 5.70792 22.3991 5.69834C22.2546 5.69099 22.0378 5.67615 21.9173 5.66551C21.7841 5.6537 21.6074 5.40172 21.4663 5.02239C21.3389 4.67942 21.1567 4.28209 21.0615 4.13963C20.8174 3.77447 20.846 3.44345 21.1556 3.04993C21.3874 2.75555 21.398 2.6853 21.2353 2.52262C21.0725 2.36006 20.993 2.37529 20.6379 2.63764C20.2571 2.91915 20.194 2.92782 19.7372 2.76067C19.4671 2.66193 18.9801 2.48533 18.655 2.36833C18.1271 2.17847 18.0592 2.10717 18.0203 1.70262C17.97 1.17911 17.6722 0.894838 17.4289 1.13801ZM16.5272 3.94451C16.2602 4.0854 15.8759 4.41799 15.6733 4.68349C15.3438 5.11509 15.305 5.27239 15.305 6.1713C15.305 7.0706 15.3438 7.22738 15.6738 7.65989C16.7461 9.06498 18.8331 8.9879 19.8491 7.50574C20.1056 7.13179 20.1658 6.87824 20.1658 6.1713C20.1658 5.43901 20.1076 5.21081 19.8043 4.75282C19.1271 3.72996 17.6321 3.36126 16.5272 3.94451ZM17.1199 4.91406C16.2843 5.28749 16.0651 6.45767 16.7192 7.053C17.2612 7.54631 17.5739 7.64597 18.0681 7.48289C18.6966 7.27557 19.0491 6.78317 19.0491 6.11247C19.0491 5.13386 18.0359 4.50452 17.1199 4.91406ZM23.3896 10.7596L23.1143 11.146L23.9062 11.6836C24.3417 11.9791 24.6981 12.2793 24.6981 12.3505C24.6981 12.4216 24.1809 12.8125 23.5486 13.219C22.9164 13.6257 21.8079 14.3385 21.0854 14.8032C20.3628 15.2679 19.4274 15.8793 19.0066 16.1618C18.5859 16.4444 18.132 16.6756 17.9981 16.6756C17.8642 16.6756 17.4103 16.4448 16.9895 16.1626C16.2276 15.6517 14.0623 14.2469 12.2505 13.0883C11.7266 12.7533 11.2981 12.4218 11.2981 12.3515C11.2981 12.2814 11.5641 12.041 11.8893 11.8174C12.2144 11.5938 12.4804 11.3649 12.4804 11.3087C12.4804 11.1779 11.9058 10.6356 11.7673 10.6356C11.5431 10.6356 9.70649 11.8628 9.58156 12.096C9.4 12.4353 9.60415 12.7747 10.2125 13.1455C10.4845 13.3112 11.4459 13.9264 12.3491 14.5127C13.2522 15.0988 14.8283 16.1207 15.8516 16.7836C16.8747 17.4464 17.8402 17.9887 17.997 17.9887C18.1539 17.9887 19.2972 17.332 20.5378 16.5294C21.7782 15.7268 23.5822 14.5599 24.5468 13.9364C26.3847 12.7481 26.6332 12.5044 26.4174 12.1014C26.2837 11.8516 24.0472 10.373 23.8031 10.373C23.7271 10.373 23.5411 10.547 23.3896 10.7596ZM3.16556 11.9835C2.99189 12.0726 2.72586 12.3124 2.57438 12.5163C2.30244 12.8824 2.29824 13.0015 2.23334 22.1672L2.16765 31.4474L1.33449 31.5135C0.185893 31.6049 0 31.8438 0 33.2284C0 34.6778 0.366531 35.4022 1.29691 35.7918C1.95969 36.0694 34.0365 36.0694 34.6993 35.7918C35.1659 35.5964 35.6016 35.1847 35.8484 34.7058C36.0766 34.2629 36.038 32.2876 35.7943 31.9399C35.5713 31.6217 34.7516 31.3507 34.1901 31.4095L33.8285 31.4474L33.7629 22.1672C33.698 13.0015 33.6938 12.8824 33.4218 12.5163C32.9416 11.87 32.7062 11.8214 30.0516 11.8193L27.5883 11.8174V12.3426C27.5883 12.6315 27.6327 12.8683 27.6869 12.8689C31.7684 12.9114 32.3333 12.9424 32.452 13.1304C32.6195 13.3955 32.6194 30.9857 32.4519 31.2504C32.3449 31.4195 31.5595 31.4516 26.9033 31.4772C23.9203 31.4937 21.3765 31.5084 21.2506 31.51C21.1165 31.5118 20.9256 31.7169 20.7898 32.0054L20.5578 32.4978H17.9984H15.4388L15.2327 32.0615C15.1192 31.8214 14.9413 31.572 14.8373 31.5071C14.733 31.4421 12.1799 31.3919 9.14435 31.3954C4.71196 31.4003 3.61906 31.3677 3.53012 31.2275C3.37458 30.9821 3.38811 13.3773 3.54418 13.1304C3.66294 12.9424 4.22784 12.9114 8.30934 12.8689C8.36347 12.8683 8.40787 12.6315 8.40787 12.3426V11.8174L5.94463 11.8193C4.25123 11.8207 3.38272 11.872 3.16556 11.9835ZM5.01713 14.053C4.19881 14.5515 4.20394 14.5004 4.20394 22.1904C4.20394 29.8804 4.19881 29.8293 5.01713 30.3279C5.44528 30.5888 5.64562 30.593 17.9981 30.593C30.3506 30.593 30.5509 30.5888 30.9791 30.3279C31.7974 29.8293 31.7923 29.8804 31.7923 22.1904C31.7923 14.5004 31.7974 14.5515 30.9791 14.053C30.5966 13.8199 30.3181 13.7879 28.6703 13.7875C26.9493 13.7869 26.7591 13.8111 26.34 14.0824C26.0891 14.2449 25.883 14.4206 25.8821 14.4729C25.8813 14.5253 26.0549 14.6581 26.268 14.7683C26.563 14.9208 27.1092 14.9687 28.553 14.9687C30.1621 14.9687 30.4625 15.0002 30.5302 15.1764C30.6343 15.4477 30.6343 28.9331 30.5302 29.2044C30.4582 29.3918 29.2318 29.4121 17.9981 29.4121C6.76439 29.4121 5.53803 29.3918 5.46604 29.2044C5.36186 28.9331 5.36186 15.4477 5.46604 15.1764C5.53369 15.0002 5.83414 14.9687 7.4432 14.9687C8.88699 14.9687 9.43324 14.9208 9.72817 14.7683C9.94126 14.6581 10.1149 14.5253 10.1141 14.4729C10.1132 14.4206 9.9071 14.2449 9.65618 14.0824C9.2371 13.8111 9.04687 13.7869 7.32588 13.7875C5.67807 13.7879 5.39956 13.8199 5.01713 14.053ZM10.4192 15.6878C10.0461 15.939 9.70137 16.2083 9.65315 16.2862C9.42772 16.6508 9.75654 17.0328 10.9313 17.7704C12.1195 18.5166 13.164 19.1847 16.3054 21.2077C17.1446 21.7482 17.9131 22.1898 18.0132 22.189C18.1133 22.1882 18.9469 21.7006 19.8657 21.1057C22.7156 19.2602 24.9781 17.8087 25.6457 17.3978C26.3133 16.9868 26.55 16.5476 26.2792 16.2216C26.0488 15.9441 24.9015 15.2312 24.6866 15.2319C24.5846 15.2323 24.3269 15.3719 24.114 15.5421L23.727 15.8516L24.211 16.1651C24.4771 16.3377 24.6956 16.5187 24.6965 16.5677C24.6973 16.6168 23.9982 17.1 23.1428 17.6416C22.2873 18.1834 20.8096 19.133 19.8591 19.752C18.9086 20.3709 18.0723 20.8774 18.0006 20.8774C17.9287 20.8774 16.7017 20.1221 15.2738 19.199C13.8458 18.276 12.3671 17.3244 11.9878 17.0845C11.6085 16.8445 11.2981 16.6046 11.2981 16.5513C11.2981 16.498 11.505 16.343 11.7579 16.2069C12.3221 15.9032 12.3326 15.7572 11.8121 15.4611C11.2675 15.1513 11.2001 15.1622 10.4192 15.6878ZM10.2142 19.7659C9.62294 20.1994 9.47317 20.5017 9.69073 20.8229C9.7438 20.9013 11.606 22.1339 13.8288 23.5623C16.4252 25.2306 17.9549 26.1371 18.1066 26.0975C18.2367 26.0635 19.2852 25.4269 20.4368 24.683C21.5883 23.9389 23.3581 22.7969 24.3697 22.1451C25.3813 21.4933 26.2524 20.8971 26.3055 20.8202C26.5239 20.5038 26.3726 20.1989 25.7819 19.7659C25.0811 19.2518 24.8325 19.2077 24.3651 19.5138C23.9531 19.7835 23.9545 19.9988 24.3697 20.2208C24.5503 20.3175 24.6981 20.4382 24.6981 20.489C24.6981 20.6379 18.1054 24.8321 17.9383 24.7896C17.6852 24.7251 11.2981 20.5885 11.2981 20.4891C11.2981 20.4382 11.4459 20.3175 11.6265 20.2208C12.0416 19.9988 12.0431 19.7835 11.6311 19.5138C11.1637 19.2077 10.9151 19.2518 10.2142 19.7659ZM1.26998 32.651C1.22177 32.6991 1.18236 33.0831 1.18236 33.5045C1.18236 34.0954 1.24239 34.3304 1.4451 34.533C1.70496 34.7927 1.88297 34.7956 17.9981 34.7956C34.1132 34.7956 34.2912 34.7927 34.5511 34.533C34.76 34.3242 34.8138 34.0954 34.8138 33.4169V32.5634H28.3855H21.9572L21.6881 32.9412C21.1769 33.6586 20.7798 33.7452 17.9981 33.7452C15.2164 33.7452 14.8193 33.6586 14.3081 32.9412L14.039 32.5634H7.69832C4.2109 32.5634 1.31807 32.6028 1.26998 32.651Z" fill="white"/>
</svg>
