<svg width="40" height="33" viewBox="0 0 40 33" fill="none" xmlns="http://www.w3.org/2000/svg">
<path fill-rule="evenodd" clip-rule="evenodd" d="M18.0525 0.190949C17.6118 0.414218 17.146 1.16783 17.146 1.65764C17.146 2.54871 17.7744 3.27368 18.664 3.40926L19.1997 3.49082L20.0198 4.97427C20.471 5.79004 20.84 6.5509 20.84 6.6651C20.84 6.7793 20.543 7.39019 20.1799 8.02272C18.7298 10.5493 18.5987 10.8305 18.7437 11.1057C18.8292 11.2679 19.002 11.3616 19.2159 11.3616C19.5228 11.3616 19.6585 11.1755 20.7199 9.29929L21.8866 7.23709L25.2914 7.23547L28.6963 7.23397L30.2327 9.95446C31.0778 11.4508 31.8344 12.8039 31.9142 12.9616C32.0445 13.2192 31.9005 13.5295 30.4932 16.0261C29.632 17.5538 28.8444 18.9023 28.7432 19.0228C28.581 19.2155 28.3056 19.2417 26.4321 19.2417C24.6629 19.2417 24.2728 19.2747 24.1117 19.4382C23.874 19.6798 23.8717 19.7545 24.0928 20.0621C24.2514 20.2827 24.4722 20.3106 26.5111 20.3674L28.7549 20.4299L29.6014 21.9648C30.4178 23.4452 30.4416 23.5122 30.2694 23.8503C29.9041 24.568 29.968 25.2383 30.4555 25.8023C31.1771 26.6372 32.2976 26.6367 33.0199 25.801C33.3294 25.443 33.3993 25.2529 33.3989 24.7721C33.3982 23.7541 32.8696 23.1438 31.8647 23.001C31.3867 22.9329 31.3595 22.9006 30.5459 21.4306C30.0889 20.605 29.7129 19.8501 29.7103 19.753C29.7076 19.6558 29.8633 19.3181 30.0563 19.0025C30.2491 18.6868 31.0018 17.3733 31.7288 16.0834L33.0506 13.7381H34.7752H36.4996L37.0216 14.2836C37.5876 14.8752 38.0861 15.0357 38.7659 14.845C39.5626 14.6216 40.1512 13.6525 39.9656 12.8702C39.6127 11.3834 37.6227 10.9757 36.8876 12.2397L36.6672 12.6187L34.8179 12.5843L32.9685 12.5499L32.0119 10.8613C30.2876 7.81797 29.7055 6.76004 29.7055 6.67011C29.7055 6.62132 30.0795 5.88885 30.5366 5.04219L31.3678 3.50282L31.9169 3.41802C32.3244 3.3551 32.5866 3.21089 32.9328 2.85929C33.3453 2.44027 33.3994 2.31469 33.3989 1.77647C33.3983 0.998717 33.0502 0.402585 32.4469 0.146546C31.9236 -0.0755965 31.2004 -0.017935 30.75 0.281882C30.0937 0.718663 29.8321 1.89829 30.2482 2.54346C30.452 2.85941 30.4417 2.88956 29.5754 4.48633L28.6957 6.10825L25.2911 6.10687L21.8866 6.10562L21.0862 4.64368C20.6461 3.83954 20.2673 3.10507 20.2446 3.01126C20.222 2.91757 20.2972 2.6399 20.412 2.39424C21.0858 0.952062 19.4907 -0.537393 18.0525 0.190949ZM18.458 1.33381C18.1877 1.63713 18.2009 1.89279 18.501 2.16872C19.0095 2.63627 19.7536 1.8634 19.2928 1.34619C19.0229 1.04325 18.7209 1.03862 18.458 1.33381ZM31.2652 1.36333C30.8931 1.90292 31.4299 2.5317 31.9988 2.22238C32.3198 2.04789 32.3995 1.51517 32.1435 1.25513C31.9142 1.02223 31.4621 1.07789 31.2652 1.36333ZM7.70342 6.62007C7.48757 6.68424 7.1412 6.94591 6.93384 7.20145C6.63586 7.56868 6.55681 7.78495 6.55718 8.23186C6.55792 9.22387 7.0965 9.83739 8.09079 9.97885C8.61952 10.0542 8.588 10.0114 9.81303 12.3166L10.2872 13.2092L8.71322 16.0065C7.84748 17.5451 7.05488 18.9023 6.95194 19.0228C6.79101 19.211 6.53243 19.2417 5.10571 19.2417H3.4465L2.9392 18.6897C2.29325 17.987 1.77019 17.8614 0.975493 18.2185C-0.642582 18.9456 -0.127522 21.4931 1.63745 21.4931C2.18551 21.4931 2.83011 21.15 3.07588 20.7275L3.2852 20.3674H5.09351H6.90171L7.17851 20.8364C7.83123 21.9425 10.2506 26.2699 10.2506 26.3312C10.2506 26.3681 9.87657 27.091 9.41951 27.9376L8.58837 29.477L8.0392 29.5618C7.63175 29.6247 7.36948 29.7689 7.02336 30.1205C6.61087 30.5395 6.55669 30.6651 6.55718 31.2033C6.55767 31.9672 6.90528 32.577 7.47895 32.8204C8.7078 33.342 9.87965 32.5737 9.88076 31.246C9.881 30.9344 9.79481 30.5543 9.68916 30.4011C9.50668 30.1363 9.54104 30.0412 10.3798 28.495L11.2627 26.8677L14.646 26.9008L18.0293 26.9341L18.8891 28.4967L19.7489 30.0592L19.5557 30.471C18.9864 31.6837 19.7937 33.0015 21.1048 33C21.9671 32.999 22.7206 32.1827 22.7206 31.2494C22.7206 30.3352 22.1781 29.7459 21.1333 29.5254C20.7074 29.4355 20.6284 29.3366 19.8346 27.8978L18.9893 26.366L19.1927 25.9621C19.3047 25.74 19.7836 24.8828 20.2572 24.0573C20.7308 23.2317 21.4435 21.9896 21.841 21.2969C22.2385 20.6042 22.563 19.9287 22.562 19.7959C22.5609 19.6631 22.1814 18.8789 21.7184 18.0534C19.8834 14.7807 18.7313 12.7362 18.7088 12.7126C18.6958 12.699 17.0013 12.6568 14.9434 12.6188L11.2016 12.5499L10.3549 11.015L9.50816 9.48016L9.70899 9.08578C10.3993 7.72991 9.14751 6.19105 7.70342 6.62007ZM7.94192 7.74655C7.63212 7.86375 7.55381 8.447 7.81263 8.70992C8.04388 8.94482 8.49466 8.88628 8.69524 8.59547C9.04826 8.08339 8.54638 7.5179 7.94192 7.74655ZM37.8568 12.7625C37.4724 13.153 37.9285 13.9682 38.4391 13.8034C38.5795 13.7583 38.7537 13.6087 38.8261 13.4711C39.1092 12.9338 38.283 12.3296 37.8568 12.7625ZM11.1185 14.0196C10.9536 14.2825 9.89233 16.1478 8.50316 18.6163C8.17403 19.201 7.92752 19.7639 7.95534 19.8671C7.98317 19.9703 8.72615 21.3211 9.6063 22.869L11.2068 25.6833L14.6382 25.7126L18.0695 25.7417L19.701 22.8352C20.5983 21.2366 21.3325 19.8483 21.3325 19.7501C21.3325 19.6519 21.0069 19.0049 20.609 18.3122C20.211 17.6195 19.4576 16.3069 18.9346 15.3955L17.9838 13.7381H14.6394C11.3054 13.7381 11.2944 13.739 11.1185 14.0196ZM1.26202 19.3668C0.956284 19.6773 0.950497 19.8935 1.24097 20.1604C1.86401 20.7331 2.64738 19.9164 2.05364 19.3131C1.7942 19.0497 1.55852 19.0656 1.26202 19.3668ZM31.2609 24.3843C30.9079 24.8964 31.4097 25.4619 32.0142 25.2333C32.324 25.1161 32.4023 24.5328 32.1435 24.2699C31.9122 24.035 31.4615 24.0935 31.2609 24.3843ZM7.94192 30.7529C7.63249 30.8793 7.5548 31.4628 7.81263 31.7247C8.04388 31.9596 8.49466 31.901 8.69524 31.6102C8.89546 31.3198 8.84239 31.0216 8.54761 30.7803C8.3288 30.6012 8.31514 30.6006 7.94192 30.7529ZM20.8093 30.7102C20.5743 30.7726 20.4027 31.2645 20.5136 31.5581C20.5519 31.6594 20.7335 31.7806 20.9171 31.8274C21.1775 31.8938 21.3005 31.8503 21.4765 31.6296C21.7614 31.2721 21.7589 31.1822 21.4556 30.8741C21.2033 30.6178 21.1796 30.6118 20.8093 30.7102Z" fill="white"/>
</svg>
