<svg width="44" height="48" viewBox="0 0 44 48" fill="none" xmlns="http://www.w3.org/2000/svg">
<path fill-rule="evenodd" clip-rule="evenodd" d="M18.1056 1.41603C17.2528 2.26425 16.6315 3.04038 16.6315 3.25778C16.6315 3.47725 17.2531 4.24343 18.1266 5.10047C19.2918 6.24382 19.722 6.55359 20.0762 6.50421C20.8619 6.39457 20.7756 5.66689 19.8689 4.75484L19.0791 3.96069L19.9742 3.83959C23.4141 3.37418 28.3532 4.3296 31.647 6.09738C36.259 8.57275 39.8263 12.7091 41.4783 17.4969C42.2674 19.7841 42.5215 21.6022 42.474 24.6194C42.4388 26.8658 42.4829 27.4361 42.7028 27.5736C43.1013 27.8225 43.3721 27.7876 43.6554 27.4506C44.0139 27.0244 44.1238 23.037 43.8355 20.9234C42.6554 12.2724 35.9754 5.02349 27.188 2.85808C25.406 2.41895 24.6799 2.3401 22.2906 2.32639C20.7476 2.31757 19.4852 2.26294 19.485 2.20474C19.4848 2.14654 19.7452 1.85272 20.0636 1.55158C20.7898 0.864823 20.7857 0.0862569 20.0553 0.00383821C19.6804 -0.0385915 19.2676 0.260481 18.1056 1.41603ZM19.4787 11.0074C19.1624 11.2603 19.0078 11.6575 18.8874 12.5268C18.7976 13.1743 18.6778 13.7783 18.6209 13.869C18.564 13.9596 18.1808 14.1335 17.7692 14.2553C17.0494 14.4682 16.9863 14.4504 16.1292 13.791C14.6966 12.6894 14.2193 12.7898 12.4124 14.5734C10.5833 16.3787 10.4991 16.8066 11.6959 18.2077L12.4664 19.1096L12.0869 19.9563C11.7349 20.742 11.6555 20.8038 10.9835 20.8135C9.90963 20.8293 8.96944 21.2112 8.6982 21.7417C8.39235 22.3399 8.37447 25.5643 8.67385 26.1191C9.01851 26.7574 9.39949 26.9495 10.5845 27.0819C11.7153 27.2082 11.8296 27.2976 12.248 28.3838C12.4044 28.7897 12.3247 28.9812 11.6776 29.7542C10.4879 31.175 10.5811 31.6282 12.4314 33.4228C14.221 35.1589 14.6832 35.2691 15.9462 34.2602C17.0949 33.3427 17.1244 33.335 17.9337 33.7424C18.6026 34.0794 18.6911 34.2087 18.8046 35.0168C18.9852 36.302 19.2526 36.8698 19.7918 37.1122C20.3739 37.3741 23.4636 37.3921 24.1415 37.1377C24.7397 36.9133 25.1908 35.9467 25.1908 34.8897C25.1908 34.4733 25.2574 34.1327 25.3386 34.1327C25.42 34.1327 25.7335 34.6922 26.0352 35.3757C27.0592 37.6958 29.3938 39.4794 32.0227 39.9499C35.4342 40.5606 39.1914 38.656 40.6727 35.5652C41.7856 33.243 41.7571 30.8904 40.5873 28.5451C39.6787 26.7236 37.6787 25.0266 35.7949 24.4786C35.5198 24.3986 35.462 24.1585 35.462 23.0946C35.462 21.4344 35.1071 21.0465 33.4295 20.8734C32.3506 20.7621 32.2553 20.7127 31.9666 20.1153C31.5496 19.2523 31.5692 19.1173 32.2254 18.3316C32.9092 17.5126 33.2096 16.7921 33.053 16.3458C32.9893 16.1641 32.2876 15.3609 31.4937 14.5606C29.7516 12.8048 29.2577 12.6941 27.9365 13.7627C27.0339 14.4926 26.9196 14.518 26.0061 14.1921C25.3434 13.9555 25.2987 13.8631 25.0952 12.3129C24.9101 10.9019 24.4584 10.665 21.9528 10.665C20.2565 10.665 19.834 10.7233 19.4787 11.0074ZM20.332 13.2021C20.1728 14.4598 19.7064 15.0902 18.584 15.5652C17.3186 16.1006 16.6137 16.0297 15.5983 15.2646C15.1186 14.9032 14.6599 14.6075 14.5786 14.6075C14.4976 14.6075 13.9685 15.0699 13.4032 15.635L12.3751 16.6626L12.9826 17.4086C13.9414 18.5865 14.0238 18.9676 13.5856 20.1985C13.0503 21.7019 12.5495 22.1358 11.1833 22.2807L10.0694 22.3988L10.0144 23.9351L9.95927 25.4714L10.8704 25.5914C12.4491 25.7996 12.8381 26.0363 13.3145 27.0788C14.0411 28.6688 13.9998 29.3299 13.1083 30.3829L12.4382 31.1746L13.3387 32.1374C13.834 32.6668 14.3416 33.1634 14.4668 33.2405C14.6016 33.3237 15.019 33.1133 15.4907 32.7243C16.5534 31.8481 17.1673 31.8 18.7451 32.47C19.8266 32.9293 20.1378 33.3922 20.3362 34.8367L20.4714 35.8224H22.0439H23.6163L23.723 34.649C23.8183 33.5999 23.9007 33.4146 24.501 32.9004C25.0876 32.3978 25.1981 32.161 25.3767 31.0229C25.6745 29.1256 26.4846 27.6274 27.9382 26.2853C29.3666 24.9664 30.7264 24.3746 32.6658 24.2282L33.959 24.1306L33.9021 23.2647L33.8453 22.3988L32.8942 22.2978C31.5481 22.1549 31.1158 21.8523 30.5942 20.6879C29.9685 19.2915 30.0067 18.7465 30.8019 17.718C31.1681 17.2446 31.4677 16.7917 31.4677 16.7116C31.4677 16.6316 31.0009 16.111 30.4303 15.5549L29.3931 14.5437L28.497 15.2327C27.4092 16.0693 26.675 16.1194 25.231 15.4557C24.0987 14.9355 23.6692 14.2392 23.6692 12.9239V12.1669H22.0661H20.4631L20.332 13.2021ZM20.3406 18.6628C17.6035 19.517 16.0276 22.0378 16.474 24.8479C17.388 30.6 25.5283 31.1818 27.3971 25.6285C28.0038 23.8251 27.515 21.7183 26.1276 20.1587C24.8428 18.7142 22.2902 18.0543 20.3406 18.6628ZM20.5159 20.1305C18.876 20.8355 17.6311 22.7835 17.8435 24.3127C18.2127 26.9718 20.6187 28.5904 23.1309 27.8694C25.3729 27.226 26.66 24.8273 25.9254 22.6615C25.2076 20.5452 22.4992 19.2782 20.5159 20.1305ZM0.233426 20.6622C0.0622404 20.9585 -0.00737514 21.9535 0.000613545 23.9946C0.0103141 26.4854 0.0841142 27.1917 0.513221 28.8969C1.54395 32.9927 3.46827 36.3676 6.44615 39.3022C10.104 42.9068 14.7603 45.0628 20.029 45.5919C21.1174 45.7012 22.617 45.7342 23.3614 45.6655L24.7153 45.5403L23.9859 46.291C23.1387 47.1627 23.0759 47.8887 23.8387 47.9952C24.1949 48.0449 24.6375 47.7205 25.8834 46.4974C26.7578 45.6386 27.4733 44.8606 27.4733 44.7683C27.4733 44.6759 26.7734 43.8926 25.918 43.0275C24.2263 41.3168 23.5903 41.0457 23.3631 41.9384C23.2639 42.3289 23.3732 42.5567 23.9302 43.1197C24.3098 43.5035 24.6202 43.8662 24.6202 43.9259C24.6202 44.185 21.8215 44.2723 19.9295 44.0721C16.3462 43.6929 13.5192 42.6939 10.5951 40.7735C4.52582 36.7874 1.01023 29.7703 1.49868 22.6175C1.63183 20.6682 1.51105 20.2398 0.827823 20.2398C0.634953 20.2398 0.367522 20.4298 0.233426 20.6622ZM32.3942 25.6875C29.4966 26.1707 27.1602 28.5598 26.7996 31.408C26.4177 34.4252 28.6555 37.5663 31.7454 38.3507C33.162 38.7104 33.5795 38.7102 34.9941 38.3494C36.6215 37.9341 37.9975 36.9683 38.8787 35.6228C41.4666 31.6705 39.1743 26.5684 34.4208 25.701C33.8044 25.5886 33.2942 25.5065 33.2872 25.5187C33.2803 25.5307 32.8784 25.6068 32.3942 25.6875ZM32.8372 27.9748C32.4921 28.3153 32.525 32.3283 32.875 32.615C33.0466 32.7554 33.7669 32.8138 34.8996 32.7789C36.3288 32.7348 36.6972 32.663 36.8675 32.3961C37.2749 31.7568 36.7935 31.4164 35.3947 31.3549L34.1306 31.2995V29.8214C34.1306 29.0085 34.0786 28.2098 34.0151 28.0465C33.8791 27.6965 33.1632 27.653 32.8372 27.9748Z" fill="white"/>
</svg>
