<svg width="38" height="35" viewBox="0 0 38 35" fill="none" xmlns="http://www.w3.org/2000/svg">
<path fill-rule="evenodd" clip-rule="evenodd" d="M16.4284 0.134459C14.302 0.447883 12.3794 1.05234 10.5783 1.97352C2.59221 6.0585 -1.53115 15.0479 0.523799 23.8935C1.21954 26.8887 2.84827 30.0487 4.76643 32.1252L5.56751 32.9924L7.64998 30.8024L9.73245 28.6123L9.30087 28.1541L8.86941 27.6957L7.42454 29.1676L5.97955 30.6396L5.38556 29.8084C5.05884 29.3513 4.67575 28.8052 4.53408 28.595C4.08177 27.9234 3.11149 25.846 2.78274 24.8452C2.13001 22.8587 1.76075 19.9214 1.94401 18.1742L2.02956 17.3577H3.86705H5.70442V16.7494V16.141H3.96142H2.21842L2.29885 15.6239C2.42611 14.8059 3.14366 12.7261 3.66103 11.6751C4.28862 10.4006 5.40796 8.70885 6.2206 7.80654L6.87798 7.07652L8.13589 8.34968L9.39381 9.62285L9.81312 9.20795C10.0437 8.97969 10.2323 8.75777 10.2323 8.71457C10.2323 8.6715 9.68658 8.08298 9.01967 7.40661L7.80703 6.177L8.09622 5.92551C8.6995 5.40074 10.553 4.17771 11.4175 3.73397C13.1895 2.82448 15.4593 2.17135 17.5306 1.97498L18.3348 1.89869V4.03134V6.16398H18.9902H19.6456V4.02282V1.88165L20.3903 1.96135C22.7997 2.21953 24.9695 2.87729 26.9439 3.94824C28.2761 4.67084 30.0099 5.89035 30.0113 6.10558C30.0117 6.17384 29.5032 6.74703 28.8814 7.37936L27.7507 8.52903L28.1924 8.99089L28.634 9.45275L29.8405 8.22509L31.0469 6.99743L31.7932 7.82784C32.7222 8.86167 33.9257 10.6925 34.4765 11.9099C35.0031 13.0736 35.5915 14.8563 35.6892 15.5841L35.7639 16.141H34.0199H32.276V16.7494V17.3577H34.1175H35.9589L36.0398 17.7982C36.1691 18.5018 36.014 21.5874 35.7958 22.6504C35.2226 25.4442 33.86 28.4036 32.2946 30.2548L31.9345 30.6807L30.5588 29.2861L29.1832 27.8916L28.8621 28.1363C28.1835 28.6538 28.1961 28.6988 29.358 29.8975C29.9471 30.5052 30.9051 31.4489 31.4869 31.9945L32.5447 32.9863L33.0701 32.381C34.7673 30.4259 36.3688 27.6407 37.0914 25.388C37.8717 22.9547 38.1956 19.4776 37.8807 16.9143C36.8705 8.69377 30.6745 1.93933 22.656 0.317087C21.0099 -0.0159265 18.0396 -0.103043 16.4284 0.134459ZM28.9396 13.3581C25.4348 14.0827 22.4066 14.7464 21.2423 15.0454C20.2006 15.3129 19.8084 15.3639 19.3954 15.2857C17.6651 14.9576 15.9517 16.3971 15.9517 18.1787C15.9517 19.1898 16.1725 19.7797 16.7868 20.4096C17.6505 21.2955 18.7953 21.5825 19.8905 21.1879C20.57 20.9432 21.1361 20.4895 21.4512 19.9371C21.6271 19.6287 22.1056 19.2188 22.9706 18.6354C24.1334 17.851 29.7259 13.6567 30.1269 13.2682C30.3355 13.0661 30.362 13.0642 28.9396 13.3581ZM11.543 33.4183V35H19.1094H26.6757V33.4183V31.8366H19.1094H11.543V33.4183Z" fill="white"/>
</svg>
