<svg width="1656" height="276" viewBox="0 0 1656 276" fill="none" xmlns="http://www.w3.org/2000/svg">
<path fill-rule="evenodd" clip-rule="evenodd" d="M1377.83 0.993104C1370.06 4.34988 1363.87 10.0627 1360.51 16.963C1349.69 39.2212 1365.01 62.7363 1390.39 62.8195C1401.96 62.8574 1410.59 59.4161 1417.99 51.8204C1425.01 44.616 1426.65 40.6724 1426.79 30.6677C1426.95 18.9569 1420.34 8.65563 1408.94 2.84438C1403.84 0.24856 1382.5 -1.02222 1377.83 0.993104ZM243.847 146.942V273.944L250.431 273.148C254.052 272.71 267.623 272.346 280.588 272.341L304.161 272.33L303.287 259.56L302.413 246.792L308.444 253.28C324.786 270.861 346.665 278.313 371.777 274.853C405.006 270.274 428.595 250.512 440.713 217.099C447.434 198.569 448.585 171.643 443.693 147.398C435.588 107.224 401.682 79.2147 361.221 79.2677C341.69 79.293 327.159 84.9478 312.197 98.3458L303.418 106.208L303.089 63.0745L302.759 19.9412H273.303H243.847V146.942ZM1261.78 20.7829C1261.32 21.2448 1260.95 40.5563 1260.95 63.6979V105.771L1252.2 98.3774C1236.62 85.2127 1220.71 79.2526 1201.15 79.2526C1187.39 79.2526 1178.17 81.5228 1164.42 88.2944C1145.02 97.8549 1130.23 116.109 1121.65 141.088C1119.24 148.106 1118.75 152.676 1118.26 172.726C1117.75 193.541 1117.98 197.352 1120.32 206.799C1127.03 233.869 1144.01 256.474 1165.63 267.125C1196.22 282.188 1228.66 277.902 1252.85 255.6L1261.1 247.987L1260.85 260.474L1260.6 272.961L1290.87 273.299L1321.15 273.637V146.789V19.9412H1291.88C1275.79 19.9412 1262.24 20.3198 1261.78 20.7829ZM63.8792 81.0458C34.5789 87.8818 13.7917 109.233 3.5191 143.043C0.342379 153.498 0.0815082 156.027 0.00375205 177.053C-0.0928161 203.223 1.62535 211.67 10.9084 230.686C17.6996 244.595 32.0343 259.54 45.0672 266.3C74.8867 281.766 108.756 278.105 133.484 256.743L141.635 249.701L141.997 261.015L142.357 272.33L165.825 272.341C178.731 272.346 192.256 272.71 195.877 273.148L202.461 273.944V177.86V81.7765H181.957C170.68 81.7765 157.135 82.1437 151.858 82.593L142.262 83.4082V90.0069C142.262 93.635 141.908 98.3912 141.472 100.577L140.684 104.548L134.261 98.4442C120.88 85.7226 107.383 80.5221 85.8265 79.7839C76.2926 79.457 68.8531 79.8848 63.8792 81.0458ZM653.651 80.4729C639.669 83.0372 628.98 88.3727 617.578 98.4796L611.935 103.483L611.57 92.4374L611.205 81.3916L582.258 82.1159C566.338 82.5147 552.958 83.311 552.524 83.8864C552.092 84.4606 551.907 127.379 552.117 179.262L552.497 273.592H581.902H611.308L611.319 215.227L611.332 156.862L615.031 150.371C622.028 138.096 632.747 132.247 648.219 132.262C663.522 132.276 673.242 137.92 679.646 150.515C679.646 150.515 682.114 154.962 683.42 157.941C692.495 178.63 683.842 215.789 683.842 215.789L684.264 273.637L713.941 273.299L743.619 272.961L744.246 214.281L744.873 155.6L748.623 148.787C751.274 143.971 754.368 140.641 759.179 137.429C765.92 132.928 766.109 132.885 779.257 132.892C790.467 132.897 793.31 133.322 797.546 135.624C804.247 139.266 811.676 147.167 813.429 152.517C814.358 155.354 815.114 177.005 815.606 214.912L816.358 272.961L846.336 273.299L876.312 273.639L875.402 208.309C874.901 172.379 873.972 140.141 873.337 136.671C872.703 133.201 869.857 125.601 867.015 119.782C857.004 99.2872 840.107 86.8217 815.38 81.6869C800.629 78.6241 793.449 78.6431 781.13 81.7752C764.53 85.9977 753.816 92.0664 742.229 103.81L732.059 114.116L729.172 109.876C721.308 98.3269 703.513 86.476 687.982 82.4441C678.325 79.9366 661.763 78.9851 653.651 80.4729ZM982.319 80.5435C959.849 84.3597 935.922 97.6946 924.884 112.555C918.63 120.975 912.004 134.444 908.339 146.19C905.73 154.545 905.407 158.004 905.444 177.053C905.492 201.076 906.877 208.602 914.034 223.745C933.69 265.331 980.393 284.495 1030.88 271.692C1050.34 266.759 1070.63 252.038 1082.28 234.402C1087.37 226.703 1092.89 214.269 1092.89 210.526C1092.89 209.677 1081.96 209.233 1061.03 209.233H1029.17L1025.94 214.79C1017.74 228.864 990.438 231.13 976.581 218.888C972.218 215.034 963.719 199.393 963.719 195.219C963.719 194.066 964.989 192.78 966.541 192.361C968.092 191.943 998.287 191.592 1033.64 191.583L1097.91 191.566L1097.87 183.048C1097.7 147.983 1091.24 128.158 1073.71 108.834C1060.46 94.223 1043.94 85.2809 1022.73 81.2326C1011.91 79.168 992.381 78.8349 982.319 80.5435ZM1519.93 80.5423C1492.1 86.163 1467.74 109.501 1458.04 139.826C1448.55 169.512 1452.34 210.608 1466.85 235.525C1469.14 239.458 1475.03 246.73 1479.94 251.687C1486.97 258.773 1491.39 261.937 1500.64 266.48C1519.18 275.59 1534.69 277.893 1552.52 274.185C1567.76 271.019 1578.92 265.079 1591 253.71L1597.25 247.829L1596.35 260.079L1595.46 272.33H1619.91C1633.36 272.33 1646.98 272.691 1650.18 273.133L1656 273.935V177.856V81.7765H1625.31H1594.61L1595.15 85.2468C1595.44 87.1549 1596.02 92.6405 1596.43 97.4359C1597.27 107.355 1598.03 107.378 1586.44 97.1343C1578.71 90.2997 1565.68 83.5987 1555.36 81.1506C1547.04 79.1756 1528.28 78.8538 1519.93 80.5423ZM1361.28 177.515V273.592H1392.21H1423.13L1422.39 178.817C1421.98 126.693 1421.32 83.7224 1420.93 83.3299C1420.54 82.9375 1406.96 82.3507 1390.75 82.0263L1361.28 81.437V177.515ZM990.082 128.518C982.903 130.026 975.469 135.453 970.346 142.927C966.596 148.397 963.842 156.775 965.309 158.252C966.661 159.612 1032.74 157.11 1034.76 155.62C1036.54 154.311 1036.58 153.581 1035.05 149.327C1032.81 143.083 1024.87 134.055 1018.93 131.009C1013.35 128.142 998.127 126.827 990.082 128.518ZM89.5889 133.02C76.8156 136.467 68.374 144.639 63.1932 158.571C54.0518 183.156 63.197 209.801 84.3504 220.214C98.8319 227.343 116.668 223.696 129.253 211.032C139.113 201.111 140.381 197.239 140.381 177.053C140.381 159.896 140.278 159.213 136.825 153.411C131.225 144.004 122.035 136.48 112.537 133.529C103.012 130.57 98.9999 130.48 89.5889 133.02ZM332.053 133.328C312.3 140.197 300.963 161.342 304.212 185.256C307.33 208.201 323.656 223.609 344.901 223.656C352.409 223.672 355.057 223.041 362.075 219.564C371.49 214.9 376.108 209.783 381.777 197.724C385.18 190.484 385.563 188.435 385.563 177.383C385.565 153.238 375.304 138.184 355.169 132.791C346.413 130.445 339.91 130.596 332.053 133.328ZM1205.15 133.747C1195.28 137.301 1184.58 147.764 1181.49 156.862C1178.58 165.469 1177.61 179.296 1179.29 188.329C1182.12 203.534 1189.52 213.551 1202.76 220.093C1208.86 223.104 1211.7 223.733 1218.93 223.671C1249.3 223.415 1268.12 191.272 1256.99 158.659C1249.8 137.6 1226.08 126.202 1205.15 133.747ZM1543.25 132.818C1535.19 135.458 1524.92 143.048 1520.66 149.519C1516.65 155.61 1513.03 169.143 1513.03 178.02C1513.03 181.054 1513.94 186.62 1515.05 190.389C1521.54 212.385 1534.68 223.114 1555.14 223.114C1566.74 223.114 1575.28 219.498 1582.95 211.334C1593.42 200.197 1593.92 198.667 1593.92 177.684C1593.92 156.788 1592.92 153.651 1583.05 143.666C1572.72 133.217 1555.97 128.651 1543.25 132.818Z" fill="url(#paint0_linear_1_776)" fill-opacity="0.8"/>
<defs>
<linearGradient id="paint0_linear_1_776" x1="828" y1="289.5" x2="828" y2="138" gradientUnits="userSpaceOnUse">
<stop/>
<stop offset="0.490385" stop-color="#474747"/>
<stop offset="0.735577" stop-color="#878D7C"/>
</linearGradient>
</defs>
</svg>
