<svg width="353" height="58" viewBox="0 0 353 58" fill="none" xmlns="http://www.w3.org/2000/svg">
<path fill-rule="evenodd" clip-rule="evenodd" d="M293.705 0.208696C292.048 0.914104 290.727 2.11462 290.012 3.56469C287.705 8.24213 290.971 13.1837 296.381 13.2012C298.847 13.2092 300.687 12.486 302.265 10.8898C303.76 9.37582 304.11 8.5471 304.14 6.44467C304.175 3.98369 302.766 1.81894 300.335 0.597732C299.249 0.0522337 294.699 -0.214815 293.705 0.208696ZM51.9795 30.8791V57.568L53.383 57.4006C54.1548 57.3086 57.0477 57.2322 59.8114 57.2312L64.8362 57.2288L64.6499 54.5453L64.4636 51.8621L65.7492 53.2255C69.2328 56.9201 73.8965 58.4861 79.2497 57.7589C86.3327 56.7968 91.3611 52.6439 93.9443 45.6222C95.377 41.7284 95.6224 36.07 94.5795 30.9749C92.8517 22.5325 85.6243 16.6466 76.9995 16.6577C72.836 16.663 69.7386 17.8513 66.5493 20.6669L64.678 22.319L64.6077 13.2548L64.5373 4.19054H58.2584H51.9795V30.8791ZM268.967 4.36743C268.869 4.46449 268.789 8.52271 268.789 13.3858V22.2273L266.924 20.6735C263.602 17.907 260.211 16.6545 256.041 16.6545C253.109 16.6545 251.143 17.1316 248.213 18.5546C244.077 20.5637 240.925 24.3997 239.096 29.6489C238.582 31.1236 238.477 32.0841 238.373 36.2975C238.264 40.6716 238.313 41.4725 238.812 43.4577C240.243 49.1463 243.862 53.8967 248.472 56.1349C254.991 59.3005 261.906 58.3996 267.062 53.7131L268.822 52.1132L268.769 54.7373L268.715 57.3614L275.168 57.4325L281.621 57.5035V30.847V4.19054H275.384C271.953 4.19054 269.065 4.2701 268.967 4.36743ZM13.6168 17.0314C7.37099 18.4679 2.9399 22.9547 0.750145 30.0597C0.0729829 32.2568 0.0173746 32.7882 0.000799802 37.2068C-0.0197851 42.7064 0.346468 44.4813 2.32529 48.4775C3.77291 51.4004 6.82857 54.5411 9.60672 55.9617C15.9632 59.2116 23.1829 58.4423 28.4539 53.9531L30.1916 52.4734L30.2686 54.8511L30.3453 57.2288L35.348 57.2312C38.0991 57.2322 40.9821 57.3086 41.7539 57.4006L43.1574 57.568V37.3763V17.1849H38.7867C36.3828 17.1849 33.4956 17.2621 32.3707 17.3565L30.3253 17.5278V18.9145C30.3253 19.6769 30.2496 20.6764 30.1568 21.1357L29.9887 21.9703L28.6197 20.6876C25.7672 18.0142 22.8901 16.9213 18.2951 16.7662C16.2629 16.6975 14.677 16.7874 13.6168 17.0314ZM139.335 16.911C136.355 17.4498 134.076 18.5711 131.646 20.695L130.443 21.7465L130.365 19.4252L130.287 17.104L124.117 17.2562C120.723 17.34 117.871 17.5074 117.778 17.6283C117.686 17.749 117.647 26.7681 117.692 37.6709L117.773 57.494H124.041H130.309L130.311 45.2289L130.314 32.9638L131.103 31.5996C132.594 29.0201 134.879 27.791 138.177 27.7942C141.439 27.7971 143.511 28.9833 144.876 31.6299L145.681 33.1905L145.771 45.3469L145.861 57.5035L152.187 57.4325L158.513 57.3614L158.647 45.03L158.78 32.6986L159.58 31.2668C160.145 30.2549 160.804 29.555 161.83 28.8801C163.267 27.9342 163.307 27.9252 166.11 27.9265C168.499 27.9275 169.105 28.0169 170.008 28.5006C171.437 29.266 173.02 30.9263 173.394 32.0507C173.592 32.6469 173.753 37.1968 173.858 45.1626L174.018 57.3614L180.409 57.4325L186.798 57.5038L186.604 43.7751C186.498 36.2246 186.3 29.45 186.164 28.7207C186.029 27.9915 185.422 26.3945 184.817 25.1717C182.683 20.8647 179.081 18.2451 173.81 17.1661C170.665 16.5225 169.135 16.5264 166.509 17.1846C162.97 18.072 160.687 19.3473 158.217 21.8152L156.049 23.981L155.434 23.0899C153.757 20.6629 149.964 18.1725 146.653 17.3252C144.595 16.7983 141.064 16.5983 139.335 16.911ZM209.395 16.9258C204.605 17.7278 199.505 20.53 197.152 23.6529C195.819 25.4223 194.407 28.2527 193.625 30.7211C193.069 32.4769 193 33.2038 193.008 37.2068C193.019 42.255 193.314 43.8366 194.839 47.0189C199.029 55.758 208.985 59.7852 219.748 57.0946C223.895 56.058 228.22 52.9645 230.704 49.2585C231.788 47.6405 232.966 45.0276 232.966 44.241C232.966 44.0626 230.634 43.9692 226.174 43.9692H219.383L218.693 45.1371C216.946 48.0945 211.126 48.5708 208.172 45.9982C207.242 45.1883 205.43 41.9015 205.43 41.0243C205.43 40.7819 205.701 40.5117 206.032 40.4236C206.363 40.3358 212.799 40.2621 220.334 40.2603L234.035 40.2565L234.026 38.4665C233.989 31.0979 232.614 26.9317 228.877 22.8709C226.051 19.8005 222.53 17.9213 218.009 17.0706C215.703 16.6368 211.54 16.5667 209.395 16.9258ZM323.994 16.9256C318.062 18.1067 312.869 23.0112 310.803 29.3837C308.78 35.6221 309.586 44.2583 312.68 49.4945C313.169 50.3208 314.424 51.8491 315.471 52.8908C316.968 54.3798 317.911 55.0447 319.882 55.9994C323.835 57.9138 327.14 58.3978 330.943 57.6186C334.19 56.9533 336.569 55.705 339.144 53.3159L340.476 52.0801L340.285 54.6543L340.095 57.2288H345.307C348.174 57.2288 351.078 57.3046 351.76 57.3974L353 57.5661V37.3755V17.1849H346.457H339.914L340.029 17.9142C340.092 18.3152 340.214 19.4679 340.301 20.4757C340.48 22.5601 340.642 22.5648 338.172 20.4123C336.524 18.976 333.747 17.5678 331.547 17.0534C329.773 16.6384 325.776 16.5707 323.994 16.9256ZM290.176 37.3039V57.494H296.769H303.361L303.202 37.5776C303.115 26.6239 302.975 17.5938 302.892 17.5114C302.808 17.4289 299.913 17.3056 296.458 17.2374L290.176 17.1136V37.3039ZM211.05 27.0073C209.52 27.3242 207.935 28.4648 206.843 30.0353C206.044 31.1849 205.457 32.9455 205.769 33.2558C206.058 33.5416 220.143 33.0158 220.574 32.7028C220.954 32.4276 220.961 32.2743 220.636 31.3803C220.158 30.0682 218.465 28.171 217.2 27.5308C216.009 26.9283 212.765 26.652 211.05 27.0073ZM19.0972 27.9535C16.3743 28.6778 14.5749 30.3951 13.4705 33.3229C11.5219 38.4893 13.4713 44.0886 17.9805 46.2769C21.0674 47.775 24.8695 47.0086 27.5522 44.3474C29.654 42.2625 29.9243 41.4488 29.9243 37.2068C29.9243 33.6013 29.9023 33.4578 29.1661 32.2385C27.9725 30.2618 26.0134 28.6807 23.9889 28.0604C21.9585 27.4385 21.1032 27.4197 19.0972 27.9535ZM70.7818 28.0182C66.5712 29.4617 64.1545 33.9052 64.8472 38.9306C65.5118 43.7523 68.992 46.9903 73.5206 47.0001C75.1209 47.0035 75.6855 46.8709 77.1815 46.1404C79.1884 45.1602 80.1728 44.0848 81.3811 41.5507C82.1067 40.0293 82.1882 39.5986 82.1882 37.2761C82.1888 32.2022 80.0014 29.0387 75.7093 27.9053C73.8428 27.4123 72.4566 27.4441 70.7818 28.0182ZM256.894 28.1063C254.792 28.8531 252.51 31.0518 251.852 32.9638C251.23 34.7724 251.024 37.6781 251.383 39.5763C251.986 42.7716 253.564 44.8767 256.386 46.2515C257.685 46.8842 258.291 47.0163 259.833 47.0033C266.307 46.9494 270.317 40.1948 267.945 33.3414C266.412 28.9159 261.357 26.5207 256.894 28.1063ZM328.965 27.9111C327.247 28.4659 325.059 30.0607 324.151 31.4206C323.297 32.7007 322.524 35.5446 322.524 37.41C322.524 38.0475 322.718 39.2173 322.955 40.0094C324.337 44.6317 327.139 46.8863 331.5 46.8863C333.973 46.8863 335.793 46.1263 337.429 44.4108C339.66 42.0705 339.767 41.7488 339.767 37.3394C339.767 32.9481 339.553 32.2889 337.449 30.1907C335.248 27.9949 331.677 27.0354 328.965 27.9111Z" fill="url(#paint0_linear_81_4397)" fill-opacity="0.8"/>
<defs>
<linearGradient id="paint0_linear_81_4397" x1="176.5" y1="60.837" x2="176.5" y2="29" gradientUnits="userSpaceOnUse">
<stop/>
<stop offset="0.490385" stop-color="#474747"/>
<stop offset="0.735577" stop-color="#878D7C"/>
</linearGradient>
</defs>
</svg>
