<svg width="268" height="210" viewBox="0 0 268 210" fill="none" xmlns="http://www.w3.org/2000/svg">
<path d="M113.311 68.6597C111.77 69.5868 109.976 70.0024 108.185 69.8469C106.394 69.6915 104.698 68.9729 103.34 67.7943C101.983 66.6157 101.033 65.0375 100.628 63.286C100.222 61.5345 100.382 59.6995 101.083 58.0442C101.785 56.3889 102.992 54.9983 104.533 54.0716C106.074 53.1448 107.868 52.7297 109.659 52.8856C111.45 53.0415 113.146 53.7604 114.503 54.9394C115.86 56.1184 116.81 57.6968 117.215 59.4484C117.622 61.1993 117.464 63.0345 116.762 64.6897C116.061 66.3449 114.852 67.7349 113.311 68.6597Z" fill="#635C5C"/>
<path d="M111.522 60.4252C111.515 60.9371 111.357 61.4355 111.067 61.8576C110.778 62.2797 110.37 62.6065 109.894 62.7966C109.419 62.9867 108.898 63.0316 108.397 62.9257C107.896 62.8198 107.438 62.5678 107.08 62.2015C106.723 61.8353 106.482 61.3712 106.388 60.868C106.294 60.3648 106.351 59.845 106.552 59.3743C106.754 58.9037 107.09 58.5033 107.519 58.2238C107.948 57.9442 108.45 57.7981 108.962 57.8039C109.302 57.8077 109.638 57.8786 109.951 58.0124C110.264 58.1463 110.547 58.3405 110.785 58.5839C111.023 58.8274 111.21 59.1153 111.337 59.4313C111.463 59.7472 111.526 60.0849 111.522 60.4252Z" fill="white"/>
<path d="M113.321 67.5916V68.6601C111.966 69.4744 110.411 69.8953 108.83 69.8756C107.249 69.8559 105.705 69.3964 104.371 68.5486L104.386 67.483C104.393 66.8956 104.516 66.3153 104.747 65.7752C104.978 65.2352 105.314 64.746 105.734 64.3357C106.155 63.9253 106.652 63.6018 107.198 63.3836C107.743 63.1653 108.326 63.0567 108.914 63.0638C109.501 63.0709 110.081 63.1937 110.621 63.4251C111.161 63.6565 111.651 63.992 112.061 64.4125C112.471 64.8329 112.795 65.3301 113.013 65.8756C113.231 66.421 113.34 67.0042 113.333 67.5916H113.321Z" fill="white"/>
<path d="M17.6018 43.3244C16.7132 43.8593 15.6931 44.1358 14.656 44.1228C13.6189 44.1098 12.606 43.808 11.731 43.2511C10.7076 42.5997 9.92453 41.6324 9.50041 40.4959C9.07629 39.3594 9.03429 38.1156 9.38077 36.953C9.72725 35.7905 10.4433 34.7726 11.4204 34.0537C12.3975 33.3348 13.5824 32.954 14.7954 32.9692C16.0084 32.9843 17.1834 33.3946 18.1422 34.1377C19.101 34.8808 19.7914 35.9163 20.1087 37.0871C20.4261 38.258 20.353 39.5003 19.9006 40.6259C19.4482 41.7515 18.6411 42.6989 17.6018 43.3244Z" fill="#6B6B6B"/>
<path d="M16.4303 37.9283C16.4268 38.2639 16.3238 38.591 16.1344 38.8681C15.9449 39.1452 15.6775 39.3599 15.366 39.485C15.0545 39.6101 14.7129 39.6399 14.3844 39.5708C14.0559 39.5017 13.7553 39.3367 13.5206 39.0967C13.2859 38.8566 13.1277 38.5524 13.066 38.2224C13.0043 37.8925 13.0419 37.5516 13.1739 37.243C13.306 36.9344 13.5266 36.6719 13.8079 36.4887C14.0892 36.3056 14.4186 36.2099 14.7542 36.214C14.9769 36.2163 15.1969 36.2625 15.4017 36.3499C15.6065 36.4373 15.7921 36.5643 15.9478 36.7235C16.1035 36.8828 16.2262 37.0711 16.309 37.2778C16.3918 37.4846 16.433 37.7056 16.4303 37.9283Z" fill="white"/>
<path d="M17.611 42.6217V43.3232C16.7224 43.8581 15.7023 44.1346 14.6652 44.1216C13.6281 44.1086 12.6152 43.8068 11.7402 43.2499V42.5542C11.7492 41.7757 12.067 41.0326 12.6239 40.4884C13.1807 39.9443 13.9309 39.6436 14.7094 39.6525C15.4879 39.6615 16.231 39.9793 16.7751 40.5362C17.3193 41.093 17.62 41.8432 17.611 42.6217Z" fill="white"/>
<path d="M42.5117 44.1256H5.33789V18.6934H42.5117V44.1256ZM5.63143 43.8321H42.2182V18.9869H5.63143V43.8321Z" fill="#6B6B6B"/>
<path d="M8.24311 20.3325C8.24311 20.4788 8.19973 20.6218 8.11844 20.7435C8.03716 20.8651 7.92164 20.9599 7.78647 21.0159C7.6513 21.0719 7.50257 21.0865 7.35908 21.058C7.21559 21.0295 7.08378 20.959 6.98033 20.8556C6.87688 20.7521 6.80643 20.6203 6.77789 20.4768C6.74934 20.3333 6.76399 20.1846 6.81998 20.0494C6.87597 19.9142 6.97078 19.7987 7.09243 19.7174C7.21407 19.6362 7.35709 19.5928 7.50339 19.5928C7.69958 19.5928 7.88773 19.6707 8.02645 19.8094C8.16518 19.9482 8.24311 20.1363 8.24311 20.3325Z" fill="#A6A6A6"/>
<path d="M11.2626 20.3325C11.2626 20.4788 11.2193 20.6218 11.138 20.7435C11.0567 20.8651 10.9412 20.9599 10.806 21.0159C10.6708 21.0719 10.5221 21.0865 10.3786 21.058C10.2351 21.0295 10.1033 20.959 9.99986 20.8556C9.89641 20.7521 9.82596 20.6203 9.79742 20.4768C9.76887 20.3333 9.78352 20.1846 9.83951 20.0494C9.8955 19.9142 9.99031 19.7987 10.112 19.7174C10.2336 19.6362 10.3766 19.5928 10.5229 19.5928C10.7191 19.5928 10.9073 19.6707 11.046 19.8094C11.1847 19.9482 11.2626 20.1363 11.2626 20.3325Z" fill="#6B6B6B"/>
<path d="M14.2841 20.3325C14.2841 20.4788 14.2407 20.6218 14.1595 20.7435C14.0782 20.8651 13.9626 20.9599 13.8275 21.0159C13.6923 21.0719 13.5436 21.0865 13.4001 21.058C13.2566 21.0295 13.1248 20.959 13.0213 20.8556C12.9179 20.7521 12.8474 20.6203 12.8189 20.4768C12.7904 20.3333 12.805 20.1846 12.861 20.0494C12.917 19.9142 13.0118 19.7987 13.1334 19.7174C13.2551 19.6362 13.3981 19.5928 13.5444 19.5928C13.7406 19.5928 13.9287 19.6707 14.0675 19.8094C14.2062 19.9482 14.2841 20.1363 14.2841 20.3325Z" fill="#C6FF00"/>
<path d="M42.3627 21.6338H5.48242V21.9273H42.3627V21.6338Z" fill="#6B6B6B"/>
<path d="M28.1818 50.7987L8.81445 53.4414L10.4904 65.7238L29.8577 63.0811L28.1818 50.7987Z" fill="#6B6B6B"/>
<path d="M28.1783 50.8037C27.4972 51.6579 26.7986 52.4828 26.1235 53.3252C25.4483 54.1677 24.7262 54.9837 24.0247 55.8056C23.3231 56.6275 22.557 57.514 21.8173 58.3594L21.7497 58.4416C21.0981 59.1872 20.4425 59.9338 19.783 60.6813L19.6862 60.787L19.5658 60.7107C18.7322 60.1676 17.9044 59.6246 17.0737 59.0756L16.9856 59.0199C16.0463 58.4005 15.1069 57.7782 14.1706 57.1442C13.2342 56.5101 12.38 55.9348 11.4876 55.3213C10.5952 54.7078 9.70582 54.0855 8.82227 53.4426C9.74104 53.971 10.651 54.5317 11.561 55.0776C12.471 55.6236 13.3839 56.1931 14.2938 56.7626C15.3036 57.3907 16.3134 58.0297 17.3232 58.6794C18.0805 59.1608 18.8368 59.65 19.5922 60.1471C20.1793 59.4749 20.7869 58.8027 21.3887 58.1393C22.19 57.2586 22.9885 56.3604 23.7957 55.4798C24.5178 54.697 25.2438 53.9142 25.9738 53.1315C26.7076 52.3419 27.4327 51.5581 28.1783 50.8037Z" fill="white"/>
<path d="M17.3806 58.9551L17.3601 58.9786C17.272 59.0784 17.181 59.1811 17.09 59.2721C16.6614 59.7476 16.2094 60.2085 15.7632 60.6605C15.2114 61.2153 14.6419 61.7525 14.0666 62.2868C13.4912 62.821 12.91 63.3347 12.3053 63.8425C11.7006 64.3503 11.1018 64.8523 10.4707 65.3102C10.9873 64.7231 11.5333 64.1537 12.0852 63.6018C12.637 63.05 13.2094 62.5069 13.7818 61.9756C14.3542 61.4443 14.956 60.9218 15.5431 60.414C16.0186 60.0089 16.5029 59.6067 17.0108 59.2251C17.1252 59.1341 17.2427 59.049 17.3601 58.961L17.3806 58.9551Z" fill="white"/>
<path d="M29.7555 62.6968C29.0216 62.4033 28.2878 62.0951 27.595 61.7663C26.9023 61.4375 26.1831 61.0853 25.4845 60.733C24.7858 60.3808 24.096 60.008 23.4297 59.6205C22.8749 59.3094 22.3231 58.9865 21.7859 58.643L21.4395 58.4229L21.416 58.4053H21.4454L21.8534 58.5667C22.4405 58.8016 23.007 59.0599 23.5765 59.3241C24.2898 59.6528 24.9884 60.0021 25.6841 60.3573C26.3798 60.7125 27.0725 61.0824 27.7535 61.4698C28.4345 61.8573 29.095 62.2624 29.7555 62.6968Z" fill="white"/>
<path d="M112.828 18.2705H88.8574V33.4729H112.828V18.2705Z" fill="#6B6B6B"/>
<path d="M112.828 18.2705C111.859 19.1952 110.873 20.0816 109.892 20.9946C108.912 21.9075 107.923 22.7763 106.934 23.6599C105.944 24.5434 104.864 25.4916 103.825 26.3957L103.734 26.4837C102.816 27.2841 101.895 28.0835 100.972 28.882L100.834 28.9935L100.702 28.882C99.78 28.0835 98.8613 27.2831 97.9454 26.4808L97.8486 26.3957C96.8055 25.4916 95.7683 24.5777 94.737 23.654C93.7507 22.7734 92.7645 21.8928 91.7811 20.9946C90.7977 20.0963 89.8203 19.1952 88.8457 18.2705C89.876 19.0631 90.9005 19.8967 91.9044 20.7098C92.9083 21.5229 93.9357 22.3654 94.9425 23.2078C96.0678 24.1374 97.1901 25.0816 98.3094 26.0405C99.1489 26.7509 99.9885 27.4651 100.828 28.1833C101.662 27.4671 102.501 26.7479 103.341 26.0405C104.46 25.0894 105.582 24.1452 106.708 23.2078C107.713 22.3703 108.725 21.5396 109.743 20.7157C110.788 19.8967 111.798 19.0631 112.828 18.2705Z" fill="white"/>
<path d="M98.3562 26.3867C98.347 26.3953 98.3372 26.4031 98.3269 26.4102C98.2007 26.5188 98.0774 26.6274 97.9512 26.7302C97.3494 27.238 96.733 27.7253 96.1077 28.1979C95.3445 28.7849 94.5637 29.3397 93.777 29.8945C92.9903 30.4493 92.1978 30.9777 91.3876 31.4972C90.5774 32.0168 89.7614 32.5217 88.916 32.9855C89.6411 32.3485 90.3837 31.7556 91.1616 31.1773C91.9395 30.599 92.7085 30.0354 93.4894 29.4806C94.2702 28.9258 95.0745 28.3945 95.8846 27.875C96.5275 27.4611 97.1821 27.0531 97.8543 26.6715C98.0069 26.5834 98.1625 26.4953 98.321 26.4102L98.3562 26.3867Z" fill="white"/>
<path d="M112.773 32.9826C111.925 32.5188 111.106 32.0109 110.299 31.4943C109.491 30.9777 108.696 30.4346 107.903 29.8916C107.111 29.3485 106.339 28.7791 105.576 28.1949C104.953 27.7253 104.337 27.2409 103.741 26.7272C103.609 26.6186 103.486 26.51 103.359 26.4014C103.349 26.3943 103.339 26.3865 103.33 26.3779L103.365 26.3955L103.832 26.6597C104.504 27.0413 105.156 27.4493 105.802 27.8632C106.612 28.3828 107.404 28.9229 108.194 29.4689C108.984 30.0149 109.759 30.5814 110.522 31.1656C111.285 31.7497 112.045 32.3456 112.773 32.9826Z" fill="white"/>
<path d="M57.3756 133.231C80.5892 133.231 99.4075 131.774 99.4075 129.976C99.4075 128.178 80.5892 126.721 57.3756 126.721C34.1621 126.721 15.3438 128.178 15.3438 129.976C15.3438 131.774 34.1621 133.231 57.3756 133.231Z" fill="#6B6B6B"/>
<path d="M71.6021 0H71.3086V40.3793H71.6021V0Z" fill="#C7C7C7"/>
<path d="M59.4746 51.9306L60.4404 54.05H82.4793L83.4392 51.9306L74.0576 45.4346H68.8591L59.4746 51.9306Z" fill="#C6FF00"/>
<path d="M68.2051 39.1797L68.8567 45.435H74.0553L74.707 39.1797H68.2051Z" fill="#C6FF00"/>
<path opacity="0.1" d="M59.4766 51.9297L60.4394 54.049H82.4812L83.4411 51.9297H59.4766Z" fill="black"/>
<path opacity="0.1" d="M68.8576 45.4337L68.7871 44.7615L74.1648 44.374L74.0561 45.4337H68.8576Z" fill="black"/>
<path d="M51.6041 0H51.3105V27.6719H51.6041V0Z" fill="#C7C7C7"/>
<path d="M39.4746 39.2226L40.4404 41.3419H62.4793L63.4392 39.2226L54.0576 32.7295H48.8591L39.4746 39.2226Z" fill="#C6FF00"/>
<path d="M48.207 26.4717L48.8587 32.7299H54.0573L54.7089 26.4717H48.207Z" fill="#C6FF00"/>
<path opacity="0.1" d="M39.4785 39.2266L40.4413 41.343H62.4803L63.4431 39.2266H39.4785Z" fill="black"/>
<path opacity="0.1" d="M48.8595 32.7306L48.7832 32.0056L54.1696 31.6562L54.0581 32.7306H48.8595Z" fill="black"/>
<path d="M101.76 92.0847C101.848 90.6022 102.058 89.1295 102.389 87.6816C102.7 86.3753 103.14 85.0397 103.965 83.9566C104.328 83.4476 104.788 83.0154 105.318 82.6849C105.848 82.3544 106.439 82.1322 107.056 82.031C108.268 81.8842 109.404 82.4243 110.311 83.1846C111.433 84.1298 112.293 85.3832 113.1 86.5955C113.984 87.9524 114.787 89.3599 115.507 90.8107C115.533 90.8577 115.46 90.8988 115.436 90.8518C114.811 89.6232 114.091 88.4455 113.282 87.3293C112.544 86.258 111.714 85.2532 110.801 84.3264C109.971 83.5163 108.914 82.756 107.708 82.7178C106.501 82.6797 105.403 83.3519 104.684 84.2765C103.877 85.3098 103.466 86.5984 103.158 87.8548C102.846 89.2319 102.644 90.6316 102.553 92.0406C102.315 94.9496 102.259 97.8762 102.186 100.791C102.148 102.441 102.127 104.093 102.11 105.743L102.092 108.253C102.122 109.06 102.089 109.869 101.995 110.672C101.966 110.833 101.702 110.818 101.672 110.672C101.575 109.912 101.538 109.145 101.564 108.379C101.552 107.586 101.542 106.794 101.534 106.001C101.519 104.461 101.513 102.92 101.517 101.378C101.511 98.2754 101.549 95.1727 101.76 92.0847Z" fill="#263238"/>
<path d="M105.919 89.8923C106.071 89.0704 106.35 87.999 106.817 87.362C107.659 86.2172 108.578 86.7133 107.73 87.9814C107.11 88.923 106.709 89.9911 106.556 91.1076C106.556 91.1076 107.97 93.1301 109.679 94.1252C109.605 93.3473 109.385 92.1526 109.538 90.999C109.867 88.5009 111.378 88.6507 111.006 90.6262C110.712 92.2172 110.583 93.9079 110.665 94.6388C111.236 95.0089 111.849 95.3095 112.491 95.5341C112.391 95.2406 112.288 94.8972 112.174 94.4745C111.566 92.2348 113.054 91.5391 113.107 92.7984C113.206 93.8727 113.403 94.9357 113.694 95.9745C114.513 96.2504 115.194 96.4382 115.608 96.5821C116.684 96.9808 117.646 97.6381 118.409 98.496C119.186 97.7932 119.833 96.9572 120.317 96.0273C119.794 95.5782 118.969 94.9118 117.824 94.1017C115.679 92.587 116.424 90.6731 118.118 91.862C119.345 92.722 120.296 94.313 120.731 95.1291C121.309 93.706 121.638 92.1935 121.702 90.6585C120.017 89.0763 115.846 86.8689 117.102 86.8689C118.235 86.8689 120.766 88.5274 121.693 89.1673C121.671 88.7325 121.624 88.2993 121.552 87.8698C119.964 86.8278 114.801 85.2104 115.626 84.7436C116.527 84.2329 120.129 85.9002 121.218 86.4256C121.013 85.7182 120.691 85.0503 120.264 84.4501C118.068 81.5147 114.099 80.502 112.385 81.0597C111.164 81.456 111.505 84.5558 111.258 84.4501C106.344 82.4863 104.113 83.8718 105.919 89.8923ZM117.954 89.5518C118.303 89.1321 119.912 90.3708 119.448 91.0459C118.984 91.7211 117.499 90.0919 117.948 89.5518H117.954ZM109.538 86.91C109.961 87.18 109.335 88.7446 108.681 88.272C108.132 87.8669 109.106 86.637 109.532 86.91H109.538Z" fill="#C6FF00"/>
<path d="M110.186 87.3873C110.407 86.9499 110.638 86.5067 110.891 86.0928C111.123 85.6766 111.394 85.2835 111.701 84.9186C111.634 84.8335 111.566 84.7455 111.493 84.6603C111.463 84.6251 111.513 84.5781 111.543 84.6104C111.625 84.7044 111.704 84.8012 111.783 84.904C111.792 84.9082 111.799 84.9139 111.805 84.921C111.811 84.928 111.816 84.9362 111.818 84.9451C112.122 85.3091 112.408 85.6818 112.679 86.0634C113.161 86.1746 113.638 86.3128 114.105 86.4773C114.587 86.6388 115.065 86.8061 115.532 87.0028C115.582 87.0233 115.555 87.1055 115.508 87.082C115.044 86.8795 114.575 86.6799 114.093 86.5184C113.612 86.357 113.178 86.2454 112.717 86.1163C112.866 86.3276 113.01 86.539 113.154 86.7562C114.021 87.0305 114.864 87.374 115.676 87.7836C116.527 88.1887 117.346 88.6642 118.162 89.1309C118.209 89.1574 118.162 89.2307 118.118 89.2014C117.316 88.7325 116.49 88.3053 115.643 87.9215C114.854 87.5517 114.038 87.2493 113.242 86.8971C115.247 90.0233 116.448 93.6338 118.056 96.9743C118.08 97.0242 118.003 97.0624 117.983 97.0154C117.493 95.8412 116.926 94.7023 116.392 93.5487C115.913 92.5125 115.444 91.4734 114.965 90.4372C114.824 90.1436 114.672 89.8325 114.531 89.5331C114.619 91.2033 114.584 92.9029 114.86 94.5526C114.86 94.558 114.858 94.5633 114.856 94.5683C114.854 94.5733 114.851 94.5778 114.848 94.5817C114.844 94.5855 114.839 94.5885 114.834 94.5906C114.829 94.5926 114.824 94.5937 114.818 94.5937C114.813 94.5937 114.808 94.5926 114.803 94.5906C114.798 94.5885 114.793 94.5855 114.789 94.5817C114.786 94.5778 114.783 94.5733 114.78 94.5683C114.778 94.5633 114.777 94.558 114.777 94.5526C114.66 92.7679 114.346 91.0096 114.358 89.2161C114.358 89.2161 114.358 89.2014 114.358 89.1926C114.017 88.5086 113.653 87.8364 113.263 87.1818C112.599 88.7435 111.901 90.3315 111.592 92.0106C111.592 92.0605 111.499 92.0399 111.51 91.9871C111.962 90.3051 112.391 88.6202 113.192 87.0644C112.767 86.356 112.295 85.6764 111.78 85.0302C111.557 85.4441 111.272 85.8374 111.02 86.2337C110.768 86.63 110.53 87.0116 110.301 87.4079C109.807 88.2504 109.388 89.1344 109.047 90.0497C109.027 90.0996 108.948 90.0732 108.968 90.0262C109.35 89.1485 109.737 88.2533 110.186 87.3873Z" fill="#263238"/>
<path d="M94.376 91.1923C95.6617 89.9007 97.1558 88.21 99.1431 88.2129C101.063 88.2129 102.475 89.7598 103.285 91.3538C104.133 93.0211 104.439 94.9085 104.679 96.7431C104.963 98.9414 105.135 101.153 105.196 103.368C105.231 104.598 105.225 105.831 105.196 107.061C105.192 108.308 105.094 109.554 104.902 110.786C104.867 110.983 104.547 110.992 104.535 110.786C104.477 109.75 104.518 108.708 104.535 107.672C104.553 106.635 104.535 105.617 104.488 104.61C104.412 102.555 104.262 100.5 104.019 98.4457C103.807 96.6521 103.64 94.8117 103.103 93.0798C102.622 91.5181 101.714 89.7334 100.132 89.0465C97.9719 88.1131 95.8613 89.8215 94.4494 91.2657C94.4024 91.2921 94.3349 91.2305 94.376 91.1923Z" fill="#263238"/>
<path d="M87.8158 94.0739C87.8158 94.3381 87.8393 94.5964 87.8569 94.8517C88.4755 94.3879 89.1998 94.0852 89.9645 93.9711C91.7903 93.7774 91.6729 95.1629 90.4547 95.2216C89.5962 95.2323 88.7471 95.4025 87.9508 95.7236C88.2444 98.1335 88.9107 100.071 89.0105 100.097C90.6298 100.013 92.2412 99.8172 93.8334 99.5102C93.3784 98.5415 92.3451 97.2558 92.8735 97.1619C93.4019 97.068 93.9743 98.201 94.2678 99.431C95.4655 99.2023 96.6434 98.8793 97.7903 98.4652C96.986 97.7695 95.7355 96.9036 96.2198 96.5367C96.7042 96.1697 97.6875 97.385 98.2746 98.2715C98.8127 98.0519 99.3222 97.768 99.7922 97.4261C98.709 95.8351 96.0731 95.5122 96.4165 94.3645C96.7599 93.2167 99.2286 94.8077 100.335 96.9359C101.636 95.5856 102.017 93.6776 101.879 92.0455C100.746 91.9134 98.5681 92.1541 98.7267 91.341C98.8852 90.5279 100.459 90.6806 101.747 91.1561C101.629 90.51 101.37 89.8978 100.99 89.3626C99.7981 87.8303 96.1523 89.7794 96.1523 89.7794C96.1523 89.7794 96.5427 86.116 95.1543 85.4849C94.3529 85.1209 92.9381 85.1238 91.5203 85.9575C92.3158 86.025 93.2815 86.2775 93.6631 86.8381C94.1592 87.5397 93.3696 87.9242 92.8823 87.5984C92.533 87.3694 91.8813 86.6444 90.7042 86.5475C90.2016 86.9751 89.7592 87.4688 89.3892 88.0152C89.2541 88.206 89.1309 88.4056 89.0046 88.6228C89.6774 88.3191 90.4092 88.1684 91.1472 88.1816C91.8853 88.1948 92.6112 88.3716 93.2727 88.6992C94.8519 89.4829 93.9684 91.1238 92.6093 90.4868C91.2502 89.8498 89.9674 89.2217 88.5144 89.5827C88.0038 90.8725 87.7611 92.2528 87.8011 93.6394C88.5085 93.1241 89.3044 92.743 90.1494 92.5152C91.7199 92.1042 92.2042 93.0406 90.4694 93.2167C89.5355 93.3177 88.6323 93.6094 87.8158 94.0739ZM89.7267 91.5524C89.6181 91.0416 90.7306 90.8978 90.9156 91.3087C91.0712 91.661 89.8324 92.0602 89.7267 91.5524ZM99.255 94.3703C99.3607 94.0915 100.106 94.4085 100.039 94.7549C99.9448 95.2157 99.1523 94.6463 99.255 94.3703ZM93.9948 96.1551C94.5379 95.9378 95.3862 97.2881 94.7932 97.5963C94.2003 97.9046 93.5486 96.3341 93.9948 96.1551Z" fill="#C6FF00"/>
<path d="M89.2217 99.8311C90.0407 98.4632 90.8509 97.0894 91.711 95.745C92.1102 95.1198 92.5299 94.5063 92.9644 93.9045L92.7706 93.8576L92.4448 93.7959C92.1924 93.7519 91.9399 93.7167 91.6845 93.6903C91.4292 93.6638 91.2061 93.6521 90.9654 93.6492C90.7093 93.6349 90.4524 93.6487 90.1992 93.6903C90.1938 93.6903 90.1886 93.6881 90.1847 93.6842C90.1809 93.6804 90.1787 93.6752 90.1787 93.6697C90.1787 93.6643 90.1809 93.659 90.1847 93.6552C90.1886 93.6513 90.1938 93.6492 90.1992 93.6492C90.4546 93.6492 90.7159 93.6257 90.9712 93.6227C91.2266 93.6198 91.4703 93.6227 91.7168 93.6404C91.9498 93.6529 92.182 93.6774 92.4125 93.7137C92.5417 93.7314 92.6679 93.7548 92.7941 93.7783C92.8723 93.7907 92.9497 93.8074 93.026 93.8282C93.4693 93.2177 93.9301 92.6218 94.4056 92.0347C92.9902 91.3474 91.4838 90.866 89.9321 90.6052C89.9057 90.6052 89.9174 90.5611 89.9321 90.5641C91.5097 90.783 93.0431 91.2486 94.4761 91.9437L95.2657 90.9838C95.5593 90.6286 95.8792 90.2793 96.1463 89.9036C96.164 89.8772 96.1992 89.9036 96.1816 89.9271C95.8122 90.3314 95.4653 90.7557 95.1424 91.1981C95.7282 91.6045 96.2853 92.0508 96.8097 92.5337C97.3538 93.0171 97.8841 93.5161 98.4007 94.0308C98.4213 94.0484 98.4007 94.0777 98.3714 94.0601C97.8606 93.5523 97.3322 93.068 96.7804 92.6071C96.2285 92.1462 95.6444 91.7265 95.0896 91.2715C94.9634 91.4417 94.8372 91.6091 94.708 91.7734C94.6434 91.8556 94.5818 91.9408 94.5172 92.0259L94.5025 92.0435C94.2882 92.3194 94.0769 92.5983 93.8655 92.8772C94.1138 93.2361 94.3261 93.6186 94.4996 94.019C94.6816 94.4036 94.843 94.8028 94.9898 95.1932C95.2829 96.0294 95.5106 96.8872 95.6708 97.7587C95.6708 97.7822 95.6385 97.7939 95.6327 97.7587C95.458 96.9 95.2086 96.0582 94.8871 95.2431C94.7285 94.8263 94.5466 94.4182 94.3616 94.0102C94.1767 93.6022 93.983 93.2852 93.8244 92.9094C93.6425 93.1531 93.4575 93.3996 93.2785 93.6462C93.2256 93.7167 93.1757 93.7901 93.1258 93.8634C93.1258 93.8781 93.1258 93.8987 93.1082 93.9016C92.5446 94.6854 92.0104 95.4897 91.4908 96.3028C91.5216 96.3583 91.5452 96.4175 91.5613 96.4789C91.5935 96.5787 91.6258 96.6785 91.6552 96.7724C91.7135 96.9734 91.7615 97.1772 91.799 97.383C91.8313 97.5738 91.8607 97.7705 91.8783 97.9701C91.8831 98.1919 91.8998 98.4134 91.9282 98.6335C91.9282 98.6658 91.8812 98.6687 91.8871 98.6335C91.9017 98.4269 91.8869 98.2194 91.8431 98.017C91.8137 97.8057 91.7726 97.5943 91.7256 97.3859C91.6787 97.1775 91.6288 97.0102 91.573 96.8253C91.5466 96.7343 91.5172 96.6403 91.4849 96.5493C91.4526 96.4583 91.4438 96.4495 91.4262 96.3996C91.1826 96.7812 90.9419 97.1628 90.7041 97.5503C90.2345 98.3164 89.7677 99.0826 89.2951 99.8487C89.2928 99.8584 89.2867 99.8669 89.2782 99.8721C89.2696 99.8773 89.2594 99.8789 89.2496 99.8766C89.2399 99.8743 89.2315 99.8682 89.2263 99.8596C89.221 99.8511 89.2194 99.8408 89.2217 99.8311Z" fill="#263238"/>
<path d="M101.848 110.342C101.868 109.567 101.991 108.783 102.077 108.014C102.162 107.245 102.247 106.464 102.329 105.689C102.491 104.195 102.579 102.668 102.916 101.204C103.176 99.9295 103.811 98.7622 104.739 97.8515C105.22 97.3702 105.853 97.0686 106.53 96.9973C107.21 96.9785 107.878 97.1849 108.429 97.5843C109.056 98.0481 109.596 98.6184 110.026 99.2693C110.49 99.9124 110.907 100.588 111.273 101.292C111.273 101.318 111.244 101.336 111.229 101.309C110.538 100.135 109.623 99.1087 108.534 98.2888C108.05 97.891 107.459 97.6449 106.835 97.5814C106.53 97.576 106.228 97.6314 105.945 97.7443C105.663 97.8572 105.405 98.0254 105.188 98.2389C104.284 99.0256 103.759 100.182 103.447 101.318C103.078 102.663 102.96 104.08 102.775 105.46C102.664 106.279 102.561 107.101 102.452 107.923C102.344 108.745 102.276 109.575 102.103 110.38C102.091 110.406 102.07 110.427 102.045 110.441C102.019 110.454 101.99 110.459 101.961 110.455C101.933 110.451 101.906 110.437 101.886 110.417C101.865 110.397 101.852 110.37 101.848 110.342Z" fill="#263238"/>
<path d="M105.661 104.319C105.9 104.644 106.183 104.934 106.503 105.179C106.377 104.425 106.21 103.078 106.603 102.364C107.19 101.252 107.9 101.807 107.545 102.772C107.191 103.644 106.998 104.573 106.976 105.514C107.783 106.019 108.647 106.427 109.55 106.729C109.455 106.294 109.426 105.847 109.465 105.403C109.585 104.214 110.495 104.228 110.257 105.473C110.169 105.951 110.128 106.437 110.134 106.923C111.447 107.328 112.79 107.631 114.15 107.83C114.844 106.929 115.403 105.933 115.811 104.871C114.843 104.631 112.876 104.578 112.926 103.882C112.981 102.951 114.878 103.668 115.99 104.343C116.244 103.533 116.357 102.687 116.325 101.839C115.454 101.597 114.559 101.449 113.657 101.399C111.663 101.225 111.76 100.095 113.205 100.122C114.27 100.142 115.617 100.794 116.257 101.134C115.841 98.4222 113.774 96.6873 112.116 96.6198C109.33 96.5083 110.334 99.975 110.334 99.975C110.334 99.975 108.443 98.6482 106.662 98.6834C104.88 98.7186 103.756 101.669 105.661 104.319ZM113.102 99.3057C113.04 98.9153 114.276 98.8214 114.349 99.3233C114.423 99.884 113.163 99.702 113.102 99.3057ZM115.104 103.374C115.077 103.119 115.615 103.081 115.735 103.395C115.817 103.621 115.124 103.621 115.104 103.374ZM108.423 103.621C108.843 103.679 109.083 105.182 108.358 105.153C107.798 105.121 108.056 103.562 108.423 103.621Z" fill="#C6FF00"/>
<path d="M108.994 105.278C109.065 105.091 109.126 104.903 109.185 104.712C109.132 104.903 109.082 105.096 109.047 105.299C109.046 105.302 109.044 105.306 109.041 105.308C109.038 105.311 109.035 105.313 109.032 105.315C109.029 105.316 109.025 105.317 109.021 105.317C109.017 105.317 109.014 105.316 109.01 105.315C109.007 105.314 109.004 105.312 109.001 105.309C108.998 105.307 108.996 105.304 108.995 105.3C108.993 105.297 108.992 105.293 108.992 105.289C108.992 105.286 108.993 105.282 108.994 105.278Z" fill="#263238"/>
<path d="M109.731 102.866C109.861 102.481 110.007 102.1 110.157 101.721C110.236 101.521 110.321 101.319 110.41 101.134C110.471 100.957 110.554 100.789 110.656 100.632C110.571 100.475 110.495 100.312 110.43 100.145C110.43 100.13 110.445 100.115 110.456 100.13C110.663 100.394 110.845 100.676 111 100.973C111.079 101.102 111.152 101.237 111.226 101.369C111.384 101.383 111.54 101.407 111.695 101.442C111.863 101.472 112.03 101.507 112.194 101.545C112.359 101.583 112.526 101.618 112.69 101.659C112.855 101.701 113.019 101.753 113.186 101.777C113.225 101.777 113.207 101.844 113.172 101.83C113.002 101.77 112.827 101.725 112.649 101.695C112.491 101.659 112.329 101.63 112.168 101.61C112.006 101.589 111.845 101.566 111.681 101.548L111.314 101.519C111.378 101.636 111.449 101.75 111.513 101.868C111.522 101.888 111.532 101.908 111.543 101.927C111.677 101.925 111.811 101.941 111.942 101.974C112.086 102 112.235 102.026 112.373 102.059C112.667 102.123 112.96 102.191 113.239 102.27C113.844 102.44 114.437 102.631 115.033 102.825C115.065 102.825 115.033 102.886 115.012 102.875C114.421 102.677 113.819 102.511 113.21 102.376C112.916 102.311 112.64 102.247 112.356 102.188L111.924 102.097C111.812 102.079 111.701 102.053 111.592 102.02C111.886 102.587 112.18 103.165 112.453 103.752C113.04 105.029 113.518 106.347 114.014 107.659C114.014 107.692 113.976 107.712 113.964 107.68C113.485 106.377 112.931 105.102 112.303 103.864C112.191 103.638 112.077 103.415 111.965 103.186C111.965 103.233 111.945 103.28 111.936 103.327C111.907 103.479 111.88 103.635 111.854 103.791C111.801 104.102 111.748 104.413 111.701 104.724C111.568 105.362 111.494 106.01 111.478 106.661C111.478 106.702 111.416 106.7 111.422 106.661C111.472 106.353 111.472 106.03 111.493 105.719C111.513 105.408 111.537 105.065 111.575 104.742C111.613 104.419 111.651 104.116 111.704 103.805C111.73 103.65 111.757 103.494 111.786 103.338C111.793 103.222 111.822 103.107 111.871 103.001C111.71 102.675 111.548 102.346 111.381 102.02C111.214 101.695 111.07 101.407 110.911 101.105C110.844 100.975 110.771 100.846 110.7 100.714C110.649 100.875 110.587 101.032 110.515 101.184L110.301 101.712C110.139 102.1 109.993 102.493 109.843 102.886C109.632 103.444 109.4 104.014 109.227 104.595C109.397 104.008 109.541 103.427 109.731 102.866Z" fill="#263238"/>
<path d="M109.184 104.713C109.184 104.666 109.21 104.622 109.225 104.578C109.21 104.622 109.198 104.666 109.184 104.713Z" fill="#263238"/>
<path d="M97.1895 108.834L97.3861 112.982L97.8881 123.672H108.919L109.424 112.982L109.618 108.834H97.1895Z" fill="#37474F"/>
<path d="M97.1895 108.834L97.3861 112.982H109.424L109.618 108.834H97.1895Z" fill="#263238"/>
<path d="M96.4015 110.51H110.4V107.155H96.4015V110.51Z" fill="#37474F"/>
<path d="M108.025 123.672H106.088V125.427H108.025V123.672Z" fill="#37474F"/>
<path d="M108.025 123.672H106.088V124.55H108.025V123.672Z" fill="#263238"/>
<path d="M100.718 123.672H98.7832V125.427H100.718V123.672Z" fill="#37474F"/>
<path d="M100.718 123.672H98.7832V124.55H100.718V123.672Z" fill="#263238"/>
<path d="M0 125.472L15.3638 125.402L30.7277 125.375L61.4583 125.325L92.189 125.375L107.553 125.402L122.917 125.472L107.553 125.545L92.189 125.569L61.4583 125.619L30.7277 125.569L15.3638 125.545L0 125.472Z" fill="#263238"/>
<path d="M164.048 69.6834L157.873 72.5071L163.756 73.1787L180.475 81.1142L164.048 69.6834Z" fill="#C6FF00"/>
<path opacity="0.1" d="M164.753 69.8885L158.578 72.7121L164.461 73.3838L181.18 81.3192L164.753 69.8885Z" fill="black"/>
<path d="M163.754 74.8293L158.577 72.7118L164.46 73.3834L163.754 74.8293Z" fill="#263238"/>
<path d="M164.46 73.3851L181.179 81.3206L160.535 81.2657L164.46 73.3851Z" fill="#C6FF00"/>
<path d="M164.753 69.8892L163.578 61.2158L181.18 81.32L164.753 69.8892Z" fill="#C6FF00"/>
<path d="M134.016 98.3642C133.823 97.7587 133.622 97.1257 133.459 96.4805L133.872 96.3491C134.048 96.9963 134.242 97.6438 134.436 98.2548L134.531 98.552L134.118 98.6834L134.011 98.3477L134.016 98.3642ZM135.102 101.432L135.506 101.273C135.788 101.989 136.087 102.7 136.41 103.409L136.013 103.59C135.694 102.874 135.386 102.153 135.102 101.432ZM132.764 93.6888C132.603 92.9523 132.443 92.1847 132.3 91.4118L132.729 91.33C132.87 92.0973 133.021 92.8557 133.193 93.607L132.764 93.6888ZM137.311 106.184L137.687 105.973C138.059 106.649 138.447 107.314 138.851 107.955L138.482 108.187C138.071 107.524 137.675 106.85 137.306 106.167L137.311 106.184ZM131.837 88.5283C131.734 87.767 131.639 86.9911 131.56 86.2283L131.988 86.1829C132.067 86.9458 132.161 87.7161 132.267 88.4702L131.837 88.5283ZM131.314 83.324C131.261 82.5469 131.226 81.77 131.185 81.0131L131.616 80.9971C131.639 81.7537 131.674 82.5306 131.742 83.2969L131.314 83.324ZM140.124 110.544L140.471 110.282C140.934 110.899 141.421 111.495 141.917 112.065L141.595 112.349C141.097 111.792 140.579 111.194 140.129 110.561L140.124 110.544ZM131.181 78.1048C131.197 76.6509 131.267 75.786 131.264 75.775L131.7 75.812C131.7 75.812 131.633 76.6697 131.614 78.1126L131.181 78.1048ZM143.613 114.441L143.911 114.122C144.465 114.642 145.05 115.147 145.645 115.625L145.37 115.961C144.773 115.496 144.21 114.984 143.618 114.457L143.613 114.441ZM147.706 117.684L147.951 117.328C148.588 117.767 149.232 118.193 149.873 118.589L149.646 118.958C148.991 118.579 148.35 118.146 147.712 117.701L147.706 117.684ZM152.16 120.401L152.366 120.02C153.042 120.375 153.734 120.718 154.424 121.038L154.239 121.43C153.542 121.107 152.851 120.781 152.165 120.418L152.16 120.401ZM156.918 122.554L157.068 122.148C157.764 122.43 158.521 122.674 159.241 122.9L159.113 123.316C158.383 123.1 157.621 122.839 156.929 122.569L156.918 122.554ZM161.909 124.081L162.011 123.661C162.759 123.841 163.517 123.994 164.263 124.126L164.186 124.551C163.44 124.436 162.67 124.263 161.914 124.098L161.909 124.081ZM167.063 124.944L167.109 124.517C167.853 124.59 168.627 124.64 169.398 124.68L169.379 125.116C168.603 125.097 167.829 125.046 167.068 124.961L167.063 124.944ZM172.281 125.132L172.271 124.699C173.029 124.682 173.803 124.636 174.565 124.575L174.599 125.007C173.837 125.086 173.056 125.128 172.298 125.145L172.281 125.132ZM177.481 124.653L177.418 124.225C178.168 124.107 178.929 123.962 179.672 123.804L179.763 124.224C179.016 124.407 178.248 124.548 177.487 124.67L177.481 124.653ZM182.575 123.517L182.444 123.104C182.763 123.002 183.083 122.901 183.402 122.799C183.815 122.668 184.227 122.536 184.635 122.407L184.766 122.819C184.353 122.951 183.94 123.082 183.522 123.215C183.239 123.336 182.913 123.434 182.586 123.531L182.575 123.517ZM183.715 125.439C183.62 125.142 183.527 124.85 183.433 124.553L183.846 124.422C184.035 125.159 184.266 125.885 184.538 126.596L184.133 126.755C184.028 126.346 183.867 125.9 183.722 125.443L183.715 125.439ZM182.885 121.69C182.785 120.919 182.726 120.142 182.709 119.364L183.142 119.354C183.159 120.116 183.217 120.876 183.315 121.632L182.885 121.69ZM185.44 129.394L185.816 129.184C186.184 129.849 186.592 130.493 187.035 131.111L186.685 131.362C186.236 130.735 185.824 130.083 185.451 129.409L185.44 129.394ZM182.87 116.464C182.961 115.691 183.095 114.923 183.273 114.166L183.691 114.263C183.521 115.005 183.391 115.757 183.305 116.513L182.87 116.464ZM188.607 133.593L188.918 133.294C189.456 133.836 190.023 134.348 190.618 134.826L190.349 135.16C189.735 134.671 189.149 134.147 188.595 133.591L188.607 133.593ZM184.125 111.379C184.301 110.922 184.499 110.459 184.714 110.009C184.838 109.751 184.964 109.499 185.089 109.284L185.474 109.482C185.344 109.724 185.222 109.969 185.098 110.208C184.888 110.651 184.697 111.1 184.519 111.55L184.125 111.379ZM187.336 121.353C188.042 121.037 188.735 120.701 189.401 120.356L189.602 120.741C188.927 121.095 188.223 121.434 187.499 121.75L187.336 121.353ZM192.732 136.839L192.953 136.465C193.607 136.858 194.283 137.214 194.977 137.531L194.792 137.923C194.082 137.599 193.39 137.237 192.719 136.837L192.732 136.839ZM186.71 106.816C187.199 106.206 187.755 105.655 188.369 105.172L188.63 105.514C188.035 105.976 187.493 106.502 187.013 107.083L186.71 106.816ZM197.546 138.956L197.674 138.539C198.214 138.713 198.777 138.861 199.334 138.993C199.518 139.037 199.702 139.082 199.889 139.119L199.8 139.542C199.61 139.499 199.423 139.462 199.239 139.417C198.623 139.292 198.057 139.133 197.506 138.963L197.546 138.956ZM191.916 118.925C192.58 118.496 193.209 118.053 193.787 117.602L194.054 117.948C193.465 118.402 192.827 118.853 192.152 119.286L191.916 118.925ZM191.109 104.258L190.978 103.845C191.743 103.63 192.542 103.556 193.334 103.629L193.295 104.059C192.56 103.995 191.82 104.062 191.109 104.258ZM202.607 140L202.647 139.575C203.384 139.644 204.16 139.7 204.934 139.714L204.927 140.147C204.158 140.113 203.379 140.064 202.632 139.986L202.607 140ZM195.844 115.705C196.371 115.163 196.847 114.573 197.265 113.943L197.631 114.178C197.197 114.831 196.704 115.443 196.158 116.005L195.844 115.705ZM195.913 104.972L196.152 104.617C196.821 105.059 197.394 105.631 197.839 106.299L197.477 106.535C197.073 105.913 196.55 105.377 195.939 104.957L195.913 104.972ZM198.322 111.358C198.474 110.626 198.507 109.875 198.419 109.132L198.851 109.08C198.941 109.87 198.905 110.669 198.744 111.448L198.322 111.358ZM207.83 140.108L207.807 139.673C208.518 139.64 209.271 139.588 210.103 139.518L210.143 139.947C209.325 140.007 208.567 140.061 207.856 140.093L207.83 140.108ZM213.024 139.667L212.977 139.233L215.269 138.97L215.32 139.397L213.024 139.667ZM218.185 139.103L218.151 138.672C218.999 138.595 219.76 138.547 220.472 138.539L220.489 138.97C219.804 138.952 219.049 138.998 218.205 139.072L218.185 139.103ZM223.351 138.974L223.372 138.544C224.16 138.563 224.947 138.631 225.727 138.745L225.657 139.174C224.898 139.056 224.133 138.98 223.366 138.945L223.351 138.974ZM228.38 139.901L228.521 139.487C229.258 139.736 229.978 140.036 230.674 140.384L230.48 140.767C229.808 140.422 229.113 140.122 228.401 139.871L228.38 139.901ZM232.904 142.25L233.161 141.896C233.788 142.357 234.388 142.851 234.961 143.378L234.662 143.697C234.105 143.172 233.515 142.681 232.897 142.228L232.904 142.25ZM236.635 145.761L236.962 145.475C237.388 145.976 237.814 146.513 238.23 147.078L237.881 147.334C237.494 146.748 237.078 146.22 236.655 145.73L236.635 145.761Z" fill="white"/>
<path d="M246.289 143.24L233.379 142.711L243.102 149.358L266.12 179.263L246.289 143.24Z" fill="#C6FF00"/>
<path opacity="0.1" d="M246.289 143.24L233.379 142.711L243.102 149.358L266.12 179.263L246.289 143.24Z" fill="black"/>
<path d="M240.766 151.349L233.379 142.71L243.102 149.357L240.766 151.349Z" fill="white"/>
<path d="M243.101 149.358L266.12 179.263L230.235 160.145L243.101 149.358Z" fill="#C6FF00"/>
<path d="M246.289 143.24L250.889 126.306L266.12 179.263L246.289 143.24Z" fill="#C6FF00"/>
<path d="M12.5612 125.423L61.459 125.635C73.3444 116.303 74.5714 102.475 66.091 94.094C60.9629 89.0216 54.4463 90.0432 48.2497 89.2359H48.2321C46.0717 88.9424 43.9523 88.4522 41.9386 87.3896C35.5483 84.0197 31.9583 76.0678 26.5718 69.378C25.9026 68.5414 25.201 67.7254 24.4672 66.9387C20.0465 62.2186 11.2579 62.0659 6.64639 68.6999C-5.05408 85.5579 0.300073 110.664 12.5612 125.423Z" fill="#C6FF00"/>
<path opacity="0.1" d="M11.4756 86.8437C12.7554 106.907 35.9274 114.395 50.396 108.387C62.98 103.159 58.8617 91.2321 48.2502 89.236H48.2326C46.0721 88.9425 43.9528 88.4523 41.9391 87.3897C35.5488 84.0199 31.9588 76.0679 26.5723 69.3781C18.5558 65.2157 10.5363 72.155 11.4756 86.8437Z" fill="black"/>
<path d="M57.5098 128.571C56.7554 128.295 39.7125 114.675 39.3926 113.744C39.2693 113.392 41.1068 110.809 43.417 107.718C43.916 107.055 44.4356 106.371 44.9669 105.681C48.4101 101.193 52.1703 96.5137 52.1703 96.5137L63.5978 105.59L56.0803 114.511L54.4306 116.468C54.4306 116.468 58.6223 124.602 58.866 125.659C59.1096 126.716 58.2642 128.865 57.5098 128.571Z" fill="#D3766A"/>
<path d="M57.5101 128.571C56.7557 128.277 39.7158 114.674 39.3929 113.744C39.2901 113.45 40.4878 111.689 42.1844 109.379C44.6619 112.341 53.3007 121.159 55.6608 122.339C57.1579 123.087 56.8614 121.617 56.3007 120.155C57.4514 122.453 58.7342 125.086 58.8663 125.656C59.1099 126.727 58.2645 128.864 57.5101 128.571Z" fill="#263238"/>
<path d="M75.1384 88.147C74.3576 94.0824 59.7276 111.219 58.0368 113.186L57.6435 113.632L45.5497 104.333L45.6876 104.154L56.3461 90.1989C56.3461 90.1989 38.7337 100.473 29.907 95.8143C25.9413 93.7184 23.0059 89.9934 23.0059 89.9934L34.5126 83.8584C34.5126 83.8584 37.6975 84.8887 39.7317 84.5922C46.7473 83.5649 62.4664 77.5972 66.1972 77.7469C71.0142 77.9436 75.8576 82.6989 75.1384 88.147Z" fill="#37474F"/>
<path d="M60.172 85.0129C59.7758 85.459 59.4082 85.9296 59.0712 86.4219C58.6955 86.918 58.311 87.4053 57.9352 87.8896V87.9043C58.0027 87.7575 58.0673 87.6107 58.1378 87.4698C58.3755 86.9767 58.5663 86.4689 58.8452 86.0021C58.847 85.9965 58.8468 85.9904 58.8447 85.9849C58.8426 85.9793 58.8386 85.9747 58.8336 85.9716C58.8285 85.9686 58.8225 85.9673 58.8167 85.9681C58.8108 85.9688 58.8053 85.9715 58.8012 85.9757C58.5076 86.4424 58.1789 86.8857 57.9205 87.3759C57.8031 87.6078 57.6945 87.8426 57.5918 88.0804C57.536 88.2096 57.4773 88.3416 57.4274 88.4737C57.3999 88.5358 57.3764 88.5995 57.3569 88.6645C57.1896 88.8935 57.0223 89.1225 56.8609 89.3573C56.5027 89.8769 56.1857 90.4258 55.8217 90.9424C55.8012 90.9688 55.8452 90.9952 55.8658 90.9688C56.2327 90.4845 56.6466 90.0324 57.0194 89.551C57.3922 89.0696 57.762 88.5589 58.1172 88.051C58.4724 87.5432 58.8041 87.0559 59.1534 86.5599C59.5333 86.0717 59.8832 85.561 60.2013 85.0305C60.2102 85.0188 60.1867 84.9982 60.172 85.0129Z" fill="#263238"/>
<path d="M21.0942 67.8928C20.9328 71.4329 20.1461 75.6569 21.6461 79.0091C22.8203 81.6334 25.3007 83.4122 27.8603 84.5394C33.4963 87.0316 41.3837 87.3574 45.3318 81.7625C46.9081 79.5287 47.1782 74.8732 44.5627 73.1706C43.2212 72.29 41.6273 72.0963 40.1068 71.6853C39.1601 71.465 38.2754 71.0337 37.5186 70.4238C36.7618 69.8139 36.1525 69.0411 35.736 68.1629C33.9248 64.5318 34.2859 61.8752 33.9425 57.9477C33.9348 57.5574 33.8457 57.1731 33.6809 56.8193C33.5161 56.4654 33.2793 56.1499 32.9855 55.8929C32.3404 55.258 31.5347 54.8105 30.6548 54.5984C29.9043 54.2712 29.0842 54.136 28.2683 54.2051C26.5306 54.3871 24.8604 55.9898 23.513 56.9878C22.1657 57.9858 21.5257 59.0426 21.4201 60.7657C21.2762 63.1345 21.2029 65.5151 21.0942 67.8928Z" fill="#263238"/>
<path d="M20.6572 69.5691C21.0153 66.3402 21.4321 63.1113 21.8313 59.8823C21.8313 59.8647 21.8636 59.8647 21.8607 59.8823C21.6112 62.5477 21.3969 65.216 21.1122 67.8784C20.8186 70.4909 20.3666 73.1621 20.3167 75.7834C20.2051 81.6806 26.2696 84.0788 31.2833 83.7911C31.5123 83.7911 31.5064 84.1434 31.2833 84.1493C26.8802 84.2637 21.6112 82.7579 20.2785 77.9644C19.5388 75.3343 20.3636 72.211 20.6572 69.5691Z" fill="#263238"/>
<path d="M33.6566 57.6369C33.6566 57.5753 33.7505 57.5782 33.7534 57.6369C33.9002 60.8659 33.7534 64.6819 35.6145 67.4969C36.524 68.8883 37.8341 69.9711 39.3718 70.6026C40.59 71.0987 41.8815 71.1427 43.1526 71.3922C48.1427 72.3697 48.1809 79.0917 44.5616 81.713C44.4852 81.7688 44.3884 81.6397 44.4618 81.5809C47.0097 79.5526 47.8492 75.8628 45.7739 73.1564C44.1066 70.9842 40.907 71.6887 38.635 70.5145C33.9266 68.0723 33.5714 62.3453 33.6566 57.6369Z" fill="#263238"/>
<path d="M28.5617 71.7211C30.7163 74.815 38.0753 83.3159 43.1829 84.4783C45.998 85.1211 59.5947 87.0233 61.4587 85.3266C63.6426 83.3394 62.6328 75.8541 60.8951 75.7866C55.5967 75.5782 45.7954 76.6144 43.3473 76.0801C42.2407 75.8336 36.3699 72.0469 30.0999 69.0176C27.7281 67.8669 27.1704 69.725 28.5617 71.7211Z" fill="#D3766A"/>
<path d="M33.8219 79.1353L35.8767 71.5649C35.8767 71.5649 32.4276 69.6511 30.3699 68.8614C27.6458 67.8164 26.6184 68.5679 28.2887 71.744C29.41 73.8604 33.8219 79.1353 33.8219 79.1353Z" fill="#6B6B6B"/>
<path d="M33.313 78.1724C33.5361 77.0511 33.7739 75.9327 34.0616 74.8261C34.2054 74.2742 34.3551 73.7223 34.5195 73.1764C34.6839 72.6304 34.8982 72.0961 35.0479 71.5472C35.0479 71.5179 35.1066 71.5325 35.0948 71.5472C34.9158 72.0873 34.8013 72.6568 34.6545 73.2057C34.5077 73.7546 34.361 74.3065 34.2083 74.8583C33.9148 75.9621 33.6213 77.0658 33.3571 78.1724C33.3512 78.2194 33.3072 78.2047 33.313 78.1724Z" fill="#263238"/>
<path d="M35.5577 72.7573L33.8229 79.1389C33.8229 79.1389 29.4198 73.8552 28.2926 71.7446C27.7789 70.7671 27.5176 70.0186 27.4883 69.4844L35.5577 72.7573Z" fill="#263238"/>
<path d="M17.4863 92.6739C18.1644 92.8941 37.4 87.3256 37.4 87.3256L35.128 80.6476C35.128 80.6476 36.2523 78.4989 35.7151 76.4324C35.0194 73.6731 29.9089 69.135 29.5097 68.8679C27.9128 67.8082 26.4011 67.8082 25.0596 68.5274C19.5029 71.4833 17.4863 92.6739 17.4863 92.6739Z" fill="#6B6B6B"/>
<path d="M32.1626 71.2718C32.6587 71.8589 33.19 72.399 33.7007 72.9626C33.463 72.5428 33.2252 72.1201 32.9728 71.7062C33.3469 72.1912 33.6733 72.7112 33.9473 73.2591C34.3313 73.6862 34.6854 74.1393 35.007 74.6152C35.4055 75.1802 35.7034 75.8098 35.8876 76.4762C36.047 77.15 36.067 77.8493 35.9463 78.531C35.7994 79.316 35.5823 80.0862 35.2976 80.8324C35.2624 80.9322 35.1215 80.8676 35.1479 80.7707C35.5089 79.4674 35.9199 78.0907 35.6293 76.7287C35.3387 75.3667 34.4992 74.2453 33.6802 73.1739C33.1983 72.5194 32.6758 71.8959 32.1156 71.307C32.1039 71.2806 32.1391 71.2483 32.1626 71.2718Z" fill="#263238"/>
<path d="M28.9582 80.1657C29.7854 80.0062 30.6233 79.9081 31.465 79.8721C31.8818 79.8721 32.2986 79.8721 32.7155 79.8927C32.9239 79.8927 33.1323 79.8927 33.3407 79.8927C33.5585 79.8995 33.7764 79.8798 33.9894 79.834C34.007 79.834 34.0158 79.8575 33.9894 79.8633C33.7973 79.9277 33.6012 79.9797 33.4023 80.0189C33.208 80.0494 33.0119 80.067 32.8153 80.0718C32.3896 80.0718 31.9669 80.0717 31.5413 80.0894C30.6871 80.107 29.83 80.1246 28.9787 80.2068C28.9259 80.2391 28.92 80.1716 28.9582 80.1657Z" fill="#263238"/>
<path d="M27.1643 81.4404C27.8091 81.1849 28.4676 80.9654 29.1369 80.7829C29.4744 80.6919 29.812 80.6244 30.1525 80.5628L30.6456 80.4835C30.8247 80.4571 31.0096 80.4542 31.1887 80.4248C31.2092 80.4248 31.218 80.4512 31.1887 80.4542C31.0184 80.4864 30.8541 80.5481 30.6897 80.5892L30.1848 80.7154C29.8502 80.8005 29.5155 80.8915 29.1779 80.9737C28.5057 81.1381 27.8365 81.3084 27.1701 81.4962C27.164 81.495 27.1584 81.4918 27.1542 81.4872C27.1499 81.4826 27.1473 81.4767 27.1466 81.4705C27.146 81.4643 27.1473 81.458 27.1505 81.4526C27.1537 81.4472 27.1585 81.4429 27.1643 81.4404Z" fill="#263238"/>
<path d="M26.2667 68.9032C26.343 69.2525 27.9721 71.545 29.5631 71.4805C30.0798 71.4628 30.1091 68.6331 30.1091 68.6331L30.159 68.4247L30.8576 65.504L26.9536 62.9473C26.9536 62.9473 26.2344 68.7535 26.2667 68.9032Z" fill="#D3766A"/>
<path d="M30.8577 65.502L30.159 68.4374C29.3725 68.129 28.6594 67.659 28.0658 67.0578C27.4722 66.4566 27.0113 65.7376 26.7129 64.9472C26.8332 63.9404 26.936 63.1038 26.9507 62.9805C26.9513 62.9746 26.9513 62.9687 26.9507 62.9629L27.4467 63.2564L30.8577 65.502Z" fill="#263238"/>
<path d="M34.6403 60.1227C35.9407 65.2302 33.0288 66.5805 31.928 66.8741C30.9271 67.1265 27.4926 67.8633 25.6727 62.9201C23.8528 57.9769 25.8165 55.7577 28.0709 55.0562C30.3253 54.3546 33.3429 55.018 34.6403 60.1227Z" fill="#D3766A"/>
<path d="M33.6593 59.4898C33.536 59.4898 33.4185 59.4898 33.2953 59.4898C33.1663 59.504 33.0362 59.4751 32.9254 59.4076C32.895 59.3794 32.8748 59.342 32.8679 59.3011C32.861 59.2602 32.8678 59.2182 32.8872 59.1816C32.9352 59.1146 33.0003 59.0618 33.0757 59.0288C33.1511 58.9957 33.2341 58.9836 33.3158 58.9937C33.486 58.9878 33.6524 59.0453 33.7825 59.1551C33.8078 59.1822 33.825 59.2157 33.8324 59.2519C33.8397 59.2882 33.8368 59.3258 33.824 59.3605C33.8112 59.3952 33.7891 59.4256 33.76 59.4485C33.7309 59.4713 33.696 59.4856 33.6593 59.4898Z" fill="#263238"/>
<path d="M30.2272 60.5634C30.3476 60.5252 30.4503 60.4724 30.5648 60.4254C30.6895 60.3922 30.8005 60.3202 30.8818 60.2199C30.9004 60.1829 30.9065 60.1408 30.8991 60.1001C30.8917 60.0593 30.8712 60.022 30.8407 59.9939C30.7719 59.948 30.6921 59.9214 30.6095 59.9167C30.5269 59.9121 30.4446 59.9296 30.3711 59.9675C30.2101 60.0214 30.0751 60.1334 29.9924 60.2816C29.9747 60.3164 29.9676 60.3556 29.972 60.3944C29.9763 60.4332 29.992 60.4699 30.017 60.4998C30.042 60.5298 30.0752 60.5518 30.1126 60.5631C30.1499 60.5744 30.1898 60.5745 30.2272 60.5634Z" fill="#263238"/>
<path d="M31.1 61.207C31.1 61.207 31.0765 61.2276 31.0794 61.2423C31.1646 61.5916 31.1998 62.0055 30.9062 62.1875C30.9062 62.1875 30.9062 62.2109 30.9062 62.2051C31.2908 62.073 31.2233 61.5241 31.1 61.207Z" fill="#263238"/>
<path d="M30.7124 60.9048C30.1253 60.9781 30.3249 62.12 30.8592 62.0525C31.3934 61.985 31.1938 60.8431 30.7124 60.9048Z" fill="#263238"/>
<path d="M30.4964 61.0002C30.4054 61.0794 30.3262 61.2115 30.2029 61.2438C30.0796 61.2761 29.9417 61.1763 29.8301 61.0765C29.8301 61.0765 29.8125 61.0765 29.8125 61.0941C29.8477 61.3143 29.9681 61.5227 30.2088 61.5168C30.4495 61.511 30.5493 61.2937 30.5669 61.0648C30.5757 61.0207 30.5317 60.9679 30.4964 61.0002Z" fill="#263238"/>
<path d="M33.1319 60.7627C33.1319 60.7627 33.1612 60.7774 33.1642 60.7921C33.2082 61.1472 33.3198 61.5464 33.6573 61.614V61.6345C33.2581 61.6257 33.1172 61.0944 33.1319 60.7627Z" fill="#263238"/>
<path d="M33.3909 60.328C33.9545 60.196 34.1776 61.332 33.6551 61.4552C33.1326 61.5785 32.9183 60.4396 33.3909 60.328Z" fill="#263238"/>
<path d="M33.642 60.3587C33.7418 60.3998 33.8533 60.4938 33.962 60.4791C34.0706 60.4644 34.1557 60.3206 34.2115 60.1855C34.2115 60.1855 34.2291 60.1855 34.232 60.1855C34.279 60.3998 34.2526 60.6405 34.0529 60.7227C33.8533 60.8049 33.6919 60.6405 33.598 60.4292C33.5715 60.4086 33.6009 60.3411 33.642 60.3587Z" fill="#263238"/>
<path d="M31.5738 64.3471C31.6678 64.4235 31.7617 64.5291 31.8938 64.5291C32.0266 64.5144 32.1547 64.4713 32.2695 64.4029C32.2695 64.4029 32.293 64.4029 32.2871 64.4205C32.2422 64.4955 32.1778 64.5569 32.1008 64.5982C32.0238 64.6396 31.9371 64.6593 31.8498 64.6554C31.7776 64.6403 31.7113 64.6045 31.6592 64.5524C31.607 64.5003 31.5713 64.434 31.5562 64.3618C31.5327 64.3442 31.5592 64.3354 31.5738 64.3471Z" fill="#263238"/>
<path d="M32.8767 62.7268C32.9521 62.9798 33.0148 63.2365 33.0645 63.4958C33.0645 63.5193 33.0088 63.5399 32.9266 63.5575C32.7181 63.6284 32.494 63.6404 32.2791 63.5923C32.0642 63.5441 31.8667 63.4376 31.7084 63.2845C31.704 63.2799 31.7015 63.2739 31.7012 63.2675C31.7009 63.2612 31.7029 63.255 31.7068 63.25C31.7107 63.245 31.7163 63.2416 31.7225 63.2404C31.7287 63.2392 31.7352 63.2403 31.7407 63.2434C32.091 63.4151 32.4879 63.4677 32.8708 63.3931C32.8708 63.3226 32.5773 62.5125 32.6213 62.5125C32.8182 62.5032 33.0155 62.5189 33.2084 62.5594C32.9148 61.4675 32.4657 60.4313 32.1986 59.3305C32.1979 59.3231 32.1996 59.3156 32.2034 59.3092C32.2072 59.3028 32.2129 59.2978 32.2198 59.2948C32.2267 59.2919 32.2343 59.2912 32.2415 59.2929C32.2488 59.2945 32.2554 59.2985 32.2602 59.3041C32.7858 60.3987 33.1998 61.5434 33.4961 62.7209C33.5254 62.8677 32.9853 62.7561 32.8767 62.7268Z" fill="#263238"/>
<path d="M32.8989 63.4612C32.7977 63.693 32.6391 63.895 32.438 64.0483C32.3263 64.1295 32.1915 64.1727 32.0535 64.1716C31.7599 64.1716 31.6807 63.9104 31.6777 63.6755C31.6774 63.5511 31.6912 63.427 31.7188 63.3057C32.0856 63.4816 32.499 63.5361 32.8989 63.4612Z" fill="#263238"/>
<path d="M32.438 64.0458C32.3263 64.127 32.1915 64.1702 32.0535 64.1691C31.7599 64.1691 31.6807 63.9079 31.6777 63.673C31.8279 63.6413 31.9843 63.6608 32.1221 63.7284C32.2599 63.7959 32.3711 63.9077 32.438 64.0458Z" fill="#FF9CBD"/>
<path d="M26.0366 63.2911C26.5885 63.1091 27.6305 61.1835 26.9525 58.4741C26.9525 58.4741 27.3928 60.9486 27.3047 61.3508C27.2167 61.7529 27.8918 60.2706 27.3722 58.0778C28.1876 58.3846 29.0426 58.5734 29.9113 58.6385C31.0151 58.6385 31.6432 58.4741 31.6961 58.3802C31.7489 58.2862 30.111 58.2128 29.5767 57.8518C29.5767 57.8518 32.6471 58.389 33.9328 58.1453C34.0825 58.1189 33.4544 55.0778 31.1677 54.3293C28.881 53.5808 26.1629 55.7765 25.5494 56.8009C25.5494 56.8009 24.61 57.2001 23.9378 58.9232C23.2656 60.6463 25.4466 63.4877 26.0366 63.2911Z" fill="#263238"/>
<path d="M26.5834 63.095C26.5834 63.095 25.1832 61.6595 24.5286 62.185C23.874 62.7104 25.0981 64.9208 26.0139 65.0998C26.1298 65.1326 26.2513 65.1412 26.3707 65.1252C26.49 65.1092 26.6049 65.0688 26.7081 65.0067C26.8112 64.9445 26.9006 64.8618 26.9705 64.7637C27.0404 64.6656 27.0895 64.5542 27.1147 64.4364L26.5834 63.095Z" fill="#D3766A"/>
<path d="M24.8841 62.8177C24.8694 62.8177 24.8694 62.8383 24.8841 62.8412C25.5298 62.9851 25.9408 63.4958 26.2608 64.0418C26.2145 63.9879 26.157 63.9445 26.0924 63.9148C26.0278 63.8852 25.9576 63.8698 25.8865 63.8698C25.8154 63.8698 25.7451 63.8852 25.6805 63.9148C25.6159 63.9445 25.5585 63.9879 25.5122 64.0418C25.4976 64.0418 25.5122 64.077 25.5357 64.0712C25.6364 64.0192 25.7508 64.0001 25.8629 64.0164C25.975 64.0327 26.0792 64.0837 26.161 64.1622C26.2978 64.2876 26.4208 64.4273 26.5279 64.579C26.566 64.6289 26.657 64.579 26.6277 64.5232C26.5044 63.7336 25.7265 62.7502 24.8841 62.8177Z" fill="#263238"/>
<path d="M22.313 73.2334C20.766 82.0072 22.2631 88.5796 23.7513 89.3956C27.764 91.5854 37.4009 87.1413 40.1191 86.2577C41.2052 85.9025 36.215 77.4955 35.0878 78.018C32.4459 79.2392 28.7444 81.3116 28.5947 81.2939C28.3012 81.2646 27.9489 79.0249 26.4166 72.4878C25.175 67.2217 22.947 69.6463 22.313 73.2334Z" fill="#D3766A"/>
<path d="M48.8772 73.8579C49.1532 74.9616 46.3763 75.4078 46.3763 75.4078C46.8379 75.5738 47.2272 75.8956 47.4771 76.3178C47.8821 77.081 46.8606 78.0467 46.8606 78.0467C47.3033 78.3176 47.6542 78.7155 47.8675 79.1886C48.1816 79.9577 47.2804 81.0819 47.2804 81.0819C47.5496 81.5552 47.6393 82.1096 47.5328 82.6436C47.1923 84.0584 45.0231 84.6161 43.7491 85.2267C42.3842 85.8813 40.1239 86.122 39.0995 86.5829L34.6582 78.4459C34.6582 78.4459 38.9497 73.902 41.4096 73.1975C42.7687 72.7983 48.4575 72.173 48.8772 73.8579Z" fill="#D3766A"/>
<path d="M46.347 75.3836C44.803 75.316 43.2443 75.6184 41.7443 75.9266C41.7391 75.9284 41.7346 75.9318 41.7314 75.9363C41.7283 75.9407 41.7266 75.9461 41.7266 75.9516C41.7266 75.957 41.7283 75.9624 41.7314 75.9669C41.7346 75.9713 41.7391 75.9747 41.7443 75.9765C43.2325 75.6536 44.8441 75.7211 46.3411 75.4569C46.3493 75.4554 46.3568 75.4512 46.3624 75.445C46.368 75.4387 46.3714 75.4308 46.3721 75.4225C46.3727 75.4142 46.3706 75.4058 46.3661 75.3988C46.3616 75.3918 46.3549 75.3864 46.347 75.3836Z" fill="#263238"/>
<path d="M46.7813 77.9482C46.429 77.9665 46.0807 78.0307 45.7451 78.139C45.384 78.233 45.0259 78.3328 44.6648 78.4326C43.9486 78.6439 43.2353 78.87 42.5308 79.1165C42.4985 79.1165 42.5073 79.1782 42.5308 79.1694C43.2441 78.961 43.9633 78.7643 44.6883 78.5823C45.0494 78.4913 45.4134 78.4062 45.7744 78.321C46.1237 78.2607 46.4652 78.1623 46.793 78.0275C46.798 78.0217 46.8017 78.015 46.8038 78.0077C46.8059 78.0004 46.8064 77.9927 46.8053 77.9852C46.8042 77.9777 46.8015 77.9705 46.7973 77.9641C46.7932 77.9577 46.7877 77.9523 46.7813 77.9482Z" fill="#263238"/>
<path d="M47.2629 81.0908C46.9441 81.111 46.6312 81.1865 46.3383 81.3139L45.3608 81.6075C44.7091 81.8071 44.0575 82.0037 43.3999 82.1798C43.3677 82.1798 43.3765 82.2415 43.3999 82.2327C44.0692 82.0566 44.7414 81.8922 45.4107 81.7102C45.7365 81.6221 46.0653 81.5311 46.3911 81.4372C46.702 81.3847 47.0006 81.2752 47.2717 81.1143C47.2727 81.1122 47.2733 81.1099 47.2734 81.1076C47.2734 81.1052 47.2731 81.1029 47.2722 81.1007C47.2714 81.0985 47.2702 81.0965 47.2686 81.0948C47.267 81.0931 47.2651 81.0918 47.2629 81.0908Z" fill="#263238"/>
<path d="M28.582 81.2932C29.6329 80.6886 30.6985 80.1191 31.7669 79.532L33.3843 78.6925L34.1974 78.2845C34.4739 78.1404 34.7592 78.0139 35.0516 77.9058L34.9988 77.9352C35.715 77.2395 36.4342 76.5497 37.1945 75.9009C37.5702 75.5751 37.9518 75.2522 38.3481 74.9499C38.7387 74.6373 39.155 74.3584 39.5927 74.1162C39.1802 74.3913 38.7879 74.6954 38.4185 75.0262C38.0428 75.3491 37.67 75.6778 37.306 76.0183C36.5839 76.6994 35.8589 77.3804 35.1602 78.0731L35.1426 78.0878L35.1074 78.1025C34.8579 78.1935 34.5702 78.3432 34.3031 78.4665L33.4841 78.8657L31.8609 79.6788C30.7748 80.2336 29.6916 80.7766 28.582 81.2932Z" fill="#263238"/>
<path d="M20.8203 80.8652L27.833 77.3427C27.833 77.3427 26.9523 73.4973 26.1686 71.4367C25.1295 68.7126 23.8761 68.4602 22.6461 71.8124C21.8066 74.058 20.8203 80.8652 20.8203 80.8652Z" fill="#6B6B6B"/>
<path d="M21.1986 79.844C22.182 79.2569 23.1741 78.6933 24.1898 78.1708C24.6976 77.9095 25.2113 77.6542 25.725 77.4076C26.2387 77.161 26.7817 76.9702 27.2925 76.7178C27.3189 76.7178 27.3395 76.7501 27.3101 76.7618C26.7905 76.9849 26.2915 77.2843 25.7837 77.5397C25.2759 77.7951 24.7622 78.0504 24.2544 78.3117C23.2387 78.8313 22.2201 79.3479 21.2162 79.8909C21.1898 79.9027 21.1722 79.8586 21.1986 79.844Z" fill="#263238"/>
<path d="M21.66 80.4303C21.3899 80.5947 21.1169 80.7473 20.8469 80.9029L20.75 80.9587L20.7647 80.8442C20.8704 79.8726 21.0083 78.9098 21.1786 77.9499C21.3488 76.99 21.5455 76.0331 21.8067 75.0938C21.748 75.5781 21.6835 76.0595 21.6101 76.5409C21.5367 77.0223 21.4692 77.5037 21.3899 77.9851C21.2373 78.945 21.0641 79.9049 20.8762 80.8618L20.794 80.8002C21.0817 80.6886 21.3664 80.5595 21.66 80.4303Z" fill="#263238"/>
<path d="M21.4219 76.0703C21.435 76.2952 21.435 76.5206 21.4219 76.7455C21.4151 76.9703 21.3965 77.1947 21.3661 77.4177C21.3289 76.9684 21.3426 76.5164 21.4072 76.0703H21.4219Z" fill="#263238"/>
<path d="M26.9791 77.7879C27.2492 77.6242 27.5275 77.4743 27.8128 77.3388C27.6983 76.8868 27.578 76.4406 27.4694 75.9885C27.4136 75.7625 27.3637 75.5365 27.3167 75.3105C27.2697 75.0844 27.1905 74.7762 27.1435 74.5561C27.1435 74.5208 27.1817 74.5091 27.1905 74.5414C27.2815 74.8349 27.3373 75.0375 27.4136 75.2811C27.4899 75.5247 27.5427 75.7214 27.6014 75.9416C27.7218 76.4083 27.8715 76.9014 27.9713 77.374C27.655 77.5433 27.3275 77.6904 26.9909 77.8144C26.9875 77.8152 26.984 77.8148 26.9809 77.8133C26.9778 77.8118 26.9753 77.8092 26.9739 77.8061C26.9725 77.8029 26.9723 77.7994 26.9732 77.7961C26.9742 77.7927 26.9763 77.7899 26.9791 77.7879Z" fill="#263238"/>
<path d="M27.5381 74.8535C27.5851 75.1304 27.5851 75.4132 27.5381 75.6901C27.4873 75.4136 27.4873 75.1301 27.5381 74.8535Z" fill="#263238"/>
<path d="M55.1158 85.8281H34.7031V86.744H55.1158V85.8281Z" fill="#C7C7C7"/>
<path d="M39.0717 85.8281L38.373 86.744H55.1165V85.8281H39.0717Z" fill="#A6A6A6"/>
<path d="M39.9453 86.7421H59.8385L61.494 73.2334H41.6009L39.9453 86.7421Z" fill="#191919"/>
<path d="M49.5084 79.9868C49.5033 80.1454 49.5303 80.3034 49.5879 80.4513C49.6455 80.5992 49.7325 80.7338 49.8436 80.8471C49.9548 80.9604 50.0877 81.0501 50.2344 81.1106C50.3811 81.171 50.5386 81.2012 50.6973 81.1991C51.0203 81.1976 51.3299 81.0701 51.5602 80.8436C51.7905 80.6172 51.9233 80.3097 51.9301 79.9868C51.9349 79.8297 51.908 79.6732 51.8511 79.5266C51.7942 79.3801 51.7084 79.2465 51.5989 79.1337C51.4894 79.0209 51.3584 78.9312 51.2136 78.87C51.0688 78.8088 50.9132 78.7773 50.756 78.7774C50.4307 78.7742 50.1173 78.8994 49.8838 79.1258C49.6502 79.3522 49.5154 79.6616 49.5084 79.9868Z" fill="white"/>
<path d="M61.3324 74.5381C62.0809 75.6946 63.9331 77.0478 64.1885 78.04C64.2605 78.2826 64.2523 78.5419 64.165 78.7794C64.0778 79.0169 63.9161 79.2198 63.7041 79.358C63.7041 79.358 64.7756 79.7279 64.8578 80.6672C64.9018 81.1486 64.165 81.6417 64.165 81.6417C64.165 81.6417 65.0133 81.9734 65.0456 82.8159C65.0632 83.4852 64.3235 83.8785 64.3235 83.8785C64.3235 83.8785 64.9869 84.5771 64.7873 85.264C64.3793 86.6583 58.6846 87.4098 57.5281 85.4284C56.988 84.5067 58.3911 84.3981 58.3911 84.3981C58.3911 84.3981 56.3363 84.0664 56.1514 82.8952C55.9664 81.7239 57.7952 81.6946 57.7952 81.6946C57.7952 81.6946 55.8109 81.357 55.7404 80.1241C55.667 78.8414 57.5017 79.1261 57.5017 79.1261C57.5017 79.1261 56.122 78.4334 56.2864 77.4764C56.5535 75.9001 59.8089 77.5762 61.0153 77.1154L61.3324 74.5381Z" fill="#D3766A"/>
<path d="M64.2053 83.9521C64.2092 83.9521 64.2129 83.9537 64.2157 83.9564C64.2184 83.9592 64.22 83.9629 64.22 83.9668C64.22 83.9707 64.2184 83.9745 64.2157 83.9772C64.2129 83.98 64.2092 83.9815 64.2053 83.9815C62.3235 84.7201 60.2616 84.8685 58.2934 84.4071C58.2318 84.3895 58.2289 84.2839 58.2934 84.2868C60.2698 84.4638 62.2615 84.351 64.2053 83.9521Z" fill="#263238"/>
<path d="M64.1922 81.652C64.2157 81.652 64.2216 81.6813 64.1922 81.6901C62.3194 82.4064 59.8273 82.5707 57.7138 81.7547C57.6404 81.7254 57.6052 81.6285 57.6903 81.6549C59.1463 82.0982 62.3781 82.0512 64.1922 81.652Z" fill="#263238"/>
<path d="M57.3482 79.0128C59.403 79.729 61.4871 79.7144 63.6212 79.3915C63.6476 79.3915 63.6505 79.4267 63.6212 79.4384C62.6202 79.8787 61.2376 79.9433 60.1574 79.9022C59.1551 79.8839 58.1752 79.6025 57.3159 79.0862C57.2954 79.0656 57.3101 78.9981 57.3482 79.0128Z" fill="#263238"/>
<path d="M101.689 113.145C101.41 113.899 87.7374 130.898 86.8069 131.215C86.4546 131.338 83.8715 129.492 80.7922 127.17C80.1318 126.668 79.4508 126.149 78.7609 125.614C74.2845 122.156 69.6172 118.382 69.6172 118.382L78.7169 106.986L87.6111 114.53L89.5632 116.186C89.5632 116.186 97.7089 112.021 98.7686 111.783C99.8283 111.545 101.968 112.393 101.689 113.145Z" fill="#D3766A"/>
<path d="M101.69 113.148C101.396 113.899 87.7349 130.898 86.8044 131.218C86.4962 131.327 84.4766 129.927 81.9199 128.022C84.5295 126.122 94.4335 117.202 95.7632 114.786C96.4619 113.515 95.4403 113.524 94.1899 113.876C96.2446 112.869 98.2847 111.895 98.7808 111.78C99.8376 111.545 101.966 112.394 101.69 113.148Z" fill="#263238"/>
<path d="M87.146 112.811L77.6618 125.609L45.666 103.4L42.5691 101.272C42.5691 101.272 41.6885 101.859 40.3793 102.587C38.5535 103.596 35.8764 104.876 33.5076 105.229C29.5331 105.816 22.8991 105.754 19.5498 101.275C16.7289 97.5055 18.2611 92.5858 18.2611 92.5858L22.6231 90.7042C22.6231 90.7042 32.9469 82.1035 39.6484 81.8452C42.4869 81.7307 46.6229 83.8999 50.4536 86.1338C54.2843 88.3676 87.146 112.811 87.146 112.811Z" fill="#37474F"/>
<path d="M42.5675 101.272C42.5675 101.272 41.6868 101.859 40.3777 102.587C38.0528 99.8041 33.1302 94.7464 32.9805 94.5674L42.5675 101.272Z" fill="#263238"/>
<path d="M26.4075 87.8127C25.791 88.2413 25.1922 88.6934 24.5846 89.1366C23.977 89.5799 23.3664 89.9761 22.7969 90.4487C22.2275 90.9213 21.6698 91.4438 21.1238 91.9605C20.8625 92.21 20.6013 92.4624 20.3459 92.7207C20.0773 92.9697 19.829 93.2396 19.6032 93.528C19.5827 93.5544 19.6238 93.5867 19.6473 93.572C19.9374 93.3649 20.2139 93.1394 20.475 92.8968C20.7686 92.6532 21.0621 92.4066 21.3381 92.163C21.8928 91.6904 22.4594 91.2325 23.0112 90.7599C23.5631 90.2873 24.0709 89.7765 24.6169 89.2922C25.1629 88.8078 25.8145 88.3059 26.4192 87.8245C26.431 87.8245 26.4192 87.8039 26.4075 87.8127Z" fill="#263238"/>
<path d="M84.92 112.352C84.3036 113.016 83.7458 113.732 83.1588 114.433C82.5717 115.135 82.011 115.845 81.4416 116.553C80.3056 117.977 79.1578 119.388 78.0394 120.827C77.4259 121.616 76.8183 122.412 76.2489 123.231C76.2224 123.269 76.2811 123.31 76.3105 123.278C77.5346 121.93 78.6588 120.495 79.7889 119.077C80.9191 117.659 82.058 116.242 83.1793 114.789C83.7899 114.002 84.421 113.218 84.9816 112.393C84.9963 112.361 84.9405 112.323 84.92 112.352Z" fill="#263238"/>
<path d="M58.6515 112.484C57.0606 111.228 55.4079 110.042 53.7582 108.865C52.1086 107.688 50.4735 106.517 48.8062 105.384C48.3278 105.058 47.8434 104.738 47.362 104.418C46.8806 104.098 46.3787 103.802 45.909 103.47C45.8797 103.452 45.8562 103.496 45.8826 103.517C46.317 103.828 46.725 104.174 47.1507 104.497C47.5763 104.82 47.9608 105.117 48.3689 105.419C49.1702 106.006 49.9775 106.593 50.7847 107.18C52.4207 108.354 54.0694 109.519 55.7308 110.673C56.676 111.319 57.6154 111.971 58.5811 112.587C58.6398 112.617 58.7073 112.526 58.6515 112.484Z" fill="#263238"/>
<path d="M68.8876 99.2782C67.4199 98.0601 65.8406 96.9622 64.2966 95.835C62.7526 94.7078 61.1851 93.5425 59.6176 92.4124C58.0501 91.2822 56.512 90.1639 54.9562 89.0425C53.4503 87.9535 51.9504 86.8469 50.3594 85.8811C49.4788 85.3557 48.5981 84.8655 47.6794 84.4134C46.7895 83.9578 45.8625 83.5787 44.9083 83.2804C44.9017 83.2776 44.8943 83.2776 44.8877 83.2804C44.8811 83.2831 44.8759 83.2884 44.8731 83.295C44.8704 83.3017 44.8704 83.3091 44.8732 83.3157C44.8759 83.3223 44.8812 83.3275 44.8878 83.3303C45.6745 83.7676 46.4964 84.1346 47.2919 84.5572C48.0874 84.9799 48.8476 85.4144 49.6079 85.8752C51.1872 86.8351 52.6783 87.93 54.1754 88.9985C57.2869 91.2353 60.3925 93.4838 63.5275 95.6912C65.2888 96.9241 66.9972 98.2274 68.8113 99.3634C68.8758 99.4103 68.9404 99.3223 68.8876 99.2782Z" fill="#263238"/>
<path d="M64.5923 68.3883C65.4106 63.3969 62.0276 58.6872 57.0362 57.8689C52.0447 57.0507 47.335 60.4337 46.5168 65.4251C45.6985 70.4165 49.0815 75.1262 54.0729 75.9445C59.0644 76.7628 63.7741 73.3798 64.5923 68.3883Z" fill="#C6FF00"/>
<path d="M60.886 72.8181H50.2129V63.7888L55.5494 60.4014L60.886 63.7888V72.8181Z" fill="#A6A6A6"/>
<path d="M60.285 72.7281H50.8184V60.8662H57.8486L60.285 63.1852V72.7281Z" fill="white"/>
<path d="M57.8477 60.8662L60.284 63.1852H57.8477V60.8662Z" fill="#6B6B6B"/>
<path d="M51.7427 63.2197H57.0059V62.9086H51.7427V63.2197Z" fill="#DBDBDB"/>
<path d="M51.7427 64.0068H57.0059V63.6957H51.7427V64.0068Z" fill="#DBDBDB"/>
<path d="M51.7427 64.7939H57.0059V64.4828H51.7427V64.7939Z" fill="#DBDBDB"/>
<path d="M51.7409 65.583H59.4551V65.2719H51.7409V65.583Z" fill="#DBDBDB"/>
<path d="M51.7409 66.3701H59.4551V66.059H51.7409V66.3701Z" fill="#DBDBDB"/>
<path d="M51.7409 67.1592H59.4551V66.848H51.7409V67.1592Z" fill="#DBDBDB"/>
<path d="M51.7409 67.9463H59.4551V67.6351H51.7409V67.9463Z" fill="#DBDBDB"/>
<path d="M51.7409 68.7334H59.4551V68.4222H51.7409V68.7334Z" fill="#DBDBDB"/>
<path d="M51.7409 69.5225H59.4551V69.2113H51.7409V69.5225Z" fill="#DBDBDB"/>
<path d="M51.7409 70.3096H59.4551V69.9984H51.7409V70.3096Z" fill="#DBDBDB"/>
<path d="M51.7409 71.0986H59.4551V70.7875H51.7409V71.0986Z" fill="#DBDBDB"/>
<path d="M51.7409 71.8857H59.4551V71.5746H51.7409V71.8857Z" fill="#DBDBDB"/>
<path d="M60.885 66.0469V72.8159H50.2148V66.0469C50.6728 66.3052 51.1219 66.5782 51.5769 66.8453C52.0319 67.1124 52.481 67.3854 52.9271 67.6613C53.4281 67.9666 53.9281 68.2758 54.4271 68.5889L55.5485 69.2905L56.6668 68.5889H56.6522H56.6698L58.1668 67.6643C58.6159 67.3883 59.068 67.1183 59.52 66.8482C59.9721 66.5782 60.4271 66.3081 60.885 66.0469Z" fill="#6B6B6B"/>
<path d="M60.885 66.0469C60.4564 66.3404 60.0044 66.634 59.5817 66.9275C59.159 67.221 58.7011 67.5146 58.2637 67.8081C57.8263 68.1017 57.342 68.4099 56.8811 68.7063L56.84 68.7357L55.6101 69.5194L55.5485 69.5547L55.4897 69.5194L54.2628 68.7328L54.2187 68.7063C53.7549 68.4108 53.2931 68.1114 52.8332 67.8081C52.3958 67.5146 51.9526 67.221 51.5182 66.9275C51.0837 66.634 50.6375 66.3404 50.2148 66.0469C50.6728 66.3052 51.1219 66.5782 51.5769 66.8453C52.0319 67.1124 52.481 67.3854 52.9271 67.6613C53.4281 67.9666 53.9281 68.2758 54.4271 68.5889L55.5485 69.2905L56.6668 68.5889L58.1639 67.6643C58.613 67.3883 59.0651 67.1183 59.5171 66.8482C59.9692 66.5782 60.4271 66.3081 60.885 66.0469Z" fill="#DBDBDB"/>
<path d="M54.4437 68.583L54.2764 68.7268C54.0093 68.9529 53.7333 69.1701 53.4545 69.3785C53.114 69.6398 52.7676 69.8863 52.4183 70.1329C52.069 70.3795 51.7138 70.6172 51.3527 70.8462C50.9917 71.0752 50.6306 71.3041 50.252 71.5096C50.5778 71.2161 50.9124 70.9636 51.2529 70.7053C51.5934 70.447 51.9427 70.1975 52.2891 69.9509C52.6355 69.7043 52.9936 69.4666 53.3547 69.2347C53.6482 69.0497 53.9417 68.8707 54.2353 68.7004C54.3028 68.6593 54.3732 68.6212 54.4437 68.583Z" fill="#DBDBDB"/>
<path d="M60.8705 71.5184C60.4918 71.3129 60.1278 71.0869 59.7697 70.855C59.4116 70.6231 59.0564 70.3853 58.7012 70.1417C58.346 69.898 58.0055 69.6485 57.665 69.3873C57.3891 69.1789 57.1132 68.9646 56.849 68.7386L56.6787 68.5918H56.6641H56.6817L56.8901 68.7121C57.1836 68.8824 57.4772 69.0615 57.7707 69.2464C58.1288 69.4783 58.484 69.719 58.8333 69.9626C59.1826 70.2063 59.5319 70.4558 59.8695 70.717C60.2071 70.9783 60.5358 71.2366 60.8705 71.5184Z" fill="#DBDBDB"/>
<path d="M57.7375 65.4363C58.0234 64.2296 57.2769 63.0195 56.0702 62.7335C54.8634 62.4476 53.6533 63.1941 53.3673 64.4009C53.0814 65.6076 53.8279 66.8177 55.0347 67.1037C56.2415 67.3896 57.4516 66.6431 57.7375 65.4363Z" fill="#C6FF00"/>
<path d="M54.4121 65.1042C54.7329 65.3718 55.0368 65.659 55.3221 65.9642L55.1166 65.9789C55.2281 65.7822 55.3485 65.5914 55.4718 65.3918C55.5951 65.1922 55.7184 65.0132 55.8505 64.8312C56.1089 64.4582 56.3923 64.1032 56.6988 63.7686C56.5192 64.186 56.3103 64.5901 56.0735 64.9779C55.962 65.1717 55.8358 65.3625 55.7154 65.565C55.5951 65.7676 55.4659 65.9407 55.3309 66.1257L55.2281 66.2695L55.1254 66.1404C54.8655 65.8107 54.6273 65.4646 54.4121 65.1042Z" fill="white"/>
</svg>
