<svg width="720" height="391" viewBox="0 0 720 391" fill="none" xmlns="http://www.w3.org/2000/svg">
<path d="M320.434 194.166C316.078 196.788 311.004 197.963 305.939 197.524C300.873 197.084 296.078 195.052 292.238 191.719C288.399 188.386 285.714 183.923 284.567 178.969C283.42 174.016 283.871 168.827 285.855 164.146C287.839 159.465 291.255 155.532 295.611 152.911C299.968 150.291 305.043 149.117 310.108 149.558C315.173 149.998 319.968 152.032 323.807 155.366C327.645 158.7 330.329 163.163 331.475 168.117C332.628 173.069 332.18 178.258 330.196 182.939C328.212 187.62 324.794 191.551 320.434 194.166Z" fill="#635C5C"/>
<path d="M315.379 170.879C315.361 172.327 314.914 173.737 314.095 174.93C313.275 176.124 312.121 177.048 310.777 177.586C309.432 178.123 307.959 178.25 306.543 177.951C305.126 177.651 303.831 176.938 302.819 175.903C301.808 174.867 301.126 173.555 300.86 172.131C300.595 170.708 300.757 169.238 301.326 167.907C301.896 166.576 302.847 165.444 304.06 164.654C305.272 163.863 306.692 163.45 308.14 163.466C309.102 163.477 310.053 163.678 310.938 164.056C311.822 164.435 312.624 164.984 313.296 165.672C313.968 166.361 314.498 167.175 314.856 168.068C315.213 168.962 315.391 169.917 315.379 170.879Z" fill="white"/>
<path d="M320.467 191.145V194.167C316.635 196.47 312.237 197.66 307.767 197.604C303.297 197.549 298.93 196.249 295.157 193.852L295.198 190.838C295.218 189.177 295.565 187.536 296.22 186.009C296.874 184.481 297.823 183.098 299.012 181.938C300.201 180.777 301.607 179.862 303.15 179.245C304.692 178.628 306.341 178.321 308.003 178.341C309.664 178.361 311.305 178.708 312.832 179.363C314.359 180.017 315.743 180.966 316.903 182.155C318.064 183.344 318.979 184.75 319.596 186.292C320.213 187.835 320.52 189.484 320.5 191.145H320.467Z" fill="white"/>
<path d="M49.7742 122.518C47.2612 124.031 44.3763 124.812 41.4435 124.776C38.5107 124.739 35.6462 123.885 33.1718 122.31C30.2777 120.468 28.0631 117.733 26.8637 114.519C25.6644 111.305 25.5456 107.787 26.5254 104.5C27.5052 101.212 29.5303 98.3336 32.2935 96.3005C35.0567 94.2675 38.4075 93.1908 41.8378 93.2337C45.2681 93.2765 48.5908 94.4367 51.3024 96.5381C54.0139 98.6396 55.9664 101.568 56.8637 104.879C57.7611 108.19 57.5544 111.704 56.2751 114.887C54.9957 118.07 52.7134 120.749 49.7742 122.518Z" fill="#6B6B6B"/>
<path d="M46.4615 107.26C46.4516 108.21 46.1603 109.135 45.6245 109.918C45.0887 110.702 44.3325 111.309 43.4516 111.663C42.5707 112.016 41.6046 112.101 40.6756 111.905C39.7467 111.71 38.8966 111.243 38.2329 110.565C37.5693 109.886 37.1219 109.025 36.9474 108.092C36.7728 107.159 36.879 106.195 37.2525 105.323C37.626 104.45 38.25 103.707 39.0455 103.189C39.841 102.671 40.7723 102.401 41.7215 102.412C42.3512 102.419 42.9735 102.55 43.5527 102.797C44.1318 103.044 44.6566 103.403 45.0968 103.853C45.5371 104.304 45.8843 104.836 46.1184 105.421C46.3526 106.006 46.4692 106.631 46.4615 107.26Z" fill="white"/>
<path d="M49.7989 120.533V122.517C47.2859 124.029 44.401 124.811 41.4682 124.775C38.5354 124.738 35.6709 123.884 33.1965 122.309V120.342C33.2218 118.14 34.1207 116.039 35.6954 114.5C37.27 112.961 39.3915 112.111 41.5932 112.136C43.7948 112.162 45.8961 113.06 47.435 114.635C48.9739 116.21 49.8242 118.331 49.7989 120.533Z" fill="white"/>
<path d="M120.218 124.784H15.0915V52.8623H120.218V124.784ZM15.9216 123.954H119.388V53.6924H15.9216V123.954Z" fill="#6B6B6B"/>
<path d="M23.3101 57.4962C23.3101 57.9099 23.1874 58.3144 22.9576 58.6584C22.7277 59.0024 22.401 59.2705 22.0187 59.4289C21.6365 59.5872 21.2159 59.6286 20.8101 59.5479C20.4043 59.4672 20.0316 59.268 19.739 58.9754C19.4465 58.6828 19.2472 58.3101 19.1665 57.9043C19.0858 57.4985 19.1272 57.0779 19.2855 56.6957C19.4439 56.3134 19.712 55.9867 20.056 55.7568C20.4 55.527 20.8045 55.4043 21.2182 55.4043C21.773 55.4043 22.3051 55.6247 22.6974 56.017C23.0897 56.4093 23.3101 56.9414 23.3101 57.4962Z" fill="#A6A6A6"/>
<path d="M31.852 57.4962C31.852 57.9099 31.7293 58.3144 31.4995 58.6584C31.2696 59.0024 30.9429 59.2705 30.5606 59.4289C30.1784 59.5872 29.7578 59.6286 29.352 59.5479C28.9462 59.4672 28.5735 59.268 28.2809 58.9754C27.9884 58.6828 27.7891 58.3101 27.7084 57.9043C27.6277 57.4985 27.6691 57.0779 27.8274 56.6957C27.9858 56.3134 28.2539 55.9867 28.5979 55.7568C28.9419 55.527 29.3464 55.4043 29.7601 55.4043C30.3149 55.4043 30.847 55.6247 31.2393 56.017C31.6316 56.4093 31.852 56.9414 31.852 57.4962Z" fill="#6B6B6B"/>
<path d="M40.3939 57.4962C40.3939 57.9099 40.2713 58.3144 40.0414 58.6584C39.8115 59.0024 39.4848 59.2705 39.1026 59.4289C38.7203 59.5872 38.2997 59.6286 37.8939 59.5479C37.4881 59.4672 37.1154 59.268 36.8228 58.9754C36.5303 58.6828 36.3311 58.3101 36.2503 57.9043C36.1696 57.4985 36.2111 57.0779 36.3694 56.6957C36.5277 56.3134 36.7958 55.9867 37.1398 55.7568C37.4839 55.527 37.8883 55.4043 38.302 55.4043C38.8568 55.4043 39.3889 55.6247 39.7812 56.017C40.1735 56.4093 40.3939 56.9414 40.3939 57.4962Z" fill="#C6FF00"/>
<path d="M119.803 61.1807H15.5066V62.0108H119.803V61.1807Z" fill="#6B6B6B"/>
<path d="M79.6966 143.656L24.9265 151.129L29.666 185.863L84.4361 178.39L79.6966 143.656Z" fill="#6B6B6B"/>
<path d="M79.6912 143.67C77.7653 146.086 75.7896 148.418 73.8804 150.801C71.9711 153.183 69.929 155.491 67.945 157.815C65.961 160.139 63.7944 162.646 61.7025 165.037L61.5116 165.27C59.6687 167.378 57.8148 169.489 55.9498 171.603L55.6759 171.902L55.3355 171.686C52.978 170.151 50.6371 168.615 48.2878 167.063L48.0388 166.905C45.3824 165.153 42.726 163.394 40.0779 161.6C37.4299 159.807 35.0142 158.18 32.4907 156.445C29.9671 154.71 27.4518 152.951 24.9532 151.133C27.5515 152.627 30.1248 154.212 32.6982 155.756C35.2716 157.3 37.8532 158.911 40.4266 160.521C43.2822 162.298 46.1378 164.105 48.9934 165.942C51.1351 167.303 53.2741 168.687 55.4102 170.093C57.0705 168.192 58.7888 166.291 60.4906 164.415C62.7568 161.924 65.0147 159.384 67.2975 156.894C69.3396 154.68 71.3928 152.466 73.457 150.253C75.5323 148.02 77.5827 145.803 79.6912 143.67Z" fill="white"/>
<path d="M49.1511 166.721L49.093 166.787C48.844 167.069 48.5866 167.36 48.3293 167.617C47.1173 168.962 45.839 170.265 44.5772 171.544C43.0166 173.113 41.4061 174.632 39.7791 176.143C38.1521 177.653 36.5084 179.106 34.7984 180.542C33.0883 181.978 31.3949 183.398 29.6101 184.693C31.0711 183.033 32.6152 181.422 34.1758 179.861C35.7364 178.301 37.3551 176.765 38.9739 175.263C40.5926 173.76 42.2944 172.282 43.9546 170.846C45.2994 169.701 46.6691 168.564 48.1052 167.484C48.4289 167.227 48.761 166.986 49.093 166.737L49.1511 166.721Z" fill="white"/>
<path d="M84.1492 177.305C82.0739 176.475 79.9986 175.604 78.0395 174.674C76.0804 173.744 74.0466 172.748 72.0709 171.752C70.0953 170.756 68.1445 169.701 66.2601 168.606C64.6912 167.726 63.1306 166.813 61.6114 165.841L60.6319 165.219L60.5655 165.169H60.6485L61.8024 165.626C63.4626 166.29 65.0647 167.02 66.6752 167.767C68.6924 168.697 70.668 169.685 72.6354 170.689C74.6028 171.694 76.5619 172.74 78.4877 173.835C80.4136 174.931 82.2814 176.077 84.1492 177.305Z" fill="white"/>
<path d="M319.073 51.668H251.285V94.6598H319.073V51.668Z" fill="#6B6B6B"/>
<path d="M319.073 51.668C316.333 54.2828 313.544 56.7898 310.772 59.3715C307.999 61.9531 305.201 64.4103 302.404 66.9089C299.607 69.4076 296.552 72.0889 293.613 74.6457L293.356 74.8947C290.76 77.1581 288.156 79.4188 285.544 81.6768L285.154 81.9922L284.781 81.6768C282.174 79.4188 279.576 77.1554 276.986 74.8864L276.712 74.6457C273.762 72.0889 270.829 69.5045 267.913 66.8923C265.123 64.402 262.334 61.9116 259.553 59.3715C256.772 56.8313 254.008 54.2828 251.252 51.668C254.166 53.9093 257.063 56.2668 259.902 58.5663C262.741 60.8657 265.646 63.2481 268.494 65.6306C271.676 68.2593 274.85 70.9295 278.015 73.6412C280.389 75.6501 282.763 77.6701 285.138 79.7011C287.495 77.6756 289.869 75.6418 292.243 73.6412C295.409 70.9516 298.583 68.2814 301.765 65.6306C304.609 63.262 307.47 60.9127 310.348 58.5829C313.303 56.2668 316.159 53.9093 319.073 51.668Z" fill="white"/>
<path d="M278.148 74.6201C278.122 74.6443 278.094 74.6665 278.065 74.6865C277.708 74.9937 277.359 75.3008 277.002 75.5914C275.301 77.0275 273.557 78.4055 271.789 79.7419C269.631 81.4022 267.423 82.9711 265.198 84.54C262.973 86.109 260.732 87.6032 258.441 89.0725C256.15 90.5418 253.842 91.9696 251.451 93.2812C253.502 91.4798 255.602 89.803 257.802 88.1677C260.002 86.5323 262.176 84.9385 264.385 83.3696C266.593 81.8006 268.867 80.2981 271.158 78.8288C272.976 77.6584 274.827 76.5045 276.728 75.4253C277.16 75.1763 277.6 74.9273 278.048 74.6865L278.148 74.6201Z" fill="white"/>
<path d="M318.915 93.2714C316.516 91.9598 314.2 90.5237 311.917 89.0627C309.634 87.6017 307.385 86.066 305.143 84.5303C302.902 82.9946 300.719 81.3841 298.56 79.7322C296.801 78.404 295.057 77.0343 293.372 75.5816C292.999 75.2744 292.65 74.9673 292.293 74.6602C292.264 74.6401 292.236 74.6179 292.21 74.5938L292.31 74.6436L293.63 75.3907C295.531 76.4698 297.373 77.6237 299.2 78.7941C301.491 80.2635 303.732 81.7909 305.965 83.3349C308.198 84.8789 310.39 86.481 312.548 88.133C314.706 89.7849 316.856 91.4701 318.915 93.2714Z" fill="white"/>
<path d="M162.255 376.774C227.902 376.774 281.12 372.653 281.12 367.568C281.12 362.484 227.902 358.362 162.255 358.362C96.6079 358.362 43.3904 362.484 43.3904 367.568C43.3904 372.653 96.6079 376.774 162.255 376.774Z" fill="#6B6B6B"/>
<path d="M202.491 0H201.66V114.191H202.491V0Z" fill="#C7C7C7"/>
<path d="M168.19 146.856L170.921 152.849H233.246L235.961 146.856L209.43 128.485H194.729L168.19 146.856Z" fill="#C6FF00"/>
<path d="M192.885 110.797L194.728 128.487H209.43L211.273 110.797H192.885Z" fill="#C6FF00"/>
<path opacity="0.1" d="M168.198 146.855L170.921 152.849H233.255L235.969 146.855H168.198Z" fill="black"/>
<path opacity="0.1" d="M194.729 128.485L194.529 126.584L209.737 125.488L209.43 128.485H194.729Z" fill="black"/>
<path d="M145.934 0H145.104V78.2553H145.934V0Z" fill="#C7C7C7"/>
<path d="M111.634 110.92L114.365 116.913H176.69L179.405 110.92L152.874 92.5576H138.173L111.634 110.92Z" fill="#C6FF00"/>
<path d="M136.33 74.8594L138.173 92.5575H152.874L154.717 74.8594H136.33Z" fill="#C6FF00"/>
<path opacity="0.1" d="M111.642 110.93L114.364 116.915H176.69L179.412 110.93H111.642Z" fill="black"/>
<path opacity="0.1" d="M138.173 92.5587L137.957 90.5084L153.19 89.5205L152.874 92.5587H138.173Z" fill="black"/>
<path d="M287.777 260.411C288.026 256.218 288.62 252.054 289.554 247.959C290.434 244.265 291.679 240.488 294.011 237.425C295.037 235.986 296.338 234.763 297.838 233.829C299.338 232.894 301.008 232.266 302.753 231.979C306.181 231.564 309.394 233.092 311.959 235.242C315.13 237.915 317.562 241.459 319.845 244.888C322.344 248.725 324.617 252.705 326.652 256.808C326.726 256.941 326.519 257.057 326.453 256.924C324.684 253.45 322.647 250.119 320.359 246.963C318.273 243.933 315.926 241.092 313.345 238.471C310.996 236.18 308.007 234.03 304.595 233.922C301.184 233.814 298.079 235.715 296.045 238.33C293.762 241.252 292.6 244.896 291.729 248.449C290.847 252.343 290.275 256.302 290.019 260.286C289.346 268.513 289.188 276.789 288.981 285.032C288.873 289.697 288.815 294.371 288.765 299.036L288.715 306.134C288.798 308.418 288.707 310.704 288.441 312.974C288.358 313.431 287.611 313.389 287.528 312.974C287.252 310.825 287.149 308.657 287.221 306.491C287.188 304.249 287.16 302.008 287.138 299.767C287.094 295.411 287.077 291.053 287.088 286.692C287.072 277.918 287.18 269.144 287.777 260.411Z" fill="#263238"/>
<path d="M299.532 254.209C299.963 251.885 300.752 248.855 302.072 247.054C304.454 243.816 307.052 245.219 304.653 248.805C302.902 251.468 301.768 254.489 301.333 257.646C301.333 257.646 305.334 263.366 310.165 266.18C309.958 263.98 309.335 260.601 309.767 257.339C310.697 250.275 314.972 250.698 313.918 256.285C313.087 260.784 312.722 265.565 312.955 267.632C314.569 268.679 316.302 269.529 318.118 270.164C317.836 269.334 317.545 268.363 317.221 267.167C315.503 260.834 319.712 258.866 319.861 262.428C320.141 265.466 320.697 268.472 321.521 271.409C323.837 272.19 325.763 272.721 326.934 273.128C329.977 274.255 332.697 276.114 334.853 278.54C337.053 276.553 338.88 274.189 340.249 271.559C338.771 270.289 336.439 268.404 333.201 266.113C327.133 261.83 329.241 256.417 334.031 259.779C337.501 262.212 340.191 266.711 341.419 269.019C343.057 264.994 343.986 260.717 344.167 256.376C339.402 251.902 327.606 245.659 331.159 245.659C334.363 245.659 341.519 250.349 344.142 252.159C344.08 250.929 343.946 249.704 343.744 248.49C339.253 245.543 324.651 240.969 326.984 239.649C329.532 238.205 339.718 242.92 342.797 244.406C342.219 242.405 341.306 240.516 340.099 238.819C333.89 230.518 322.667 227.654 317.819 229.231C314.366 230.352 315.329 239.118 314.631 238.819C300.735 233.265 294.426 237.184 299.532 254.209ZM333.566 253.246C334.554 252.059 339.103 255.562 337.792 257.472C336.48 259.381 332.28 254.774 333.55 253.246H333.566ZM309.767 245.775C310.962 246.539 309.194 250.964 307.343 249.627C305.791 248.482 308.547 245.003 309.75 245.775H309.767Z" fill="#C6FF00"/>
<path d="M311.601 247.127C312.224 245.89 312.88 244.636 313.594 243.466C314.251 242.289 315.018 241.177 315.885 240.145C315.694 239.905 315.503 239.656 315.296 239.415C315.213 239.315 315.354 239.182 315.437 239.274C315.669 239.539 315.893 239.813 316.117 240.104C316.141 240.116 316.162 240.132 316.179 240.152C316.196 240.172 316.209 240.195 316.217 240.22C317.075 241.249 317.885 242.304 318.649 243.383C320.015 243.697 321.362 244.088 322.684 244.553C324.045 245.01 325.398 245.483 326.718 246.039C326.859 246.097 326.784 246.33 326.652 246.263C325.34 245.691 324.012 245.126 322.65 244.67C321.289 244.213 320.06 243.898 318.757 243.532C319.18 244.13 319.587 244.728 319.994 245.342C322.445 246.118 324.83 247.089 327.125 248.247C329.532 249.393 331.848 250.738 334.156 252.058C334.289 252.132 334.156 252.34 334.031 252.257C331.762 250.931 329.427 249.723 327.033 248.637C324.8 247.592 322.493 246.737 320.243 245.74C325.913 254.581 329.308 264.792 333.857 274.238C333.923 274.379 333.708 274.487 333.649 274.355C332.263 271.034 330.661 267.813 329.15 264.551C327.797 261.621 326.469 258.682 325.116 255.752C324.717 254.921 324.286 254.042 323.887 253.195C324.136 257.918 324.037 262.725 324.817 267.39C324.817 267.405 324.814 267.42 324.808 267.434C324.802 267.448 324.794 267.461 324.783 267.472C324.772 267.483 324.759 267.491 324.745 267.497C324.731 267.503 324.716 267.506 324.701 267.506C324.686 267.506 324.67 267.503 324.656 267.497C324.642 267.491 324.629 267.483 324.619 267.472C324.608 267.461 324.599 267.448 324.593 267.434C324.588 267.42 324.585 267.405 324.585 267.39C324.253 262.343 323.364 257.37 323.397 252.298C323.397 252.298 323.397 252.257 323.397 252.232C322.435 250.298 321.405 248.397 320.301 246.546C318.425 250.962 316.449 255.453 315.578 260.201C315.578 260.342 315.312 260.284 315.345 260.135C316.624 255.378 317.836 250.613 320.102 246.214C318.899 244.21 317.565 242.288 316.109 240.461C315.478 241.631 314.673 242.744 313.959 243.864C313.245 244.985 312.573 246.064 311.925 247.185C310.529 249.567 309.343 252.067 308.381 254.656C308.323 254.797 308.098 254.722 308.157 254.589C309.236 252.107 310.331 249.576 311.601 247.127Z" fill="#263238"/>
<path d="M266.891 257.888C270.527 254.235 274.753 249.454 280.373 249.462C285.802 249.462 289.794 253.837 292.085 258.344C294.485 263.059 295.348 268.397 296.029 273.585C296.831 279.802 297.318 286.055 297.49 292.321C297.589 295.799 297.573 299.286 297.49 302.764C297.479 306.291 297.201 309.813 296.659 313.298C296.56 313.854 295.655 313.879 295.622 313.298C295.456 310.368 295.572 307.421 295.622 304.49C295.672 301.56 295.622 298.68 295.489 295.832C295.273 290.022 294.85 284.211 294.161 278.4C293.563 273.328 293.09 268.123 291.571 263.225C290.209 258.809 287.644 253.762 283.17 251.819C277.06 249.18 271.092 254.011 267.099 258.095C266.966 258.17 266.775 257.996 266.891 257.888Z" fill="#263238"/>
<path d="M248.338 266.037C248.338 266.784 248.404 267.515 248.454 268.237C250.203 266.925 252.252 266.069 254.414 265.747C259.577 265.199 259.245 269.117 255.8 269.283C253.373 269.313 250.972 269.795 248.72 270.703C249.55 277.518 251.434 282.997 251.716 283.071C256.295 282.834 260.853 282.279 265.355 281.411C264.068 278.672 261.146 275.036 262.641 274.77C264.135 274.504 265.754 277.709 266.584 281.187C269.971 280.54 273.302 279.627 276.545 278.456C274.271 276.488 270.734 274.04 272.104 273.002C273.474 271.964 276.255 275.401 277.915 277.908C279.437 277.287 280.878 276.484 282.207 275.517C279.143 271.018 271.689 270.105 272.66 266.859C273.631 263.613 280.613 268.113 283.742 274.131C287.42 270.312 288.499 264.917 288.109 260.301C284.904 259.928 278.745 260.608 279.193 258.309C279.641 256.009 284.091 256.441 287.735 257.786C287.401 255.959 286.67 254.227 285.593 252.714C282.223 248.381 271.913 253.893 271.913 253.893C271.913 253.893 273.017 243.533 269.091 241.748C266.824 240.719 262.823 240.727 258.814 243.084C261.063 243.275 263.795 243.989 264.874 245.575C266.277 247.559 264.044 248.646 262.666 247.725C261.678 247.077 259.835 245.027 256.506 244.753C255.085 245.962 253.833 247.358 252.787 248.904C252.405 249.443 252.057 250.008 251.7 250.622C253.602 249.763 255.672 249.337 257.759 249.374C259.846 249.411 261.899 249.911 263.77 250.838C268.236 253.054 265.737 257.695 261.894 255.893C258.05 254.092 254.422 252.315 250.313 253.336C248.869 256.984 248.183 260.887 248.296 264.809C250.297 263.351 252.548 262.274 254.937 261.629C259.378 260.467 260.748 263.115 255.842 263.613C253.201 263.899 250.647 264.724 248.338 266.037ZM253.742 258.907C253.435 257.462 256.581 257.055 257.104 258.218C257.544 259.214 254.041 260.343 253.742 258.907ZM280.687 266.876C280.986 266.087 283.095 266.984 282.904 267.963C282.638 269.266 280.397 267.656 280.687 266.876ZM265.812 271.923C267.347 271.309 269.746 275.127 268.07 275.999C266.393 276.87 264.55 272.429 265.812 271.923Z" fill="#C6FF00"/>
<path d="M252.314 282.317C254.63 278.448 256.921 274.563 259.354 270.761C260.483 268.993 261.67 267.258 262.898 265.557L262.35 265.424L261.429 265.249C260.715 265.125 260.001 265.025 259.279 264.951C258.557 264.876 257.926 264.843 257.245 264.834C256.521 264.794 255.794 264.833 255.078 264.951C255.063 264.951 255.048 264.945 255.037 264.934C255.026 264.923 255.02 264.908 255.02 264.893C255.02 264.877 255.026 264.862 255.037 264.851C255.048 264.841 255.063 264.834 255.078 264.834C255.801 264.834 256.539 264.768 257.262 264.76C257.984 264.751 258.673 264.76 259.37 264.81C260.029 264.845 260.686 264.914 261.338 265.017C261.703 265.067 262.06 265.133 262.417 265.2C262.638 265.235 262.857 265.282 263.073 265.341C264.326 263.614 265.629 261.929 266.974 260.269C262.971 258.325 258.711 256.964 254.323 256.226C254.248 256.226 254.282 256.102 254.323 256.11C258.784 256.729 263.121 258.046 267.173 260.011L269.406 257.297C270.236 256.293 271.141 255.305 271.897 254.242C271.946 254.167 272.046 254.242 271.996 254.309C270.952 255.452 269.971 256.652 269.058 257.903C270.714 259.052 272.29 260.314 273.773 261.68C275.311 263.047 276.811 264.458 278.272 265.914C278.33 265.963 278.272 266.046 278.189 265.997C276.745 264.56 275.25 263.191 273.69 261.888C272.129 260.584 270.477 259.397 268.908 258.11C268.551 258.592 268.194 259.065 267.829 259.53C267.646 259.762 267.472 260.003 267.29 260.244L267.248 260.294C266.642 261.074 266.044 261.863 265.447 262.651C266.149 263.666 266.749 264.748 267.24 265.88C267.754 266.968 268.211 268.097 268.626 269.201C269.455 271.566 270.099 273.991 270.552 276.456C270.552 276.522 270.461 276.556 270.444 276.456C269.95 274.028 269.245 271.647 268.335 269.342C267.887 268.163 267.373 267.009 266.85 265.855C266.327 264.702 265.779 263.805 265.33 262.743C264.816 263.432 264.293 264.129 263.786 264.826C263.637 265.025 263.496 265.233 263.355 265.44C263.355 265.482 263.355 265.54 263.305 265.548C261.711 267.765 260.2 270.039 258.731 272.339C258.818 272.496 258.885 272.663 258.93 272.837C259.022 273.119 259.113 273.401 259.196 273.667C259.361 274.235 259.496 274.811 259.603 275.394C259.694 275.933 259.777 276.489 259.827 277.054C259.84 277.681 259.888 278.307 259.968 278.93C259.968 279.021 259.835 279.029 259.852 278.93C259.893 278.346 259.851 277.759 259.727 277.187C259.644 276.589 259.528 275.991 259.395 275.402C259.262 274.812 259.121 274.339 258.963 273.816C258.889 273.559 258.806 273.293 258.714 273.036C258.623 272.779 258.598 272.754 258.548 272.613C257.859 273.692 257.179 274.771 256.506 275.867C255.178 278.033 253.858 280.2 252.522 282.367C252.515 282.394 252.498 282.418 252.474 282.433C252.45 282.447 252.421 282.452 252.393 282.445C252.366 282.439 252.342 282.422 252.327 282.397C252.312 282.373 252.308 282.344 252.314 282.317Z" fill="#263238"/>
<path d="M288.018 312.042C288.076 309.851 288.425 307.634 288.665 305.459C288.906 303.285 289.147 301.076 289.379 298.885C289.836 294.66 290.085 290.343 291.04 286.201C291.774 282.597 293.57 279.296 296.195 276.721C297.556 275.36 299.344 274.507 301.258 274.305C303.183 274.252 305.071 274.836 306.629 275.965C308.402 277.277 309.93 278.89 311.145 280.73C312.458 282.549 313.637 284.461 314.673 286.45C314.673 286.524 314.59 286.574 314.548 286.5C312.595 283.179 310.005 280.276 306.928 277.958C305.557 276.833 303.886 276.137 302.122 275.957C301.261 275.942 300.405 276.098 299.606 276.418C298.806 276.737 298.078 277.212 297.465 277.816C294.908 280.041 293.422 283.312 292.542 286.524C291.496 290.326 291.164 294.336 290.641 298.237C290.326 300.553 290.035 302.878 289.728 305.202C289.421 307.526 289.23 309.876 288.74 312.15C288.705 312.224 288.647 312.284 288.575 312.323C288.503 312.361 288.42 312.375 288.339 312.363C288.258 312.351 288.183 312.314 288.126 312.256C288.068 312.198 288.03 312.123 288.018 312.042Z" fill="#263238"/>
<path d="M298.809 295.008C299.486 295.926 300.288 296.745 301.192 297.44C300.835 295.307 300.361 291.497 301.474 289.479C303.134 286.333 305.143 287.902 304.139 290.633C303.138 293.099 302.592 295.726 302.528 298.387C304.811 299.815 307.255 300.968 309.808 301.823C309.539 300.592 309.457 299.327 309.567 298.071C309.908 294.709 312.481 294.751 311.809 298.27C311.56 299.623 311.443 300.996 311.46 302.371C315.174 303.516 318.971 304.374 322.816 304.936C324.778 302.389 326.361 299.57 327.515 296.569C324.775 295.888 319.213 295.739 319.355 293.771C319.512 291.14 324.875 293.165 328.021 295.074C328.737 292.785 329.057 290.39 328.967 287.994C326.504 287.309 323.974 286.891 321.422 286.748C315.785 286.259 316.059 283.063 320.143 283.137C323.157 283.195 326.967 285.038 328.776 286.001C327.598 278.331 321.754 273.425 317.063 273.234C309.186 272.919 312.025 282.722 312.025 282.722C312.025 282.722 306.679 278.97 301.64 279.07C296.601 279.169 293.422 287.512 298.809 295.008ZM319.853 280.83C319.678 279.726 323.173 279.46 323.381 280.879C323.588 282.465 320.027 281.95 319.853 280.83ZM325.514 292.335C325.439 291.613 326.958 291.505 327.299 292.393C327.531 293.032 325.572 293.032 325.514 292.335ZM306.621 293.032C307.808 293.198 308.488 297.449 306.438 297.366C304.852 297.274 305.583 292.866 306.621 293.032Z" fill="#C6FF00"/>
<path d="M308.231 297.723C308.43 297.192 308.605 296.661 308.771 296.121C308.621 296.661 308.48 297.209 308.381 297.781C308.377 297.791 308.371 297.8 308.364 297.808C308.357 297.815 308.348 297.821 308.338 297.826C308.329 297.83 308.318 297.832 308.308 297.832C308.297 297.833 308.287 297.831 308.277 297.827C308.267 297.823 308.258 297.817 308.25 297.81C308.243 297.803 308.237 297.794 308.233 297.785C308.228 297.775 308.226 297.765 308.226 297.754C308.226 297.743 308.227 297.733 308.231 297.723Z" fill="#263238"/>
<path d="M310.315 290.899C310.68 289.812 311.095 288.733 311.518 287.662C311.742 287.097 311.983 286.525 312.232 286.002C312.407 285.502 312.641 285.026 312.929 284.582C312.688 284.137 312.474 283.677 312.29 283.204C312.29 283.163 312.332 283.121 312.365 283.163C312.948 283.908 313.462 284.706 313.901 285.545C314.125 285.91 314.332 286.292 314.54 286.666C314.987 286.705 315.43 286.775 315.868 286.873C316.341 286.956 316.814 287.056 317.279 287.164C317.744 287.272 318.217 287.371 318.682 287.488C319.147 287.604 319.612 287.753 320.085 287.82C320.193 287.82 320.143 288.011 320.044 287.969C319.563 287.8 319.068 287.672 318.566 287.587C318.118 287.488 317.661 287.405 317.205 287.347C316.748 287.288 316.291 287.222 315.827 287.172L314.789 287.089C314.972 287.421 315.171 287.745 315.353 288.077C315.378 288.134 315.405 288.189 315.436 288.243C315.817 288.238 316.196 288.283 316.565 288.376C316.972 288.451 317.395 288.525 317.786 288.617C318.616 288.799 319.446 288.99 320.234 289.214C321.945 289.696 323.621 290.235 325.307 290.783C325.398 290.783 325.307 290.958 325.248 290.924C323.575 290.366 321.874 289.895 320.151 289.513C319.321 289.33 318.541 289.148 317.736 288.982L316.516 288.725C316.198 288.673 315.885 288.601 315.578 288.509C316.408 290.111 317.238 291.746 318.01 293.406C319.67 297.017 321.023 300.745 322.426 304.455C322.426 304.547 322.318 304.605 322.285 304.513C320.931 300.827 319.362 297.224 317.586 293.722C317.271 293.083 316.947 292.452 316.632 291.804C316.632 291.937 316.574 292.07 316.549 292.203C316.466 292.634 316.391 293.074 316.316 293.514C316.167 294.394 316.017 295.274 315.885 296.154C315.51 297.958 315.298 299.791 315.254 301.633C315.254 301.749 315.079 301.741 315.096 301.633C315.237 300.761 315.237 299.848 315.295 298.968C315.353 298.088 315.42 297.117 315.528 296.204C315.636 295.291 315.744 294.436 315.893 293.556C315.968 293.116 316.042 292.676 316.125 292.236C316.145 291.905 316.227 291.582 316.366 291.281C315.91 290.36 315.453 289.43 314.98 288.509C314.507 287.587 314.1 286.774 313.652 285.919C313.461 285.553 313.253 285.188 313.054 284.815C312.909 285.268 312.734 285.712 312.531 286.143L311.925 287.637C311.468 288.733 311.053 289.845 310.63 290.958C310.032 292.535 309.377 294.145 308.887 295.789C309.368 294.129 309.775 292.485 310.315 290.899Z" fill="#263238"/>
<path d="M308.77 296.121C308.77 295.988 308.845 295.864 308.886 295.739C308.845 295.864 308.812 295.988 308.77 296.121Z" fill="#263238"/>
<path d="M274.843 307.776L275.4 319.506L276.819 349.739H308.015L309.443 319.506L309.991 307.776H274.843Z" fill="#37474F"/>
<path d="M274.843 307.776L275.4 319.506H309.443L309.991 307.776H274.843Z" fill="#263238"/>
<path d="M272.619 312.516H312.207V303.027H272.619V312.516Z" fill="#37474F"/>
<path d="M305.492 349.738H300.013V354.702H305.492V349.738Z" fill="#37474F"/>
<path d="M305.492 349.738H300.013V352.22H305.492V349.738Z" fill="#263238"/>
<path d="M284.822 349.738H279.352V354.702H284.822V349.738Z" fill="#37474F"/>
<path d="M284.822 349.738H279.352V352.22H284.822V349.738Z" fill="#263238"/>
<path d="M0 354.829L43.4484 354.63L86.8968 354.555L173.802 354.414L260.707 354.555L304.155 354.63L347.604 354.829L304.155 355.037L260.707 355.103L173.802 355.244L86.8968 355.103L43.4484 355.037L0 354.829Z" fill="#263238"/>
<path d="M396.165 275C394.541 275 392.843 275 391.144 274.942V274.322C392.857 274.363 394.585 274.38 396.224 274.38H397.022V275H396.121H396.165ZM404.479 274.851L404.406 274.231C406.37 274.157 408.334 274.057 410.313 273.925L410.445 274.545C408.452 274.669 406.458 274.777 404.479 274.851ZM383.805 274.678C381.885 274.578 379.891 274.463 377.898 274.322L378.031 273.702C380.01 273.842 381.974 273.966 383.938 274.057L383.805 274.678ZM417.77 273.9L417.549 273.297C419.483 273.082 421.403 272.842 423.279 272.569L423.559 273.173C421.625 273.446 419.675 273.694 417.726 273.9H417.77ZM370.514 273.702C368.579 273.512 366.615 273.305 364.696 273.082L364.917 272.478C366.837 272.701 368.786 272.908 370.706 273.09L370.514 273.702ZM357.43 272.156C355.495 271.891 353.576 271.602 351.7 271.329L351.995 270.733C353.856 271.031 355.776 271.321 357.696 271.56L357.43 272.156ZM430.574 271.957L430.205 271.37C432.065 271.006 433.896 270.601 435.669 270.171L436.112 270.733C434.369 271.172 432.508 271.618 430.618 271.957H430.574ZM344.612 270.072C341.082 269.419 339.03 268.948 339 268.948L339.428 268.369C339.428 268.369 341.466 268.832 344.966 269.485L344.612 270.072ZM442.772 268.89L442.225 268.344C443.924 267.815 445.607 267.236 447.232 266.632L447.837 267.153C446.242 267.765 444.559 268.311 442.816 268.89H442.772ZM453.847 264.714L453.168 264.226C454.733 263.548 456.269 262.854 457.731 262.151L458.455 262.622C457.022 263.35 455.472 264.036 453.892 264.714H453.847ZM463.919 259.819L463.151 259.373C464.539 258.604 465.913 257.81 467.227 257.008L468.039 257.43C466.71 258.24 465.381 259.042 463.963 259.819H463.919ZM472.853 254.263L471.982 253.882C473.208 253.056 474.389 252.13 475.497 251.245L476.412 251.6C475.319 252.502 474.094 253.428 472.898 254.255L472.853 254.263ZM480.444 248.119L479.499 247.797C480.518 246.854 481.477 245.887 482.378 244.928L483.353 245.217C482.496 246.185 481.477 247.16 480.488 248.119H480.444ZM486.543 241.463L485.539 241.215C486.292 240.231 487.015 239.198 487.709 238.164L488.758 238.379C488.108 239.429 487.385 240.463 486.587 241.463H486.543ZM491.047 234.427L489.984 234.253C490.53 233.211 491.017 232.137 491.46 231.07L492.538 231.21C492.14 232.285 491.638 233.369 491.091 234.41L491.047 234.427ZM493.912 227.126L492.819 227.027C493.114 225.952 493.351 224.852 493.543 223.769L494.635 223.827C494.503 224.926 494.251 226.034 493.956 227.126H493.912ZM495.093 219.684H493.986C493.986 219.205 493.986 218.725 493.986 218.246C493.986 217.625 493.986 217.005 493.986 216.393H495.093C495.093 217.014 495.093 217.634 495.093 218.262C495.167 218.7 495.152 219.188 495.138 219.676L495.093 219.684ZM500.661 218.965C499.863 218.965 499.08 218.965 498.283 218.965V218.345C500.226 218.407 502.173 218.407 504.116 218.345L504.19 218.965C503.112 218.932 501.901 218.957 500.675 218.957L500.661 218.965ZM490.884 218.469C488.927 218.27 486.99 218.014 485.081 217.7L485.391 217.105C487.261 217.412 489.159 217.663 491.076 217.857L490.884 218.469ZM511.633 218.328L511.411 217.725C513.319 217.511 515.203 217.235 517.053 216.898L517.392 217.485C515.518 217.825 513.609 218.104 511.677 218.32L511.633 218.328ZM478.14 216.22C476.327 215.761 474.562 215.244 472.853 214.674L473.414 214.144C475.091 214.7 476.821 215.202 478.598 215.649L478.14 216.22ZM524.318 215.831L523.831 215.277C525.568 214.779 527.255 214.227 528.881 213.624L529.487 214.136C527.819 214.761 526.088 215.333 524.303 215.848L524.318 215.831ZM466.725 212.301C465.75 211.862 464.775 211.391 463.845 210.903C463.313 210.622 462.797 210.341 462.368 210.076L463.151 209.638C463.638 209.919 464.14 210.192 464.628 210.465C465.543 210.945 466.488 211.399 467.448 211.838L466.725 212.301ZM493.513 212.251C493.292 211.151 493.011 210.06 492.686 209.002L493.779 208.894C494.119 209.969 494.399 211.077 494.606 212.201L493.513 212.251ZM535.423 211.614L534.685 211.151C536.149 210.429 537.54 209.662 538.85 208.853L539.662 209.274C538.323 210.103 536.903 210.89 535.409 211.631L535.423 211.614ZM457.613 206.794C456.507 205.863 455.596 204.864 454.896 203.817L455.93 203.61C456.594 204.622 457.456 205.59 458.499 206.496L457.613 206.794ZM544.314 205.967L543.398 205.611C544.24 204.95 545.037 204.247 545.79 203.544C546.041 203.313 546.292 203.081 546.529 202.842L547.489 203.147C547.238 203.387 547.001 203.627 546.75 203.859C545.968 204.644 545.141 205.347 544.299 206.025L544.314 205.967ZM491.15 204.95C490.619 203.859 490.028 202.808 489.378 201.825L490.427 201.61C491.076 202.61 491.682 203.677 492.214 204.785L491.15 204.95ZM454.793 199.683H453.685C453.754 198.545 454.194 197.424 454.984 196.376L456.003 196.615C455.277 197.589 454.867 198.628 454.793 199.683ZM550.782 199.518L549.778 199.278C550.516 198.302 551.254 197.269 551.889 196.219L552.938 196.417C552.258 197.451 551.535 198.492 550.767 199.476L550.782 199.518ZM486.351 198.195C485.438 197.24 484.37 196.335 483.161 195.491L484.018 195.094C485.271 195.97 486.379 196.908 487.325 197.897L486.351 198.195ZM460.257 193.44L459.577 192.961C461.174 192.24 463.011 191.706 464.982 191.39L465.277 191.985C463.449 192.266 461.738 192.747 460.242 193.399L460.257 193.44ZM477.682 192.928C476.018 192.402 474.213 192.031 472.336 191.828L472.543 191.216C474.537 191.437 476.456 191.833 478.229 192.39L477.682 192.928ZM555.094 192.44L554.016 192.283C554.488 191.299 554.946 190.249 555.419 189.083L556.497 189.215C556.009 190.356 555.552 191.415 555.079 192.399L555.094 192.44ZM558.047 185.164L556.955 185.04L558.092 181.798L559.17 181.914L558.047 185.164ZM560.676 177.879L559.598 177.739C560.071 176.548 560.543 175.49 561.075 174.514L562.138 174.679C561.562 175.605 561.089 176.655 560.617 177.838L560.676 177.879ZM564.368 170.777L563.334 170.562C563.994 169.495 564.768 168.451 565.653 167.436L566.642 167.717C565.766 168.701 564.987 169.712 564.309 170.744L564.368 170.777ZM570.526 164.319L569.625 163.947C570.805 163.05 572.092 162.199 573.479 161.4L574.262 161.83C572.901 162.597 571.633 163.415 570.467 164.278L570.526 164.319ZM579.756 159.168L579.091 158.663C580.7 158.009 582.371 157.405 584.097 156.853L584.644 157.398C582.932 157.931 581.279 158.522 579.697 159.168H579.756ZM591.201 155.604L590.758 155.034C592.308 154.67 593.947 154.322 595.646 154L596 154.587C594.272 154.86 592.663 155.199 591.142 155.563L591.201 155.604Z" fill="white"/>
<path d="M402.523 155.68L396.172 173.129L409.512 162.711L460.498 144.225L402.523 155.68Z" fill="#C6FF00"/>
<path opacity="0.1" d="M402.523 155.68L396.172 173.129L409.512 162.711L460.498 144.225L402.523 155.68Z" fill="black"/>
<path d="M411.222 166.778L396.172 173.128L409.512 162.71L411.222 166.778Z" fill="#263238"/>
<path d="M409.512 162.711L460.498 144.225L418.676 185.033L409.512 162.711Z" fill="#C6FF00"/>
<path d="M402.523 155.68L381.338 142L460.498 144.225L402.523 155.68Z" fill="#C6FF00"/>
<path d="M388.309 391C386.512 391 384.634 391 382.755 390.885V389.66C384.65 389.742 386.561 389.775 388.374 389.775H389.256V391H388.26H388.309ZM397.506 390.706L397.424 389.481C399.597 389.334 401.769 389.138 403.958 388.876L404.105 390.101C401.9 390.346 399.695 390.559 397.506 390.706ZM374.637 390.363C372.513 390.167 370.308 389.938 368.102 389.66L368.249 388.435C370.438 388.713 372.611 388.958 374.784 389.138L374.637 390.363ZM412.207 388.827L411.962 387.635C414.102 387.21 416.226 386.736 418.3 386.197L418.611 387.39C416.471 387.929 414.315 388.419 412.158 388.827H412.207ZM359.935 388.435C357.795 388.059 355.622 387.651 353.499 387.21L353.744 386.018C355.867 386.459 358.024 386.867 360.147 387.226L359.935 388.435ZM345.462 385.38C343.322 384.858 341.198 384.286 339.124 383.747L339.451 382.571C341.509 383.159 343.632 383.731 345.756 384.204L345.462 385.38ZM426.37 384.988L425.962 383.829C428.02 383.11 430.045 382.309 432.006 381.46L432.496 382.571C430.568 383.437 428.51 384.319 426.419 384.988H426.37ZM331.283 381.264C327.379 379.974 325.108 379.042 325.076 379.042L325.549 377.899C325.549 377.899 327.804 378.814 331.675 380.104L331.283 381.264ZM439.863 378.928L439.258 377.85C441.137 376.805 442.999 375.661 444.796 374.469L445.466 375.498C443.702 376.706 441.839 377.785 439.912 378.928H439.863ZM452.114 370.679L451.363 369.715C453.094 368.376 454.793 367.003 456.41 365.615L457.211 366.546C455.626 367.984 453.911 369.339 452.163 370.679H452.114ZM463.255 361.008L462.405 360.126C463.941 358.607 465.46 357.039 466.914 355.454L467.812 356.288C466.342 357.888 464.872 359.473 463.304 361.008H463.255ZM473.137 350.031L472.174 349.28C473.53 347.646 474.836 345.817 476.061 344.069L477.074 344.771C475.865 346.552 474.51 348.381 473.186 350.015L473.137 350.031ZM481.534 337.894L480.488 337.257C481.615 335.395 482.677 333.484 483.674 331.589L484.752 332.161C483.804 334.072 482.677 335.999 481.583 337.894H481.534ZM488.28 324.744L487.169 324.254C488.002 322.31 488.803 320.269 489.571 318.227L490.73 318.651C490.012 320.726 489.211 322.768 488.329 324.744H488.28ZM493.262 310.843L492.086 310.5C492.691 308.442 493.23 306.318 493.72 304.211L494.912 304.489C494.471 306.612 493.916 308.752 493.311 310.811L493.262 310.843ZM496.431 296.419L495.223 296.223C495.549 294.1 495.811 291.927 496.023 289.787L497.232 289.902C497.085 292.074 496.807 294.263 496.48 296.419H496.431ZM497.738 281.718H496.513C496.513 280.77 496.513 279.823 496.513 278.875C496.513 277.65 496.513 276.425 496.513 275.216H497.738C497.738 276.441 497.738 277.666 497.738 278.908C497.82 279.774 497.804 280.737 497.787 281.701L497.738 281.718ZM503.897 280.296C503.014 280.296 502.149 280.296 501.267 280.296V279.071C503.416 279.194 505.57 279.194 507.719 279.071L507.801 280.296C506.608 280.231 505.269 280.28 503.913 280.28L503.897 280.296ZM493.083 279.316C490.917 278.924 488.774 278.417 486.663 277.797L487.006 276.621C489.074 277.228 491.174 277.724 493.295 278.108L493.083 279.316ZM516.034 279.039L515.789 277.846C517.899 277.424 519.982 276.879 522.029 276.213L522.404 277.372C520.331 278.044 518.22 278.595 516.083 279.022L516.034 279.039ZM478.985 274.873C476.98 273.966 475.028 272.946 473.137 271.819L473.758 270.773C475.612 271.87 477.527 272.863 479.492 273.746L478.985 274.873ZM530.065 274.105L529.526 273.011C531.448 272.027 533.313 270.937 535.113 269.744L535.783 270.757C533.937 271.992 532.023 273.121 530.049 274.138L530.065 274.105ZM466.358 267.13C465.28 266.265 464.202 265.333 463.173 264.37C462.585 263.814 462.013 263.259 461.539 262.736L462.405 261.87C462.944 262.426 463.5 262.965 464.039 263.504C465.052 264.451 466.097 265.35 467.159 266.216L466.358 267.13ZM495.99 267.032C495.745 264.86 495.435 262.703 495.076 260.613L496.284 260.4C496.66 262.524 496.97 264.713 497.199 266.934L495.99 267.032ZM542.349 265.774L541.533 264.86C543.152 263.434 544.69 261.918 546.139 260.319L547.038 261.152C545.557 262.789 543.986 264.344 542.333 265.807L542.349 265.774ZM456.28 256.251C455.056 254.412 454.048 252.439 453.274 250.37L454.417 249.962C455.153 251.961 456.106 253.873 457.26 255.663L456.28 256.251ZM552.183 254.618L551.17 253.915C552.102 252.608 552.984 251.22 553.817 249.831C554.094 249.374 554.372 248.917 554.633 248.443L555.695 249.047C555.418 249.521 555.156 249.995 554.879 250.452C554.013 252.004 553.098 253.392 552.167 254.732L552.183 254.618ZM493.377 252.608C492.789 250.452 492.135 248.378 491.416 246.434L492.576 246.009C493.295 247.986 493.965 250.093 494.553 252.282L493.377 252.608ZM453.16 242.203H451.934C452.01 239.955 452.498 237.741 453.372 235.669L454.499 236.143C453.695 238.067 453.242 240.119 453.16 242.203ZM559.338 241.876L558.227 241.402C559.044 239.475 559.861 237.433 560.563 235.358L561.723 235.75C560.972 237.792 560.171 239.851 559.322 241.794L559.338 241.876ZM488.068 239.263C487.058 237.377 485.877 235.589 484.539 233.921L485.487 233.137C486.874 234.867 488.099 236.72 489.146 238.674L488.068 239.263ZM459.204 229.87L458.452 228.922C460.218 227.499 462.251 226.444 464.431 225.819L464.758 226.995C462.735 227.55 460.842 228.5 459.187 229.788L459.204 229.87ZM478.479 228.857C476.638 227.819 474.641 227.085 472.566 226.684L472.794 225.476C475 225.911 477.123 226.694 479.083 227.795L478.479 228.857ZM564.108 227.893L562.915 227.583C563.438 225.639 563.945 223.564 564.467 221.261L565.66 221.523C565.121 223.777 564.614 225.868 564.092 227.812L564.108 227.893ZM567.375 213.518L566.166 213.273L567.424 206.87L568.616 207.099L567.375 213.518ZM570.283 199.127L569.09 198.849C569.613 196.497 570.136 194.406 570.724 192.479L571.9 192.805C571.263 194.635 570.74 196.709 570.217 199.045L570.283 199.127ZM574.366 185.095L573.223 184.67C573.953 182.562 574.809 180.5 575.788 178.496L576.882 179.051C575.913 180.995 575.051 182.991 574.301 185.03L574.366 185.095ZM581.178 172.337L580.182 171.602C581.486 169.83 582.911 168.149 584.445 166.571L585.311 167.421C583.805 168.936 582.402 170.552 581.113 172.256L581.178 172.337ZM591.388 162.161L590.653 161.164C592.432 159.872 594.281 158.678 596.19 157.587L596.794 158.665C594.901 159.717 593.073 160.884 591.322 162.161H591.388ZM604.047 155.12L603.557 153.993C605.272 153.274 607.086 152.588 608.964 151.951L609.356 153.111C607.445 153.65 605.665 154.32 603.982 155.039L604.047 155.12Z" fill="#263238"/>
<path d="M605.533 126.944L593.036 161.28L619.287 140.78L719.617 104.401L605.533 126.944Z" fill="#C6FF00"/>
<path opacity="0.1" d="M605.533 126.944L593.036 161.28L619.287 140.78L719.617 104.401L605.533 126.944Z" fill="black"/>
<path d="M622.652 148.782L593.036 161.278L619.287 140.777L622.652 148.782Z" fill="#263238"/>
<path d="M619.287 140.78L719.617 104.401L637.321 184.705L619.287 140.78Z" fill="#C6FF00"/>
<path d="M605.534 126.944L563.846 100.023L719.618 104.401L605.534 126.944Z" fill="#C6FF00"/>
<path d="M35.5199 354.694L173.801 355.291C207.413 328.902 210.882 289.795 186.9 266.095C172.398 251.75 153.969 254.639 136.446 252.356H136.396C130.286 251.526 124.293 250.14 118.598 247.135C100.526 237.605 90.3741 215.117 75.1414 196.199C73.2487 193.833 71.2648 191.525 69.1895 189.301C56.6879 175.952 31.8341 175.521 18.793 194.281C-14.2956 241.955 0.845811 312.955 35.5199 354.694Z" fill="#C6FF00"/>
<path opacity="0.1" d="M32.4488 245.59C36.0681 302.328 101.598 323.505 142.514 306.512C178.101 291.728 166.455 258 136.446 252.355H136.396C130.287 251.525 124.293 250.139 118.598 247.134C100.527 237.604 90.3744 215.116 75.1418 196.198C52.4712 184.426 29.7924 204.05 32.4488 245.59Z" fill="black"/>
<path d="M162.636 363.593C160.502 362.812 112.306 324.295 111.401 321.663C111.052 320.667 116.249 313.362 122.782 304.621C124.193 302.745 125.662 300.811 127.165 298.86C136.902 286.168 147.536 272.936 147.536 272.936L179.853 298.603L158.593 323.83L153.928 329.367C153.928 329.367 165.782 352.37 166.471 355.358C167.16 358.346 164.769 364.423 162.636 363.593Z" fill="#D3766A"/>
<path d="M162.636 363.592C160.503 362.761 112.314 324.294 111.401 321.662C111.111 320.832 114.497 315.851 119.296 309.318C126.302 317.694 150.732 342.631 157.406 345.968C161.64 348.085 160.802 343.926 159.216 339.792C162.47 346.292 166.098 353.738 166.471 355.348C167.16 358.378 164.769 364.422 162.636 363.592Z" fill="#263238"/>
<path d="M212.485 249.276C210.277 266.061 168.904 314.524 164.123 320.085L163.01 321.347L128.809 295.049L129.199 294.543L159.341 255.079C159.341 255.079 109.534 284.133 84.5723 270.959C73.3574 265.032 65.0562 254.498 65.0562 254.498L97.5969 237.148C97.5969 237.148 106.604 240.062 112.356 239.224C132.196 236.318 176.649 219.442 187.2 219.865C200.822 220.421 214.519 233.869 212.485 249.276Z" fill="#37474F"/>
<path d="M170.165 240.411C169.045 241.672 168.005 243.003 167.052 244.395C165.99 245.798 164.902 247.176 163.84 248.546V248.588C164.031 248.172 164.213 247.757 164.413 247.359C165.085 245.964 165.625 244.528 166.413 243.208C166.418 243.192 166.418 243.175 166.412 243.16C166.406 243.144 166.395 243.131 166.38 243.122C166.366 243.113 166.349 243.11 166.332 243.112C166.316 243.114 166.3 243.122 166.289 243.134C165.459 244.454 164.529 245.707 163.798 247.093C163.466 247.749 163.159 248.413 162.869 249.086C162.711 249.451 162.545 249.824 162.404 250.198C162.326 250.373 162.259 250.554 162.204 250.738C161.731 251.385 161.258 252.033 160.802 252.697C159.789 254.166 158.892 255.718 157.863 257.179C157.805 257.254 157.929 257.329 157.987 257.254C159.025 255.884 160.196 254.606 161.25 253.245C162.304 251.883 163.35 250.439 164.355 249.003C165.359 247.567 166.297 246.189 167.285 244.786C168.359 243.405 169.349 241.961 170.248 240.461C170.273 240.428 170.207 240.369 170.165 240.411Z" fill="#263238"/>
<path d="M59.6516 191.998C59.1951 202.01 56.9704 213.955 61.2123 223.435C64.5327 230.856 71.5472 235.887 78.7859 239.074C94.7242 246.122 117.029 247.043 128.195 231.221C132.652 224.904 133.416 211.739 126.02 206.924C122.226 204.433 117.718 203.886 113.418 202.723C110.741 202.1 108.239 200.881 106.099 199.156C103.959 197.431 102.236 195.246 101.058 192.762C95.9361 182.493 96.9572 174.981 95.9859 163.874C95.9642 162.77 95.7123 161.683 95.2463 160.683C94.7803 159.682 94.1105 158.79 93.2797 158.063C91.4554 156.268 89.177 155.002 86.6886 154.402C84.5662 153.477 82.2468 153.095 79.9397 153.29C75.0254 153.805 70.3021 158.337 66.4918 161.159C62.6816 163.982 60.8719 166.97 60.5731 171.843C60.1663 178.542 59.9588 185.274 59.6516 191.998Z" fill="#263238"/>
<path d="M58.4146 196.738C59.4274 187.607 60.6061 178.475 61.7351 169.344C61.7351 169.294 61.8264 169.294 61.8181 169.344C61.1125 176.881 60.5065 184.427 59.7013 191.956C58.8712 199.344 57.5928 206.899 57.4517 214.312C57.1362 230.989 74.2865 237.771 88.4649 236.957C89.1124 236.957 89.0958 237.953 88.4649 237.97C76.0131 238.294 61.1125 234.035 57.3438 220.479C55.2519 213.041 57.5845 204.209 58.4146 196.738Z" fill="#263238"/>
<path d="M95.1809 162.994C95.1809 162.82 95.4466 162.828 95.4549 162.994C95.8699 172.125 95.4549 182.917 100.718 190.878C103.29 194.812 106.995 197.874 111.343 199.66C114.788 201.063 118.441 201.188 122.035 201.893C136.147 204.658 136.255 223.667 126.02 231.08C125.804 231.238 125.53 230.873 125.738 230.707C132.943 224.971 135.317 214.536 129.448 206.882C124.733 200.739 115.685 202.732 109.26 199.411C95.9447 192.505 94.9402 176.309 95.1809 162.994Z" fill="#263238"/>
<path d="M80.7696 202.822C86.8626 211.571 107.674 235.612 122.118 238.899C130.079 240.717 168.53 246.096 173.801 241.298C179.977 235.678 177.121 214.51 172.207 214.319C157.223 213.73 129.506 216.66 122.583 215.149C119.453 214.452 102.851 203.743 85.1194 195.176C78.412 191.922 76.8348 197.177 80.7696 202.822Z" fill="#D3766A"/>
<path d="M95.645 223.791L101.456 202.382C101.456 202.382 91.7019 196.97 85.8828 194.737C78.1793 191.782 75.2739 193.907 79.9973 202.889C83.1683 208.874 95.645 223.791 95.645 223.791Z" fill="#6B6B6B"/>
<path d="M94.2093 221.068C94.8402 217.897 95.5126 214.734 96.3261 211.605C96.7329 210.044 97.1563 208.483 97.6211 206.939C98.086 205.395 98.692 203.884 99.1153 202.332C99.1153 202.249 99.2814 202.291 99.2482 202.332C98.7418 203.86 98.4181 205.47 98.003 207.022C97.5879 208.575 97.1729 210.135 96.7412 211.696C95.9111 214.817 95.081 217.938 94.3339 221.068C94.3173 221.201 94.1927 221.159 94.2093 221.068Z" fill="#263238"/>
<path d="M100.552 205.753L95.6457 223.8C95.6457 223.8 83.1939 208.858 80.0062 202.889C78.5535 200.125 77.8147 198.008 77.7317 196.497L100.552 205.753Z" fill="#263238"/>
<path d="M49.4492 262.078C51.3668 262.701 105.764 246.953 105.764 246.953L99.3394 228.068C99.3394 228.068 102.519 221.992 101 216.148C99.0322 208.344 84.5798 195.511 83.4509 194.755C78.935 191.759 74.6599 191.759 70.8663 193.792C55.1521 202.152 49.4492 262.078 49.4492 262.078Z" fill="#6B6B6B"/>
<path d="M90.9557 201.554C92.3586 203.214 93.8611 204.742 95.3055 206.336C94.6331 205.149 93.9607 203.953 93.2468 202.783C94.3049 204.154 95.2279 205.625 96.0028 207.174C97.0889 208.382 98.0902 209.663 98.9996 211.009C100.126 212.607 100.969 214.388 101.49 216.272C101.941 218.178 101.997 220.155 101.656 222.083C101.24 224.303 100.626 226.481 99.8214 228.591C99.7218 228.873 99.3233 228.691 99.398 228.417C100.419 224.731 101.581 220.838 100.759 216.986C99.9376 213.134 97.5634 209.963 95.2474 206.933C93.8848 205.082 92.407 203.319 90.8229 201.654C90.7897 201.579 90.8893 201.488 90.9557 201.554Z" fill="#263238"/>
<path d="M81.8904 226.706C84.2298 226.255 86.5993 225.977 88.9796 225.875C90.1584 225.875 91.3372 225.876 92.5159 225.934C93.1053 225.934 93.6947 225.934 94.2841 225.934C94.9001 225.953 95.5161 225.897 96.1186 225.768C96.1684 225.768 96.1933 225.834 96.1186 225.851C95.5752 226.033 95.0207 226.18 94.4584 226.291C93.9089 226.377 93.3542 226.427 92.7982 226.44C91.5945 226.44 90.3991 226.44 89.1955 226.49C86.7798 226.54 84.3559 226.589 81.9485 226.822C81.7991 226.913 81.7825 226.722 81.8904 226.706Z" fill="#263238"/>
<path d="M76.8185 230.309C78.6421 229.586 80.5045 228.965 82.3969 228.449C83.3516 228.192 84.3062 228.001 85.2692 227.827L86.6637 227.603C87.1701 227.528 87.6931 227.52 88.1995 227.437C88.2576 227.437 88.2825 227.511 88.1995 227.52C87.718 227.611 87.2531 227.785 86.7883 227.901L85.3605 228.258C84.4141 228.499 83.4678 228.756 82.5132 228.989C80.6122 229.454 78.7195 229.935 76.8351 230.466C76.8178 230.463 76.8019 230.454 76.79 230.441C76.778 230.428 76.7706 230.411 76.7687 230.394C76.7669 230.376 76.7707 230.358 76.7796 230.343C76.7886 230.328 76.8022 230.316 76.8185 230.309Z" fill="#263238"/>
<path d="M74.2782 194.854C74.494 195.842 79.1012 202.325 83.6004 202.142C85.0614 202.092 85.1444 194.09 85.1444 194.09L85.2856 193.501L87.2612 185.241L76.2207 178.011C76.2207 178.011 74.1869 194.43 74.2782 194.854Z" fill="#D3766A"/>
<path d="M87.2613 185.234L85.2856 193.535C83.0613 192.663 81.0447 191.334 79.3661 189.634C77.6874 187.934 76.384 185.901 75.54 183.665C75.8804 180.818 76.1709 178.452 76.2124 178.104C76.2142 178.087 76.2142 178.07 76.2124 178.054L77.6153 178.884L87.2613 185.234Z" fill="#263238"/>
<path d="M97.9613 170.026C101.639 184.47 93.404 188.288 90.291 189.118C87.4603 189.832 77.7479 191.916 72.6012 177.937C67.4545 163.957 73.0079 157.682 79.3833 155.698C85.7586 153.714 94.2922 155.59 97.9613 170.026Z" fill="#D3766A"/>
<path d="M95.189 168.233C94.8403 168.233 94.5083 168.233 94.1596 168.233C93.7949 168.273 93.4271 168.192 93.1137 168.001C93.0277 167.921 92.9705 167.815 92.951 167.699C92.9314 167.584 92.9507 167.465 93.0058 167.361C93.1414 167.172 93.3255 167.023 93.5388 166.929C93.7521 166.836 93.9866 166.802 94.2178 166.83C94.6991 166.813 95.1695 166.976 95.5376 167.287C95.6091 167.363 95.6579 167.458 95.6786 167.56C95.6993 167.663 95.6911 167.769 95.6549 167.867C95.6188 167.965 95.5561 168.052 95.4738 168.116C95.3915 168.181 95.2929 168.221 95.189 168.233Z" fill="#263238"/>
<path d="M85.4767 171.27C85.817 171.162 86.1076 171.013 86.4313 170.88C86.7841 170.786 87.098 170.583 87.3279 170.299C87.3805 170.194 87.3977 170.075 87.3767 169.96C87.3558 169.845 87.2978 169.739 87.2116 169.66C87.017 169.53 86.7913 169.455 86.5577 169.442C86.3242 169.428 86.0914 169.478 85.8834 169.585C85.4283 169.737 85.0464 170.054 84.8126 170.473C84.7626 170.572 84.7425 170.683 84.7548 170.792C84.7672 170.902 84.8114 171.006 84.8821 171.091C84.9528 171.175 85.0468 171.238 85.1525 171.269C85.2582 171.301 85.3709 171.302 85.4767 171.27Z" fill="#263238"/>
<path d="M87.9504 173.09C87.9504 173.09 87.884 173.148 87.8923 173.189C88.133 174.177 88.2326 175.348 87.4025 175.862C87.4025 175.862 87.4025 175.929 87.4025 175.912C88.49 175.539 88.299 173.986 87.9504 173.09Z" fill="#263238"/>
<path d="M86.8546 172.232C85.1944 172.44 85.7588 175.669 87.2697 175.478C88.7805 175.287 88.216 172.058 86.8546 172.232Z" fill="#263238"/>
<path d="M86.2487 172.507C85.9914 172.731 85.7672 173.104 85.4186 173.196C85.0699 173.287 84.6798 173.005 84.3643 172.723C84.3643 172.723 84.3145 172.723 84.3145 172.772C84.4141 173.395 84.7545 173.984 85.4352 173.968C86.1159 173.951 86.3981 173.337 86.4479 172.689C86.4728 172.565 86.3483 172.415 86.2487 172.507Z" fill="#263238"/>
<path d="M93.6952 171.835C93.6952 171.835 93.7782 171.876 93.7865 171.918C93.911 172.922 94.2264 174.051 95.1811 174.242V174.3C94.0521 174.276 93.6537 172.773 93.6952 171.835Z" fill="#263238"/>
<path d="M94.4255 170.606C96.0193 170.233 96.6502 173.445 95.1726 173.794C93.695 174.143 93.089 170.922 94.4255 170.606Z" fill="#263238"/>
<path d="M95.1395 170.691C95.4218 170.807 95.7372 171.073 96.0443 171.031C96.3515 170.99 96.5922 170.583 96.7499 170.201C96.7499 170.201 96.7998 170.201 96.8081 170.201C96.9409 170.807 96.8662 171.488 96.3017 171.72C95.7372 171.953 95.2806 171.488 95.015 170.89C94.9403 170.832 95.0233 170.641 95.1395 170.691Z" fill="#263238"/>
<path d="M89.2863 181.971C89.552 182.187 89.8176 182.486 90.1912 182.486C90.5668 182.444 90.9291 182.322 91.2537 182.129C91.2537 182.129 91.3201 182.129 91.3035 182.179C91.1765 182.391 90.9944 182.564 90.7766 182.681C90.5589 182.798 90.3136 182.854 90.0667 182.843C89.8625 182.8 89.6752 182.699 89.5277 182.552C89.3802 182.404 89.279 182.217 89.2365 182.013C89.1701 181.963 89.2448 181.938 89.2863 181.971Z" fill="#263238"/>
<path d="M92.9729 177.388C93.1862 178.104 93.3635 178.83 93.5041 179.563C93.5041 179.63 93.3464 179.688 93.114 179.737C92.5243 179.938 91.8907 179.972 91.2829 179.836C90.6752 179.7 90.1167 179.398 89.669 178.965C89.6567 178.952 89.6495 178.935 89.6486 178.918C89.6478 178.9 89.6535 178.882 89.6645 178.868C89.6756 178.854 89.6914 178.844 89.7089 178.841C89.7265 178.837 89.7447 178.84 89.7603 178.849C90.751 179.335 91.8733 179.483 92.9563 179.273C92.9563 179.073 92.1261 176.782 92.2506 176.782C92.8075 176.756 93.3654 176.8 93.9109 176.915C93.0808 173.827 91.8107 170.897 91.0553 167.784C91.0533 167.763 91.058 167.742 91.0688 167.724C91.0796 167.705 91.0958 167.691 91.1152 167.683C91.1346 167.675 91.1561 167.673 91.1767 167.677C91.1972 167.682 91.2158 167.693 91.2296 167.709C92.7157 170.804 93.8866 174.042 94.7244 177.372C94.8074 177.787 93.28 177.471 92.9729 177.388Z" fill="#263238"/>
<path d="M93.0386 179.463C92.7526 180.119 92.304 180.69 91.7353 181.124C91.4194 181.353 91.0383 181.475 90.6479 181.472C89.8177 181.472 89.5936 180.733 89.5853 180.069C89.5845 179.717 89.6235 179.367 89.7015 179.023C90.7389 179.521 91.9078 179.675 93.0386 179.463Z" fill="#263238"/>
<path d="M91.7353 181.117C91.4194 181.346 91.0383 181.468 90.6478 181.465C89.8177 181.465 89.5936 180.727 89.5853 180.062C90.0099 179.973 90.4524 180.028 90.8421 180.219C91.2317 180.41 91.5462 180.726 91.7353 181.117Z" fill="#FF9CBD"/>
<path d="M73.6309 178.982C75.1915 178.467 78.1384 173.022 76.2208 165.36C76.2208 165.36 77.466 172.358 77.217 173.495C76.9679 174.632 78.8772 170.44 77.4079 164.239C79.7137 165.107 82.1316 165.641 84.5884 165.825C87.7097 165.825 89.4861 165.36 89.6355 165.094C89.785 164.828 85.1529 164.621 83.6421 163.6C83.6421 163.6 92.3251 165.119 95.961 164.43C96.3844 164.355 94.6079 155.755 88.1413 153.638C81.6747 151.522 73.9878 157.731 72.2529 160.628C72.2529 160.628 69.5965 161.757 67.6955 166.63C65.7945 171.503 71.9623 179.538 73.6309 178.982Z" fill="#263238"/>
<path d="M75.1749 178.428C75.1749 178.428 71.2152 174.368 69.3641 175.854C67.5129 177.34 70.9745 183.591 73.5644 184.097C73.8923 184.19 74.2356 184.215 74.5733 184.169C74.9109 184.124 75.2357 184.01 75.5275 183.834C75.8193 183.658 76.0718 183.424 76.2696 183.147C76.4674 182.87 76.6062 182.555 76.6774 182.221L75.1749 178.428Z" fill="#D3766A"/>
<path d="M70.3687 177.645C70.3271 177.645 70.3271 177.703 70.3687 177.711C72.1949 178.118 73.3571 179.563 74.2619 181.107C74.131 180.954 73.9686 180.832 73.7859 180.748C73.6032 180.664 73.4046 180.62 73.2035 180.62C73.0025 180.62 72.8038 180.664 72.6211 180.748C72.4384 180.832 72.276 180.954 72.1451 181.107C72.1036 181.107 72.1451 181.206 72.2115 181.19C72.4963 181.043 72.8198 180.989 73.1369 181.035C73.4539 181.081 73.7486 181.225 73.9797 181.447C74.3667 181.802 74.7145 182.197 75.0173 182.626C75.1252 182.767 75.3826 182.626 75.2996 182.468C74.9509 180.235 72.7511 177.454 70.3687 177.645Z" fill="#263238"/>
<path d="M63.0967 207.098C58.722 231.91 62.9556 250.497 67.1643 252.804C78.512 258.997 105.765 246.429 113.452 243.93C116.523 242.926 102.411 219.151 99.2235 220.629C91.7524 224.082 81.2846 229.943 80.8613 229.893C80.0311 229.81 79.035 223.476 74.7018 204.989C71.1904 190.097 64.8898 196.954 63.0967 207.098Z" fill="#D3766A"/>
<path d="M138.223 208.867C139.003 211.988 131.15 213.25 131.15 213.25C132.456 213.719 133.557 214.629 134.263 215.823C135.409 217.982 132.52 220.713 132.52 220.713C133.772 221.479 134.764 222.604 135.367 223.942C136.255 226.117 133.707 229.296 133.707 229.296C134.468 230.634 134.722 232.202 134.421 233.712C133.458 237.714 127.323 239.291 123.721 241.017C119.861 242.869 113.469 243.549 110.571 244.853L98.0118 221.842C98.0118 221.842 110.148 208.991 117.105 206.999C120.948 205.87 137.036 204.102 138.223 208.867Z" fill="#D3766A"/>
<path d="M131.066 213.182C126.7 212.991 122.292 213.846 118.05 214.718C118.035 214.723 118.023 214.733 118.014 214.745C118.005 214.758 118 214.773 118 214.789C118 214.804 118.005 214.819 118.014 214.832C118.023 214.844 118.035 214.854 118.05 214.859C122.259 213.946 126.816 214.137 131.05 213.39C131.073 213.385 131.094 213.373 131.11 213.356C131.126 213.338 131.135 213.316 131.137 213.292C131.139 213.269 131.133 213.245 131.12 213.225C131.108 213.205 131.089 213.19 131.066 213.182Z" fill="#263238"/>
<path d="M132.295 220.431C131.299 220.482 130.314 220.664 129.365 220.97C128.344 221.236 127.331 221.518 126.31 221.8C124.284 222.398 122.267 223.037 120.275 223.735C120.184 223.735 120.209 223.909 120.275 223.884C122.292 223.295 124.326 222.738 126.376 222.224C127.397 221.966 128.427 221.726 129.448 221.485C130.435 221.314 131.401 221.036 132.328 220.655C132.342 220.639 132.353 220.619 132.359 220.599C132.365 220.578 132.366 220.556 132.363 220.535C132.36 220.514 132.352 220.493 132.34 220.475C132.329 220.457 132.313 220.442 132.295 220.431Z" fill="#263238"/>
<path d="M133.657 229.321C132.755 229.378 131.87 229.592 131.042 229.952L128.278 230.782C126.435 231.347 124.592 231.903 122.732 232.401C122.641 232.401 122.666 232.575 122.732 232.55C124.625 232.052 126.526 231.588 128.419 231.073C129.34 230.824 130.27 230.566 131.191 230.301C132.071 230.152 132.915 229.843 133.682 229.388C133.684 229.382 133.686 229.375 133.686 229.369C133.687 229.362 133.685 229.355 133.683 229.349C133.681 229.343 133.677 229.337 133.673 229.333C133.668 229.328 133.663 229.324 133.657 229.321Z" fill="#263238"/>
<path d="M80.828 229.893C83.7999 228.183 86.8132 226.573 89.8348 224.912L94.4088 222.538L96.7082 221.384C97.4901 220.977 98.2969 220.619 99.1238 220.314L98.9744 220.397C101 218.429 103.034 216.478 105.184 214.644C106.246 213.722 107.325 212.809 108.446 211.954C109.551 211.07 110.728 210.282 111.966 209.597C110.799 210.375 109.69 211.235 108.645 212.17C107.583 213.083 106.529 214.013 105.499 214.976C103.457 216.902 101.407 218.828 99.431 220.787L99.3812 220.828L99.2816 220.87C98.576 221.127 97.7625 221.55 97.007 221.899L94.691 223.028L90.1005 225.327C87.029 226.896 83.9659 228.432 80.828 229.893Z" fill="#263238"/>
<path d="M58.8797 228.683L78.7112 218.722C78.7112 218.722 76.2208 207.847 74.0044 202.02C71.0658 194.316 67.5212 193.602 64.043 203.082C61.6689 209.433 58.8797 228.683 58.8797 228.683Z" fill="#6B6B6B"/>
<path d="M59.9506 225.793C62.7315 224.133 65.5373 222.539 68.4095 221.061C69.8456 220.322 71.2983 219.6 72.751 218.903C74.2037 218.206 75.7394 217.666 77.1839 216.952C77.2586 216.952 77.3167 217.043 77.2337 217.077C75.7644 217.708 74.3532 218.554 72.917 219.276C71.4809 219.999 70.0282 220.721 68.5921 221.46C65.7199 222.929 62.8394 224.39 60.0004 225.926C59.9257 225.959 59.8759 225.834 59.9506 225.793Z" fill="#263238"/>
<path d="M61.2538 227.452C60.4901 227.917 59.7181 228.348 58.9544 228.788L58.6804 228.946L58.7219 228.622C59.0208 225.875 59.4109 223.152 59.8924 220.437C60.3739 217.723 60.93 215.017 61.6688 212.36C61.5028 213.73 61.3202 215.091 61.1127 216.453C60.9051 217.814 60.7142 219.176 60.4901 220.537C60.0584 223.252 59.5686 225.966 59.0374 228.672L58.8049 228.498C59.6185 228.182 60.4237 227.817 61.2538 227.452Z" fill="#263238"/>
<path d="M60.5814 215.125C60.6186 215.761 60.6186 216.398 60.5814 217.034C60.5621 217.67 60.5095 218.305 60.4236 218.935C60.3183 217.665 60.3573 216.387 60.5398 215.125H60.5814Z" fill="#263238"/>
<path d="M76.2954 219.982C77.0593 219.519 77.8462 219.095 78.653 218.712C78.3292 217.433 77.9889 216.171 77.6817 214.893C77.524 214.254 77.3829 213.615 77.2501 212.976C77.1173 212.336 76.8931 211.465 76.7603 210.842C76.7603 210.742 76.8682 210.709 76.8931 210.801C77.1505 211.631 77.3082 212.203 77.524 212.892C77.7398 213.581 77.8893 214.138 78.0553 214.76C78.3956 216.08 78.819 217.475 79.1012 218.811C78.2069 219.29 77.2805 219.706 76.3286 220.056C76.3192 220.059 76.3092 220.058 76.3004 220.053C76.2916 220.049 76.2846 220.042 76.2807 220.033C76.2767 220.024 76.276 220.014 76.2787 220.005C76.2814 219.995 76.2873 219.987 76.2954 219.982Z" fill="#263238"/>
<path d="M77.8812 211.682C78.014 212.465 78.014 213.264 77.8812 214.047C77.7374 213.265 77.7374 212.464 77.8812 211.682Z" fill="#263238"/>
<path d="M155.863 242.719H98.1361V245.309H155.863V242.719Z" fill="#C7C7C7"/>
<path d="M110.488 242.719L108.512 245.309H155.862V242.719H110.488Z" fill="#A6A6A6"/>
<path d="M112.962 245.302H169.219L173.901 207.1H117.644L112.962 245.302Z" fill="#191919"/>
<path d="M140.007 226.2C139.992 226.648 140.068 227.095 140.231 227.513C140.394 227.931 140.64 228.312 140.955 228.633C141.269 228.953 141.645 229.206 142.06 229.378C142.475 229.549 142.92 229.634 143.369 229.628C144.282 229.624 145.158 229.263 145.809 228.623C146.46 227.982 146.836 227.113 146.855 226.2C146.868 225.755 146.792 225.313 146.632 224.898C146.471 224.484 146.228 224.106 145.918 223.787C145.609 223.468 145.238 223.214 144.829 223.041C144.419 222.868 143.979 222.779 143.535 222.779C142.615 222.771 141.729 223.125 141.068 223.765C140.408 224.405 140.026 225.28 140.007 226.2Z" fill="white"/>
<path d="M173.444 210.791C175.561 214.062 180.799 217.889 181.521 220.694C181.725 221.38 181.702 222.114 181.455 222.785C181.208 223.457 180.751 224.031 180.151 224.422C180.151 224.422 183.181 225.468 183.414 228.124C183.538 229.485 181.455 230.88 181.455 230.88C181.455 230.88 183.854 231.818 183.945 234.2C183.995 236.093 181.903 237.205 181.903 237.205C181.903 237.205 183.779 239.181 183.215 241.124C182.061 245.067 165.956 247.192 162.686 241.588C161.158 238.982 165.126 238.675 165.126 238.675C165.126 238.675 159.315 237.737 158.792 234.424C158.27 231.112 163.441 231.029 163.441 231.029C163.441 231.029 157.83 230.075 157.63 226.588C157.423 222.961 162.611 223.766 162.611 223.766C162.611 223.766 158.709 221.807 159.174 219.101C159.93 214.643 169.136 219.383 172.548 218.079L173.444 210.791Z" fill="#D3766A"/>
<path d="M181.571 237.413C181.582 237.413 181.593 237.417 181.601 237.425C181.608 237.433 181.613 237.444 181.613 237.455C181.613 237.466 181.608 237.476 181.601 237.484C181.593 237.492 181.582 237.496 181.571 237.496C176.25 239.585 170.419 240.004 164.853 238.7C164.678 238.65 164.67 238.351 164.853 238.359C170.442 238.86 176.074 238.541 181.571 237.413Z" fill="#263238"/>
<path d="M181.538 230.907C181.604 230.907 181.621 230.99 181.538 231.015C176.241 233.04 169.194 233.505 163.217 231.197C163.009 231.114 162.91 230.84 163.15 230.915C167.268 232.169 176.407 232.036 181.538 230.907Z" fill="#263238"/>
<path d="M162.179 223.444C167.99 225.47 173.884 225.428 179.919 224.515C179.993 224.515 180.002 224.615 179.919 224.648C177.088 225.893 173.178 226.076 170.123 225.96C167.289 225.908 164.518 225.112 162.088 223.652C162.03 223.594 162.071 223.403 162.179 223.444Z" fill="#263238"/>
<path d="M287.568 319.97C286.78 322.103 248.113 370.175 245.481 371.072C244.485 371.42 237.18 366.199 228.472 359.633C226.604 358.213 224.679 356.744 222.728 355.233C210.068 345.454 196.87 334.779 196.87 334.779L222.603 302.554L247.756 323.888L253.276 328.57C253.276 328.57 276.312 316.79 279.309 316.118C282.305 315.445 288.357 317.845 287.568 319.97Z" fill="#D3766A"/>
<path d="M287.577 319.977C286.747 322.102 248.113 370.174 245.482 371.079C244.61 371.386 238.899 367.427 231.669 362.039C239.049 356.668 267.057 331.441 270.817 324.609C272.793 321.015 269.904 321.04 266.368 322.036C272.179 319.188 277.948 316.432 279.351 316.109C282.339 315.445 288.358 317.844 287.577 319.977Z" fill="#263238"/>
<path d="M246.445 319.023L219.624 355.216L129.141 292.409L120.383 286.391C120.383 286.391 117.893 288.051 114.19 290.11C109.027 292.965 101.456 296.585 94.7572 297.581C83.5174 299.241 64.7567 299.067 55.285 286.399C47.3076 275.741 51.6408 261.828 51.6408 261.828L63.9764 256.507C63.9764 256.507 93.1717 232.184 112.123 231.454C120.151 231.13 131.847 237.264 142.68 243.582C153.513 249.899 246.445 319.023 246.445 319.023Z" fill="#37474F"/>
<path d="M120.383 286.392C120.383 286.392 117.893 288.052 114.191 290.11C107.616 282.241 93.6949 267.938 93.2715 267.432L120.383 286.392Z" fill="#263238"/>
<path d="M74.6767 248.33C72.9334 249.542 71.24 250.821 69.5216 252.074C67.8033 253.328 66.0766 254.448 64.4662 255.785C62.8558 257.121 61.2785 258.599 59.7345 260.06C58.9957 260.766 58.2569 261.48 57.5347 262.21C56.7752 262.914 56.0729 263.677 55.4345 264.493C55.3764 264.568 55.4926 264.659 55.559 264.617C56.3795 264.032 57.1614 263.394 57.9 262.708C58.7301 262.019 59.5602 261.322 60.3405 260.633C61.9094 259.296 63.5116 258.001 65.0722 256.665C66.6328 255.328 68.0689 253.884 69.6129 252.514C71.157 251.145 72.9998 249.725 74.7099 248.364C74.7431 248.364 74.7099 248.306 74.6767 248.33Z" fill="#263238"/>
<path d="M240.153 317.728C238.41 319.604 236.832 321.629 235.172 323.613C233.512 325.597 231.926 327.606 230.316 329.607C227.103 333.633 223.858 337.626 220.695 341.693C218.96 343.926 217.242 346.176 215.631 348.492C215.556 348.6 215.722 348.716 215.805 348.625C219.267 344.815 222.446 340.755 225.642 336.746C228.838 332.736 232.059 328.727 235.23 324.618C236.957 322.393 238.742 320.177 240.327 317.844C240.369 317.753 240.211 317.645 240.153 317.728Z" fill="#263238"/>
<path d="M165.865 318.102C161.366 314.549 156.692 311.196 152.027 307.867C147.362 304.538 142.738 301.226 138.023 298.022C136.67 297.1 135.3 296.195 133.939 295.29C132.577 294.386 131.158 293.547 129.83 292.609C129.747 292.559 129.68 292.684 129.755 292.742C130.984 293.622 132.137 294.601 133.341 295.515C134.545 296.428 135.632 297.266 136.786 298.121C139.052 299.781 141.335 301.442 143.618 303.102C148.244 306.422 152.907 309.715 157.605 312.98C160.278 314.807 162.935 316.649 165.666 318.393C165.832 318.476 166.023 318.218 165.865 318.102Z" fill="#263238"/>
<path d="M194.811 280.753C190.661 277.308 186.195 274.203 181.828 271.016C177.462 267.828 173.029 264.533 168.596 261.337C164.163 258.141 159.814 254.978 155.414 251.807C151.155 248.727 146.914 245.598 142.414 242.866C139.924 241.381 137.434 239.994 134.835 238.716C132.319 237.427 129.697 236.355 126.999 235.512C126.98 235.504 126.959 235.504 126.941 235.512C126.922 235.52 126.907 235.534 126.899 235.553C126.892 235.572 126.892 235.593 126.9 235.612C126.907 235.63 126.922 235.645 126.941 235.653C129.166 236.89 131.49 237.927 133.74 239.123C135.989 240.318 138.139 241.547 140.289 242.85C144.755 245.564 148.972 248.661 153.206 251.682C162.005 258.008 170.788 264.367 179.653 270.609C184.634 274.096 189.465 277.781 194.596 280.994C194.778 281.127 194.961 280.878 194.811 280.753Z" fill="#263238"/>
<path d="M182.663 193.399C184.977 179.284 175.41 165.965 161.294 163.651C147.179 161.337 133.86 170.904 131.546 185.02C129.232 199.135 138.799 212.454 152.914 214.768C167.03 217.082 180.349 207.515 182.663 193.399Z" fill="#C6FF00"/>
<path d="M172.184 205.927H142V180.393L157.092 170.813L172.184 180.393V205.927Z" fill="#A6A6A6"/>
<path d="M170.482 205.671H143.71V172.126H163.592L170.482 178.684V205.671Z" fill="white"/>
<path d="M163.592 172.126L170.482 178.684H163.592V172.126Z" fill="#6B6B6B"/>
<path d="M146.325 178.783H161.209V177.903H146.325V178.783Z" fill="#DBDBDB"/>
<path d="M146.325 181.008H161.209V180.128H146.325V181.008Z" fill="#DBDBDB"/>
<path d="M146.325 183.232H161.209V182.352H146.325V183.232Z" fill="#DBDBDB"/>
<path d="M146.317 185.466H168.132V184.586H146.317V185.466Z" fill="#DBDBDB"/>
<path d="M146.317 187.69H168.132V186.81H146.317V187.69Z" fill="#DBDBDB"/>
<path d="M146.317 189.924H168.132V189.044H146.317V189.924Z" fill="#DBDBDB"/>
<path d="M146.317 192.147H168.132V191.268H146.317V192.147Z" fill="#DBDBDB"/>
<path d="M146.317 194.372H168.132V193.492H146.317V194.372Z" fill="#DBDBDB"/>
<path d="M146.317 196.605H168.132V195.726H146.317V196.605Z" fill="#DBDBDB"/>
<path d="M146.317 198.83H168.132V197.95H146.317V198.83Z" fill="#DBDBDB"/>
<path d="M146.317 201.063H168.132V200.184H146.317V201.063Z" fill="#DBDBDB"/>
<path d="M146.317 203.288H168.132V202.408H146.317V203.288Z" fill="#DBDBDB"/>
<path d="M172.183 186.777V205.92H142.008V186.777C143.303 187.508 144.573 188.28 145.86 189.035C147.147 189.791 148.417 190.563 149.679 191.343C151.095 192.206 152.509 193.081 153.92 193.966L157.091 195.95L160.254 193.966H160.213H160.263L164.496 191.351C165.766 190.571 167.045 189.807 168.323 189.044C169.601 188.28 170.888 187.516 172.183 186.777Z" fill="#6B6B6B"/>
<path d="M172.183 186.777C170.971 187.607 169.693 188.438 168.497 189.268C167.302 190.098 166.007 190.928 164.77 191.758C163.533 192.588 162.163 193.46 160.86 194.298L160.744 194.381L157.266 196.598L157.091 196.697L156.925 196.598L153.456 194.373L153.331 194.298C152.019 193.463 150.713 192.616 149.413 191.758C148.176 190.928 146.923 190.098 145.694 189.268C144.465 188.438 143.204 187.607 142.008 186.777C143.303 187.508 144.573 188.28 145.86 189.035C147.147 189.791 148.417 190.563 149.679 191.343C151.095 192.206 152.509 193.081 153.92 193.966L157.091 195.95L160.254 193.966L164.488 191.351C165.758 190.571 167.036 189.807 168.315 189.044C169.593 188.28 170.888 187.516 172.183 186.777Z" fill="#DBDBDB"/>
<path d="M153.962 193.95L153.489 194.357C152.734 194.996 151.953 195.61 151.165 196.2C150.202 196.939 149.222 197.636 148.234 198.333C147.247 199.031 146.242 199.703 145.221 200.35C144.2 200.998 143.179 201.645 142.108 202.226C143.03 201.396 143.976 200.682 144.939 199.952C145.902 199.221 146.89 198.516 147.869 197.819C148.849 197.121 149.861 196.449 150.882 195.793C151.713 195.27 152.543 194.764 153.373 194.282C153.564 194.166 153.763 194.058 153.962 193.95Z" fill="#DBDBDB"/>
<path d="M172.142 202.251C171.071 201.67 170.042 201.031 169.029 200.375C168.016 199.719 167.012 199.047 166.007 198.358C165.003 197.669 164.04 196.963 163.077 196.224C162.297 195.635 161.517 195.029 160.769 194.39L160.288 193.975H160.246H160.296L160.886 194.315C161.716 194.796 162.546 195.303 163.376 195.826C164.389 196.482 165.393 197.162 166.381 197.851C167.369 198.54 168.357 199.246 169.311 199.985C170.266 200.723 171.196 201.454 172.142 202.251Z" fill="#DBDBDB"/>
<path d="M163.28 185.052C164.089 181.639 161.978 178.217 158.565 177.408C155.152 176.6 151.73 178.711 150.922 182.123C150.113 185.536 152.224 188.958 155.637 189.767C159.049 190.576 162.472 188.464 163.28 185.052Z" fill="#C6FF00"/>
<path d="M153.88 184.112C154.787 184.869 155.646 185.681 156.453 186.544L155.872 186.586C156.187 186.03 156.528 185.49 156.876 184.926C157.225 184.361 157.574 183.855 157.947 183.34C158.678 182.285 159.48 181.281 160.346 180.335C159.838 181.515 159.248 182.658 158.578 183.755C158.263 184.303 157.906 184.843 157.565 185.415C157.225 185.988 156.86 186.478 156.478 187.001L156.187 187.408L155.897 187.042C155.162 186.11 154.488 185.131 153.88 184.112Z" fill="white"/>
</svg>
