<svg width="280" height="280" viewBox="0 0 280 280" fill="none" xmlns="http://www.w3.org/2000/svg">
<g clip-path="url(#clip0_1_695)">
<path d="M182.047 41.4557L211.77 60.432L178.531 112.492L246.143 97.5722L253.731 132.001L188.976 146.29L240.515 179.208L221.542 208.924L166.556 173.812L154.207 117.809L98.2008 130.165L43.2228 95.0562L62.1991 65.3329L113.741 98.2432L99.4622 33.4838L133.891 25.8964L148.811 93.5082L182.047 41.4557ZM182.5 246.274L148.071 253.862L132.711 184.24L97.9023 238.751L68.1789 219.774L102.988 165.263L33.3527 180.61L25.7652 146.181L98.2447 130.19L166.52 173.79L182.5 246.274Z" fill="#404040"/>
</g>
<defs>
<clipPath id="clip0_1_695">
<rect width="217" height="217" fill="white" transform="translate(76.2148) rotate(20.562)"/>
</clipPath>
</defs>
</svg>
