<svg width="562" height="419" viewBox="0 0 562 419" fill="none" xmlns="http://www.w3.org/2000/svg">
<path d="M561.668 367.779H0.00012207V368.06H561.668V367.779Z" fill="white"/>
<path d="M96.1352 378.476H58.9303V378.756H96.1352V378.476Z" fill="#EBEBEB"/>
<path d="M202.01 375.43H172.365V375.711H202.01V375.43Z" fill="#EBEBEB"/>
<path d="M152.651 385.103H101.067V385.383H152.651V385.103Z" fill="#EBEBEB"/>
<path d="M505.389 387.022H481.125V387.303H505.389V387.022Z" fill="#EBEBEB"/>
<path d="M475.666 387.022H439.753V387.303H475.666V387.022Z" fill="#EBEBEB"/>
<path d="M373.319 382.283H311.401V382.564H373.319V382.283Z" fill="#EBEBEB"/>
<path d="M266.231 317.68H49.3257C47.6265 317.677 45.9979 317 44.7974 315.797C43.597 314.594 42.9227 312.965 42.9227 311.265V6.35809C42.9375 4.66862 43.6183 3.05321 44.8172 1.86274C46.0161 0.67227 47.6362 0.00289415 49.3257 0H266.231C267.932 0 269.563 0.675786 270.766 1.87869C271.969 3.0816 272.645 4.71309 272.645 6.41425V311.265C272.645 312.967 271.969 314.598 270.766 315.801C269.563 317.004 267.932 317.68 266.231 317.68ZM49.3257 0.224668C47.701 0.227644 46.1438 0.875152 44.996 2.02507C43.8482 3.17499 43.2036 4.73335 43.2036 6.35809V311.265C43.2036 312.89 43.8482 314.448 44.996 315.598C46.1438 316.748 47.701 317.396 49.3257 317.399H266.231C267.857 317.396 269.415 316.749 270.565 315.599C271.714 314.449 272.361 312.891 272.364 311.265V6.35809C272.361 4.73231 271.714 3.17398 270.565 2.02438C269.415 0.874788 267.857 0.227638 266.231 0.224668H49.3257Z" fill="white"/>
<path d="M509.22 317.68H292.304C290.603 317.677 288.974 317 287.771 315.798C286.569 314.595 285.892 312.966 285.889 311.265V6.35809C285.907 4.66759 286.59 3.05219 287.791 1.86203C288.992 0.671877 290.613 0.00286259 292.304 0H509.22C510.907 0.0058464 512.525 0.676529 513.721 1.86668C514.918 3.05683 515.597 4.67056 515.612 6.35809V311.265C515.612 312.963 514.939 314.591 513.741 315.793C512.543 316.995 510.917 317.674 509.22 317.68ZM292.304 0.224668C290.678 0.227638 289.119 0.874788 287.97 2.02438C286.82 3.17398 286.173 4.73231 286.17 6.35809V311.265C286.173 312.891 286.82 314.449 287.97 315.599C289.119 316.749 290.678 317.396 292.304 317.399H509.22C510.846 317.396 512.404 316.749 513.554 315.599C514.703 314.449 515.35 312.891 515.353 311.265V6.35809C515.35 4.73231 514.703 3.17398 513.554 2.02438C512.404 0.874788 510.846 0.227638 509.22 0.224668H292.304Z" fill="white"/>
<path d="M441.809 237.742C438.776 229.048 414.849 240.876 405.21 255.277C398.751 264.871 394.808 275.116 392.977 288.876C393.191 273.15 393.449 256.3 393.685 240.393C395.651 236.428 400.122 227.273 403.346 220.027C414.085 195.831 439.618 186.833 448.436 171.555C459.996 151.537 459.928 121.522 450.088 110.693C441.539 101.279 413.22 164.928 410.03 172.038C399.066 196.505 395.875 214.658 393.82 232.238C394.044 217.286 394.269 203.57 394.46 192.921C395.055 158.378 395.808 147.269 396.145 143.854C397.336 142.18 398.729 140.237 399.515 139.192C406.367 130.374 421.577 119.87 429.171 107.042C440.27 88.3159 438.472 65.9054 430.688 57.6152C422.555 48.8868 408.165 69.5113 400.537 89.9448C392.91 110.378 396.156 129.936 394.022 146.909C393.573 150.279 393.112 162.883 392.674 180.418C390.36 161.546 385.743 148.909 377.194 137.125C366.669 122.634 357.592 104.998 348.92 107.278C340.248 109.558 344.921 132.901 351.785 149.291C357.884 163.894 388.012 178.441 392.449 190.169C391.933 213.939 391.461 244.089 391.124 272.094C388.754 257.614 390.382 256.367 380.654 234.226C374.869 221.038 351.144 204.783 348.325 213.849C345.539 222.734 349.796 240.023 358.749 252.042C365.972 261.714 382.002 261.703 385.709 267.702C386.574 269.106 389.428 274.442 391.068 277.553C390.674 311.781 390.506 341.999 390.697 352.3L392.247 352.401C392.18 349.75 392.371 332.338 392.674 309.288C396.561 297.032 422.768 289.876 430.867 277.126C439.349 263.747 445.437 248.178 441.809 237.742Z" fill="#5D5D5D"/>
<path d="M417.163 367.781H366.882C365.556 367.773 364.274 367.309 363.251 366.465C362.227 365.622 361.526 364.452 361.265 363.153L357.693 345.55H426.441L422.869 363.153C422.605 364.467 421.891 365.649 420.849 366.494C419.807 367.339 418.504 367.794 417.163 367.781Z" fill="#E6E6E6"/>
<path d="M427.834 352.369H356.21C355.379 352.375 354.575 352.073 353.952 351.521C353.33 350.969 352.934 350.207 352.84 349.381L351.368 336.373C351.314 335.9 351.361 335.42 351.506 334.966C351.651 334.512 351.891 334.094 352.21 333.739C352.528 333.385 352.918 333.102 353.354 332.909C353.79 332.716 354.262 332.618 354.738 332.621H429.306C429.782 332.618 430.254 332.716 430.69 332.909C431.126 333.102 431.516 333.385 431.834 333.739C432.153 334.094 432.393 334.512 432.537 334.966C432.682 335.42 432.73 335.9 432.676 336.373L431.193 349.359C431.104 350.187 430.711 350.953 430.091 351.509C429.471 352.065 428.667 352.371 427.834 352.369Z" fill="#C9C9C9"/>
<path d="M244.888 247.437C244.303 247.437 243.764 247.437 243.146 247.493C230.79 248.481 220.871 260.209 220.084 274.655C219.905 277.838 220.177 281.03 220.893 284.136C223.608 296.595 224.911 309.32 224.78 322.071V359.332C224.78 362.028 226.656 364.219 228.959 364.219H358.918V247.392L244.888 247.437Z" fill="#F0F0F0"/>
<path d="M383.765 276.567C383.765 259.807 371.678 246.349 357.165 247.506C344.808 248.494 334.9 260.222 334.114 274.668C333.937 277.85 334.205 281.042 334.912 284.149C337.635 296.607 338.943 309.333 338.81 322.084V359.345C338.81 362.041 340.685 364.232 342.988 364.232H374.846C377.149 364.232 379.014 362.041 379.014 359.345V319.905C378.916 307.945 380.209 296.013 382.867 284.351C383.466 281.8 383.767 279.188 383.765 276.567Z" fill="#7B7B7B"/>
<path d="M324.678 298.189H190.136V364.23H324.678V298.189Z" fill="#F5F5F5"/>
<path d="M135.643 219.05H278.779C284.18 219.05 289.36 221.196 293.18 225.015C296.999 228.834 299.145 234.014 299.145 239.416V309.355H115.288V239.416C115.288 234.016 117.432 228.838 121.249 225.019C125.066 221.2 130.243 219.053 135.643 219.05Z" fill="#E6E6E6"/>
<path d="M150.46 219.05H284.081C286.717 219.05 289.327 219.569 291.763 220.578C294.198 221.587 296.411 223.065 298.275 224.929C300.139 226.793 301.618 229.006 302.627 231.442C303.635 233.877 304.155 236.488 304.155 239.124V309.355H130.386V239.124C130.386 236.488 130.905 233.877 131.914 231.442C132.923 229.006 134.401 226.793 136.265 224.929C138.129 223.065 140.342 221.587 142.778 220.578C145.213 219.569 147.824 219.05 150.46 219.05Z" fill="#F5F5F5"/>
<path d="M195.73 295.808H324.644C325.803 295.808 326.915 296.268 327.734 297.088C328.554 297.907 329.014 299.018 329.014 300.177V307.21C329.014 308.368 328.554 309.48 327.734 310.299C326.915 311.119 325.803 311.579 324.644 311.579H195.73C195.385 311.579 195.053 311.442 194.809 311.198C194.565 310.953 194.427 310.622 194.427 310.276V297.111C194.427 296.765 194.565 296.434 194.809 296.189C195.053 295.945 195.385 295.808 195.73 295.808Z" fill="#CECECE"/>
<path d="M105.1 364.229H360.164V364.499C360.164 365.369 359.819 366.203 359.204 366.819C358.589 367.434 357.754 367.779 356.884 367.779H108.38C107.51 367.779 106.675 367.434 106.06 366.819C105.445 366.203 105.1 365.369 105.1 364.499V364.229Z" fill="#E6E6E6"/>
<path d="M106.358 247.437C105.774 247.437 105.234 247.437 104.617 247.493C92.2598 248.481 82.3407 260.209 81.5544 274.655C81.3752 277.838 81.6475 281.03 82.3632 284.136C85.0777 296.595 86.3814 309.32 86.25 322.071V359.332C86.25 362.028 88.1259 364.219 90.4288 364.219H191.316V247.392L106.358 247.437Z" fill="#B5B5B5"/>
<path d="M216.164 276.567C216.164 259.807 204.088 246.349 189.574 247.506C177.218 248.494 167.299 260.222 166.524 274.668C166.354 277.872 166.641 281.083 167.377 284.205C170.095 296.664 171.403 309.389 171.275 322.14V359.402C171.275 362.098 173.14 364.288 175.443 364.288H207.301C209.547 364.288 211.468 362.098 211.468 359.402V319.905C211.376 307.945 212.669 296.014 215.321 284.351C215.901 281.798 216.184 279.185 216.164 276.567Z" fill="#9A9A9A"/>
<path d="M164.333 43.2236H74.1405V142.246H164.333V43.2236Z" fill="#E6E6E6"/>
<path d="M172.05 43.2236H75.3422V142.246H172.05V43.2236Z" fill="#F5F5F5"/>
<path d="M165.883 136.082V49.3945L81.5096 49.3945V136.082H165.883Z" fill="#979797"/>
<path d="M111.064 123.565C108.673 121.176 106.776 118.339 105.482 115.217C104.188 112.094 103.522 108.747 103.522 105.367C103.522 101.987 104.188 98.6401 105.482 95.5175C106.776 92.395 108.673 89.5582 111.064 87.1691L136.328 61.9053C141.152 66.7331 143.862 73.2786 143.862 80.1033C143.862 86.928 141.152 93.4735 136.328 98.3014L111.064 123.565Z" fill="#F5F5F5"/>
<path d="M240.9 111.041H187.53V171.274H240.9V111.041Z" fill="#E6E6E6"/>
<path d="M248.617 111.041H188.833V171.274H248.617V111.041Z" fill="#F5F5F5"/>
<path d="M242.461 165.12V117.21H195.011V165.12H242.461Z" fill="#E3E3E3"/>
<path d="M223.01 150.893L228.451 145.452C230.82 143.083 230.82 139.243 228.451 136.874L223.01 131.433C220.641 129.064 216.8 129.064 214.431 131.433L208.99 136.874C206.621 139.243 206.621 143.083 208.99 145.452L214.431 150.893C216.8 153.262 220.641 153.262 223.01 150.893Z" fill="#F5F5F5"/>
<path d="M280.834 418.508C401.124 418.508 498.638 412.815 498.638 405.792C498.638 398.769 401.124 393.076 280.834 393.076C160.545 393.076 63.0305 398.769 63.0305 405.792C63.0305 412.815 160.545 418.508 280.834 418.508Z" fill="#666666"/>
<path d="M187.676 378.477H257.514V405.796H190.563C189.8 405.796 189.069 405.493 188.53 404.954C187.99 404.415 187.687 403.683 187.687 402.92V378.477H187.676Z" fill="#C6FF00"/>
<path d="M257.525 378.476H187.676L211.558 364.715H249.561L257.525 378.476Z" fill="#C6FF00"/>
<path d="M280.149 405.795H257.469V378.475H283.025V402.919C283.025 403.682 282.722 404.413 282.183 404.953C281.644 405.492 280.912 405.795 280.149 405.795Z" fill="#C6FF00"/>
<path opacity="0.2" d="M280.149 405.795H257.469V378.475H283.025V402.919C283.025 403.682 282.722 404.413 282.183 404.953C281.644 405.492 280.912 405.795 280.149 405.795Z" fill="black"/>
<path d="M257.525 378.476H283.025L259.143 364.715H249.561L257.525 378.476Z" fill="#C6FF00"/>
<path opacity="0.2" d="M257.525 378.476H283.025L259.143 364.715H249.561L257.525 378.476Z" fill="black"/>
<path d="M215.603 167.177L213.985 151.304L208.054 137.61L221.826 142.531L233.374 151.427L238.889 157.853L227.016 170.681L215.603 167.177Z" fill="#C6FF00"/>
<path opacity="0.2" d="M215.603 167.177L213.985 151.304L208.054 137.61L221.826 142.531L233.374 151.427L238.889 157.853L227.016 170.681L215.603 167.177Z" fill="black"/>
<path d="M224.87 156.056L228.891 137.61L267.759 145.698L286.282 169.625L290.955 203.606L287.181 233.656L278.206 254.875L256.413 173.928L224.87 156.056Z" fill="#C6FF00"/>
<path opacity="0.2" d="M225.499 160.639L233.048 147.844L232.834 138.441L254.672 142.991L270.365 161.571L277.195 187.509L272.87 222.883L263.187 193.586L225.499 160.639Z" fill="black"/>
<path d="M211.558 364.715L189.047 347.741L179.319 322.005L187.676 294.686L213.356 273.253L220.377 225.915L214.266 206.695L263.187 164.761L280.093 266.277L283.025 335.879L259.143 364.715H211.558Z" fill="#C6FF00"/>
<path opacity="0.2" d="M183.935 334.228L189.047 347.741L194.124 351.561L211.019 358.346L195.944 347.112L183.935 334.228Z" fill="black"/>
<path opacity="0.2" d="M220.376 225.915L217.973 242.136L239.103 236.778L251.268 223.096L252.639 209.492L220.376 225.915Z" fill="black"/>
<path d="M258.345 208.672L236.732 231.409L208.312 235.756L191.361 229.162L177.398 232.599L161.345 229.813L153.1 230.207L142.619 225.421L138.373 216.951L141.743 200.831L148.483 194.821L153.774 193.62L189.137 172.209L194.54 163.761L231.172 152.404L263.187 164.761L258.345 208.672Z" fill="#D5FF3F"/>
<path opacity="0.2" d="M140.271 220.75L152.134 222.379L161.345 229.815L153.1 230.208L142.619 225.423L140.271 220.75Z" fill="black"/>
<path opacity="0.2" d="M158.099 208.697L164.457 205.821L173.702 210.697L162.839 211.191L158.099 208.697Z" fill="black"/>
<path opacity="0.2" d="M280.093 266.276L273.039 285.542L268.309 334.002L246.719 359.468L233.362 358.716L211.558 364.714H259.143L283.025 335.878L280.093 266.276Z" fill="black"/>
<path d="M230.812 167.467L236.406 147.853L235.047 131.441L247.875 140.911L258.581 158.738L261.457 167.826L241.742 176.06L230.812 167.467Z" fill="#C6FF00"/>
<path opacity="0.2" d="M235.373 158.257L243.517 163.683L249.314 158.257L247.539 149.079L237.99 141.126L239.675 149.079L235.373 158.257Z" fill="black"/>
<path opacity="0.2" d="M191.462 168.567L209.795 171.589L222.713 172.432L209.211 177.049L189.137 172.207L191.462 168.567Z" fill="black"/>
<path d="M308.996 389.068L317.275 392.022L326.329 373.644L318.05 370.679L308.996 389.068Z" fill="#FFB573"/>
<path opacity="0.2" d="M326.329 373.643L321.668 383.124L313.377 380.158L318.05 370.688L326.329 373.643Z" fill="black"/>
<path d="M317.567 391.044L308.524 387.82C308.36 387.761 308.179 387.759 308.014 387.816C307.848 387.874 307.707 387.986 307.615 388.135L303.346 394.875C303.244 395.04 303.181 395.225 303.161 395.417C303.14 395.609 303.163 395.804 303.228 395.986C303.292 396.168 303.397 396.333 303.534 396.47C303.671 396.606 303.837 396.71 304.02 396.773C307.3 397.897 312.085 399.368 316.186 400.84C320.971 402.547 322.364 405.76 328.329 405.76C333.249 405.76 333.743 403.199 332.306 402.66C325.712 400.166 323.69 397.818 319.331 392.37C318.875 391.775 318.265 391.317 317.567 391.044Z" fill="#263238"/>
<path d="M357.423 293.945C358.479 267.131 339.652 196.058 339.652 196.058L309.019 200.18C320.185 231.903 328.891 257.819 332.609 290.474C336.844 306.628 311.4 377.308 311.4 377.308L325.42 382.318C325.42 382.318 356.334 321.826 357.423 293.945Z" fill="#C6FF00"/>
<path opacity="0.3" d="M357.423 293.945C358.479 267.131 339.652 196.058 339.652 196.058L309.019 200.18C320.185 231.903 328.891 257.819 332.609 290.474C336.844 306.628 311.4 377.308 311.4 377.308L325.42 382.318C325.42 382.318 356.334 321.826 357.423 293.945Z" fill="black"/>
<path opacity="0.2" d="M320.151 214.4L315.804 219.613C316.264 220.916 316.646 222.219 316.983 223.522C321.979 238.186 326.039 253.153 329.138 268.332C329.621 252.246 331.384 223.387 320.151 214.4Z" fill="black"/>
<path d="M327.093 383.271L310.389 377.306L312.31 371.902L329.217 377.654L327.093 383.271Z" fill="#263238"/>
<path d="M317.972 392.484C319.208 393.236 321.466 394.405 322.668 393.922C322.845 393.856 323.003 393.746 323.127 393.603C323.251 393.459 323.336 393.287 323.375 393.102C323.408 392.992 323.413 392.876 323.389 392.764C323.366 392.652 323.315 392.548 323.241 392.461C322.432 391.54 318.5 392.046 318.051 392.102C318.007 392.108 317.966 392.127 317.934 392.158C317.902 392.188 317.88 392.227 317.871 392.27C317.866 392.312 317.873 392.354 317.891 392.391C317.909 392.429 317.937 392.461 317.972 392.484ZM322.881 392.697L322.948 392.753C322.971 392.791 322.983 392.833 322.983 392.877C322.983 392.921 322.971 392.963 322.948 393C322.922 393.123 322.866 393.236 322.786 393.332C322.706 393.428 322.603 393.503 322.488 393.551C321.814 393.821 320.421 393.416 318.702 392.428C320.286 392.293 322.398 392.259 322.881 392.697Z" fill="#C6FF00"/>
<path d="M317.972 392.484C318.019 392.5 318.071 392.5 318.118 392.484C319.241 392.394 321.904 391.304 322.083 390.316C322.083 390.091 322.083 389.754 321.544 389.507C321.355 389.424 321.15 389.381 320.943 389.381C320.736 389.381 320.532 389.424 320.342 389.507C318.972 389.99 317.961 392.147 317.916 392.237C317.899 392.268 317.89 392.303 317.89 392.338C317.89 392.373 317.899 392.408 317.916 392.439L317.972 392.484ZM321.555 390.046C321.701 390.159 321.679 390.248 321.668 390.293C321.567 390.878 319.713 391.81 318.478 392.057C318.904 391.148 319.603 390.394 320.477 389.9C320.617 389.84 320.768 389.809 320.921 389.809C321.073 389.809 321.224 389.84 321.364 389.9C321.436 389.938 321.501 389.987 321.555 390.046Z" fill="#C6FF00"/>
<path d="M299.134 396.819H307.929L308.637 376.453H299.841L299.134 396.819Z" fill="#FFB573"/>
<path d="M308.704 395.795H297.976C297.803 395.794 297.635 395.852 297.5 395.961C297.365 396.069 297.271 396.221 297.235 396.39L295.494 404.254C295.453 404.444 295.456 404.642 295.502 404.831C295.549 405.02 295.638 405.197 295.762 405.347C295.886 405.497 296.043 405.617 296.22 405.698C296.397 405.78 296.591 405.819 296.786 405.815C300.234 405.759 302.751 405.557 307.087 405.557C309.76 405.557 317.826 405.838 321.51 405.838C325.195 405.838 325.689 402.187 324.173 401.861C317.433 400.378 312.299 398.334 310.131 396.379C309.743 396.016 309.235 395.808 308.704 395.795Z" fill="#263238"/>
<path d="M335.305 127.399L344.067 144.452C347.01 150.068 350.021 155.764 353.189 160.886L354.391 162.717C354.577 163.008 354.787 163.282 355.02 163.537C355.402 163.908 355.48 164.043 355.93 164.177C356.725 164.276 357.533 164.171 358.277 163.874C359.458 163.474 360.589 162.939 361.647 162.279C364.141 160.734 366.484 158.959 368.646 156.977C369.769 155.955 370.892 154.921 372.016 153.82C373.139 152.719 374.262 151.574 375.24 150.518L380.654 154.292C379.789 155.876 378.924 157.269 377.969 158.696C377.015 160.122 376.037 161.526 374.97 162.874C372.788 165.714 370.298 168.302 367.545 170.592C365.985 171.851 364.294 172.94 362.501 173.838C360.297 174.94 357.866 175.513 355.402 175.512C352.502 175.469 349.7 174.461 347.437 172.647C346.439 171.842 345.531 170.931 344.73 169.929L343.112 167.806C339.223 162.337 335.649 156.651 332.407 150.776C329.172 145.013 326.15 139.239 323.308 133.252L335.305 127.399Z" fill="#FFB573"/>
<path d="M319.443 128.161C318.039 136.451 332.283 159.682 332.283 159.682L347.257 143.326C347.257 143.326 343.618 130.655 336.406 124.645C329.452 118.86 321.061 118.613 319.443 128.161Z" fill="#263238"/>
<path opacity="0.2" d="M337.226 147.359C333.912 139.911 326.981 135.699 320.612 135.856C323.88 145.966 332.283 159.682 332.283 159.682L338.967 152.391C338.52 150.671 337.938 148.988 337.226 147.359Z" fill="black"/>
<path d="M373.689 152.413L377.643 146.516L386.922 153.11C386.922 153.11 379.295 159.513 374.565 156.772L373.689 152.413Z" fill="#FFB573"/>
<path d="M388.686 145.406L395.605 148.125L386.922 153.112L377.643 146.518L388.686 145.406Z" fill="#FFB573"/>
<path opacity="0.2" d="M299.841 376.453H308.637L308.266 386.956H299.47L299.841 376.453Z" fill="black"/>
<path d="M280.104 126.937C283.301 136.241 285.798 145.771 287.575 155.447C288.844 162.187 289.754 168.646 290.45 174.544C292.068 188.293 292.439 198.83 293.079 202.369L339.686 196.089C338.934 144.809 329.014 120.826 329.014 120.826C325.269 120.368 321.498 120.147 317.725 120.163C316.927 120.163 316.119 120.163 315.298 120.219C308.633 120.716 302.002 121.598 295.438 122.859C294.191 123.095 292.933 123.353 291.72 123.634C285.53 125.061 280.104 126.937 280.104 126.937Z" fill="#263238"/>
<path opacity="0.2" d="M290.484 137.767L284.126 140.215C285.485 145.372 286.608 150.483 287.496 155.448C287.653 156.268 287.799 157.077 287.945 157.886C291.102 151.921 291.697 145.147 290.484 137.767Z" fill="black"/>
<path d="M294.404 100.291C296.516 106.492 299.336 118.006 295.449 122.859C297.682 124.654 300.276 125.947 303.053 126.651C305.831 127.355 308.728 127.452 311.546 126.937C317.006 126.083 316.77 122.207 315.264 120.253C307.918 119.511 307.401 114.209 307.963 109.087L294.404 100.291Z" fill="#FFB573"/>
<path d="M307.3 127.644L307.682 128.251L311.007 126.959L309.446 125.959L307.3 127.644Z" fill="#C6FF00"/>
<path d="M313.939 126.635L311.007 126.961L311.175 125.444L312.86 125.175L313.939 126.635Z" fill="#C6FF00"/>
<path d="M296.067 120.803C299.714 124.151 304.495 125.994 309.446 125.959C307.581 127.082 307.3 131.71 307.3 131.71C307.3 131.71 297.19 129.464 293.82 122.814C294.485 122.055 295.239 121.38 296.067 120.803Z" fill="white"/>
<path d="M313.411 119.524C313.411 119.524 315.916 123.58 311.164 125.444C314.883 126.107 316.175 130.836 316.175 130.836C316.175 130.836 320.016 126.961 317.084 120.007C315.873 119.758 314.646 119.597 313.411 119.524Z" fill="white"/>
<path opacity="0.2" d="M299.931 103.864L307.963 109.032C307.807 110.223 307.762 111.426 307.828 112.626C305.054 112.626 300.92 110.121 300.246 107.324C299.94 106.198 299.834 105.027 299.931 103.864Z" fill="black"/>
<path d="M292.348 90.8001C294.045 99.3599 294.595 104.46 299.56 108.302C307.019 114.076 317.14 108.695 318.039 99.798C318.848 91.7886 315.938 79.1398 307.03 76.837C305.067 76.3205 303.004 76.3147 301.038 76.8201C299.071 77.3254 297.267 78.3252 295.796 79.7243C294.324 81.1234 293.235 82.8755 292.632 84.814C292.029 86.7525 291.931 88.8131 292.348 90.8001Z" fill="#FFB573"/>
<path d="M296.639 99.4827C297.339 96.0266 296.947 92.4385 295.516 89.2154C296.482 87.4293 298.729 83.0596 298.167 80.2288C294.483 79.1054 286.687 80.2288 286.687 80.2288C286.687 80.2288 281.789 93.046 296.639 99.4827Z" fill="#263238"/>
<path d="M291.517 83.3179C295.572 83.9357 311.872 82.1271 315.309 74.949C316.545 72.3541 312.254 74.7693 309.872 75.1962C307.491 75.623 292.809 74.7581 288.844 75.2636C286.451 75.5781 280.261 81.5767 291.517 83.3179Z" fill="#263238"/>
<path d="M287.271 75.937C285.159 69.9946 301.459 75.2068 306.188 72.567C313.332 68.4893 315.871 69.9496 314.175 72.7467C312.479 75.5438 311.434 76.4762 303.447 76.4874C295.46 76.4987 288.518 79.4306 287.271 75.937Z" fill="#263238"/>
<path d="M289.237 99.5269C290.65 101.206 292.668 102.26 294.854 102.459C297.752 102.706 298.651 99.9762 297.381 97.5273C296.258 95.2807 293.371 92.5397 290.641 93.4496C287.911 94.3595 287.574 97.4375 289.237 99.5269Z" fill="#FFB573"/>
<path d="M323.128 198.278C323.128 198.278 322.263 274.092 320.151 299.738C317.904 327.822 312.287 384.921 312.287 384.921H296.201C296.201 384.921 295.864 332.629 297.448 305.164C299.257 273.879 293.045 202.322 293.045 202.322L323.128 198.278Z" fill="#C6FF00"/>
<path opacity="0.3" d="M323.128 198.278C323.128 198.278 322.263 274.092 320.151 299.738C317.904 327.822 312.287 384.921 312.287 384.921H296.201C296.201 384.921 295.864 332.629 297.448 305.164C299.257 273.879 293.045 202.322 293.045 202.322L323.128 198.278Z" fill="black"/>
<path d="M314.231 385.271H295.269L294.797 379.238H315.287L314.231 385.271Z" fill="#263238"/>
<path d="M305.773 91.4508C305.863 92.1473 306.312 92.664 306.772 92.5741C307.233 92.4843 307.525 91.8889 307.435 91.1924C307.345 90.4959 306.885 89.968 306.435 90.0691C305.986 90.1702 305.672 90.7431 305.773 91.4508Z" fill="#263238"/>
<path d="M313.714 90.3724C313.804 91.0801 314.254 91.5968 314.714 91.4957C315.175 91.3946 315.478 90.8105 315.377 90.1028C315.276 89.3951 314.838 88.8783 314.377 88.9794C313.917 89.0805 313.624 89.6759 313.714 90.3724Z" fill="#263238"/>
<path d="M311.231 91.0684C312.355 93.1238 313.757 95.014 315.399 96.685C314.97 97.1003 314.454 97.4161 313.889 97.6102C313.325 97.8043 312.724 97.872 312.13 97.8084L311.231 91.0684Z" fill="#ED893E"/>
<path d="M309.423 99.9772C309.731 99.9759 310.039 99.9534 310.344 99.9098C310.372 99.9072 310.399 99.8988 310.423 99.8852C310.447 99.8717 310.469 99.8533 310.486 99.8311C310.502 99.809 310.515 99.7836 310.521 99.7565C310.528 99.7295 310.529 99.7014 310.524 99.6739C310.52 99.6472 310.51 99.6216 310.496 99.5986C310.482 99.5755 310.464 99.5556 310.442 99.5399C310.42 99.5242 310.395 99.513 310.368 99.5071C310.342 99.5012 310.315 99.5006 310.288 99.5054C309.416 99.6413 308.524 99.5696 307.685 99.2964C306.846 99.0232 306.083 98.556 305.458 97.9328C305.418 97.8956 305.366 97.875 305.312 97.875C305.257 97.875 305.205 97.8956 305.166 97.9328C305.146 97.9516 305.13 97.9743 305.12 97.9994C305.109 98.0245 305.103 98.0515 305.103 98.0788C305.103 98.1061 305.109 98.1331 305.12 98.1582C305.13 98.1833 305.146 98.206 305.166 98.2248C305.718 98.7923 306.381 99.2405 307.113 99.5419C307.845 99.8433 308.631 99.9914 309.423 99.9772Z" fill="#263238"/>
<path d="M302.975 89.2148C303.049 89.2141 303.12 89.1941 303.184 89.1566C303.247 89.1191 303.299 89.0655 303.335 89.0014C303.581 88.5401 303.932 88.1426 304.359 87.8404C304.786 87.5382 305.278 87.3396 305.795 87.2602C305.849 87.2573 305.903 87.2437 305.952 87.2201C306.001 87.1965 306.046 87.1634 306.082 87.1227C306.119 87.082 306.147 87.0345 306.165 86.9829C306.183 86.9314 306.191 86.8767 306.188 86.8221C306.177 86.7119 306.124 86.6101 306.041 86.5371C305.957 86.4642 305.849 86.4255 305.739 86.4289C305.085 86.5164 304.461 86.7575 303.918 87.1323C303.375 87.5072 302.929 88.0053 302.616 88.5857C302.588 88.6335 302.57 88.6864 302.562 88.7413C302.555 88.7961 302.559 88.8519 302.574 88.9052C302.588 88.9586 302.614 89.0085 302.648 89.052C302.682 89.0955 302.725 89.1318 302.773 89.1586C302.835 89.1927 302.904 89.2119 302.975 89.2148Z" fill="#263238"/>
<path d="M316.781 87.1828C316.861 87.183 316.939 87.1596 317.005 87.1154C317.098 87.0535 317.163 86.9577 317.186 86.8485C317.209 86.7393 317.189 86.6254 317.129 86.5312C316.774 85.9733 316.292 85.5079 315.721 85.1738C315.151 84.8398 314.509 84.6466 313.849 84.6104C313.739 84.6104 313.633 84.6541 313.555 84.7321C313.477 84.81 313.433 84.9157 313.433 85.026C313.433 85.1362 313.477 85.2419 313.555 85.3199C313.633 85.3978 313.739 85.4416 313.849 85.4416C314.372 85.4738 314.88 85.6315 315.33 85.9013C315.78 86.1711 316.158 86.5451 316.433 86.9918C316.47 87.0502 316.522 87.0982 316.582 87.1316C316.643 87.1649 316.711 87.1825 316.781 87.1828Z" fill="#263238"/>
<path d="M311.603 397.335C312.203 397.383 312.801 397.225 313.299 396.886C313.458 396.748 313.581 396.574 313.657 396.378C313.733 396.183 313.761 395.971 313.737 395.762C313.736 395.64 313.702 395.52 313.638 395.416C313.575 395.311 313.485 395.225 313.378 395.167C312.4 394.673 309.569 396.414 309.244 396.616C309.21 396.639 309.183 396.672 309.167 396.71C309.151 396.747 309.147 396.789 309.154 396.83C309.16 396.87 309.178 396.908 309.206 396.938C309.234 396.969 309.271 396.989 309.311 396.998C310.06 397.196 310.829 397.309 311.603 397.335ZM312.917 395.515C313.006 395.496 313.098 395.496 313.187 395.515C313.23 395.54 313.265 395.576 313.289 395.62C313.313 395.663 313.324 395.713 313.321 395.762C313.339 395.902 313.321 396.044 313.27 396.175C313.219 396.307 313.136 396.423 313.029 396.515C312.557 396.919 311.4 396.976 309.906 396.684C310.824 396.101 311.847 395.704 312.917 395.515Z" fill="#C6FF00"/>
<path d="M309.356 397.019H309.457C310.367 396.525 312.119 394.593 311.94 393.649C311.908 393.496 311.825 393.359 311.704 393.261C311.584 393.163 311.433 393.109 311.277 393.11C311.119 393.087 310.958 393.099 310.805 393.143C310.652 393.188 310.51 393.265 310.389 393.368C309.367 394.211 309.154 396.738 309.154 396.85C309.148 396.888 309.154 396.925 309.17 396.959C309.186 396.993 309.211 397.022 309.244 397.041C309.282 397.044 309.321 397.037 309.356 397.019ZM311.131 393.458H311.221C311.49 393.458 311.524 393.615 311.524 393.671C311.636 394.256 310.524 395.705 309.614 396.39C309.676 395.39 310.036 394.431 310.648 393.638C310.792 393.516 310.976 393.452 311.164 393.458H311.131Z" fill="#C6FF00"/>
<path d="M287.238 140.485L284.991 143.766C284.238 144.889 283.497 146.012 282.744 147.192C281.306 149.495 279.857 151.786 278.52 154.134C275.8 158.694 273.408 163.443 271.365 168.344L270.691 170.13L270.399 170.917C270.406 170.883 270.406 170.849 270.399 170.816C270.309 170.748 270.275 171.321 270.545 172.096C271.426 174.135 272.612 176.029 274.061 177.713C275.735 179.76 277.516 181.717 279.397 183.577C280.363 184.531 281.318 185.509 282.317 186.452L285.317 189.227L281.722 194.765C276.273 192.155 271.205 188.814 266.658 184.835C264.03 182.583 261.827 179.878 260.154 176.848C258.998 174.725 258.428 172.333 258.503 169.917C258.537 169.159 258.646 168.406 258.828 167.67L258.929 167.266L259.008 166.985L259.165 166.423L259.806 164.177C261.682 158.436 264.077 152.879 266.961 147.574C268.377 144.968 269.848 142.406 271.455 139.913C272.241 138.666 273.05 137.43 273.87 136.206C274.69 134.981 275.521 133.802 276.498 132.51L287.238 140.485Z" fill="#FFB573"/>
<path d="M280.104 126.939C272.241 129.747 263.344 151.293 263.344 151.293L282.766 160.28C286.283 154.604 288.759 148.346 290.079 141.801C292.348 130.174 289.708 123.569 280.104 126.939Z" fill="#263238"/>
<path d="M286.451 190.058L288.698 195.967L279.026 197.326C279.026 197.326 276.341 190.024 280.059 188.171H283.182C283.84 188.193 284.482 188.377 285.052 188.706C285.623 189.035 286.103 189.499 286.451 190.058Z" fill="#FFB573"/>
<path d="M287.597 202.829L280.183 203.942L278.958 197.325L288.63 195.966L287.597 202.829Z" fill="#FFB573"/>
<path d="M413.133 110.599C412.876 108.307 412.313 106.059 411.459 103.916L412.493 103.5C413.391 105.728 413.984 108.067 414.257 110.453L413.133 110.599Z" fill="#C6FF00"/>
<path d="M408.517 98.5802C405.644 94.5514 401.675 91.4323 397.081 89.5935L397.508 88.5488C402.304 90.4741 406.443 93.7428 409.427 97.9624L408.517 98.5802Z" fill="#C6FF00"/>
<path d="M387.488 140.39C380.347 140.375 373.504 137.528 368.46 132.474C363.416 127.419 360.584 120.57 360.584 113.43H361.707C361.707 120.272 364.421 126.835 369.254 131.679C374.088 136.523 380.645 139.252 387.488 139.266V140.39Z" fill="#C6FF00"/>
<path d="M403.731 129.731C412.703 120.76 412.703 106.215 403.731 97.2435C394.76 88.2723 380.215 88.2723 371.244 97.2435C362.273 106.215 362.273 120.76 371.244 129.731C380.215 138.702 394.76 138.702 403.731 129.731Z" fill="#C6FF00"/>
<path d="M392.801 105.555L389.869 106.566C390.599 105.196 390.644 102.444 389.038 99.6353C388.848 99.341 388.578 99.1074 388.259 98.9621C387.941 98.8167 387.587 98.7658 387.24 98.8152C386.781 98.8526 386.353 99.0664 386.047 99.4119C385.742 99.7574 385.581 100.208 385.6 100.669C385.656 103.264 385.106 108.532 379.826 109.543L378.703 110.97L383.14 123.708L385.387 123.282C386.252 123.18 391.15 122.529 394.306 122.158C396.149 121.911 397.833 120.985 399.03 119.562C400.226 118.139 400.849 116.321 400.777 114.463L400.147 108.633C400.086 108.078 399.911 107.542 399.632 107.058C399.353 106.574 398.977 106.153 398.527 105.821C398.078 105.49 397.564 105.255 397.02 105.132C396.475 105.009 395.91 105 395.362 105.106L392.801 105.555Z" fill="#545454"/>
<path d="M379.039 128.26L383.18 127.052C383.811 126.868 384.174 126.207 383.99 125.576L379.961 111.761C379.776 111.13 379.115 110.767 378.484 110.952L374.343 112.159C373.712 112.344 373.349 113.005 373.533 113.636L377.562 127.45C377.747 128.082 378.408 128.444 379.039 128.26Z" fill="#263238"/>
</svg>
