<svg width="118" height="145" viewBox="0 0 118 145" fill="none" xmlns="http://www.w3.org/2000/svg">
<path fill-rule="evenodd" clip-rule="evenodd" d="M90.5921 1.28558C85.6761 3.11441 80.398 8.75751 78.9495 13.7327C77.4854 18.7634 77.9003 24.8482 79.9782 28.8311C80.7883 30.3825 81.4507 31.7808 81.4507 31.9388C81.4507 32.0961 77.1001 35.6084 71.7819 39.7443C66.4644 43.8796 61.7292 47.5625 61.2608 47.9277C60.673 48.3863 59.3629 47.724 57.0417 45.7948C45.4279 36.145 28.4136 35.1709 15.6283 43.4245C0.520362 53.1768 -4.58477 74.4563 4.53555 89.66C11.0337 100.493 22.8627 107.483 34.641 107.448C42.6489 107.425 51.6722 104.036 57.1451 98.998L60.1371 96.2435L70.6181 104.378C76.3828 108.851 81.2004 112.608 81.3241 112.726C81.4479 112.845 80.8185 114.315 79.9262 115.994C77.6542 120.268 77.5916 129.658 79.8081 133.796C86.6859 146.635 103.148 148.87 112.698 138.261C117.898 132.486 119.364 125.062 116.693 118.042C115.024 113.656 113.133 111.251 109.1 108.387C102.948 104.018 93.7593 103.774 87.643 107.817C86.1874 108.778 84.6488 109.566 84.2234 109.566C83.62 109.566 66.5214 96.7112 63.5828 94.048C63.2087 93.7095 63.8584 91.7522 65.1424 89.3446C70.711 78.9103 70.9472 67.4914 65.8112 57.0058C64.551 54.4326 63.4245 52.1219 63.3085 51.8705C63.1925 51.6198 67.4643 48.0183 72.8015 43.8676C78.1387 39.717 82.8901 36.0214 83.3599 35.6555C83.933 35.2088 84.9012 35.4785 86.302 36.4744C92.0611 40.5703 99.8003 41.1665 106.444 38.0279C110.918 35.9139 113.562 33.3147 116.104 28.5298C117.31 26.2606 117.643 24.4311 117.653 20.0205C117.663 15.091 117.409 13.9399 115.576 10.6348C110.62 1.69854 100.082 -2.24496 90.5921 1.28558ZM92.5871 3.91996C84.8042 6.31205 79.6541 15.0889 81.3298 23.1037C81.765 25.1854 82.6194 27.6491 83.2291 28.5782C84.3183 30.2385 84.3584 30.2441 85.5313 28.9125C86.1874 28.1674 88.3862 26.9847 90.4163 26.2838C92.4464 25.5836 94.108 24.639 94.108 24.1853C94.108 23.7309 93.4393 21.8494 92.6222 20.0044C91.3417 17.1129 91.2468 16.2786 91.9394 13.9708C93.4063 9.07987 98.8095 7.44559 102.226 10.8588C104.53 13.1589 104.66 18.5815 102.479 21.3514C101.669 22.3803 101.155 23.6108 101.337 24.0848C101.519 24.5596 103.339 25.5478 105.382 26.2817C107.424 27.0149 109.674 28.1934 110.382 28.8999C111.629 30.1451 111.717 30.0931 113.204 27.2101C117.761 18.3785 112.548 6.73274 102.714 3.77739C98.7793 2.59399 96.8083 2.62209 92.5871 3.91996ZM26.6191 42.5669C18.2357 44.8172 11.0829 50.7932 7.07195 58.8993C4.48563 64.1252 4.45187 64.3022 4.45187 72.6576C4.45187 80.8895 4.51797 81.2533 6.85325 85.9019C9.95079 92.0675 15.5594 97.6699 21.5815 100.613C26.0594 102.8 26.5966 102.894 34.6889 102.894C42.8219 102.894 43.3001 102.809 47.913 100.556C56.4968 96.365 62.7038 88.5981 64.897 79.305C66.2464 73.5854 66.2464 70.8548 64.8956 65.6429C63.3043 59.504 61.3312 55.8618 57.1556 51.3578C49.3461 42.9329 37.7231 39.587 26.6191 42.5669ZM11.1321 72.7686V82.3243L16.8258 82.0658C22.0315 81.8299 22.6637 81.6395 24.2093 79.8451C26.2584 77.4664 26.3378 75.8988 24.5257 73.598C23.5877 72.4076 23.3816 71.6266 23.8739 71.135C24.2705 70.7389 24.4927 69.3476 24.3682 68.0427C24.0686 64.9174 20.8298 63.2157 15.1755 63.2143L11.1321 63.2129V72.7686ZM29.6301 64.9701C27.7097 66.6802 27.6936 66.7561 29.0142 67.7737C30.2201 68.7036 30.5077 68.6973 31.5934 67.7161C33.2558 66.2132 36.0397 66.6887 36.302 68.5203C36.4398 69.4818 35.0869 71.5157 32.2586 74.5974C29.8868 77.1834 28.0086 79.8809 28.0086 80.7027C28.0086 82.089 28.3799 82.1754 34.3373 82.1754C40.6188 82.1754 40.6659 82.1621 40.6659 80.4196C40.6659 78.7811 40.4318 78.6638 37.15 78.6638C35.2162 78.6638 33.6341 78.4595 33.6341 78.2101C33.6341 77.9601 35.058 76.2359 36.7984 74.3776C40.5485 70.373 40.962 67.6586 38.2364 64.9371C35.8997 62.6033 32.272 62.6173 29.6301 64.9701ZM43.7846 64.1315C43.5905 64.6372 43.5216 68.8244 43.6313 73.4372L43.8303 81.8242L49.5844 81.8004C54.1966 81.7807 55.6269 81.5152 56.7921 80.4625C58.5065 78.9125 58.7455 75.0497 57.221 73.5271C56.3934 72.7005 56.3519 72.0951 57.0052 70.366C58.1844 67.247 56.9109 64.8985 53.5335 63.9616C49.737 62.9088 44.2177 63.005 43.7846 64.1315ZM14.6481 68.8314C14.6481 70.6912 14.8886 70.9384 16.7 70.9384C19.628 70.9384 20.9767 70.274 20.9767 68.8314C20.9767 67.3889 19.628 66.7245 16.7 66.7245C14.8886 66.7245 14.6481 66.9717 14.6481 68.8314ZM47.6978 68.8314C47.6978 70.7565 47.9024 70.9384 50.0732 70.9384C51.3973 70.9384 52.8634 70.439 53.3866 69.809C54.184 68.849 54.1235 68.5322 52.9865 67.7021C52.2502 67.1641 50.7595 66.7245 49.673 66.7245C47.9474 66.7245 47.6978 66.9907 47.6978 68.8314ZM14.6481 76.5183C14.6481 78.5311 14.8112 78.6631 17.285 78.6533C20.5464 78.64 21.8944 77.8428 21.5667 76.1215C21.3705 75.089 20.5886 74.7548 17.9819 74.5869C14.686 74.3755 14.6481 74.398 14.6481 76.5183ZM47.6978 76.5183C47.6978 78.5311 47.8609 78.6631 50.3347 78.6533C53.5961 78.64 54.9441 77.8428 54.6164 76.1215C54.4202 75.089 53.6383 74.7548 51.0316 74.5869C47.7358 74.3755 47.6978 74.398 47.6978 76.5183ZM91.2953 109.279C82.8915 112.909 78.7027 123.598 82.4366 131.882C83.947 135.234 84.2656 135.383 85.9476 133.526C86.6072 132.798 88.5838 131.801 90.3397 131.309C94.1446 130.246 94.7522 129.104 93.0476 126.222C89.7736 120.686 92.4387 114.341 98.0374 114.341C103.391 114.341 105.833 120.874 102.513 126.312C100.849 129.039 101.422 130.277 104.681 130.992C105.802 131.238 107.829 132.191 109.186 133.111L111.654 134.784L112.703 133.288C113.28 132.465 114.116 130.164 114.563 128.174C116.182 120.948 111.735 112.446 104.779 109.468C101.077 107.883 94.7332 107.794 91.2953 109.279Z" fill="white"/>
</svg>
