<svg width="164" height="122" viewBox="0 0 164 122" fill="none" xmlns="http://www.w3.org/2000/svg">
<mask id="path-1-inside-1_1_174" fill="white">
<path fill-rule="evenodd" clip-rule="evenodd" d="M19.1179 3.25469C15.8921 6.48685 15.871 6.67644 15.871 32.421V58.3326H11.1824C7.96723 58.3326 5.47284 59.3561 3.24694 61.5873C0.0264516 64.8142 0 65.0462 0 90.1504C0 115.255 0.0264516 115.487 3.24694 118.713C6.36294 121.838 7.1869 121.968 23.8065 121.968C40.426 121.968 41.25 121.838 44.366 118.713C46.8617 116.213 47.6129 114.064 47.6129 109.433V103.408H58.8548C69.1035 103.408 70.0968 103.636 70.0968 105.984C70.0968 108.065 69.0202 108.637 64.4758 108.967L58.8548 109.374V115.339V121.305L108.165 121.653L157.476 122L160.737 118.731L164 115.46V76.893V38.3258L160.753 35.0725C158.527 32.8413 156.033 31.8178 152.818 31.8178H148.129V19.1636C148.129 7.49442 147.876 6.25485 144.882 3.25469L141.636 0H82H22.3635L19.1179 3.25469ZM22.7484 6.89385C21.6268 8.01808 21.1613 15.7909 21.1613 33.4087V58.3326H31.1402C39.9724 58.3326 41.4933 58.7065 44.366 61.5873C47.2399 64.4668 47.6129 65.9914 47.6129 74.8447V84.8474H71.4194H95.2258V61.5873C95.2258 38.6573 95.2721 38.2795 98.4727 35.0725C101.64 31.896 102.213 31.8178 122.279 31.8178H142.839V20.1513C142.839 12.8451 142.246 7.89081 141.252 6.89385C138.969 4.60563 25.0312 4.60563 22.7484 6.89385ZM102.103 38.7116C99.8403 40.98 99.8403 112.806 102.103 115.074C104.345 117.321 154.881 117.321 157.123 115.074C159.386 112.806 159.386 40.98 157.123 38.7116C154.881 36.4645 104.345 36.4645 102.103 38.7116ZM103.767 41.4281C103.406 42.3707 103.271 57.1487 103.467 74.2693L103.823 105.396H129.613H155.403V72.9158V40.4351L129.913 40.0745C110.033 39.7934 104.279 40.0917 103.767 41.4281ZM108.452 72.9158V100.756H129.613H150.774V72.9158V45.0752H129.613H108.452V72.9158ZM6.87742 65.2265C4.6449 67.4643 4.6449 112.836 6.87742 115.074C9.06629 117.268 38.5466 117.268 40.7355 115.074C42.968 112.836 42.968 67.4643 40.7355 65.2265C37.7795 62.2634 33.7377 63.3877 32.1466 67.6128C30.7487 71.3262 30.1945 71.59 23.8065 71.59C17.4184 71.59 16.8642 71.3262 15.4663 67.6128C13.8752 63.3877 9.83339 62.2634 6.87742 65.2265ZM19.8387 64.9613C19.8387 65.6905 21.6242 66.2871 23.8065 66.2871C25.9887 66.2871 27.7742 65.6905 27.7742 64.9613C27.7742 64.2322 25.9887 63.6356 23.8065 63.6356C21.6242 63.6356 19.8387 64.2322 19.8387 64.9613ZM47.6129 94.1276V98.1048H71.4194H95.2258V94.1276V90.1504H71.4194H47.6129V94.1276ZM75.3871 106.059C75.3871 108.357 76.2693 108.711 82 108.711C87.7307 108.711 88.6129 108.357 88.6129 106.059C88.6129 103.762 87.7307 103.408 82 103.408C76.2693 103.408 75.3871 103.762 75.3871 106.059ZM94.1122 106.059C94.1122 107.882 94.4124 108.629 94.7788 107.716C95.1465 106.806 95.1465 105.314 94.7788 104.402C94.4124 103.491 94.1122 104.236 94.1122 106.059ZM8.569 110.082C7.00703 112.616 9.95639 114.218 15.3657 113.772C18.8613 113.486 20.5 112.716 20.5 111.362C20.5 108.908 9.98813 107.78 8.569 110.082ZM24.4426 110.076C23.9295 110.91 24.1067 112.193 24.8394 112.928C26.7188 114.812 31.0806 113.705 31.0806 111.344C31.0806 108.96 25.7586 107.944 24.4426 110.076ZM124.912 110.152C123.55 112.363 126.615 114.898 128.44 113.068C129.966 111.539 129.011 108.711 126.968 108.711C126.326 108.711 125.402 109.359 124.912 110.152ZM63.4839 115.339C63.4839 116.153 69.9024 116.665 80.0942 116.665C90.8309 116.665 96.4148 116.196 95.8871 115.339C95.4163 114.576 88.3788 114.014 79.2768 114.014C69.6299 114.014 63.4839 114.529 63.4839 115.339Z"/>
</mask>
<path fill-rule="evenodd" clip-rule="evenodd" d="M19.1179 3.25469C15.8921 6.48685 15.871 6.67644 15.871 32.421V58.3326H11.1824C7.96723 58.3326 5.47284 59.3561 3.24694 61.5873C0.0264516 64.8142 0 65.0462 0 90.1504C0 115.255 0.0264516 115.487 3.24694 118.713C6.36294 121.838 7.1869 121.968 23.8065 121.968C40.426 121.968 41.25 121.838 44.366 118.713C46.8617 116.213 47.6129 114.064 47.6129 109.433V103.408H58.8548C69.1035 103.408 70.0968 103.636 70.0968 105.984C70.0968 108.065 69.0202 108.637 64.4758 108.967L58.8548 109.374V115.339V121.305L108.165 121.653L157.476 122L160.737 118.731L164 115.46V76.893V38.3258L160.753 35.0725C158.527 32.8413 156.033 31.8178 152.818 31.8178H148.129V19.1636C148.129 7.49442 147.876 6.25485 144.882 3.25469L141.636 0H82H22.3635L19.1179 3.25469ZM22.7484 6.89385C21.6268 8.01808 21.1613 15.7909 21.1613 33.4087V58.3326H31.1402C39.9724 58.3326 41.4933 58.7065 44.366 61.5873C47.2399 64.4668 47.6129 65.9914 47.6129 74.8447V84.8474H71.4194H95.2258V61.5873C95.2258 38.6573 95.2721 38.2795 98.4727 35.0725C101.64 31.896 102.213 31.8178 122.279 31.8178H142.839V20.1513C142.839 12.8451 142.246 7.89081 141.252 6.89385C138.969 4.60563 25.0312 4.60563 22.7484 6.89385ZM102.103 38.7116C99.8403 40.98 99.8403 112.806 102.103 115.074C104.345 117.321 154.881 117.321 157.123 115.074C159.386 112.806 159.386 40.98 157.123 38.7116C154.881 36.4645 104.345 36.4645 102.103 38.7116ZM103.767 41.4281C103.406 42.3707 103.271 57.1487 103.467 74.2693L103.823 105.396H129.613H155.403V72.9158V40.4351L129.913 40.0745C110.033 39.7934 104.279 40.0917 103.767 41.4281ZM108.452 72.9158V100.756H129.613H150.774V72.9158V45.0752H129.613H108.452V72.9158ZM6.87742 65.2265C4.6449 67.4643 4.6449 112.836 6.87742 115.074C9.06629 117.268 38.5466 117.268 40.7355 115.074C42.968 112.836 42.968 67.4643 40.7355 65.2265C37.7795 62.2634 33.7377 63.3877 32.1466 67.6128C30.7487 71.3262 30.1945 71.59 23.8065 71.59C17.4184 71.59 16.8642 71.3262 15.4663 67.6128C13.8752 63.3877 9.83339 62.2634 6.87742 65.2265ZM19.8387 64.9613C19.8387 65.6905 21.6242 66.2871 23.8065 66.2871C25.9887 66.2871 27.7742 65.6905 27.7742 64.9613C27.7742 64.2322 25.9887 63.6356 23.8065 63.6356C21.6242 63.6356 19.8387 64.2322 19.8387 64.9613ZM47.6129 94.1276V98.1048H71.4194H95.2258V94.1276V90.1504H71.4194H47.6129V94.1276ZM75.3871 106.059C75.3871 108.357 76.2693 108.711 82 108.711C87.7307 108.711 88.6129 108.357 88.6129 106.059C88.6129 103.762 87.7307 103.408 82 103.408C76.2693 103.408 75.3871 103.762 75.3871 106.059ZM94.1122 106.059C94.1122 107.882 94.4124 108.629 94.7788 107.716C95.1465 106.806 95.1465 105.314 94.7788 104.402C94.4124 103.491 94.1122 104.236 94.1122 106.059ZM8.569 110.082C7.00703 112.616 9.95639 114.218 15.3657 113.772C18.8613 113.486 20.5 112.716 20.5 111.362C20.5 108.908 9.98813 107.78 8.569 110.082ZM24.4426 110.076C23.9295 110.91 24.1067 112.193 24.8394 112.928C26.7188 114.812 31.0806 113.705 31.0806 111.344C31.0806 108.96 25.7586 107.944 24.4426 110.076ZM124.912 110.152C123.55 112.363 126.615 114.898 128.44 113.068C129.966 111.539 129.011 108.711 126.968 108.711C126.326 108.711 125.402 109.359 124.912 110.152ZM63.4839 115.339C63.4839 116.153 69.9024 116.665 80.0942 116.665C90.8309 116.665 96.4148 116.196 95.8871 115.339C95.4163 114.576 88.3788 114.014 79.2768 114.014C69.6299 114.014 63.4839 114.529 63.4839 115.339Z" fill="white" stroke="#262626" stroke-width="2.8" mask="url(#path-1-inside-1_1_174)"/>
</svg>
