<svg width="151" height="175" viewBox="0 0 151 175" fill="none" xmlns="http://www.w3.org/2000/svg">
<mask id="path-1-inside-1_1_1306" fill="white">
<path fill-rule="evenodd" clip-rule="evenodd" d="M48.946 0.37786C44.1227 2.19678 41.168 5.84702 40.7477 10.5063C40.5767 12.4008 40.6479 12.6886 41.4973 13.5422C43.5162 15.5713 45.9899 14.4072 46.4963 11.1896C46.9895 8.05264 48.8128 6.15018 51.6321 5.83097C54.7458 5.47821 57.6275 7.81114 57.9821 10.9707C58.3313 14.0862 56.0946 16.8193 52.7584 17.3541C51.3206 17.5843 49.4389 18.6823 42.47 23.357L33.9414 29.0778H26.2342C19.3916 29.0778 18.2678 29.1636 16.2123 29.8417C12.1672 31.1762 8.49415 34.6769 7.15257 38.4756C6.81718 39.4263 5.07014 50.1191 3.2712 62.2368L0 84.2696V114.147V144.025L0.891123 144.92L1.78188 145.816H11.6154H21.449L22.3398 144.92C23.0715 144.185 23.2309 143.663 23.2309 142.002V139.979H32.5033H41.776L42.6668 139.083C43.3986 138.348 43.5579 137.826 43.5579 136.165V134.142H52.2695H60.9811V136.165C60.9811 137.826 61.1404 138.348 61.8722 139.083C62.7571 139.973 62.809 139.979 69.8578 139.979C73.7599 139.979 76.9501 140.102 76.9472 140.252C76.9443 140.403 76.6198 147.339 76.2263 155.665C75.3327 174.569 75.3189 173.027 76.3915 174.104L77.2822 175H113.251H149.219L150.11 174.104C150.6 173.612 151 172.832 151 172.372C151 171.911 149.693 142.724 148.097 107.511C146.5 72.2982 145.194 40.6484 145.194 37.1783C145.193 30.9661 145.179 30.8548 144.302 29.9734C143.429 29.0957 143.292 29.0778 137.496 29.0775L131.581 29.0771L125.763 25.1558L119.945 21.2345L121.415 19.7753C123.765 17.4435 124.638 15.2378 124.663 11.5672C124.683 8.7071 124.588 8.28721 123.44 6.15893C122.088 3.65308 120.543 2.17015 117.981 0.920326C116.697 0.29432 115.658 0.113377 113.251 0.0969607C110.407 0.077626 109.986 0.17357 107.878 1.32234C106.62 2.00781 105.181 3.05736 104.682 3.65418C103.137 5.49863 101.927 8.30873 101.728 10.51C101.558 12.4004 101.629 12.6889 102.478 13.5422C104.497 15.5713 106.971 14.4072 107.477 11.1896C107.971 8.05264 109.794 6.15018 112.613 5.83097C115.727 5.47821 118.609 7.81114 118.963 10.9707C119.312 14.0862 117.076 16.8193 113.739 17.3541C112.302 17.5843 110.42 18.6823 103.451 23.357L94.9225 29.0778L82.7611 29.0775L70.6001 29.0771L64.7819 25.1558L58.9636 21.2345L60.4344 19.7753C62.7844 17.4435 63.6573 15.2378 63.6824 11.5672C63.7016 8.7071 63.6069 8.28721 62.4588 6.15893C60.3752 2.2971 57.246 0.304899 52.8383 0.0345784C51.1878 -0.0664727 49.7998 0.0557371 48.946 0.37786ZM48.2767 26.5242L44.4654 29.0764H52.2695H60.0736L56.2623 26.5242C54.1661 25.1204 52.3693 23.972 52.2695 23.972C52.1697 23.972 50.3729 25.1204 48.2767 26.5242ZM109.258 26.5242L105.446 29.0764H113.251H121.055L117.243 26.5242C115.147 25.1204 113.35 23.972 113.251 23.972C113.151 23.972 111.354 25.1204 109.258 26.5242ZM17.8642 35.3733C16.2899 35.88 13.6714 38.2275 12.9309 39.7954C12.5802 40.5382 11.0122 49.9254 9.07456 62.8789L5.80917 84.7107L5.80845 112.345L5.80772 139.979H11.6154H17.4232V108.771V77.5638L18.3143 76.6685C19.4929 75.4836 21.1612 75.4836 22.3398 76.6685L23.2309 77.5638V105.853V134.142H30.4905H37.7502V93.7017V53.2619L35.8445 53.7682C32.1065 54.7616 27.9696 53.5103 25.2186 50.5543C23.0534 48.2279 22.6556 47.193 21.7706 41.5866C20.6835 34.6998 20.7441 34.9096 19.8446 34.9519C19.4112 34.9724 18.5201 35.1621 17.8642 35.3733ZM27.4001 39.8469C28.2092 44.9527 28.6382 45.9833 30.5515 47.4188C31.7922 48.3498 34.4097 48.3709 35.9567 47.4633C36.6115 47.0788 37.2057 46.5885 37.2769 46.374C37.348 46.1591 36.8888 45.3398 36.2565 44.5532C34.8002 42.7416 32.7664 38.3961 32.4528 36.4246L32.2125 34.9147H29.4154H26.6182L27.4001 39.8469ZM38.1132 35.413C38.1132 35.687 38.6867 37.0631 39.3872 38.4708C40.9357 41.5812 43.114 43.6887 46.3964 45.2515C48.5892 46.2956 49.1511 46.4061 52.2695 46.4061C55.3879 46.4061 55.9498 46.2956 58.1425 45.2515C61.425 43.6887 63.6033 41.5812 65.1517 38.4708C65.8523 37.0631 66.4258 35.687 66.4258 35.413C66.4258 35.0004 63.992 34.9147 52.2695 34.9147C40.547 34.9147 38.1132 35.0004 38.1132 35.413ZM72.0862 36.4246C71.7725 38.3961 69.7387 42.7416 68.2825 44.5532C67.6501 45.3398 67.191 46.1591 67.2621 46.374C67.3333 46.5885 67.9275 47.0788 68.5823 47.4633C70.1293 48.3709 72.7468 48.3498 73.9875 47.4188C75.9007 45.9833 76.3298 44.9527 77.1389 39.8469L77.9207 34.9147H75.1236H72.3264L72.0862 36.4246ZM83.7059 35.9179C83.5952 36.4699 83.1745 39.0151 82.7705 41.5742C81.9143 46.9996 81.1259 48.9101 78.8895 50.9818C75.9726 53.6843 72.2292 54.7072 68.6944 53.7682L66.7888 53.2619V93.7017V134.142H74.0484H81.3081V105.853V77.5638L82.1992 76.6685C83.3778 75.4836 85.0461 75.4836 86.2247 76.6685L87.1158 77.5638V108.771V139.979H92.9235H98.7313L98.7305 112.345L98.7298 84.7107L95.4644 62.8789C93.5268 49.9254 91.9587 40.5382 91.6081 39.7954C90.481 37.4089 86.8341 34.9147 84.4708 34.9147C84.1459 34.9147 83.8214 35.3404 83.7059 35.9179ZM96.7958 37.3297C97.4612 38.6584 98.0053 39.9716 98.0053 40.2482C98.0053 40.6703 101.349 40.7516 118.695 40.7516H139.385V37.8332V34.9147H117.486H95.5864L96.7958 37.3297ZM99.0942 47.1269C99.0942 47.4232 100.319 55.9031 101.817 65.9717L104.539 84.2776V114.151V144.025L103.632 144.936L102.725 145.848L92.5605 145.741L82.3963 145.633L82.3967 147.41C82.397 149.152 81.7854 163.469 81.5495 167.248L81.4297 169.163H95.8884H110.347V107.876V46.5885H104.72C100.002 46.5885 99.0942 46.6753 99.0942 47.1269ZM116.154 107.876V169.163H130.59H145.026L144.906 166.518C144.839 165.063 143.748 140.857 142.479 112.725C141.211 84.5936 140.068 61.4054 139.939 61.1964C139.811 60.987 139.429 60.8159 139.092 60.8155C137.754 60.8148 134.064 58.673 132.555 57.0227C130.705 54.9976 129.025 51.61 128.421 48.6861L127.988 46.5885H122.071H116.154V107.876ZM134.105 47.5917C134.5 49.214 135.965 52.178 136.809 53.0598C137.239 53.5092 138.077 54.129 138.67 54.4373L139.748 54.9976V51.9333C139.748 50.2475 139.646 48.3556 139.521 47.7285L139.295 46.5885H136.578H133.862L134.105 47.5917ZM43.5579 89.4531V128.305H52.2695H60.9811V89.4531C60.9811 68.0846 60.9346 50.6014 60.8776 50.6014C60.821 50.6014 59.7999 50.9614 58.609 51.401C56.8474 52.0518 55.6656 52.201 52.2695 52.201C48.8734 52.201 47.6916 52.0518 45.93 51.401C44.7391 50.9614 43.718 50.6014 43.6614 50.6014C43.6044 50.6014 43.5579 68.0846 43.5579 89.4531Z"/>
</mask>
<path fill-rule="evenodd" clip-rule="evenodd" d="M48.946 0.37786C44.1227 2.19678 41.168 5.84702 40.7477 10.5063C40.5767 12.4008 40.6479 12.6886 41.4973 13.5422C43.5162 15.5713 45.9899 14.4072 46.4963 11.1896C46.9895 8.05264 48.8128 6.15018 51.6321 5.83097C54.7458 5.47821 57.6275 7.81114 57.9821 10.9707C58.3313 14.0862 56.0946 16.8193 52.7584 17.3541C51.3206 17.5843 49.4389 18.6823 42.47 23.357L33.9414 29.0778H26.2342C19.3916 29.0778 18.2678 29.1636 16.2123 29.8417C12.1672 31.1762 8.49415 34.6769 7.15257 38.4756C6.81718 39.4263 5.07014 50.1191 3.2712 62.2368L0 84.2696V114.147V144.025L0.891123 144.92L1.78188 145.816H11.6154H21.449L22.3398 144.92C23.0715 144.185 23.2309 143.663 23.2309 142.002V139.979H32.5033H41.776L42.6668 139.083C43.3986 138.348 43.5579 137.826 43.5579 136.165V134.142H52.2695H60.9811V136.165C60.9811 137.826 61.1404 138.348 61.8722 139.083C62.7571 139.973 62.809 139.979 69.8578 139.979C73.7599 139.979 76.9501 140.102 76.9472 140.252C76.9443 140.403 76.6198 147.339 76.2263 155.665C75.3327 174.569 75.3189 173.027 76.3915 174.104L77.2822 175H113.251H149.219L150.11 174.104C150.6 173.612 151 172.832 151 172.372C151 171.911 149.693 142.724 148.097 107.511C146.5 72.2982 145.194 40.6484 145.194 37.1783C145.193 30.9661 145.179 30.8548 144.302 29.9734C143.429 29.0957 143.292 29.0778 137.496 29.0775L131.581 29.0771L125.763 25.1558L119.945 21.2345L121.415 19.7753C123.765 17.4435 124.638 15.2378 124.663 11.5672C124.683 8.7071 124.588 8.28721 123.44 6.15893C122.088 3.65308 120.543 2.17015 117.981 0.920326C116.697 0.29432 115.658 0.113377 113.251 0.0969607C110.407 0.077626 109.986 0.17357 107.878 1.32234C106.62 2.00781 105.181 3.05736 104.682 3.65418C103.137 5.49863 101.927 8.30873 101.728 10.51C101.558 12.4004 101.629 12.6889 102.478 13.5422C104.497 15.5713 106.971 14.4072 107.477 11.1896C107.971 8.05264 109.794 6.15018 112.613 5.83097C115.727 5.47821 118.609 7.81114 118.963 10.9707C119.312 14.0862 117.076 16.8193 113.739 17.3541C112.302 17.5843 110.42 18.6823 103.451 23.357L94.9225 29.0778L82.7611 29.0775L70.6001 29.0771L64.7819 25.1558L58.9636 21.2345L60.4344 19.7753C62.7844 17.4435 63.6573 15.2378 63.6824 11.5672C63.7016 8.7071 63.6069 8.28721 62.4588 6.15893C60.3752 2.2971 57.246 0.304899 52.8383 0.0345784C51.1878 -0.0664727 49.7998 0.0557371 48.946 0.37786ZM48.2767 26.5242L44.4654 29.0764H52.2695H60.0736L56.2623 26.5242C54.1661 25.1204 52.3693 23.972 52.2695 23.972C52.1697 23.972 50.3729 25.1204 48.2767 26.5242ZM109.258 26.5242L105.446 29.0764H113.251H121.055L117.243 26.5242C115.147 25.1204 113.35 23.972 113.251 23.972C113.151 23.972 111.354 25.1204 109.258 26.5242ZM17.8642 35.3733C16.2899 35.88 13.6714 38.2275 12.9309 39.7954C12.5802 40.5382 11.0122 49.9254 9.07456 62.8789L5.80917 84.7107L5.80845 112.345L5.80772 139.979H11.6154H17.4232V108.771V77.5638L18.3143 76.6685C19.4929 75.4836 21.1612 75.4836 22.3398 76.6685L23.2309 77.5638V105.853V134.142H30.4905H37.7502V93.7017V53.2619L35.8445 53.7682C32.1065 54.7616 27.9696 53.5103 25.2186 50.5543C23.0534 48.2279 22.6556 47.193 21.7706 41.5866C20.6835 34.6998 20.7441 34.9096 19.8446 34.9519C19.4112 34.9724 18.5201 35.1621 17.8642 35.3733ZM27.4001 39.8469C28.2092 44.9527 28.6382 45.9833 30.5515 47.4188C31.7922 48.3498 34.4097 48.3709 35.9567 47.4633C36.6115 47.0788 37.2057 46.5885 37.2769 46.374C37.348 46.1591 36.8888 45.3398 36.2565 44.5532C34.8002 42.7416 32.7664 38.3961 32.4528 36.4246L32.2125 34.9147H29.4154H26.6182L27.4001 39.8469ZM38.1132 35.413C38.1132 35.687 38.6867 37.0631 39.3872 38.4708C40.9357 41.5812 43.114 43.6887 46.3964 45.2515C48.5892 46.2956 49.1511 46.4061 52.2695 46.4061C55.3879 46.4061 55.9498 46.2956 58.1425 45.2515C61.425 43.6887 63.6033 41.5812 65.1517 38.4708C65.8523 37.0631 66.4258 35.687 66.4258 35.413C66.4258 35.0004 63.992 34.9147 52.2695 34.9147C40.547 34.9147 38.1132 35.0004 38.1132 35.413ZM72.0862 36.4246C71.7725 38.3961 69.7387 42.7416 68.2825 44.5532C67.6501 45.3398 67.191 46.1591 67.2621 46.374C67.3333 46.5885 67.9275 47.0788 68.5823 47.4633C70.1293 48.3709 72.7468 48.3498 73.9875 47.4188C75.9007 45.9833 76.3298 44.9527 77.1389 39.8469L77.9207 34.9147H75.1236H72.3264L72.0862 36.4246ZM83.7059 35.9179C83.5952 36.4699 83.1745 39.0151 82.7705 41.5742C81.9143 46.9996 81.1259 48.9101 78.8895 50.9818C75.9726 53.6843 72.2292 54.7072 68.6944 53.7682L66.7888 53.2619V93.7017V134.142H74.0484H81.3081V105.853V77.5638L82.1992 76.6685C83.3778 75.4836 85.0461 75.4836 86.2247 76.6685L87.1158 77.5638V108.771V139.979H92.9235H98.7313L98.7305 112.345L98.7298 84.7107L95.4644 62.8789C93.5268 49.9254 91.9587 40.5382 91.6081 39.7954C90.481 37.4089 86.8341 34.9147 84.4708 34.9147C84.1459 34.9147 83.8214 35.3404 83.7059 35.9179ZM96.7958 37.3297C97.4612 38.6584 98.0053 39.9716 98.0053 40.2482C98.0053 40.6703 101.349 40.7516 118.695 40.7516H139.385V37.8332V34.9147H117.486H95.5864L96.7958 37.3297ZM99.0942 47.1269C99.0942 47.4232 100.319 55.9031 101.817 65.9717L104.539 84.2776V114.151V144.025L103.632 144.936L102.725 145.848L92.5605 145.741L82.3963 145.633L82.3967 147.41C82.397 149.152 81.7854 163.469 81.5495 167.248L81.4297 169.163H95.8884H110.347V107.876V46.5885H104.72C100.002 46.5885 99.0942 46.6753 99.0942 47.1269ZM116.154 107.876V169.163H130.59H145.026L144.906 166.518C144.839 165.063 143.748 140.857 142.479 112.725C141.211 84.5936 140.068 61.4054 139.939 61.1964C139.811 60.987 139.429 60.8159 139.092 60.8155C137.754 60.8148 134.064 58.673 132.555 57.0227C130.705 54.9976 129.025 51.61 128.421 48.6861L127.988 46.5885H122.071H116.154V107.876ZM134.105 47.5917C134.5 49.214 135.965 52.178 136.809 53.0598C137.239 53.5092 138.077 54.129 138.67 54.4373L139.748 54.9976V51.9333C139.748 50.2475 139.646 48.3556 139.521 47.7285L139.295 46.5885H136.578H133.862L134.105 47.5917ZM43.5579 89.4531V128.305H52.2695H60.9811V89.4531C60.9811 68.0846 60.9346 50.6014 60.8776 50.6014C60.821 50.6014 59.7999 50.9614 58.609 51.401C56.8474 52.0518 55.6656 52.201 52.2695 52.201C48.8734 52.201 47.6916 52.0518 45.93 51.401C44.7391 50.9614 43.718 50.6014 43.6614 50.6014C43.6044 50.6014 43.5579 68.0846 43.5579 89.4531Z" fill="white" stroke="#272727" stroke-width="2" mask="url(#path-1-inside-1_1_1306)"/>
</svg>
