<svg width="141" height="141" viewBox="0 0 141 141" fill="none" xmlns="http://www.w3.org/2000/svg">
<mask id="path-1-inside-1_1_175" fill="white">
<path fill-rule="evenodd" clip-rule="evenodd" d="M61.9018 0.752C61.3983 1.25772 61.153 4.10529 61.153 9.44888C61.153 17.7528 61.3677 18.4585 64.0285 18.8965L65.3439 19.1133L64.2263 24.5121C62.524 32.7364 61.2984 36.4983 59.2785 39.6962L57.4364 42.6133H47.4385H37.4406V52.0133V61.4133H24.1492C14.6437 61.4133 10.6444 61.6277 10.109 62.1653C9.65843 62.6178 9.36016 64.8055 9.36016 67.6531V72.3881L4.68008 79.4219L0 86.4556V112.976C0 132.767 0.189699 139.687 0.748813 140.248C1.32228 140.824 17.7475 141 70.877 141H140.257L140.633 139.59C141.129 137.73 141.122 114.144 140.613 74.7081L140.199 42.6766L137.961 42.4886L135.722 42.3L135.41 27.5733C135.143 14.9441 134.938 12.5515 133.971 10.7724C132.104 7.33827 128.501 3.76063 125.153 2.01724C122.514 0.643587 121.172 0.37224 117.002 0.37224C110.925 0.37224 106.995 2.12691 103.088 6.58501C99.0173 11.2286 98.5937 13.3041 98.5937 28.5879C98.5937 36.4607 98.3478 42.0656 97.9921 42.2862C97.6614 42.4911 96.4096 41.3092 95.2103 39.6599C93.5504 37.3757 92.6593 35.0896 91.4781 30.08C88.8603 18.9824 88.8466 18.8 90.5994 18.8C91.4269 18.8 92.4409 18.4616 92.8528 18.048C93.7969 17.0999 93.8836 2.95348 92.9557 1.21197C92.3448 0.0658 91.503 0 77.4803 0C66.7779 0 62.4422 0.209307 61.9018 0.752ZM65.5211 9.37619V14.4409L77.2213 14.2705L88.9215 14.1V9.4V4.7L86.5815 4.50573L84.2414 4.31084V6.85573C84.2414 9.33733 84.1884 9.4 82.0948 9.4C80.0655 9.4 79.9382 9.27216 79.7548 7.05C79.5719 4.82784 79.434 4.68935 77.2213 4.50573L74.8813 4.31084V6.85573C74.8813 9.33733 74.8282 9.4 72.7347 9.4C70.7054 9.4 70.5781 9.27216 70.3946 7.05C70.2118 4.82784 70.0739 4.68935 67.8611 4.50573L65.5211 4.31084V9.37619ZM113.458 5.26212C109.363 6.36756 106.21 8.99956 104.461 12.7733C103.042 15.8334 102.974 16.5891 102.968 29.2967L102.962 42.6133H117.002H131.042L131.036 29.2967C131.03 16.5891 130.962 15.8334 129.543 12.7733C126.685 6.6082 120.012 3.49241 113.458 5.26212ZM69.5516 21.15C68.5475 27.1359 65.3869 38.6102 64.2194 40.5077L62.9233 42.6133H77.0809C90.3318 42.6133 91.2085 42.5431 90.7586 41.5167C89.1617 37.8701 87.2816 31.4925 86.0641 25.5887L84.6632 18.8H77.3049H69.946L69.5516 21.15ZM41.8087 54.2067V61.4133H49.484C54.6215 61.4133 57.4071 61.6621 57.9082 62.1653C58.3631 62.6222 58.657 64.8412 58.657 67.816C58.657 72.5022 58.8055 73.0111 62.089 79.5867L65.5211 86.4593V93.3846V100.311L67.5154 98.0288C68.6124 96.7743 70.8526 94.8397 72.4938 93.7299L75.4772 91.712L73.2526 89.5657C70.4626 86.8748 68.7291 83.5397 68.2337 79.9107C67.7033 76.0247 68.5326 75.2 72.9724 75.2C78.0637 75.2 82.3594 76.6752 85.593 79.5334L88.3742 81.9918L90.5202 79.0966C92.8322 75.9758 96.7491 73.6521 100.622 73.1038L102.962 72.7723V75.2395C102.962 77.466 102.806 77.7067 101.37 77.7067C97.6289 77.7067 93.976 81.0399 92.3136 85.9711C91.1105 89.5406 91.2091 90.24 92.9145 90.24C95.131 90.24 101.541 94.0489 104.711 97.2486L107.954 100.522V83.1612V65.8H103.274H98.5937V63.6342V61.4685L103.118 61.2842L107.642 61.1L107.835 58.75L108.029 56.4H97.3831H86.7374V54.2217V52.0434L97.1896 51.8717L107.642 51.7L107.835 49.35L108.029 47H74.9187H41.8087V54.2067ZM112.322 88.6733C112.322 111.594 112.424 130.347 112.548 130.347C112.673 130.347 114.779 127.303 117.228 123.583L121.682 116.819V81.9097V47H117.002H112.322V88.6733ZM126.05 81.5751V116.15L130.574 123.211C133.063 127.095 135.309 130.289 135.566 130.31C135.823 130.33 136.034 111.594 136.034 88.6733V47H131.042H126.05V81.5751ZM13.8468 68.15L14.0402 70.5L33.8526 70.6654L53.6649 70.8309V68.3154V65.8H33.6591H13.6527L13.8468 68.15ZM10.8715 78.1879C9.81569 79.8192 8.4491 81.9291 7.8357 82.8767L6.72059 84.6H27.248H47.7749L50.0912 79.9L52.4069 75.2L32.5996 75.2113L12.7922 75.2226L10.8715 78.1879ZM54.4131 81.1702C53.6587 82.73 53.0409 84.14 53.0409 84.3036C53.0409 84.4665 54.4449 84.6 56.1609 84.6C57.877 84.6 59.281 84.4665 59.281 84.3036C59.281 83.6381 56.5085 78.3333 56.1609 78.3333C55.9544 78.3333 55.1681 79.6098 54.4131 81.1702ZM73.0092 80.6908C73.0092 82.5546 76.3602 86.7789 78.7089 87.8756C79.864 88.4158 82.0025 89.0518 83.4614 89.29C85.8177 89.6754 86.1134 89.5883 86.1134 88.5091C86.1134 86.6454 82.7625 82.4211 80.4137 81.3244C79.2587 80.7842 77.1202 80.1482 75.6613 79.91C73.305 79.5246 73.0092 79.6117 73.0092 80.6908ZM0.286421 112.8C0.286421 127.793 0.367542 133.927 0.467384 126.43C0.566602 118.934 0.566602 106.667 0.467384 99.17C0.367542 91.6738 0.286421 97.807 0.286421 112.8ZM4.78429 89.4047C4.55528 89.634 4.36807 96.0122 4.36807 103.578V117.334L6.79048 119.767C9.69275 122.681 10.7286 122.791 12.4484 120.365C15.141 116.568 20.7521 116.662 23.2874 120.548C24.6971 122.709 26.4343 122.642 28.0486 120.365C29.8801 117.781 32.954 116.858 35.7783 118.043C36.9826 118.548 38.4428 119.691 39.0237 120.581C40.4527 122.771 41.5416 122.622 44.3877 119.85L46.7995 117.5L46.8002 103.243L46.8008 88.9867H26.0006C14.56 88.9867 5.01268 89.1747 4.78429 89.4047ZM51.3174 112.957L51.4809 136.3H56.1609H60.841L61.0045 112.957L61.168 89.6133H56.1609H51.1539L51.3174 112.957ZM80.4162 94.9431C71.0236 97.9693 64.8933 107.086 65.6752 116.866C66.5451 127.75 75.6631 136.233 86.423 136.17C97.1241 136.108 105.364 129.095 107.338 118.37C108.974 109.482 103.543 99.5447 94.9594 95.7227C91.206 94.0514 84.3281 93.6829 80.4162 94.9431ZM14.8296 124.41C12.0066 127.046 8.65066 127.373 5.98863 125.269L4.32127 123.952L4.50099 130.126L4.68008 136.3L25.7404 136.465L46.8008 136.63V130.31V123.989L45.1565 125.288C42.5219 127.369 39.1841 127.033 36.275 124.393C34.9452 123.187 33.6448 122.2 33.3846 122.2C33.1243 122.2 31.8239 123.187 30.4941 124.393C28.5816 126.129 27.5563 126.587 25.5844 126.587C23.6126 126.587 22.5873 126.129 20.6747 124.393C19.3449 123.187 18.0102 122.208 17.7088 122.217C17.4068 122.226 16.1113 123.213 14.8296 124.41ZM119.271 128.964C116.822 132.684 114.818 135.927 114.818 136.17C114.818 136.414 119.053 136.613 124.23 136.613C129.407 136.613 133.549 136.368 133.434 136.069C132.975 134.867 124.464 122.221 124.108 122.211C123.897 122.205 121.721 125.244 119.271 128.964ZM65.5436 133.323L65.5211 136.613L68.7971 136.591L72.0732 136.568L70.2835 135.098C69.2989 134.29 67.8349 132.819 67.03 131.831L65.566 130.033L65.5436 133.323ZM104.545 133.449L101.448 136.613H104.409C107.727 136.613 108.145 136.121 107.84 132.574L107.642 130.284L104.545 133.449Z"/>
</mask>
<path fill-rule="evenodd" clip-rule="evenodd" d="M61.9018 0.752C61.3983 1.25772 61.153 4.10529 61.153 9.44888C61.153 17.7528 61.3677 18.4585 64.0285 18.8965L65.3439 19.1133L64.2263 24.5121C62.524 32.7364 61.2984 36.4983 59.2785 39.6962L57.4364 42.6133H47.4385H37.4406V52.0133V61.4133H24.1492C14.6437 61.4133 10.6444 61.6277 10.109 62.1653C9.65843 62.6178 9.36016 64.8055 9.36016 67.6531V72.3881L4.68008 79.4219L0 86.4556V112.976C0 132.767 0.189699 139.687 0.748813 140.248C1.32228 140.824 17.7475 141 70.877 141H140.257L140.633 139.59C141.129 137.73 141.122 114.144 140.613 74.7081L140.199 42.6766L137.961 42.4886L135.722 42.3L135.41 27.5733C135.143 14.9441 134.938 12.5515 133.971 10.7724C132.104 7.33827 128.501 3.76063 125.153 2.01724C122.514 0.643587 121.172 0.37224 117.002 0.37224C110.925 0.37224 106.995 2.12691 103.088 6.58501C99.0173 11.2286 98.5937 13.3041 98.5937 28.5879C98.5937 36.4607 98.3478 42.0656 97.9921 42.2862C97.6614 42.4911 96.4096 41.3092 95.2103 39.6599C93.5504 37.3757 92.6593 35.0896 91.4781 30.08C88.8603 18.9824 88.8466 18.8 90.5994 18.8C91.4269 18.8 92.4409 18.4616 92.8528 18.048C93.7969 17.0999 93.8836 2.95348 92.9557 1.21197C92.3448 0.0658 91.503 0 77.4803 0C66.7779 0 62.4422 0.209307 61.9018 0.752ZM65.5211 9.37619V14.4409L77.2213 14.2705L88.9215 14.1V9.4V4.7L86.5815 4.50573L84.2414 4.31084V6.85573C84.2414 9.33733 84.1884 9.4 82.0948 9.4C80.0655 9.4 79.9382 9.27216 79.7548 7.05C79.5719 4.82784 79.434 4.68935 77.2213 4.50573L74.8813 4.31084V6.85573C74.8813 9.33733 74.8282 9.4 72.7347 9.4C70.7054 9.4 70.5781 9.27216 70.3946 7.05C70.2118 4.82784 70.0739 4.68935 67.8611 4.50573L65.5211 4.31084V9.37619ZM113.458 5.26212C109.363 6.36756 106.21 8.99956 104.461 12.7733C103.042 15.8334 102.974 16.5891 102.968 29.2967L102.962 42.6133H117.002H131.042L131.036 29.2967C131.03 16.5891 130.962 15.8334 129.543 12.7733C126.685 6.6082 120.012 3.49241 113.458 5.26212ZM69.5516 21.15C68.5475 27.1359 65.3869 38.6102 64.2194 40.5077L62.9233 42.6133H77.0809C90.3318 42.6133 91.2085 42.5431 90.7586 41.5167C89.1617 37.8701 87.2816 31.4925 86.0641 25.5887L84.6632 18.8H77.3049H69.946L69.5516 21.15ZM41.8087 54.2067V61.4133H49.484C54.6215 61.4133 57.4071 61.6621 57.9082 62.1653C58.3631 62.6222 58.657 64.8412 58.657 67.816C58.657 72.5022 58.8055 73.0111 62.089 79.5867L65.5211 86.4593V93.3846V100.311L67.5154 98.0288C68.6124 96.7743 70.8526 94.8397 72.4938 93.7299L75.4772 91.712L73.2526 89.5657C70.4626 86.8748 68.7291 83.5397 68.2337 79.9107C67.7033 76.0247 68.5326 75.2 72.9724 75.2C78.0637 75.2 82.3594 76.6752 85.593 79.5334L88.3742 81.9918L90.5202 79.0966C92.8322 75.9758 96.7491 73.6521 100.622 73.1038L102.962 72.7723V75.2395C102.962 77.466 102.806 77.7067 101.37 77.7067C97.6289 77.7067 93.976 81.0399 92.3136 85.9711C91.1105 89.5406 91.2091 90.24 92.9145 90.24C95.131 90.24 101.541 94.0489 104.711 97.2486L107.954 100.522V83.1612V65.8H103.274H98.5937V63.6342V61.4685L103.118 61.2842L107.642 61.1L107.835 58.75L108.029 56.4H97.3831H86.7374V54.2217V52.0434L97.1896 51.8717L107.642 51.7L107.835 49.35L108.029 47H74.9187H41.8087V54.2067ZM112.322 88.6733C112.322 111.594 112.424 130.347 112.548 130.347C112.673 130.347 114.779 127.303 117.228 123.583L121.682 116.819V81.9097V47H117.002H112.322V88.6733ZM126.05 81.5751V116.15L130.574 123.211C133.063 127.095 135.309 130.289 135.566 130.31C135.823 130.33 136.034 111.594 136.034 88.6733V47H131.042H126.05V81.5751ZM13.8468 68.15L14.0402 70.5L33.8526 70.6654L53.6649 70.8309V68.3154V65.8H33.6591H13.6527L13.8468 68.15ZM10.8715 78.1879C9.81569 79.8192 8.4491 81.9291 7.8357 82.8767L6.72059 84.6H27.248H47.7749L50.0912 79.9L52.4069 75.2L32.5996 75.2113L12.7922 75.2226L10.8715 78.1879ZM54.4131 81.1702C53.6587 82.73 53.0409 84.14 53.0409 84.3036C53.0409 84.4665 54.4449 84.6 56.1609 84.6C57.877 84.6 59.281 84.4665 59.281 84.3036C59.281 83.6381 56.5085 78.3333 56.1609 78.3333C55.9544 78.3333 55.1681 79.6098 54.4131 81.1702ZM73.0092 80.6908C73.0092 82.5546 76.3602 86.7789 78.7089 87.8756C79.864 88.4158 82.0025 89.0518 83.4614 89.29C85.8177 89.6754 86.1134 89.5883 86.1134 88.5091C86.1134 86.6454 82.7625 82.4211 80.4137 81.3244C79.2587 80.7842 77.1202 80.1482 75.6613 79.91C73.305 79.5246 73.0092 79.6117 73.0092 80.6908ZM0.286421 112.8C0.286421 127.793 0.367542 133.927 0.467384 126.43C0.566602 118.934 0.566602 106.667 0.467384 99.17C0.367542 91.6738 0.286421 97.807 0.286421 112.8ZM4.78429 89.4047C4.55528 89.634 4.36807 96.0122 4.36807 103.578V117.334L6.79048 119.767C9.69275 122.681 10.7286 122.791 12.4484 120.365C15.141 116.568 20.7521 116.662 23.2874 120.548C24.6971 122.709 26.4343 122.642 28.0486 120.365C29.8801 117.781 32.954 116.858 35.7783 118.043C36.9826 118.548 38.4428 119.691 39.0237 120.581C40.4527 122.771 41.5416 122.622 44.3877 119.85L46.7995 117.5L46.8002 103.243L46.8008 88.9867H26.0006C14.56 88.9867 5.01268 89.1747 4.78429 89.4047ZM51.3174 112.957L51.4809 136.3H56.1609H60.841L61.0045 112.957L61.168 89.6133H56.1609H51.1539L51.3174 112.957ZM80.4162 94.9431C71.0236 97.9693 64.8933 107.086 65.6752 116.866C66.5451 127.75 75.6631 136.233 86.423 136.17C97.1241 136.108 105.364 129.095 107.338 118.37C108.974 109.482 103.543 99.5447 94.9594 95.7227C91.206 94.0514 84.3281 93.6829 80.4162 94.9431ZM14.8296 124.41C12.0066 127.046 8.65066 127.373 5.98863 125.269L4.32127 123.952L4.50099 130.126L4.68008 136.3L25.7404 136.465L46.8008 136.63V130.31V123.989L45.1565 125.288C42.5219 127.369 39.1841 127.033 36.275 124.393C34.9452 123.187 33.6448 122.2 33.3846 122.2C33.1243 122.2 31.8239 123.187 30.4941 124.393C28.5816 126.129 27.5563 126.587 25.5844 126.587C23.6126 126.587 22.5873 126.129 20.6747 124.393C19.3449 123.187 18.0102 122.208 17.7088 122.217C17.4068 122.226 16.1113 123.213 14.8296 124.41ZM119.271 128.964C116.822 132.684 114.818 135.927 114.818 136.17C114.818 136.414 119.053 136.613 124.23 136.613C129.407 136.613 133.549 136.368 133.434 136.069C132.975 134.867 124.464 122.221 124.108 122.211C123.897 122.205 121.721 125.244 119.271 128.964ZM65.5436 133.323L65.5211 136.613L68.7971 136.591L72.0732 136.568L70.2835 135.098C69.2989 134.29 67.8349 132.819 67.03 131.831L65.566 130.033L65.5436 133.323ZM104.545 133.449L101.448 136.613H104.409C107.727 136.613 108.145 136.121 107.84 132.574L107.642 130.284L104.545 133.449Z" fill="white" stroke="#272727" stroke-width="2" mask="url(#path-1-inside-1_1_175)"/>
</svg>
