<svg width="105" height="175" viewBox="0 0 105 175" fill="none" xmlns="http://www.w3.org/2000/svg">
<mask id="path-1-inside-1_1_176" fill="white">
<path fill-rule="evenodd" clip-rule="evenodd" d="M49.5904 5.83333V11.6667H52.5089H55.4273V5.83333V0H52.5089H49.5904V5.83333ZM17.204 11.7666L15.3041 13.6894L19.4976 17.8682L23.691 22.0474L25.7828 19.9573L27.8743 17.8668L23.8727 13.8553C21.6718 11.6488 19.6986 9.84375 19.4877 9.84375C19.2769 9.84375 18.2492 10.7089 17.204 11.7666ZM81.145 13.8553L77.1435 17.8668L79.2349 19.9569L81.3263 22.0471L85.3403 18.048C87.5481 15.8484 89.3543 13.876 89.3543 13.6642C89.3543 13.1822 85.9911 9.84375 85.5052 9.84375C85.3078 9.84375 83.3459 11.6488 81.145 13.8553ZM34.7249 23.8966C27.2818 25.8996 22.8618 32.3816 23.4236 40.4688C24.0234 49.0952 30.4002 58.8208 41.6595 68.281C47.2141 72.9477 51.3725 75.8333 52.5432 75.8333C54.3763 75.8333 62.7026 69.3529 68.9251 63.0831C75.5704 56.3876 79.3991 50.4102 80.9666 44.2852C83.4561 34.5581 79.0146 26.1895 70.1363 23.8784C64.805 22.4908 58.4038 24.0428 54.1976 27.743L52.5089 29.2286L50.8202 27.743C46.6129 24.0421 40.0303 22.4689 34.7249 23.8966ZM35.7909 29.6844C31.855 30.9703 29.6352 33.8702 29.2831 38.1868C28.9183 42.6581 30.8485 47.6434 35.162 53.371C37.7291 56.7799 44.4284 63.2457 48.937 66.6655L52.4717 69.347L53.6759 68.5107C58.8645 64.9079 67.2667 56.9669 70.3468 52.7552C77.5513 42.9045 77.6393 33.8614 70.5668 30.1485C68.4812 29.0536 63.5847 29.0376 61.2456 30.1175C59.0265 31.1423 57.0252 32.9492 55.5397 35.2683C53.5537 38.3691 51.4641 38.3691 49.4781 35.2683C47.9937 32.9507 45.969 31.1216 43.8517 30.1857C41.7639 29.2626 37.8305 29.0179 35.7909 29.6844ZM2.89526 43.75V46.6667H8.73216H14.5691V43.75V40.8333H8.73216H2.89526V43.75ZM90.4487 43.75V46.6667H96.2856H102.122V43.75V40.8333H96.2856H90.4487V43.75ZM0.8228 88.4443C-0.0695153 89.336 -0.108915 89.5293 0.114346 91.9268C0.759688 98.8666 3.68652 108.794 7.28752 116.257C10.2187 122.332 10.8688 123.364 20.6628 137.505L29.1613 149.776V162.388V175H32.0797H34.9982V161.669C34.9982 152.273 34.8734 148.102 34.5757 147.541C34.3437 147.103 30.1798 141.003 25.3232 133.984C14.1616 117.855 12.1996 114.398 9.12031 105.433C8.06748 102.368 6.19019 94.9287 6.1818 93.7891C6.17961 93.4598 7.04238 93.3333 9.29068 93.3333C11.4649 93.3333 12.4441 93.4708 12.5389 93.7891C16.0071 105.434 18.637 110.588 27.2362 122.591C33.6382 131.527 33.002 131.317 53.2936 131.174C68.2929 131.068 68.3889 131.063 70.3004 130.199C72.7202 129.106 74.6705 126.98 79.1397 120.559C85.7908 111.005 88.4911 105.925 90.9944 98.2552L92.5416 93.5156L95.684 93.4103L98.8264 93.3053L98.6123 94.504C97.0502 103.24 93.5207 112.651 89.0311 120.049C88.0304 121.698 83.3437 128.624 78.6158 135.44L70.0195 147.833V161.416V175H72.938H75.8564V162.325V149.65L83.9471 137.989C93.1855 124.674 95.3517 121.246 97.7951 116.078C101.195 108.886 104.091 98.8976 104.884 91.6289C105.112 89.534 105.064 89.3127 104.189 88.4388L103.25 87.5H96.3833C90.8365 87.5 89.3648 87.6065 88.7268 88.0531C88.1566 88.4519 87.4131 90.253 86.0553 94.5244C83.1825 103.562 80.2009 109.099 72.111 120.424C70.009 123.366 69.2079 124.197 67.9241 124.764C67.0515 125.15 66.1803 125.414 65.9888 125.35C65.7973 125.286 66.2084 124.436 66.9023 123.46C69.2983 120.092 70.3979 115.129 69.6719 110.955C68.1116 101.987 60.0012 95.6317 51.0493 96.363C45.3598 96.8282 40.0402 100.221 37.1732 105.213C33.9567 110.813 34.366 118.449 38.1665 123.736L39.451 125.523L38.3205 125.297C36.3432 124.902 35.3736 123.944 31.6606 118.724C24.3769 108.483 21.5806 103.187 18.7822 94.3308C17.7162 90.9581 16.7907 88.6776 16.3033 88.2241C15.5847 87.5547 15.005 87.5 8.64679 87.5H1.76765L0.8228 88.4443ZM49.0053 102.578C38.8892 105.891 37.9921 119.627 47.584 124.339C50.1066 125.577 54.4157 125.602 57.0689 124.391C59.4646 123.299 62.1164 120.655 63.1375 118.341C64.2764 115.76 64.2764 111.74 63.1375 109.159C62.1091 106.829 59.4453 104.184 57.0748 103.139C54.8498 102.159 51.0847 101.897 49.0053 102.578Z"/>
</mask>
<path fill-rule="evenodd" clip-rule="evenodd" d="M49.5904 5.83333V11.6667H52.5089H55.4273V5.83333V0H52.5089H49.5904V5.83333ZM17.204 11.7666L15.3041 13.6894L19.4976 17.8682L23.691 22.0474L25.7828 19.9573L27.8743 17.8668L23.8727 13.8553C21.6718 11.6488 19.6986 9.84375 19.4877 9.84375C19.2769 9.84375 18.2492 10.7089 17.204 11.7666ZM81.145 13.8553L77.1435 17.8668L79.2349 19.9569L81.3263 22.0471L85.3403 18.048C87.5481 15.8484 89.3543 13.876 89.3543 13.6642C89.3543 13.1822 85.9911 9.84375 85.5052 9.84375C85.3078 9.84375 83.3459 11.6488 81.145 13.8553ZM34.7249 23.8966C27.2818 25.8996 22.8618 32.3816 23.4236 40.4688C24.0234 49.0952 30.4002 58.8208 41.6595 68.281C47.2141 72.9477 51.3725 75.8333 52.5432 75.8333C54.3763 75.8333 62.7026 69.3529 68.9251 63.0831C75.5704 56.3876 79.3991 50.4102 80.9666 44.2852C83.4561 34.5581 79.0146 26.1895 70.1363 23.8784C64.805 22.4908 58.4038 24.0428 54.1976 27.743L52.5089 29.2286L50.8202 27.743C46.6129 24.0421 40.0303 22.4689 34.7249 23.8966ZM35.7909 29.6844C31.855 30.9703 29.6352 33.8702 29.2831 38.1868C28.9183 42.6581 30.8485 47.6434 35.162 53.371C37.7291 56.7799 44.4284 63.2457 48.937 66.6655L52.4717 69.347L53.6759 68.5107C58.8645 64.9079 67.2667 56.9669 70.3468 52.7552C77.5513 42.9045 77.6393 33.8614 70.5668 30.1485C68.4812 29.0536 63.5847 29.0376 61.2456 30.1175C59.0265 31.1423 57.0252 32.9492 55.5397 35.2683C53.5537 38.3691 51.4641 38.3691 49.4781 35.2683C47.9937 32.9507 45.969 31.1216 43.8517 30.1857C41.7639 29.2626 37.8305 29.0179 35.7909 29.6844ZM2.89526 43.75V46.6667H8.73216H14.5691V43.75V40.8333H8.73216H2.89526V43.75ZM90.4487 43.75V46.6667H96.2856H102.122V43.75V40.8333H96.2856H90.4487V43.75ZM0.8228 88.4443C-0.0695153 89.336 -0.108915 89.5293 0.114346 91.9268C0.759688 98.8666 3.68652 108.794 7.28752 116.257C10.2187 122.332 10.8688 123.364 20.6628 137.505L29.1613 149.776V162.388V175H32.0797H34.9982V161.669C34.9982 152.273 34.8734 148.102 34.5757 147.541C34.3437 147.103 30.1798 141.003 25.3232 133.984C14.1616 117.855 12.1996 114.398 9.12031 105.433C8.06748 102.368 6.19019 94.9287 6.1818 93.7891C6.17961 93.4598 7.04238 93.3333 9.29068 93.3333C11.4649 93.3333 12.4441 93.4708 12.5389 93.7891C16.0071 105.434 18.637 110.588 27.2362 122.591C33.6382 131.527 33.002 131.317 53.2936 131.174C68.2929 131.068 68.3889 131.063 70.3004 130.199C72.7202 129.106 74.6705 126.98 79.1397 120.559C85.7908 111.005 88.4911 105.925 90.9944 98.2552L92.5416 93.5156L95.684 93.4103L98.8264 93.3053L98.6123 94.504C97.0502 103.24 93.5207 112.651 89.0311 120.049C88.0304 121.698 83.3437 128.624 78.6158 135.44L70.0195 147.833V161.416V175H72.938H75.8564V162.325V149.65L83.9471 137.989C93.1855 124.674 95.3517 121.246 97.7951 116.078C101.195 108.886 104.091 98.8976 104.884 91.6289C105.112 89.534 105.064 89.3127 104.189 88.4388L103.25 87.5H96.3833C90.8365 87.5 89.3648 87.6065 88.7268 88.0531C88.1566 88.4519 87.4131 90.253 86.0553 94.5244C83.1825 103.562 80.2009 109.099 72.111 120.424C70.009 123.366 69.2079 124.197 67.9241 124.764C67.0515 125.15 66.1803 125.414 65.9888 125.35C65.7973 125.286 66.2084 124.436 66.9023 123.46C69.2983 120.092 70.3979 115.129 69.6719 110.955C68.1116 101.987 60.0012 95.6317 51.0493 96.363C45.3598 96.8282 40.0402 100.221 37.1732 105.213C33.9567 110.813 34.366 118.449 38.1665 123.736L39.451 125.523L38.3205 125.297C36.3432 124.902 35.3736 123.944 31.6606 118.724C24.3769 108.483 21.5806 103.187 18.7822 94.3308C17.7162 90.9581 16.7907 88.6776 16.3033 88.2241C15.5847 87.5547 15.005 87.5 8.64679 87.5H1.76765L0.8228 88.4443ZM49.0053 102.578C38.8892 105.891 37.9921 119.627 47.584 124.339C50.1066 125.577 54.4157 125.602 57.0689 124.391C59.4646 123.299 62.1164 120.655 63.1375 118.341C64.2764 115.76 64.2764 111.74 63.1375 109.159C62.1091 106.829 59.4453 104.184 57.0748 103.139C54.8498 102.159 51.0847 101.897 49.0053 102.578Z" fill="white" stroke="#272727" stroke-width="2" mask="url(#path-1-inside-1_1_176)"/>
</svg>
