<svg width="162" height="130" viewBox="0 0 162 130" fill="none" xmlns="http://www.w3.org/2000/svg">
<mask id="path-1-inside-1_1_177" fill="white">
<path fill-rule="evenodd" clip-rule="evenodd" d="M62.9271 0.83112L62.0985 1.6619V21.6667V41.6714L62.9271 42.5022L63.7554 43.3333H94.5011H125.247L126.075 42.5022L126.904 41.6714V21.6667V1.6619L126.075 0.83112L125.247 0H94.5011H63.7554L62.9271 0.83112ZM67.4989 18.4505C67.4989 25.6191 67.5496 31.4844 67.6117 31.4844C67.6738 31.4844 71.7281 28.666 76.6213 25.2214C82.9357 20.7763 85.7875 18.9583 86.4467 18.9583C87.6213 18.9583 88.1468 19.4557 92.9734 25.1367C95.1484 27.6971 96.9815 29.7917 97.0467 29.7917C97.1118 29.7917 100.618 27.3542 104.837 24.375C112.068 19.2705 113.219 18.6492 114.52 19.1499C114.794 19.2556 116.426 21.0075 118.147 23.0432C119.868 25.0792 121.327 26.7448 121.389 26.7448C121.452 26.7448 121.503 21.946 121.503 16.0807V5.41667H94.5011H67.4989V18.4505ZM97.2013 8.56747C95.5447 9.0912 92.7193 12.0257 92.2113 13.7502C91.2763 16.9244 91.9355 19.455 94.3208 21.8474C96.7061 24.2399 99.2291 24.9011 102.394 23.9633C104.248 23.4139 107.044 20.6094 107.592 18.7498C108.527 15.5756 107.867 13.045 105.482 10.6526C103.107 8.27057 100.343 7.57453 97.2013 8.56747ZM98.0299 14.3728C96.3554 16.052 97.5418 18.9583 99.9015 18.9583C101.289 18.9583 102.602 17.6417 102.602 16.25C102.602 14.8583 101.289 13.5417 99.9015 13.5417C99.244 13.5417 98.5521 13.8487 98.0299 14.3728ZM77.0222 31.569L68.2121 37.7474L76.8663 37.8378L85.5205 37.9285L88.2386 36.0496C89.7338 35.016 91.3047 33.9039 91.7293 33.5779L92.5015 32.9855L89.2576 29.188C87.4731 27.0996 85.9724 25.3906 85.9228 25.3906C85.8729 25.3906 81.8674 28.1711 77.0222 31.569ZM104.086 31.5216C99.2784 34.8935 95.2814 37.7118 95.2041 37.7846C95.1268 37.8571 101.013 37.9167 108.283 37.9167H121.503V36.6204C121.503 35.4497 121.092 34.8424 117.259 30.3574C114.925 27.6257 112.974 25.3906 112.922 25.3906C112.87 25.3906 108.894 28.1494 104.086 31.5216ZM6.29048 27.8464C5.61509 28.5235 5.21243 30.5216 2.70764 45.6198C-0.37668 64.2105 -0.364867 63.9905 1.68865 64.7678L2.6938 65.1483V68.3059C2.6938 71.2065 2.76097 71.5305 3.52243 72.2939C4.04458 72.8179 4.73651 73.125 5.39401 73.125C6.05152 73.125 6.74345 72.8179 7.2656 72.2939C8.02976 71.5278 8.09423 71.2112 8.09423 68.2314V65H12.1445H16.1949V70.4167V75.8333H12.9732C10.0023 75.8333 9.68668 75.898 8.92286 76.6644C8.10098 77.4885 8.09423 77.5477 8.09423 83.9583C8.09423 90.369 8.10098 90.4282 8.92286 91.2522C9.53648 91.868 10.1147 92.0833 11.1532 92.0833C12.5135 92.0833 12.5482 92.1111 12.3255 93.0143C12.0821 94.0005 5.14897 118.418 4.01049 122.298C3.41408 124.332 3.24734 124.583 2.49534 124.583C2.03056 124.583 1.27788 124.957 0.822215 125.414C-0.274072 126.514 -0.274072 128.07 0.822215 129.169L1.65051 130H81H160.349L161.178 129.169C162.274 128.07 162.274 126.514 161.178 125.414C160.414 124.648 160.098 124.583 157.127 124.583H153.906V106.979C153.906 91.3267 153.963 89.375 154.427 89.375C154.714 89.375 155.322 89.0009 155.777 88.5439C156.874 87.4446 156.874 85.8887 155.777 84.7894C154.961 83.9705 154.863 83.9583 149.048 83.9583H143.147L143.041 75.3844L142.936 66.8105L142.031 65.4391C141.533 64.6848 140.545 63.7061 139.837 63.2643L138.548 62.4609H97.1766H55.805L54.4366 63.3692C53.6843 63.8686 52.7078 64.8588 52.2674 65.5698C51.488 66.8271 51.4637 67.0935 51.3611 75.4102L51.2555 83.9583H45.3545C39.5392 83.9583 39.4413 83.9705 38.6252 84.7894C38.1027 85.3132 37.7966 86.0072 37.7966 86.6667C37.7966 87.7964 39.0664 89.375 39.9753 89.375C40.4391 89.375 40.4968 91.3267 40.4968 106.979V124.583H37.4732H34.45L33.7797 122.298C32.6412 118.418 25.7081 94.0005 25.4647 93.0143C25.2419 92.1111 25.2767 92.0833 26.6369 92.0833C27.6755 92.0833 28.2537 91.868 28.8673 91.2522C29.6892 90.4282 29.6959 90.369 29.6959 83.9583C29.6959 77.5477 29.6892 77.4885 28.8673 76.6644C28.1035 75.898 27.7879 75.8333 24.817 75.8333H21.5953V70.4167V65H28.8673C36.1386 65 36.1397 65 36.9679 64.1689C37.4236 63.7118 37.7996 63.0646 37.8033 62.7301C37.807 62.3959 36.5609 54.5814 35.0343 45.3646C32.5727 30.5057 32.172 28.5204 31.4987 27.8451C30.7399 27.084 30.7281 27.0833 18.8951 27.0833C7.05667 27.0833 7.0506 27.0837 6.29048 27.8464ZM10.2956 33.2617C9.9837 34.6267 6.06907 58.5186 6.06907 59.0586C6.06907 59.432 6.40761 59.5833 7.244 59.5833C8.1857 59.5833 8.45336 59.4323 8.59309 58.8216C8.90497 57.4566 12.8196 33.5647 12.8196 33.0247C12.8196 32.6513 12.4811 32.5 11.6447 32.5C10.703 32.5 10.4353 32.651 10.2956 33.2617ZM18.3962 33.2617C18.0843 34.6267 14.1697 58.5186 14.1697 59.0586C14.1697 59.5075 14.8518 59.5833 18.8951 59.5833C22.9383 59.5833 23.6205 59.5075 23.6205 59.0586C23.6205 58.5186 19.7058 34.6267 19.3939 33.2617C19.2981 32.8426 19.0736 32.5 18.8951 32.5C18.7165 32.5 18.4921 32.8426 18.3962 33.2617ZM24.9706 33.0247C24.9706 33.5647 28.8852 57.4566 29.1971 58.8216C29.3368 59.4323 29.6045 59.5833 30.5462 59.5833C31.3826 59.5833 31.7211 59.432 31.7211 59.0586C31.7211 58.5186 27.8065 34.6267 27.4946 33.2617C27.3549 32.651 27.0872 32.5 26.1455 32.5C25.3091 32.5 24.9706 32.6513 24.9706 33.0247ZM57.1031 68.1146C56.802 68.4166 56.6981 71.8914 56.6981 81.6562V94.7917H75.5996H94.5011V81.25V67.7083H76.0046C62.0685 67.7083 57.4082 67.8085 57.1031 68.1146ZM99.9015 81.25V94.7917H118.803H137.704V81.6562C137.704 71.8914 137.601 68.4166 137.299 68.1146C136.994 67.8085 132.334 67.7083 118.398 67.7083H99.9015V81.25ZM73.728 79.3728C73.2055 79.8965 72.8994 80.5905 72.8994 81.25C72.8994 81.9095 73.2055 82.6035 73.728 83.1272C74.4516 83.8534 74.8587 83.9583 76.9497 83.9583C79.0407 83.9583 79.4477 83.8534 80.1714 83.1272C80.6939 82.6035 81 81.9095 81 81.25C81 80.5905 80.6939 79.8965 80.1714 79.3728C79.4477 78.6466 79.0407 78.5417 76.9497 78.5417C74.8587 78.5417 74.4516 78.6466 73.728 79.3728ZM114.231 79.3728C113.709 79.8965 113.403 80.5905 113.403 81.25C113.403 81.9095 113.709 82.6035 114.231 83.1272C114.955 83.8534 115.362 83.9583 117.453 83.9583C119.544 83.9583 119.951 83.8534 120.675 83.1272C121.197 82.6035 121.503 81.9095 121.503 81.25C121.503 80.5905 121.197 79.8965 120.675 79.3728C119.951 78.6466 119.544 78.5417 117.453 78.5417C115.362 78.5417 114.955 78.6466 114.231 79.3728ZM13.4947 83.9583V86.6667H18.8951H24.2955V83.9583V81.25H18.8951H13.4947V83.9583ZM45.8972 92.2888C45.8972 94.8069 45.9698 95.1749 46.4312 94.9972C46.7248 94.8841 47.9399 94.7917 49.1314 94.7917H51.2976V92.0833V89.375H48.5974H45.8972V92.2888ZM143.105 92.0833V94.7917H145.271C146.463 94.7917 147.678 94.8841 147.971 94.9972C148.433 95.1749 148.505 94.8069 148.505 92.2888V89.375H145.805H143.105V92.0833ZM12.5499 111.983C10.6561 118.645 9.10681 124.206 9.10681 124.34C9.10681 124.474 10.7016 124.583 12.6508 124.583H16.1949V112.227C16.1949 105.43 16.1493 99.8698 16.0939 99.8698C16.0383 99.8698 14.4434 105.321 12.5499 111.983ZM21.5953 112.17V124.583H25.1393C27.0885 124.583 28.6834 124.471 28.6834 124.335C28.6834 123.969 21.8751 100.064 21.7239 99.8979C21.653 99.8204 21.5953 105.343 21.5953 112.17ZM46.5723 100.885C45.9613 101.498 45.8972 102.014 45.8972 106.302V111.042H97.2013H148.505V106.302C148.505 102.014 148.441 101.498 147.83 100.885C147.161 100.214 146.705 100.208 97.2013 100.208C47.6972 100.208 47.2413 100.214 46.5723 100.885ZM45.8972 120.521V124.583H97.2013H148.505V120.521V116.458H97.2013H45.8972V120.521Z"/>
</mask>
<path fill-rule="evenodd" clip-rule="evenodd" d="M62.9271 0.83112L62.0985 1.6619V21.6667V41.6714L62.9271 42.5022L63.7554 43.3333H94.5011H125.247L126.075 42.5022L126.904 41.6714V21.6667V1.6619L126.075 0.83112L125.247 0H94.5011H63.7554L62.9271 0.83112ZM67.4989 18.4505C67.4989 25.6191 67.5496 31.4844 67.6117 31.4844C67.6738 31.4844 71.7281 28.666 76.6213 25.2214C82.9357 20.7763 85.7875 18.9583 86.4467 18.9583C87.6213 18.9583 88.1468 19.4557 92.9734 25.1367C95.1484 27.6971 96.9815 29.7917 97.0467 29.7917C97.1118 29.7917 100.618 27.3542 104.837 24.375C112.068 19.2705 113.219 18.6492 114.52 19.1499C114.794 19.2556 116.426 21.0075 118.147 23.0432C119.868 25.0792 121.327 26.7448 121.389 26.7448C121.452 26.7448 121.503 21.946 121.503 16.0807V5.41667H94.5011H67.4989V18.4505ZM97.2013 8.56747C95.5447 9.0912 92.7193 12.0257 92.2113 13.7502C91.2763 16.9244 91.9355 19.455 94.3208 21.8474C96.7061 24.2399 99.2291 24.9011 102.394 23.9633C104.248 23.4139 107.044 20.6094 107.592 18.7498C108.527 15.5756 107.867 13.045 105.482 10.6526C103.107 8.27057 100.343 7.57453 97.2013 8.56747ZM98.0299 14.3728C96.3554 16.052 97.5418 18.9583 99.9015 18.9583C101.289 18.9583 102.602 17.6417 102.602 16.25C102.602 14.8583 101.289 13.5417 99.9015 13.5417C99.244 13.5417 98.5521 13.8487 98.0299 14.3728ZM77.0222 31.569L68.2121 37.7474L76.8663 37.8378L85.5205 37.9285L88.2386 36.0496C89.7338 35.016 91.3047 33.9039 91.7293 33.5779L92.5015 32.9855L89.2576 29.188C87.4731 27.0996 85.9724 25.3906 85.9228 25.3906C85.8729 25.3906 81.8674 28.1711 77.0222 31.569ZM104.086 31.5216C99.2784 34.8935 95.2814 37.7118 95.2041 37.7846C95.1268 37.8571 101.013 37.9167 108.283 37.9167H121.503V36.6204C121.503 35.4497 121.092 34.8424 117.259 30.3574C114.925 27.6257 112.974 25.3906 112.922 25.3906C112.87 25.3906 108.894 28.1494 104.086 31.5216ZM6.29048 27.8464C5.61509 28.5235 5.21243 30.5216 2.70764 45.6198C-0.37668 64.2105 -0.364867 63.9905 1.68865 64.7678L2.6938 65.1483V68.3059C2.6938 71.2065 2.76097 71.5305 3.52243 72.2939C4.04458 72.8179 4.73651 73.125 5.39401 73.125C6.05152 73.125 6.74345 72.8179 7.2656 72.2939C8.02976 71.5278 8.09423 71.2112 8.09423 68.2314V65H12.1445H16.1949V70.4167V75.8333H12.9732C10.0023 75.8333 9.68668 75.898 8.92286 76.6644C8.10098 77.4885 8.09423 77.5477 8.09423 83.9583C8.09423 90.369 8.10098 90.4282 8.92286 91.2522C9.53648 91.868 10.1147 92.0833 11.1532 92.0833C12.5135 92.0833 12.5482 92.1111 12.3255 93.0143C12.0821 94.0005 5.14897 118.418 4.01049 122.298C3.41408 124.332 3.24734 124.583 2.49534 124.583C2.03056 124.583 1.27788 124.957 0.822215 125.414C-0.274072 126.514 -0.274072 128.07 0.822215 129.169L1.65051 130H81H160.349L161.178 129.169C162.274 128.07 162.274 126.514 161.178 125.414C160.414 124.648 160.098 124.583 157.127 124.583H153.906V106.979C153.906 91.3267 153.963 89.375 154.427 89.375C154.714 89.375 155.322 89.0009 155.777 88.5439C156.874 87.4446 156.874 85.8887 155.777 84.7894C154.961 83.9705 154.863 83.9583 149.048 83.9583H143.147L143.041 75.3844L142.936 66.8105L142.031 65.4391C141.533 64.6848 140.545 63.7061 139.837 63.2643L138.548 62.4609H97.1766H55.805L54.4366 63.3692C53.6843 63.8686 52.7078 64.8588 52.2674 65.5698C51.488 66.8271 51.4637 67.0935 51.3611 75.4102L51.2555 83.9583H45.3545C39.5392 83.9583 39.4413 83.9705 38.6252 84.7894C38.1027 85.3132 37.7966 86.0072 37.7966 86.6667C37.7966 87.7964 39.0664 89.375 39.9753 89.375C40.4391 89.375 40.4968 91.3267 40.4968 106.979V124.583H37.4732H34.45L33.7797 122.298C32.6412 118.418 25.7081 94.0005 25.4647 93.0143C25.2419 92.1111 25.2767 92.0833 26.6369 92.0833C27.6755 92.0833 28.2537 91.868 28.8673 91.2522C29.6892 90.4282 29.6959 90.369 29.6959 83.9583C29.6959 77.5477 29.6892 77.4885 28.8673 76.6644C28.1035 75.898 27.7879 75.8333 24.817 75.8333H21.5953V70.4167V65H28.8673C36.1386 65 36.1397 65 36.9679 64.1689C37.4236 63.7118 37.7996 63.0646 37.8033 62.7301C37.807 62.3959 36.5609 54.5814 35.0343 45.3646C32.5727 30.5057 32.172 28.5204 31.4987 27.8451C30.7399 27.084 30.7281 27.0833 18.8951 27.0833C7.05667 27.0833 7.0506 27.0837 6.29048 27.8464ZM10.2956 33.2617C9.9837 34.6267 6.06907 58.5186 6.06907 59.0586C6.06907 59.432 6.40761 59.5833 7.244 59.5833C8.1857 59.5833 8.45336 59.4323 8.59309 58.8216C8.90497 57.4566 12.8196 33.5647 12.8196 33.0247C12.8196 32.6513 12.4811 32.5 11.6447 32.5C10.703 32.5 10.4353 32.651 10.2956 33.2617ZM18.3962 33.2617C18.0843 34.6267 14.1697 58.5186 14.1697 59.0586C14.1697 59.5075 14.8518 59.5833 18.8951 59.5833C22.9383 59.5833 23.6205 59.5075 23.6205 59.0586C23.6205 58.5186 19.7058 34.6267 19.3939 33.2617C19.2981 32.8426 19.0736 32.5 18.8951 32.5C18.7165 32.5 18.4921 32.8426 18.3962 33.2617ZM24.9706 33.0247C24.9706 33.5647 28.8852 57.4566 29.1971 58.8216C29.3368 59.4323 29.6045 59.5833 30.5462 59.5833C31.3826 59.5833 31.7211 59.432 31.7211 59.0586C31.7211 58.5186 27.8065 34.6267 27.4946 33.2617C27.3549 32.651 27.0872 32.5 26.1455 32.5C25.3091 32.5 24.9706 32.6513 24.9706 33.0247ZM57.1031 68.1146C56.802 68.4166 56.6981 71.8914 56.6981 81.6562V94.7917H75.5996H94.5011V81.25V67.7083H76.0046C62.0685 67.7083 57.4082 67.8085 57.1031 68.1146ZM99.9015 81.25V94.7917H118.803H137.704V81.6562C137.704 71.8914 137.601 68.4166 137.299 68.1146C136.994 67.8085 132.334 67.7083 118.398 67.7083H99.9015V81.25ZM73.728 79.3728C73.2055 79.8965 72.8994 80.5905 72.8994 81.25C72.8994 81.9095 73.2055 82.6035 73.728 83.1272C74.4516 83.8534 74.8587 83.9583 76.9497 83.9583C79.0407 83.9583 79.4477 83.8534 80.1714 83.1272C80.6939 82.6035 81 81.9095 81 81.25C81 80.5905 80.6939 79.8965 80.1714 79.3728C79.4477 78.6466 79.0407 78.5417 76.9497 78.5417C74.8587 78.5417 74.4516 78.6466 73.728 79.3728ZM114.231 79.3728C113.709 79.8965 113.403 80.5905 113.403 81.25C113.403 81.9095 113.709 82.6035 114.231 83.1272C114.955 83.8534 115.362 83.9583 117.453 83.9583C119.544 83.9583 119.951 83.8534 120.675 83.1272C121.197 82.6035 121.503 81.9095 121.503 81.25C121.503 80.5905 121.197 79.8965 120.675 79.3728C119.951 78.6466 119.544 78.5417 117.453 78.5417C115.362 78.5417 114.955 78.6466 114.231 79.3728ZM13.4947 83.9583V86.6667H18.8951H24.2955V83.9583V81.25H18.8951H13.4947V83.9583ZM45.8972 92.2888C45.8972 94.8069 45.9698 95.1749 46.4312 94.9972C46.7248 94.8841 47.9399 94.7917 49.1314 94.7917H51.2976V92.0833V89.375H48.5974H45.8972V92.2888ZM143.105 92.0833V94.7917H145.271C146.463 94.7917 147.678 94.8841 147.971 94.9972C148.433 95.1749 148.505 94.8069 148.505 92.2888V89.375H145.805H143.105V92.0833ZM12.5499 111.983C10.6561 118.645 9.10681 124.206 9.10681 124.34C9.10681 124.474 10.7016 124.583 12.6508 124.583H16.1949V112.227C16.1949 105.43 16.1493 99.8698 16.0939 99.8698C16.0383 99.8698 14.4434 105.321 12.5499 111.983ZM21.5953 112.17V124.583H25.1393C27.0885 124.583 28.6834 124.471 28.6834 124.335C28.6834 123.969 21.8751 100.064 21.7239 99.8979C21.653 99.8204 21.5953 105.343 21.5953 112.17ZM46.5723 100.885C45.9613 101.498 45.8972 102.014 45.8972 106.302V111.042H97.2013H148.505V106.302C148.505 102.014 148.441 101.498 147.83 100.885C147.161 100.214 146.705 100.208 97.2013 100.208C47.6972 100.208 47.2413 100.214 46.5723 100.885ZM45.8972 120.521V124.583H97.2013H148.505V120.521V116.458H97.2013H45.8972V120.521Z" fill="white" stroke="#262626" stroke-width="2" mask="url(#path-1-inside-1_1_177)"/>
</svg>
