<svg width="144" height="133" viewBox="0 0 144 133" fill="none" xmlns="http://www.w3.org/2000/svg">
<mask id="path-1-inside-1_1_1314" fill="white">
<path fill-rule="evenodd" clip-rule="evenodd" d="M15.9194 1.5229C15.0117 2.36016 11.0584 7.84869 7.13473 13.7196L0 24.3935V32.1853C0 40.5741 0.574654 42.8544 3.59865 46.4613L5.38318 48.59V88.2565V127.924H3.44658C1.12643 127.924 -0.183701 129.307 0.116411 131.44L0.336449 133H72H143.664L143.884 131.44C144.184 129.307 142.874 127.924 140.553 127.924H138.617V88.0947V48.2658L140.058 46.9764C143.043 44.3049 143.969 40.8442 143.985 32.3044L144 24.3366L136.628 13.2431C132.573 7.14139 128.569 1.66504 127.73 1.07415C126.368 0.114388 120.41 0 71.8876 0H17.5707L15.9194 1.5229ZM13.8294 13.8049C10.6641 18.4244 8.07477 22.386 8.07477 22.608C8.07477 22.8307 36.8411 23.0127 72 23.0127C107.159 23.0127 135.91 22.7839 135.892 22.5051C135.873 22.2262 133.374 18.3425 130.34 13.8753L124.822 5.75318L72.2032 5.57991L19.584 5.40664L13.8294 13.8049ZM5.38318 33.187C5.38318 41.3857 7.70333 44.6995 13.8011 45.2078C17.3681 45.5056 17.5747 45.4278 20.1829 42.8043L22.8785 40.0929V34.2605V28.4275H14.1308H5.38318V33.187ZM28.9346 33.8761C28.9346 37.4221 29.2912 40.0171 29.9554 41.3099C32.6167 46.4857 41.3744 46.7091 44.6481 41.6842C45.4596 40.4388 45.757 38.4312 45.757 34.2044V28.4275H37.3458H28.9346V33.8761ZM51.9147 34.5719C52.1482 40.6872 52.161 40.7264 54.6628 43.0324C56.8067 45.0075 57.6599 45.3486 60.4598 45.3486C66.4917 45.3486 69.3084 41.477 69.3084 33.187V28.4275H60.4941H51.6792L51.9147 34.5719ZM74.6916 33.187C74.6916 35.8051 75.1276 38.9964 75.6606 40.279C76.9222 43.316 80.2665 45.3425 84.0233 45.3459C86.5413 45.3479 87.336 44.9723 89.5747 42.7211L92.1869 40.0929V34.2605V28.4275H83.4393H74.6916V33.187ZM98.243 33.9072C98.243 41.7958 100.845 45.3486 106.623 45.3486C112.552 45.3486 115.194 42.0172 115.615 34.0115L115.907 28.4275H107.075H98.243V33.9072ZM121.121 33.5377C121.121 41.6375 123.901 45.3486 129.97 45.3486C132.77 45.3486 133.623 45.0075 135.767 43.0324C138.269 40.7264 138.282 40.6872 138.515 34.5719L138.751 28.4275H129.936H121.121V33.5377ZM23.3267 47.7467C20.5422 50.1677 15.1738 51.8504 12.4365 51.1593L10.7664 50.7376V89.3307V127.924H17.1293H23.4922L23.69 101.696L23.8879 75.4682L25.5418 72.1124C27.5376 68.0628 31.2224 64.2272 35.1313 62.1303C37.5578 60.8287 39.0395 60.5817 44.4112 60.5817C49.783 60.5817 51.2647 60.8287 53.6911 62.1303C57.6 64.2272 61.2848 68.0628 63.2806 72.1124L64.9346 75.4682L65.1324 101.696L65.3302 127.924H99.282H133.234V120.478V113.033H105.727C83.0086 113.033 78.085 112.869 77.441 112.088C76.9317 111.471 76.7285 108.739 76.8543 104.207C77.0131 98.4721 77.2506 97.1421 78.2243 96.5255C79.0809 95.9834 79.7228 95.9834 80.5794 96.5248C81.5013 97.1076 81.7994 98.3943 81.9535 102.444L82.15 107.618H90.3721H98.5936L110.355 95.7735C116.824 89.2589 122.589 83.9287 123.166 83.9287C124.624 83.9287 125.832 85.2899 125.832 86.9319C125.832 87.803 122.302 91.8681 116.252 97.9645L106.672 107.618H119.953H133.234V86.6361V65.6539L127.682 65.656L122.131 65.658L109.346 78.5208C102.314 85.5958 95.832 91.5791 94.9418 91.8174C93.3571 92.2418 91.514 90.775 91.514 89.0897C91.514 88.7208 96.5742 83.2966 102.759 77.0364L114.004 65.6539H98.0492H82.0935V71.7672C82.0935 77.4859 81.9959 77.9177 80.5794 78.4558C79.7175 78.7834 78.5587 78.7637 77.8879 78.4104C76.8671 77.8723 76.7103 76.7204 76.7103 69.7739C76.7103 63.9043 76.9512 61.557 77.6113 61.0067C78.231 60.4896 86.9969 60.1993 105.705 60.0774L132.897 59.9008L133.092 55.5013L133.286 51.1018L129.727 51.0551C126.086 51.0077 122.633 49.6533 120.012 47.2465C118.569 45.9205 118.56 45.9219 115.794 47.9375C109.927 52.2125 102.88 52.1319 97.7693 47.7318L95.1981 45.5185L92.6351 47.7467C88.9732 50.9305 84.5845 51.8714 79.8487 50.4865C77.834 49.897 75.2548 48.5406 74.1169 47.4712C72.0673 45.5456 72.0363 45.5401 70.8467 46.8634C65.9264 52.3357 56.1984 52.3817 50.4276 46.9608L48.7057 45.3432L46.7455 47.4015C42.231 52.1407 33.768 52.3018 28.481 47.7494L25.8897 45.5185L23.3267 47.7467ZM39.1202 66.5805C35.2026 68.0067 31.8496 71.4051 30.3302 75.4899C29.0133 79.0311 28.9346 80.6095 28.9346 103.583V127.924H44.4482H59.9619L59.7566 102.373C59.5588 77.7126 59.5009 76.7278 58.1027 74.1145C56.2414 70.6355 54.2342 68.7823 50.4673 67.0645C47.0887 65.524 42.5547 65.3304 39.1202 66.5805ZM77.1907 85.7014C76.2184 86.6795 76.7466 89.3151 78.0561 90.0204C80.1138 91.1283 82.2287 89.7307 81.9656 87.4368C81.7967 85.9667 81.3681 85.5823 79.7141 85.4198C78.5904 85.3088 77.4552 85.4361 77.1907 85.7014ZM35.8318 94.5295C35.2921 94.7488 34.9907 96.3028 34.9907 98.8627C34.9907 102.562 35.1145 102.886 36.6816 103.282C39.2138 103.921 40.3738 102.535 40.3738 98.8721C40.3738 94.7116 38.8867 93.2895 35.8318 94.5295Z"/>
</mask>
<path fill-rule="evenodd" clip-rule="evenodd" d="M15.9194 1.5229C15.0117 2.36016 11.0584 7.84869 7.13473 13.7196L0 24.3935V32.1853C0 40.5741 0.574654 42.8544 3.59865 46.4613L5.38318 48.59V88.2565V127.924H3.44658C1.12643 127.924 -0.183701 129.307 0.116411 131.44L0.336449 133H72H143.664L143.884 131.44C144.184 129.307 142.874 127.924 140.553 127.924H138.617V88.0947V48.2658L140.058 46.9764C143.043 44.3049 143.969 40.8442 143.985 32.3044L144 24.3366L136.628 13.2431C132.573 7.14139 128.569 1.66504 127.73 1.07415C126.368 0.114388 120.41 0 71.8876 0H17.5707L15.9194 1.5229ZM13.8294 13.8049C10.6641 18.4244 8.07477 22.386 8.07477 22.608C8.07477 22.8307 36.8411 23.0127 72 23.0127C107.159 23.0127 135.91 22.7839 135.892 22.5051C135.873 22.2262 133.374 18.3425 130.34 13.8753L124.822 5.75318L72.2032 5.57991L19.584 5.40664L13.8294 13.8049ZM5.38318 33.187C5.38318 41.3857 7.70333 44.6995 13.8011 45.2078C17.3681 45.5056 17.5747 45.4278 20.1829 42.8043L22.8785 40.0929V34.2605V28.4275H14.1308H5.38318V33.187ZM28.9346 33.8761C28.9346 37.4221 29.2912 40.0171 29.9554 41.3099C32.6167 46.4857 41.3744 46.7091 44.6481 41.6842C45.4596 40.4388 45.757 38.4312 45.757 34.2044V28.4275H37.3458H28.9346V33.8761ZM51.9147 34.5719C52.1482 40.6872 52.161 40.7264 54.6628 43.0324C56.8067 45.0075 57.6599 45.3486 60.4598 45.3486C66.4917 45.3486 69.3084 41.477 69.3084 33.187V28.4275H60.4941H51.6792L51.9147 34.5719ZM74.6916 33.187C74.6916 35.8051 75.1276 38.9964 75.6606 40.279C76.9222 43.316 80.2665 45.3425 84.0233 45.3459C86.5413 45.3479 87.336 44.9723 89.5747 42.7211L92.1869 40.0929V34.2605V28.4275H83.4393H74.6916V33.187ZM98.243 33.9072C98.243 41.7958 100.845 45.3486 106.623 45.3486C112.552 45.3486 115.194 42.0172 115.615 34.0115L115.907 28.4275H107.075H98.243V33.9072ZM121.121 33.5377C121.121 41.6375 123.901 45.3486 129.97 45.3486C132.77 45.3486 133.623 45.0075 135.767 43.0324C138.269 40.7264 138.282 40.6872 138.515 34.5719L138.751 28.4275H129.936H121.121V33.5377ZM23.3267 47.7467C20.5422 50.1677 15.1738 51.8504 12.4365 51.1593L10.7664 50.7376V89.3307V127.924H17.1293H23.4922L23.69 101.696L23.8879 75.4682L25.5418 72.1124C27.5376 68.0628 31.2224 64.2272 35.1313 62.1303C37.5578 60.8287 39.0395 60.5817 44.4112 60.5817C49.783 60.5817 51.2647 60.8287 53.6911 62.1303C57.6 64.2272 61.2848 68.0628 63.2806 72.1124L64.9346 75.4682L65.1324 101.696L65.3302 127.924H99.282H133.234V120.478V113.033H105.727C83.0086 113.033 78.085 112.869 77.441 112.088C76.9317 111.471 76.7285 108.739 76.8543 104.207C77.0131 98.4721 77.2506 97.1421 78.2243 96.5255C79.0809 95.9834 79.7228 95.9834 80.5794 96.5248C81.5013 97.1076 81.7994 98.3943 81.9535 102.444L82.15 107.618H90.3721H98.5936L110.355 95.7735C116.824 89.2589 122.589 83.9287 123.166 83.9287C124.624 83.9287 125.832 85.2899 125.832 86.9319C125.832 87.803 122.302 91.8681 116.252 97.9645L106.672 107.618H119.953H133.234V86.6361V65.6539L127.682 65.656L122.131 65.658L109.346 78.5208C102.314 85.5958 95.832 91.5791 94.9418 91.8174C93.3571 92.2418 91.514 90.775 91.514 89.0897C91.514 88.7208 96.5742 83.2966 102.759 77.0364L114.004 65.6539H98.0492H82.0935V71.7672C82.0935 77.4859 81.9959 77.9177 80.5794 78.4558C79.7175 78.7834 78.5587 78.7637 77.8879 78.4104C76.8671 77.8723 76.7103 76.7204 76.7103 69.7739C76.7103 63.9043 76.9512 61.557 77.6113 61.0067C78.231 60.4896 86.9969 60.1993 105.705 60.0774L132.897 59.9008L133.092 55.5013L133.286 51.1018L129.727 51.0551C126.086 51.0077 122.633 49.6533 120.012 47.2465C118.569 45.9205 118.56 45.9219 115.794 47.9375C109.927 52.2125 102.88 52.1319 97.7693 47.7318L95.1981 45.5185L92.6351 47.7467C88.9732 50.9305 84.5845 51.8714 79.8487 50.4865C77.834 49.897 75.2548 48.5406 74.1169 47.4712C72.0673 45.5456 72.0363 45.5401 70.8467 46.8634C65.9264 52.3357 56.1984 52.3817 50.4276 46.9608L48.7057 45.3432L46.7455 47.4015C42.231 52.1407 33.768 52.3018 28.481 47.7494L25.8897 45.5185L23.3267 47.7467ZM39.1202 66.5805C35.2026 68.0067 31.8496 71.4051 30.3302 75.4899C29.0133 79.0311 28.9346 80.6095 28.9346 103.583V127.924H44.4482H59.9619L59.7566 102.373C59.5588 77.7126 59.5009 76.7278 58.1027 74.1145C56.2414 70.6355 54.2342 68.7823 50.4673 67.0645C47.0887 65.524 42.5547 65.3304 39.1202 66.5805ZM77.1907 85.7014C76.2184 86.6795 76.7466 89.3151 78.0561 90.0204C80.1138 91.1283 82.2287 89.7307 81.9656 87.4368C81.7967 85.9667 81.3681 85.5823 79.7141 85.4198C78.5904 85.3088 77.4552 85.4361 77.1907 85.7014ZM35.8318 94.5295C35.2921 94.7488 34.9907 96.3028 34.9907 98.8627C34.9907 102.562 35.1145 102.886 36.6816 103.282C39.2138 103.921 40.3738 102.535 40.3738 98.8721C40.3738 94.7116 38.8867 93.2895 35.8318 94.5295Z" fill="#F3F3F3" stroke="#272727" stroke-width="2" mask="url(#path-1-inside-1_1_1314)"/>
</svg>
