<svg width="158" height="130" viewBox="0 0 158 130" fill="none" xmlns="http://www.w3.org/2000/svg">
<path fill-rule="evenodd" clip-rule="evenodd" d="M98.5406 0.321118C98.3246 0.503141 97.4205 1.92776 96.5315 3.48714C95.6424 5.04653 94.8936 6.34488 94.8678 6.37248C94.8417 6.39988 93.4058 6.72046 91.6768 7.08488C89.9477 7.44911 88.3771 7.8313 88.1863 7.93413C87.6441 8.22635 87.2574 8.90208 87.2574 9.55721C87.2574 10.2226 87.6314 10.7236 90.3146 13.6543L91.9642 15.456L91.5964 18.8237C91.2829 21.6957 91.2656 22.2803 91.479 22.7946C92.0357 24.1368 92.9428 24.1179 96.0209 22.6999C99.9294 20.8995 99.2704 20.9222 102.698 22.4695C104.327 23.2048 105.916 23.8064 106.231 23.8064C106.612 23.8064 106.984 23.6227 107.35 23.2539C107.999 22.6001 108.014 22.3481 107.616 18.7975C107.464 17.446 107.34 16.1276 107.34 15.8677C107.34 15.5301 107.978 14.6833 109.572 12.903C110.961 11.3531 111.851 10.1968 111.928 9.84527C112.078 9.15518 111.625 8.18042 111.033 7.91977C110.806 7.81978 109.227 7.44118 107.524 7.07845C105.553 6.65846 104.349 6.31161 104.212 6.12392C104.093 5.96193 103.303 4.61028 102.457 3.12064C101.438 1.32593 100.764 0.340777 100.459 0.201094C99.7885 -0.106814 98.9893 -0.0567257 98.5406 0.321118ZM98.4149 7.53228C97.729 8.72649 97.1676 9.48274 96.8632 9.62261C96.6007 9.74302 95.5835 10.0078 94.6024 10.2112C93.6216 10.4144 92.7775 10.6223 92.727 10.6734C92.633 10.7681 92.8798 11.0729 94.4356 12.7854C94.9263 13.3254 95.4052 13.9726 95.4999 14.2237C95.6073 14.5079 95.5941 15.4369 95.4652 16.6888C95.3515 17.7936 95.3138 18.7532 95.3813 18.8213C95.4489 18.8893 96.3939 18.5449 97.4815 18.056C99.6988 17.0589 99.4582 17.0521 102.038 18.1851C102.994 18.605 103.824 18.901 103.882 18.8426C103.94 18.7842 103.889 17.9087 103.769 16.8969C103.649 15.8851 103.603 14.7932 103.666 14.4701C103.738 14.0983 104.292 13.3287 105.176 12.3709C105.944 11.5392 106.575 10.806 106.579 10.7416C106.582 10.6773 105.678 10.4348 104.568 10.2031C103.459 9.97116 102.382 9.6727 102.176 9.53963C101.969 9.40676 101.343 8.47944 100.785 7.47936C100.226 6.47908 99.7063 5.66083 99.6294 5.66083C99.5524 5.66083 99.006 6.5029 98.4149 7.53228ZM77.7777 12.266C77.5692 12.3513 76.2847 13.1553 74.923 14.053C73.5612 14.9506 72.3289 15.7309 72.1846 15.7866C72.0401 15.8424 70.4991 15.5008 68.7601 15.0273C67.021 14.5539 65.4537 14.1666 65.277 14.1666C64.811 14.1666 63.8615 15.0326 63.7244 15.5829C63.6508 15.8783 63.924 17.2375 64.4545 19.2146C64.9208 20.9524 65.3023 22.4642 65.3023 22.5742C65.3023 22.6842 64.5324 23.9631 63.5911 25.4163C61.5686 28.539 61.4709 28.7592 61.7409 29.5831C62.0903 30.6499 62.4872 30.7732 66.2715 30.9907C68.1591 31.0994 69.7545 31.2497 69.8168 31.3249C69.8793 31.4001 70.8414 32.5945 71.9549 33.9795C74.3769 36.9912 75.001 37.3513 76.1342 36.3909C76.5441 36.0435 76.9398 35.212 77.7756 32.9414C78.3815 31.2958 78.9683 29.8561 79.0798 29.7421C79.1911 29.6279 80.5911 29.045 82.1908 28.4468C84.289 27.662 85.2432 27.2055 85.6155 26.8082C86.1961 26.1888 86.2835 25.4323 85.8472 24.8048C85.6453 24.5145 81.0471 20.6141 80.5562 20.3168C80.5345 20.3036 80.4335 18.7474 80.332 16.8587C80.2306 14.9701 80.0559 13.2525 79.9439 13.0415C79.7294 12.638 78.8139 12.0791 78.4003 12.0993C78.2661 12.1059 77.986 12.181 77.7777 12.266ZM120.19 12.259C119.984 12.348 119.646 12.6093 119.441 12.8395C119.113 13.2067 119.044 13.6887 118.878 16.7603L118.689 20.2623L116.156 22.3198C114.762 23.4514 113.517 24.5203 113.388 24.695C113.048 25.1558 113.1 26.3451 113.482 26.818C113.683 27.0673 115.038 27.6952 116.976 28.4369C118.717 29.1034 120.161 29.6738 120.184 29.7045C120.207 29.7353 120.775 31.2064 121.447 32.9737C122.52 35.7959 122.741 36.2297 123.264 36.538C123.693 36.7909 124.041 36.8542 124.514 36.765C125.08 36.658 125.464 36.2718 127.322 33.9371L129.475 31.233L130.743 31.1125C131.441 31.0461 132.603 30.9849 133.326 30.9765C135.611 30.9503 136.619 30.732 137.11 30.1577C137.894 29.2391 137.731 28.7129 135.669 25.5038C134.533 23.7357 133.833 22.4674 133.9 22.2954C134.256 21.3753 135.481 16.428 135.482 15.9065C135.484 15.2062 134.858 14.4418 134.132 14.2584C133.868 14.1917 132.405 14.4964 130.539 15.0067C128.807 15.4802 127.316 15.8677 127.225 15.8677C127.135 15.8677 125.829 15.057 124.324 14.0664C121.581 12.2605 120.888 11.9577 120.19 12.259ZM74.7787 18.5139C72.8061 19.8376 72.6135 19.8639 70.0497 19.1604C69.072 18.8922 68.2332 18.7118 68.1856 18.7599C68.1379 18.8081 68.322 19.6441 68.5946 20.6181C69.3075 23.1647 69.2829 23.3454 67.9482 25.3843C67.3186 26.346 66.8035 27.1817 66.8035 27.241C66.8035 27.3006 67.8026 27.4092 69.0236 27.4826C71.5792 27.6363 71.5218 27.6049 73.2666 29.8077C73.8637 30.5615 74.4082 31.178 74.4767 31.178C74.5452 31.178 74.8766 30.4297 75.2131 29.5153C76.2637 26.6594 75.9473 26.9225 80.2935 25.2875C80.7262 25.1248 80.7045 25.0898 79.6649 24.2767C78.1115 23.0617 77.3744 22.3871 77.1612 21.9854C77.0582 21.7915 76.9126 20.6759 76.8374 19.5063C76.7621 18.3368 76.6482 17.38 76.584 17.3802C76.52 17.3804 75.7075 17.8906 74.7787 18.5139ZM122.462 17.6789C122.399 17.8433 122.348 18.6408 122.348 19.4509C122.348 21.8726 122.304 21.9676 120.493 23.4715C119.604 24.2094 118.798 24.8823 118.703 24.967C118.523 25.1257 118.811 25.2643 121.188 26.1644C121.943 26.4504 122.703 26.8405 122.876 27.0314C123.05 27.2223 123.519 28.2334 123.919 29.2782C124.318 30.3231 124.701 31.178 124.769 31.178C124.837 31.178 125.432 30.4906 126.09 29.6504C126.748 28.8104 127.468 28.0037 127.689 27.8578C127.94 27.692 128.913 27.5453 130.286 27.4663C131.493 27.397 132.481 27.3166 132.481 27.2877C132.481 27.259 131.977 26.4693 131.362 25.5327C130.746 24.5963 130.192 23.627 130.13 23.3788C130.066 23.1241 130.262 22.0085 130.579 20.8154C130.959 19.3887 131.069 18.7037 130.92 18.7052C130.798 18.7066 129.939 18.9192 129.011 19.1778C128.083 19.4365 127.075 19.648 126.772 19.648C126.419 19.648 125.588 19.2407 124.461 18.5139C123.493 17.8902 122.673 17.3798 122.638 17.3798C122.604 17.3798 122.525 17.5144 122.462 17.6789ZM98.0561 30.0572C94.8116 30.556 92.0695 32.3498 90.2739 35.1483C89.2677 36.7164 88.7428 38.4325 88.6267 40.5344C88.4606 43.5393 89.5077 46.4691 91.4994 48.5725C92.5505 49.6824 92.6732 49.8907 92.2757 49.8907C92.1461 49.8907 91.1817 50.3146 90.1329 50.8329C83.9476 53.8895 79.7246 59.5985 78.5148 66.5394C78.2577 68.0147 78.2438 68.4649 78.4341 69.1671C78.7266 70.2473 79.9424 71.506 80.9717 71.7937C82.0458 72.094 117.348 72.091 118.239 71.7905C119.919 71.2236 120.847 69.8986 120.847 68.064C120.847 66.5918 119.938 63.0343 119.081 61.1526C118.071 58.9345 116.453 56.6075 114.712 54.8686C112.629 52.7892 109.583 50.7775 107.477 50.0908C107.09 49.9646 106.773 49.8001 106.773 49.7253C106.773 49.6506 107.118 49.2531 107.539 48.8422C108.537 47.8686 109.642 45.9727 110.178 44.3147C110.767 42.491 110.775 39.7571 110.197 37.8881C108.577 32.652 103.304 29.2506 98.0561 30.0572ZM97.4843 33.8891C95.4024 34.5817 93.803 36.0174 92.8695 38.0316C92.2969 39.2666 92.2348 39.5662 92.2335 41.1014C92.2322 42.613 92.2967 42.9405 92.8133 44.04C93.8233 46.1907 95.2121 47.4478 97.4061 48.1978C100.749 49.3408 104.711 47.6141 106.314 44.3147C106.823 43.2694 106.866 43.0178 106.866 41.1014C106.867 39.2362 106.815 38.9099 106.36 37.932C105.708 36.5314 104.171 34.9884 102.739 34.2976C101.805 33.8473 101.324 33.7447 99.9238 33.6969C98.8756 33.6611 97.9503 33.7339 97.4843 33.8891ZM97.2967 52.3592C92.9173 52.9425 88.4512 55.468 85.7543 58.8865C83.914 61.2192 82.0032 65.7278 82.0032 67.737V68.2253H99.6423C116.317 68.2253 117.281 68.2071 117.28 67.8945C117.277 67.1855 116.504 64.3616 115.961 63.0759C114.261 59.0521 110.611 55.3837 106.593 53.6615C103.91 52.5116 100.13 51.9819 97.2967 52.3592ZM1.1259 59.9289C0.867883 60.0308 0.510972 60.3019 0.332517 60.5312C0.0285234 60.922 0.00806956 62.7799 0.0041289 90.2899L0 119.632L0.547751 120.249L1.09569 120.866H8.1945C14.5361 120.866 15.4136 120.829 16.4194 120.521C19.4712 119.584 21.7432 117.264 22.6246 114.186L23.0341 112.756L26.1069 112.043C30.5619 111.009 32.3871 110.74 34.96 110.742C38.7778 110.744 40.9275 111.248 46.0659 113.347C49.8339 114.886 78.1594 126.478 81.0435 127.661C85.5697 129.518 88.8961 130.147 93.2622 129.972C96.265 129.851 98.434 129.447 101.005 128.529C102.591 127.963 103.868 127.375 110.151 124.315C144.882 107.404 153.709 103.057 154.332 102.56C157.975 99.6566 159.012 95.0006 156.958 90.7715C156.358 89.5367 154.698 87.7792 153.427 87.0329C152.186 86.3045 150.295 85.8038 148.783 85.8038C147.294 85.8038 147.513 85.7469 129.854 90.7127C122.371 92.8168 114.772 94.9482 112.965 95.4491C111.159 95.9498 109.071 96.5305 108.325 96.7391L106.969 97.1185L106.37 95.9876C105.601 94.5327 104.285 93.3463 101.967 92.0164C100.946 91.431 90.6118 85.4864 79.0012 78.8064C57.914 66.6742 55.9804 65.5907 54.0461 64.8237C50.9448 63.5936 45.8713 62.7867 42.6904 63.0175C41.7616 63.0848 36.9696 63.8163 32.0417 64.643C27.1136 65.4698 22.9759 66.1444 22.8468 66.1423C22.7175 66.1402 22.3447 65.5662 22.018 64.8664C20.9063 62.4848 18.4548 60.561 15.8133 59.9972C14.301 59.6745 1.91553 59.6169 1.1259 59.9289ZM3.56536 90.3402V117.18H9.25529C15.6176 117.18 16.0531 117.114 17.4308 115.926C17.8564 115.559 18.4363 114.862 18.7194 114.377L19.2342 113.495V90.3402V67.1857L18.8279 66.4296C18.2811 65.4121 17.1655 64.3599 16.1379 63.8924C15.3475 63.5327 14.918 63.508 9.42943 63.504L3.56536 63.4998V90.3402ZM32.182 68.2789C27.2281 69.1182 23.1127 69.8958 23.0369 70.0073C22.884 70.2322 22.8367 108.744 22.9892 108.897C23.0421 108.951 24.685 108.632 26.6405 108.189C32.5515 106.851 35.6941 106.702 40.075 107.552C42.5204 108.027 43.9736 108.538 50.6656 111.281C87.2287 126.265 85.0797 125.414 87.8204 126.002C90.0074 126.471 94.4262 126.463 96.6399 125.986C99.6042 125.347 100.532 124.952 110.432 120.111C112.29 119.203 114.823 117.969 116.062 117.37C117.3 116.771 119.707 115.601 121.41 114.771C123.113 113.94 129.657 110.75 135.953 107.682C142.248 104.614 148.469 101.581 149.776 100.941C152.361 99.6763 153.217 98.9387 153.939 97.3568C154.502 96.1207 154.478 93.9882 153.887 92.7528C152.997 90.8921 151.198 89.6276 149.185 89.4478C148.11 89.3518 148.068 89.3626 132.2 93.8355C126.75 95.3718 116.908 98.1333 111.961 99.515C109.602 100.174 107.633 100.752 107.586 100.8C107.538 100.847 107.376 101.42 107.225 102.071C106.292 106.101 102.465 108.973 98.5168 108.608C96.7493 108.444 65.994 98.9149 65.3783 98.3403C65.0533 98.0367 64.927 97.7167 64.927 97.1958C64.927 96.3258 65.2822 95.7651 66.0321 95.4523C66.6765 95.1833 66.3184 95.0936 73.6527 97.3655C76.3361 98.1968 81.1072 99.6728 84.255 100.646C87.4028 101.618 91.7938 102.981 94.0128 103.673C98.5001 105.072 99.5564 105.207 100.978 104.56C103.484 103.42 104.521 100.49 103.306 97.987C103.029 97.4181 102.531 96.7433 102.198 96.4875C101.471 95.9294 56.8083 70.1982 54.7939 69.1773C51.3903 67.4524 48.0672 66.7033 43.9505 66.7332C41.4169 66.7515 40.4469 66.8789 32.182 68.2789ZM9.28156 102.506C5.9579 104.065 5.24877 108.695 7.96557 111.098C8.9922 112.006 9.73098 112.315 11.1173 112.414C13.24 112.568 14.945 111.617 16.1013 109.636C16.5367 108.89 16.6071 108.559 16.6071 107.257C16.6071 105.936 16.5371 105.618 16.0537 104.739C15.0739 102.957 13.5024 102.058 11.3761 102.061C10.5672 102.062 9.94697 102.194 9.28156 102.506ZM10.4061 106.115C9.43262 107.095 10.1057 108.864 11.4525 108.864C12.1819 108.864 13.1355 107.97 13.1355 107.286C13.1355 107.026 12.9169 106.552 12.6497 106.232C12.0218 105.481 11.0843 105.431 10.4061 106.115Z" fill="white"/>
</svg>
