<svg width="97" height="80" viewBox="0 0 97 80" fill="none" xmlns="http://www.w3.org/2000/svg">
<path fill-rule="evenodd" clip-rule="evenodd" d="M46.9679 0.773668C45.0676 1.93885 44.2195 3.45504 44.2522 5.62907C44.3003 8.84614 46.3813 10.936 49.5363 10.936C52.8182 10.936 54.8955 8.73191 54.8441 5.30391C54.8205 3.73769 54.5767 2.98605 53.833 2.18481C51.6944 -0.117622 49.2433 -0.621214 46.9679 0.773668ZM30.9961 6.02761C29.6082 6.78508 29.0167 7.83687 29.0167 9.54649C29.0167 11.2907 29.6207 12.3263 31.0811 13.0858C32.8839 14.023 34.237 13.855 35.7368 12.5072C36.8494 11.5075 37.0815 10.9972 37.0815 9.54649C37.0815 8.09575 36.8494 7.58549 35.7368 6.58581C34.2403 5.24096 32.7575 5.06628 30.9961 6.02761ZM61.2632 6.58581C60.1506 7.58549 59.9185 8.09575 59.9185 9.54649C59.9185 10.9972 60.1506 11.5075 61.2632 12.5072C62.763 13.855 64.1161 14.023 65.9189 13.0858C67.3793 12.3263 67.9833 11.2907 67.9833 9.54649C67.9833 7.80227 67.3793 6.76674 65.9189 6.00718C64.1161 5.07003 62.763 5.23804 61.2632 6.58581ZM15.94 17.24C15.0558 18.1288 14.9224 18.6412 14.9224 21.1441C14.9224 23.4274 15.1006 24.2528 15.7817 25.1232C16.2539 25.7273 16.8906 26.2217 17.1961 26.2217C17.6799 26.2217 28.8032 44.0258 37.6407 58.9468L40.6039 63.9494L41.6688 71.2448C42.9846 80.2565 42.7839 79.9993 48.5 79.9993C54.0755 79.9993 54.0445 80.0326 55.0895 72.9123C55.5443 69.8169 56.0458 66.4715 56.2046 65.4781C56.3961 64.2795 57.7745 61.5452 60.3027 57.3489C72.2568 37.5083 79.3313 26.2217 79.813 26.2217C80.1136 26.2217 80.7461 25.7273 81.2183 25.1232C81.8994 24.2528 82.0776 23.4274 82.0776 21.1441C82.0776 18.6412 81.9442 18.1288 81.06 17.24L80.0427 16.2166H48.5H16.9573L15.94 17.24ZM17.1667 18.8692C17.0465 19.1843 17.005 20.4521 17.0751 21.6856L17.2023 23.9289L21.555 24.1373C25.5623 24.3291 25.9076 24.412 25.9076 25.1795C25.9076 25.9103 25.5623 26.0391 23.1103 26.2217L20.3134 26.4301L21.0799 27.6808C27.8725 38.7652 39.2815 57.6336 40.7415 60.1974C42.5273 63.334 42.6927 63.8927 43.516 69.5772C43.9973 72.9019 44.491 76.1381 44.6133 76.7684L44.8351 77.9148H48.5H52.1649L52.3987 76.7684C52.5272 76.1381 52.919 73.5584 53.2689 71.0363C54.2331 64.0928 54.6716 62.5036 56.3742 59.7806C57.2339 58.4049 61.2512 51.839 65.3008 45.1898C69.3501 38.5405 73.8884 31.0913 75.3857 28.6363C77.228 25.6156 78.3816 24.1327 78.9529 24.0506C79.704 23.9422 79.7977 23.6279 79.7977 21.2191V18.5094L48.5916 18.4027C22.4185 18.3131 17.3503 18.3881 17.1667 18.8692ZM31.8111 23.4607C29.772 24.2211 29.1216 24.7972 28.1573 26.6982C27.1301 28.723 27.143 30.9404 28.1938 33.0727C29.1982 35.1113 30.3979 36.0442 32.8727 36.7096C34.4579 37.136 35.0088 37.1014 36.6471 36.4724C38.5971 35.7232 40.3141 33.9127 40.7353 32.1622C40.9392 31.3135 40.8099 31.2243 39.3731 31.2243C38.149 31.2243 37.4903 31.5215 36.4937 32.5237C35.4076 33.6159 34.9893 33.7818 33.8709 33.5646C32.0793 33.2165 31.0894 31.9155 31.0894 29.9086C31.0894 26.6486 34.5607 24.9973 36.6492 27.2639C37.3759 28.0522 38.0279 28.3061 39.3254 28.3061H41.0408L40.504 26.9829C39.2454 23.8818 35.1411 22.2184 31.8111 23.4607ZM60.2584 23.2681C58.1442 23.8005 56.4944 25.2579 55.7316 27.266C54.0349 31.7341 56.7228 36.1447 61.5907 36.8788C64.3279 37.2915 67.6119 35.594 68.7834 33.1607C69.2551 32.1802 69.6386 30.6398 69.6348 29.7377C69.6261 27.6858 68.1723 25.0386 66.532 24.0894C65.0227 23.2156 62.0252 22.8233 60.2584 23.2681ZM43.111 29.9736V36.6437H44.7691H46.4273V34.5593C46.4273 32.7588 46.5392 32.4749 47.2493 32.4749C47.8193 32.4749 48.3935 33.114 49.1218 34.5593C50.147 36.5937 50.217 36.6437 52.0306 36.6437C53.0529 36.6437 53.889 36.5399 53.889 36.4128C53.889 36.2856 53.348 35.2042 52.6868 34.009L51.4847 31.8362L52.4796 30.6731C54.0208 28.8718 53.8571 26.5231 52.065 24.7209C50.6689 23.3169 50.6208 23.3035 46.8833 23.3035H43.111V29.9736ZM46.7038 26.4998C46.5517 26.6523 46.4273 27.4027 46.4273 28.1673C46.4273 29.4613 46.5214 29.5567 47.7953 29.5567C49.9629 29.5567 50.8268 28.2044 49.5069 26.8766C48.8457 26.2121 47.2087 25.992 46.7038 26.4998ZM59.8799 27.3248C58.3656 28.9681 58.4759 31.2393 60.139 32.6462C61.5924 33.876 62.5491 33.9861 64.2226 33.1157C65.5724 32.414 65.9106 31.7316 65.9106 29.7122C65.9106 26.5285 62.0297 24.9923 59.8799 27.3248ZM15.5305 34.8511C15.0902 37.4725 14.9713 37.693 13.7455 38.1582C12.7112 38.5509 12.3928 38.4609 11.1534 37.4274C10.3765 36.7796 9.5491 36.2443 9.31489 36.2381C8.79423 36.2243 3.31527 41.723 3.31527 42.2595C3.31527 42.4709 3.80525 43.3546 4.40426 44.2238C5.37138 45.6271 5.43729 45.9389 4.99622 47.0103C4.57339 48.0366 4.20031 48.2567 2.49738 48.4839C1.25169 48.6503 0.401474 48.9967 0.247265 49.4015C-0.16603 50.4845 -0.0308898 56.2358 0.428005 57.0984C0.725644 57.6574 1.29771 57.9046 2.29343 57.9046C3.84298 57.9046 5.38796 59.0819 5.38796 60.2625C5.38796 60.6418 4.92161 61.5673 4.35161 62.3189C3.78162 63.0706 3.31527 63.9377 3.31527 64.2462C3.31527 64.992 8.35606 69.9941 9.10762 69.9941C9.43137 69.9941 10.3803 69.5176 11.216 68.9348C12.5504 68.0048 12.8708 67.9372 13.8392 68.3808C14.4892 68.6789 15.0297 69.3279 15.1549 69.9612C15.8066 73.257 15.5922 73.1091 19.8989 73.242C24.2942 73.3775 24.8713 73.0699 24.8713 70.5907C24.8713 68.2195 27.0339 67.3382 28.9255 68.939C29.6115 69.5193 30.5244 69.9941 30.9538 69.9941C31.8239 69.9941 36.8929 65.0683 36.8929 64.2228C36.8929 63.9273 36.4154 63.0556 35.8317 62.286C34.979 61.1617 34.8231 60.606 35.0379 59.4541C35.423 57.3893 34.2635 57.0187 33.1521 58.8513C32.11 60.5705 32.1178 60.6739 33.4373 62.5887L34.5416 64.1912L32.9386 65.842C32.0569 66.75 31.1773 67.4928 30.9832 67.4928C30.7892 67.4928 29.9651 67.038 29.1514 66.4819C27.7959 65.5556 27.5629 65.5181 26.3752 66.0346C25.6618 66.3443 24.7494 66.7008 24.3469 66.8263C23.5294 67.0814 22.7986 68.6876 22.7986 70.2297C22.7986 71.1993 22.68 71.2448 20.1489 71.2448H17.4991L17.1435 69.315C16.8085 67.497 16.6626 67.3298 14.6301 66.4286L12.472 65.4722L10.8474 66.6557L9.22286 67.8393L7.4449 66.0175L5.66736 64.1962L6.81273 62.4557C7.75166 61.0283 7.87727 60.556 7.5104 59.831C7.26458 59.3445 6.87574 58.4261 6.6465 57.7895C6.1988 56.5477 6.01474 56.4418 3.6071 56.0386L2.0331 55.7752L2.15622 53.1922C2.27063 50.7847 2.34939 50.6013 3.31527 50.4925C5.84188 50.2082 6.11133 50.0068 7.03492 47.719L7.95271 45.4449L6.80734 43.9345L5.66156 42.4242L7.49921 40.5766L9.33644 38.7285L10.876 39.8299L12.4156 40.9317L14.6015 40.0971C16.6928 39.2988 16.8031 39.1796 17.1393 37.3512C17.461 35.6011 17.6011 35.4289 18.7975 35.3122C19.7853 35.2159 20.1041 34.9812 20.1041 34.3509C20.1041 33.6401 19.7861 33.4988 17.9506 33.392L15.797 33.2666L15.5305 34.8511ZM76.8462 33.914C76.4901 34.8478 77.0356 35.3931 78.3265 35.3931C79.396 35.3931 79.5324 35.5657 79.8565 37.3278C80.1977 39.1838 80.3018 39.2967 82.3985 40.0971L84.5844 40.9317L86.124 39.8299L87.6636 38.7285L89.5008 40.5766L91.3384 42.4242L90.1927 43.9345L89.0473 45.4449L89.9651 47.719C90.8887 50.0068 91.1581 50.2082 93.6847 50.4925C94.6506 50.6013 94.7294 50.7847 94.8438 53.1922L94.9669 55.7752L93.3929 56.0386C90.9853 56.4418 90.8012 56.5477 90.3535 57.7895C90.1243 58.4261 89.7354 59.3445 89.4896 59.831C89.1227 60.556 89.2483 61.0283 90.1873 62.4557L91.3326 64.1962L89.5551 66.0175L87.7771 67.8393L86.1526 66.6557L84.528 65.4722L82.3699 66.4286C80.3374 67.3298 80.1915 67.497 79.8565 69.315L79.5009 71.2448H76.8511C74.32 71.2448 74.2014 71.1993 74.2014 70.2297C74.2014 68.6876 73.4706 67.0814 72.6531 66.8263C72.2506 66.7008 71.3382 66.3443 70.6248 66.0346C69.4371 65.5181 69.2041 65.5556 67.8486 66.4819C67.0349 67.038 66.2108 67.4928 66.0168 67.4928C65.8227 67.4928 64.9431 66.75 64.0614 65.842L62.4584 64.1912L63.6311 62.4894C64.7818 60.8194 64.791 60.7606 64.1202 59.3462C63.6572 58.369 63.1527 57.9046 62.5549 57.9046C61.7677 57.9046 61.7031 58.0651 61.9514 59.3958C62.1785 60.6156 62.0359 61.1421 61.1683 62.286C60.5846 63.0556 60.1071 63.9377 60.1071 64.2462C60.1071 65.0879 65.1964 69.9941 66.0694 69.9941C66.486 69.9941 67.3885 69.5193 68.0745 68.939C69.9259 67.3724 72.1287 68.2149 72.1287 70.4894C72.1287 73.0582 72.5839 73.3292 76.8959 73.3292C81.2204 73.3292 81.6631 73.0615 81.6631 70.4489C81.6631 69.4543 81.9388 69.0386 82.9445 68.5154C84.1748 67.8755 84.2876 67.8918 85.765 68.9215C86.6115 69.5114 87.579 69.9941 87.9156 69.9941C88.6638 69.9941 93.6847 64.972 93.6847 64.2228C93.6847 63.9273 93.2184 63.0706 92.6484 62.3189C92.0784 61.5673 91.612 60.6418 91.612 60.2625C91.612 59.0819 93.157 57.9046 94.7066 57.9046C95.7023 57.9046 96.2744 57.6574 96.572 57.0984C97.0309 56.2358 97.166 50.4845 96.7527 49.4015C96.5985 48.9967 95.7483 48.6503 94.5026 48.4839C92.7997 48.2567 92.4266 48.0366 92.0038 47.0103C91.5627 45.9389 91.6286 45.6271 92.5957 44.2238C93.1947 43.3546 93.6847 42.4613 93.6847 42.2378C93.6847 41.7034 88.1855 36.2235 87.6636 36.2381C87.4414 36.2443 86.6235 36.7796 85.8466 37.4274C84.6072 38.4609 84.2888 38.5509 83.2545 38.1582C82.0304 37.6938 81.9089 37.4695 81.4733 34.872C81.2113 33.3099 81.2096 33.3087 79.144 33.3087C77.7196 33.3087 77.0053 33.4967 76.8462 33.914ZM16.9246 47.077C14.7673 48.223 13.5635 50.1144 13.3508 52.6915C13.1473 55.1586 13.7417 56.6177 15.7216 58.5107C16.8064 59.5479 17.4166 59.7672 19.593 59.9019C21.7842 60.0378 22.3957 59.9123 23.6177 59.0777C25.8003 57.5869 26.9452 55.6151 26.9373 53.3614C26.9183 48.0842 21.4683 44.6632 16.9246 47.077ZM73.5879 47.1854C70.2865 49.0659 69.0159 53.7279 70.9987 56.6865C71.5169 57.4602 72.5897 58.5362 73.3823 59.0777C74.6043 59.9123 75.2158 60.0378 77.407 59.9019C79.5834 59.7672 80.1936 59.5479 81.2784 58.5107C83.2583 56.6177 83.8527 55.1586 83.6492 52.6915C83.2259 47.5564 77.9783 44.6849 73.5879 47.1854ZM17.7259 48.9688C15.2639 50.3124 14.5762 54.0134 16.3869 56.1775C18.5421 58.7534 21.8903 58.685 23.9726 56.0228C27.0688 52.0645 22.1768 46.5404 17.7259 48.9688ZM74.5177 48.9688C72.0558 50.3124 71.368 54.0134 73.1787 56.1775C75.3339 58.7534 78.6822 58.685 80.7644 56.0228C83.8606 52.0645 78.9686 46.5404 74.5177 48.9688Z" fill="white"/>
</svg>
