<svg width="104" height="78" viewBox="0 0 104 78" fill="none" xmlns="http://www.w3.org/2000/svg">
<path fill-rule="evenodd" clip-rule="evenodd" d="M45.8977 0.887906C43.1226 1.93105 38.4411 6.0385 37.5262 8.23179C36.923 9.67917 36.7247 9.78048 35.2476 9.40365C34.3576 9.17672 31.9864 9.00976 29.978 9.0325C25.8336 9.07902 21.951 10.6572 18.8631 13.5499C17.0103 15.2862 14.1186 20.6844 14.1056 22.4311C14.089 24.7195 13.4852 25.7911 12.2127 25.7911C10.4145 25.7911 5.91467 28.1797 4.09568 30.0996C-3.22975 37.8312 -0.316756 50.8906 9.55527 54.5752C11.0006 55.1149 14.1665 55.4871 18.6664 55.6468L25.5624 55.8924V57.5517C25.5624 58.6176 25.9928 59.6126 26.7668 60.3348C27.841 61.3366 28.5462 61.4585 33.2725 61.4585H38.5738V65.1059V68.7533L36.1938 69.7991C33.9298 70.7941 33.7242 70.8029 31.9859 69.9836C28.7398 68.4535 25.5624 70.257 25.5624 73.6294C25.5624 75.9975 27.4704 78 29.7261 78C31.5513 78 33.668 76.2146 34.1625 74.2575C34.3941 73.341 35.1602 72.7672 37.0557 72.09C40.5485 70.8427 41.1761 69.796 41.1761 65.2202V61.4585H45.8602H50.5443V65.3603C50.5443 68.958 50.4351 69.3555 49.1391 70.4623C46.172 72.9972 48.1763 78 52.1583 78C54.0824 78 56.2694 75.9633 56.2694 74.1712C56.2694 72.333 55.2347 70.3175 54.1084 69.9629C53.2788 69.7014 53.1466 69.0929 53.1466 65.5396V61.4198L57.9609 61.5681L62.7751 61.717L62.9307 65.5872C63.1103 70.0653 63.8868 71.2671 67.2453 72.2663C68.395 72.6085 69.4619 73.2826 69.616 73.7644C70.5372 76.6467 72.1131 78 74.5499 78C76.0821 78 78.649 75.2484 78.649 73.6062C78.649 71.9396 76.0733 69.2124 74.4994 69.2124C73.891 69.2124 72.6866 69.5747 71.8242 70.0177C70.3935 70.7528 70.0542 70.7471 67.9578 69.9521C65.4247 68.9911 64.8808 67.7655 65.2093 63.7619L65.3774 61.717L70.8952 61.4585C77.1329 61.1665 77.9792 60.7592 78.4523 57.8225L78.7661 55.8712L85.6039 55.6789C91.1728 55.5222 92.8871 55.2839 94.8466 54.3954C103.94 50.2714 106.849 39.1715 100.876 31.3934C98.7891 28.676 95.072 26.3173 92.2923 25.9472C90.2713 25.6778 90.2089 25.6081 89.8924 23.2757C89.1549 17.8351 85.085 12.5429 79.8044 10.1573C77.91 9.3013 76.3954 9.0568 73.1842 9.08781C70.8942 9.10952 68.637 9.21342 68.1686 9.31784C67.6164 9.44138 66.7014 8.61173 65.5663 6.9581C63.6245 4.129 59.8178 1.28852 56.8845 0.479539C54.0444 -0.304112 48.5213 -0.0988947 45.8977 0.887906ZM48.3178 2.76484C44.137 3.9398 41.4442 6.18841 39.3863 10.2219C38.6436 11.6771 37.8639 12.8644 37.6542 12.8603C37.4445 12.8562 36.3359 12.5171 35.1909 12.1077C30.1227 10.2938 24.6485 11.6321 20.6046 15.6729C17.8321 18.4436 16.1942 22.1333 16.1942 25.6081C16.1942 26.585 15.9033 27.4509 15.5436 27.546C15.1856 27.6406 13.7751 27.9828 12.4084 28.3064C7.29024 29.5191 3.89634 32.8568 2.60613 37.9459C1.33986 42.9414 3.94162 48.6668 8.75064 51.466C11.0885 52.8265 11.674 52.9263 18.4009 53.1098L25.5624 53.3052V51.5404C25.5624 50.5701 25.8185 49.5218 26.1313 49.2112C26.5424 48.8028 26.5326 48.336 26.0949 47.5244C25.7024 46.7956 25.5791 44.7372 25.7435 41.6533C26.0475 35.9491 26.0475 36.9782 25.7404 30.7742C25.5052 26.0221 25.5671 25.5941 26.6569 24.4419L27.8259 23.2065H51.8788C80.7839 23.2065 78.433 22.6011 78.3055 30.0091C78.2597 32.6645 78.2066 35.4187 78.1879 36.1295C78.1686 36.8402 78.2842 39.1178 78.4445 41.1906C78.6063 43.2836 78.497 45.6403 78.1983 46.4916C77.8152 47.5823 77.8402 48.7816 78.2847 50.6528L78.9092 53.2814L85.6752 53.0901C91.3924 52.9288 92.7752 52.7241 94.5974 51.7689C101.881 47.9514 103.801 38.5859 98.5507 32.4934C96.3789 29.9735 94.3939 28.875 90.6195 28.1053L87.757 27.5217L87.4557 24.4341C87.1033 20.8307 85.2885 16.9078 83.1442 15.1156C79.0081 11.659 73.5657 10.5073 68.7988 12.0803C67.3093 12.5713 66.017 12.8913 65.927 12.7915C65.8364 12.6913 65.1609 11.4186 64.4244 9.96296C61.4771 4.13365 54.5165 1.02282 48.3178 2.76484ZM28.6591 26.081C27.7593 27.1573 27.4142 31.8964 28.1064 33.6741L28.6591 35.0956H51.7284C68.9774 35.0956 74.9553 34.939 75.4222 34.4753C75.7907 34.1093 76.0467 32.3503 76.0467 30.1849C76.0467 28.0195 75.7907 26.2604 75.4222 25.8944C74.9553 25.4308 69.0523 25.2741 52.0651 25.2741C32.1014 25.2741 29.2509 25.3723 28.6591 26.081ZM33.0466 29.6431C32.6838 30.5814 33.2105 31.4772 34.125 31.4772C35.0748 31.4772 35.5011 30.1828 34.786 29.4726C33.9933 28.6853 33.3943 28.7437 33.0466 29.6431ZM39.0901 29.6726C38.5988 30.2609 38.5676 30.6439 38.9772 31.0507C39.7667 31.8349 41.2891 31.1479 41.0845 30.1001C40.8508 28.9029 39.9031 28.6998 39.0901 29.6726ZM45.0338 29.6002C44.6429 30.6113 45.1753 31.4772 46.1876 31.4772C46.6982 31.4772 46.9152 31.0843 46.8075 30.3544C46.6055 28.9913 45.4574 28.5033 45.0338 29.6002ZM54.3322 29.4726C54.0111 29.7915 53.8721 30.373 54.0236 30.7649C54.2417 31.3283 56.0149 31.4772 62.5148 31.4772C69.0148 31.4772 70.788 31.3283 71.0061 30.7649C71.6051 29.2146 70.1447 28.8926 62.5148 28.8926C57.5929 28.8926 54.7106 29.0968 54.3322 29.4726ZM28.1517 39.0061C27.8727 39.7355 27.6443 41.2325 27.6443 42.3325C27.6443 43.4325 27.8727 44.9295 28.1517 45.6589L28.6591 46.9848H52.037C78.5012 46.9848 76.0467 47.4604 76.0467 42.3325C76.0467 37.2047 78.5012 37.6802 52.037 37.6802H28.6591L28.1517 39.0061ZM33.2137 41.6254C32.3945 42.4395 32.8806 43.4335 34.0198 43.2733C34.6637 43.1823 35.1909 42.7621 35.1909 42.3397C35.1909 41.5184 33.82 41.0231 33.2137 41.6254ZM38.8341 41.8156C38.3537 42.5879 39.022 43.3663 40.1659 43.3663C40.829 43.3663 41.1761 43.0112 41.1761 42.3325C41.1761 41.2361 39.4342 40.8515 38.8341 41.8156ZM44.8193 42.3325C44.8193 43.0216 45.1665 43.3663 45.8602 43.3663C46.554 43.3663 46.9011 43.0216 46.9011 42.3325C46.9011 41.6434 46.554 41.2987 45.8602 41.2987C45.1665 41.2987 44.8193 41.6434 44.8193 42.3325ZM54.1875 42.3325C54.1875 43.3627 54.4197 43.3881 62.645 43.25C69.7523 43.1306 71.1024 42.9843 71.1024 42.3325C71.1024 41.6807 69.7523 41.5344 62.645 41.415C54.4197 41.2769 54.1875 41.3023 54.1875 42.3325ZM28.2339 50.7325C27.9997 51.3719 27.7603 53.1056 27.7015 54.5851C27.6177 56.6982 27.8233 57.501 28.6607 58.3327C29.7011 59.3661 30.2497 59.3909 51.8798 59.3909C66.1554 59.3909 74.3911 59.2006 75.0402 58.8559C75.8937 58.402 76.0467 57.7491 76.0467 54.5654C76.0467 52.3339 75.7933 50.5583 75.4222 50.1897C74.9553 49.726 68.9774 49.5694 51.7284 49.5694H28.6591L28.2339 50.7325ZM33.0237 53.9978C32.8514 54.4434 32.9659 55.0617 33.2782 55.3718C34.0297 56.1182 35.5011 54.9526 35.1045 53.9255C34.7235 52.9402 33.4146 52.9857 33.0237 53.9978ZM38.8034 53.7544C38.2532 54.6383 39.9884 56.125 40.7212 55.3971C41.0476 55.073 41.1735 54.4434 41.0013 53.9978C40.6411 53.0658 39.3228 52.9195 38.8034 53.7544ZM44.9942 53.9978C44.6184 54.9702 45.5396 56.0304 46.3354 55.5419C47.1931 55.0151 47.0136 53.1878 46.1043 53.1878C45.6656 53.1878 45.1665 53.5523 44.9942 53.9978ZM54.0236 53.9001C53.4245 55.4504 54.885 55.7724 62.5148 55.7724C70.1447 55.7724 71.6051 55.4504 71.0061 53.9001C70.6027 52.8565 54.4269 52.8565 54.0236 53.9001ZM28.3646 72.5424C27.8764 73.8052 28.3875 75.1357 29.4372 75.3363C30.8128 75.5994 31.9261 74.0161 31.2489 72.7595C30.6348 71.6202 28.7752 71.4801 28.3646 72.5424ZM50.5287 72.5909C49.5836 73.7225 50.4965 75.1569 52.1624 75.1569C53.1982 75.1569 53.4069 74.8969 53.4069 73.6062C53.4069 72.4276 53.1461 72.0182 52.3201 71.9014C51.7227 71.8166 50.9165 72.1267 50.5287 72.5909ZM72.6247 73.0598C72.2094 74.7026 72.6924 75.4154 74.221 75.4154C75.6772 75.4154 76.4537 73.6822 75.5054 72.5475C74.5161 71.3633 72.9849 71.6357 72.6247 73.0598Z" fill="white"/>
</svg>
