<svg width="72" height="80" viewBox="0 0 72 80" fill="none" xmlns="http://www.w3.org/2000/svg">
<path d="M25.1807 22.4189H25.1777C25.0801 22.4329 24.9872 22.4667 24.9756 22.4707C24.9359 22.4844 24.89 22.5015 24.8428 22.5195C24.7469 22.5562 24.6226 22.6067 24.4805 22.665C24.1949 22.7824 23.8222 22.9405 23.4307 23.1113C22.8041 23.3846 22.1855 23.7019 21.7041 24.3184C21.2296 24.9261 20.9568 25.7328 20.7803 26.8438C20.4315 29.0388 20.4004 32.8701 20.4014 39.8896C20.4021 45.8689 20.4181 49.1575 20.542 51.1211C20.6041 52.1054 20.6952 52.7997 20.8389 53.3525C20.9881 53.9269 21.1876 54.324 21.4268 54.7168C21.7907 55.3142 22.2065 55.8018 22.7314 56.1709C23.258 56.5411 23.851 56.7613 24.5244 56.8877C24.8747 56.9536 25.3371 57.0938 25.9121 57.0215C26.4718 56.9511 27.1259 56.6967 28.1211 56.1982C30.1297 55.1922 33.9124 52.9855 41.8672 48.3838C43.7973 47.2674 45.6821 46.1249 47.166 45.1826C47.9075 44.7117 48.5529 44.2875 49.0557 43.9404C49.4177 43.6906 49.7354 43.4605 49.9619 43.2725L50.1562 43.0996C51.9944 41.2962 51.9686 38.1494 50.0967 36.3809C49.8046 36.105 49.2044 35.6857 48.4541 35.1963C47.6793 34.6909 46.6784 34.0688 45.5332 33.376C43.2416 31.9896 40.3528 30.3086 37.4932 28.6875C34.6336 27.0664 31.7966 25.5017 29.6104 24.3496C28.5187 23.7744 27.5816 23.2977 26.8818 22.9678C26.5335 22.8035 26.2319 22.6702 25.9941 22.5781C25.8765 22.5326 25.76 22.4911 25.6533 22.4619C25.5852 22.4433 25.3907 22.3898 25.1807 22.4189ZM15.9424 17.4189L15.7295 17.1885L14.582 15.9502C13.3172 14.5837 11.8821 13.7799 10.3926 13.7354C8.88362 13.6903 7.50115 14.4289 6.375 15.7686L5.21191 17.1523L5.02344 17.376V17.668L5.02539 39.6699C5.02609 50.1534 5.03754 55.6922 5.15723 58.7842C5.2169 60.3257 5.30439 61.3042 5.44336 62C5.59028 62.7355 5.79474 63.1572 6.05176 63.5791C6.68886 64.625 7.72783 65.3475 8.83594 65.6816C9.87303 65.9943 11.0342 65.9844 12.0459 65.5156L12.2461 65.416C12.6859 65.1802 12.9522 65.099 13.0957 65.0869C13.1084 65.0859 13.1187 65.0869 13.127 65.0869C13.168 65.1507 13.2485 65.3313 13.2969 65.748C13.3473 66.1827 13.3548 66.7751 13.3174 67.5586L13.207 69.8613L11.9863 70.1504C8.28457 71.0232 3.73911 68.8395 1.74023 65.0977C1.49074 64.6306 1.34053 64.3397 1.21973 63.7979C1.09103 63.2204 0.995337 62.3458 0.930664 60.7383C0.801587 57.5295 0.799805 51.6037 0.799805 39.751C0.799805 27.8661 0.800777 21.9416 0.930664 18.7393C0.995735 17.1351 1.09198 16.2658 1.22168 15.6914C1.34355 15.1519 1.49574 14.8609 1.75 14.3848C3.62822 10.8675 7.91908 8.81007 11.8486 9.54492C12.0979 9.59152 12.7376 9.83964 13.9062 10.4082C15.0362 10.9579 16.5775 11.7636 18.5771 12.8535C22.5751 15.0325 28.3757 18.3284 36.3271 22.9307C48.8519 30.1798 55.1342 33.8283 58.6504 35.3086C60.4022 36.0461 61.6334 36.322 62.6787 36.1094C63.7267 35.8962 64.4439 35.2062 65.1494 34.5752C65.771 34.0192 66.2427 33.5123 66.5303 32.9053C66.7884 32.3604 66.8674 31.8004 66.8691 31.1699L66.8652 30.8945C66.8492 30.3346 66.7329 29.7315 66.5625 29.2021C66.3983 28.692 66.1541 28.1554 65.8262 27.793H65.8271C65.7171 27.6712 65.5573 27.5436 65.4092 27.4316C65.246 27.3082 65.0405 27.1629 64.8027 27.001C64.3263 26.6767 63.6957 26.2699 62.959 25.8096C61.484 24.8879 59.5627 23.7391 57.5488 22.585C53.5364 20.285 45.1165 15.4288 38.8389 11.793C35.6947 9.97195 32.6913 8.28571 30.3838 7.03613C29.2307 6.41171 28.2464 5.89451 27.5039 5.52246C27.1334 5.33683 26.817 5.1843 26.5664 5.07227C26.3455 4.97348 26.099 4.86934 25.9102 4.83105H25.9111C25.2822 4.70301 24.697 4.71182 24.0635 5.0127C23.4909 5.28471 22.9329 5.77342 22.2734 6.43359C21.7181 6.98951 21.2607 7.56655 20.9375 8.12891C20.621 8.67966 20.3994 9.27583 20.3994 9.85352C20.3994 10.0351 20.3833 10.1502 20.3691 10.2188C20.2414 10.2048 20.0165 10.1504 19.6582 9.99707C19.2479 9.82154 18.7284 9.54869 18.0762 9.16602C16.8765 8.46225 16.56 8.08162 16.4834 7.75488C16.4447 7.58991 16.4464 7.34938 16.5654 6.95117C16.6858 6.54852 16.9072 6.04395 17.248 5.375H17.249C18.1004 3.70415 20.0748 1.90941 21.9893 1.10449C22.172 1.02792 22.7041 0.927245 23.5127 0.863281C24.2804 0.802559 25.193 0.781659 26.0576 0.817383L29.1201 0.944336L48.1689 12.0166H48.1699C53.4518 15.0867 58.4108 18.0281 62.1455 20.292C64.0133 21.4243 65.5726 22.3846 66.7109 23.1074C67.2805 23.4691 67.7405 23.7691 68.0801 23.999C68.2501 24.1141 68.3861 24.2093 68.4883 24.2842C68.5391 24.3215 68.5793 24.3521 68.6094 24.376C68.6241 24.3877 68.6353 24.3973 68.6436 24.4043C68.6506 24.4103 68.6545 24.4133 68.6553 24.4141C70.4422 26.1024 71.3059 28.7863 71.1895 31.4785C71.0728 34.1728 69.983 36.7092 68.0791 38.1338C67.9194 38.2533 67.1659 38.7202 65.8672 39.499C64.5948 40.2621 62.8482 41.2955 60.7529 42.5254C56.5627 44.985 50.9837 48.2279 45.0273 51.6592C39.067 55.0925 33.516 58.3396 29.374 60.8057C27.3036 62.0384 25.5828 63.0775 24.3379 63.8477C23.716 64.2324 23.2088 64.5523 22.835 64.7969C22.4939 65.0201 22.1903 65.2275 22.0449 65.3662H22.0439C21.5331 65.8543 21.1536 66.3493 20.9209 66.9961C20.6961 67.6213 20.6318 68.325 20.6318 69.1836C20.6318 70.0995 20.6838 70.8278 20.9736 71.4922C21.2657 72.1614 21.76 72.6774 22.4199 73.2676C22.8879 73.6863 23.4369 74.0625 23.9521 74.3379C24.4299 74.5933 25.0072 74.832 25.5 74.832C25.6755 74.832 25.8543 74.7933 25.9961 74.7559C26.1509 74.715 26.3231 74.6583 26.5049 74.5918C26.8693 74.4584 27.3105 74.2706 27.7959 74.0459C28.7687 73.5955 29.9576 72.9784 31.1328 72.3018C43.8365 64.9875 52.1582 60.1679 57.4248 57.0576C60.0569 55.5032 61.9314 54.3723 63.2109 53.5693C63.8502 53.1682 64.347 52.8444 64.7178 52.5889C65.0752 52.3424 65.3561 52.1325 65.5312 51.9609C66.5609 50.9524 67.0333 49.6607 66.9199 48.3516C66.8071 47.0508 66.1231 45.8014 64.9717 44.8281L64.1533 44.1357L64.7939 43.6182L64.793 43.6172C65.5143 43.0341 66.66 42.3314 67.2871 42.0713C67.838 41.8428 68.015 41.8308 68.1016 41.8438C68.1729 41.8544 68.3109 41.9009 68.7129 42.2646C70.4452 43.8334 71.2901 46.4821 71.1641 49.1885C71.0379 51.8949 69.95 54.4564 68.0781 55.8613C67.9173 55.9819 67.2353 56.409 66.0723 57.1113C64.9334 57.7991 63.3799 58.724 61.5225 59.8193C57.8079 62.0099 52.8843 64.8803 47.6494 67.9023C40.6832 71.9239 35.7939 74.6874 32.4609 76.4727C30.7937 77.3657 29.5254 78.0086 28.5869 78.4404C27.7405 78.8298 27.2213 79.0197 26.9375 79.0859L26.8301 79.1064C24.2026 79.501 21.4801 78.6392 19.1689 76.6025C18.2591 75.8007 17.7125 75.3288 17.2979 74.5928C16.8842 73.8582 16.5725 72.7946 16.3604 70.791C15.9339 66.7627 15.9424 59.3442 15.9424 44.165V17.4189Z" fill="white" stroke="black" stroke-width="1.6"/>
</svg>
