<svg width="74" height="85" viewBox="0 0 74 85" fill="none" xmlns="http://www.w3.org/2000/svg">
<path d="M31.6094 0.865234C34.3641 0.100593 36.5102 0.554959 37.9414 2.03027C38.2611 2.35987 38.5789 2.61422 38.9365 2.78223C39.2996 2.95278 39.6739 3.02051 40.085 3.02051C41.1954 3.02051 42.4676 3.58533 43.6904 4.63379C44.906 5.67604 46.0308 7.16228 46.8418 8.91309C47.1409 9.55908 47.4264 10.0898 47.6738 10.4561C47.7952 10.6357 47.9238 10.7999 48.0547 10.918C48.1194 10.9764 48.2066 11.0438 48.3135 11.0889C48.4233 11.1351 48.595 11.1734 48.7812 11.1016C48.924 11.0464 49.4992 10.9055 50.0693 10.7979L50.4775 10.7197L50.335 14.1709C50.2418 16.4139 50.0381 20.995 49.8838 24.3506C49.7291 27.7076 49.417 34.9242 49.1895 40.3877C48.8336 48.9278 48.525 56.1051 48.2246 62.8457L47.9258 69.4756C47.772 72.8324 47.5696 77.5721 47.4766 80.0088C47.4302 81.2208 47.3649 82.3588 47.2969 83.2148C47.2628 83.6437 47.2285 83.9974 47.1963 84.252C47.1833 84.3541 47.1691 84.4357 47.1582 84.498C47.1542 84.4983 47.15 84.4998 47.1455 84.5C46.9916 84.5052 46.7253 84.4678 46.2617 84.3584C45.5643 84.1938 41.8857 83.4789 38.0977 82.7695C34.3009 82.0588 30.6318 81.3615 29.9395 81.2197C29.2372 81.0762 27.2049 80.6899 25.4238 80.3613C23.6442 80.033 20.6038 79.4577 18.6689 79.083C16.7319 78.7079 13.6895 78.1269 11.9072 77.793C10.1276 77.4595 6.77534 76.8155 4.45898 76.3613C3.29964 76.1342 2.23226 75.9272 1.44629 75.7773C1.05753 75.7032 0.736902 75.6428 0.507812 75.6006C0.521832 75.3481 0.555485 74.9951 0.607422 74.6016C0.715923 73.7816 1.05412 71.1948 1.35938 68.8535C1.66435 66.5123 2.04076 63.639 2.19531 62.4688C2.35042 61.2964 2.59362 59.3794 2.73633 58.207C2.87857 57.0385 3.12437 55.1248 3.28125 53.9561C3.43853 52.7843 3.89199 49.3348 4.28906 46.291C5.05699 40.4016 5.40465 37.7494 5.84277 34.4434C6.48222 29.6175 6.66819 28.1903 6.83301 26.8467C6.92132 26.1272 6.98474 25.6333 7.08496 25.2539C7.18047 24.8924 7.30026 24.6758 7.47949 24.501C7.67153 24.3138 7.9696 24.1374 8.49219 23.9277C9.01393 23.7185 9.70803 23.495 10.6641 23.1895C12.5425 22.5895 14.6742 21.9263 15.4014 21.7148V21.7139L16.7363 21.3262L16.9961 21.251L17.0752 20.9922L17.9453 18.1445C18.416 16.6056 19.4751 13.9321 20.293 12.2217C23.3337 5.86243 27.1517 2.10251 31.6094 0.865234ZM52.6309 11.4404C53.0303 11.7501 53.6472 12.3279 54.5742 13.2578L57.0635 15.7559L57.1875 15.8799L57.3623 15.8994L59.2725 16.1133C60.3387 16.2328 61.9944 16.3363 62.9648 16.3447C63.6596 16.3506 64.0414 16.382 64.2617 16.4404C64.3629 16.4673 64.398 16.4923 64.4062 16.499C64.4091 16.5013 64.4176 16.507 64.4307 16.54C64.5062 16.7314 64.6199 17.233 64.7812 18.1992C64.939 19.144 65.1346 20.4851 65.3828 22.3125C65.5314 23.4086 66.1137 27.4345 66.6748 31.2578C67.2365 35.0829 67.7997 38.9755 67.9277 39.9092C68.1771 41.7293 68.7097 45.4091 70.332 56.5156C72.0511 68.2854 72.8834 73.9597 73.25 76.7256C73.4346 78.1183 73.4956 78.7434 73.499 79.0352C73.447 79.0526 73.3823 79.076 73.3027 79.0996C73.0691 79.1691 72.7406 79.2573 72.3389 79.3584C71.5365 79.5604 70.459 79.8097 69.3018 80.0566C66.9775 80.5529 62.7944 81.4575 60.0059 82.0664C55.6849 83.01 52.9831 83.5855 51.3281 83.9043C50.4989 84.064 49.944 84.1572 49.584 84.2002C49.4903 84.2114 49.4136 84.2183 49.3516 84.2227C49.3351 84.078 49.3358 83.8842 49.3633 83.6797V83.6787C49.4009 83.3977 49.4808 81.906 49.5801 79.7783C49.6803 77.6302 49.8017 74.7938 49.9199 71.7881C50.1559 65.779 50.4749 58.0537 50.6289 54.6211C50.783 51.1866 51.0306 45.5027 51.1787 41.9902C51.3268 38.4784 51.5836 32.4763 51.75 28.6523C51.9165 24.8278 52.1462 19.336 52.2598 16.4473C52.3163 15.0085 52.3941 13.659 52.4736 12.6455C52.5135 12.138 52.5534 11.7189 52.5908 11.417C52.591 11.4154 52.5906 11.4137 52.5908 11.4121C52.6032 11.4215 52.6176 11.4302 52.6309 11.4404ZM34.958 28.8926C32.891 28.7176 30.5368 28.7187 28.9717 29.002C21.8997 30.2818 16.9569 34.9713 15.6904 41.6699C15.3919 43.2498 15.3355 44.1759 15.4912 45.5791L15.5703 46.2129C15.8244 48.0542 16.1178 49.2773 17.0693 50.6836C17.9948 52.0514 19.5377 53.5826 22.2129 56.0996C23.9355 57.7201 24.2801 58.2331 24.5059 59.1367C24.7177 59.985 24.7112 60.6588 24.5293 61.208C24.3494 61.7507 23.9805 62.2252 23.3672 62.6475C22.7778 63.0534 21.8292 63.1632 20.5381 62.8467C19.2608 62.5335 17.7328 61.8216 16.082 60.7197C15.4247 60.2808 14.9104 59.9721 14.5312 59.8057C14.3475 59.725 14.1503 59.657 13.9619 59.6465C13.7572 59.6352 13.463 59.6949 13.3018 59.9854C13.2507 60.0773 13.1875 60.2474 13.127 60.418C13.0593 60.6087 12.976 60.8587 12.8818 61.1484C12.6932 61.7287 12.4597 62.4799 12.2275 63.2617C11.7611 64.8314 11.3072 66.2875 11.2158 66.5186C11.1081 66.791 11.1474 67.0679 11.2305 67.2969C11.3137 67.526 11.4559 67.7517 11.625 67.9658C11.9644 68.3954 12.4756 68.8576 13.084 69.3135C14.3058 70.229 16.0029 71.1809 17.7461 71.8486C19.2237 72.4145 21.0746 72.7384 22.873 72.8145C24.6679 72.8903 26.4592 72.7207 27.8135 72.2666C30.1254 71.4912 31.9679 70.2941 33.3604 68.6074C34.7505 66.9235 35.669 64.7814 36.1826 62.1543C36.5489 60.2802 36.5818 59.3633 36.3379 57.6562C36.0385 55.5625 35.4072 53.8183 34.1963 52.1016C33.1444 50.6103 31.6661 49.1553 29.626 47.5117L28.7168 46.7959L27.6631 45.9658C26.7292 45.2114 26.142 44.6682 25.7715 44.1973C25.3131 43.6147 25.1924 43.1515 25.1924 42.4658C25.1924 41.3899 25.7628 40.4523 27.0088 39.7168C27.2653 39.5655 27.6821 39.4324 28.2363 39.3418C28.7814 39.2527 29.4234 39.2103 30.1035 39.2168C31.47 39.2299 32.9405 39.4404 34.0371 39.8291C34.6881 40.0599 35.175 40.2078 35.541 40.2549C35.924 40.3041 36.297 40.2565 36.5742 39.9512C36.6539 39.8634 36.7212 39.7464 36.7725 39.6494C36.83 39.5405 36.8922 39.4072 36.958 39.2578C37.09 38.9583 37.2452 38.5702 37.4121 38.1279C37.7465 37.2421 38.1368 36.1183 38.501 35.0088C38.865 33.8997 39.2054 32.7972 39.4385 31.9541C39.5545 31.5343 39.6465 31.1695 39.7012 30.8975C39.728 30.7639 39.7487 30.6376 39.7568 30.5322C39.7607 30.4814 39.7633 30.4153 39.7559 30.3477C39.7521 30.3136 39.7447 30.2639 39.7256 30.209C39.7076 30.1574 39.6671 30.0664 39.5791 29.9863C39.3843 29.8091 39.1066 29.6777 38.8223 29.5742C38.5252 29.4662 38.1671 29.3702 37.7715 29.2852C36.9793 29.1148 35.9959 28.9805 34.958 28.8926ZM34.7793 2.59766C34.4242 2.54685 33.9651 2.55484 33.4854 2.60156C32.5252 2.6951 31.3464 2.95727 30.5059 3.35156C27.2482 4.88 24.607 7.86954 22.3906 12.4043C21.9248 13.3573 21.2756 14.8901 20.7441 16.2344C20.4779 16.9077 20.2384 17.5393 20.0654 18.0332C19.9792 18.2794 19.9081 18.4963 19.8574 18.6689C19.8322 18.755 19.8106 18.8359 19.7949 18.9062C19.7882 18.9364 19.7804 18.9734 19.7744 19.0137L19.7637 19.1406L19.7676 19.209C19.8044 19.5394 20.1033 19.6545 20.1826 19.6787C20.2986 19.7142 20.4217 19.7202 20.5146 19.7197C20.7141 19.7188 20.973 19.6871 21.2539 19.6406C21.8251 19.546 22.5812 19.3728 23.3467 19.1689C24.1134 18.9647 24.9037 18.7255 25.5449 18.498C25.8645 18.3846 26.1544 18.2715 26.3887 18.1641C26.6015 18.0664 26.835 17.9451 26.9814 17.7998C27.0522 17.7296 27.1036 17.6473 27.1367 17.5889C27.1741 17.5229 27.2099 17.448 27.2441 17.3701C27.3129 17.2137 27.3854 17.0186 27.458 16.8027C27.6036 16.3697 27.7579 15.8224 27.8877 15.2627C28.3521 13.2604 29.3412 11.0294 30.5439 9.08984C31.7525 7.14095 33.1408 5.54486 34.373 4.76074C34.6899 4.55916 34.9838 4.33873 35.2041 4.1416C35.3131 4.04412 35.4153 3.94284 35.4941 3.84473C35.5332 3.79611 35.575 3.73783 35.6094 3.67285C35.6392 3.61649 35.6895 3.50666 35.6895 3.36816C35.6893 3.03945 35.4656 2.84517 35.3018 2.75488C35.1412 2.66649 34.9518 2.62235 34.7793 2.59766ZM37.3545 5.56738C37.2769 5.57257 37.2025 5.58858 37.1416 5.60547C37.0176 5.63989 36.8768 5.69584 36.7344 5.76074C36.4455 5.89237 36.091 6.08776 35.7354 6.31543C34.1064 7.35838 32.2695 9.74184 31.0967 12.2412C30.6735 13.1431 30.3268 14.0639 30.1162 14.7998C30.0115 15.1656 29.9352 15.5018 29.9043 15.7744C29.889 15.9092 29.883 16.0479 29.8965 16.1758C29.9077 16.2825 29.9423 16.4822 30.0967 16.6387V16.6396C30.2138 16.7582 30.3511 16.7805 30.3779 16.7852C30.4267 16.7936 30.4684 16.7943 30.4922 16.7939C30.5419 16.7931 30.5912 16.7868 30.6289 16.7812C30.7085 16.7695 30.8084 16.7489 30.9189 16.7236C31.1436 16.6723 31.4539 16.5917 31.8232 16.4893C32.5639 16.2839 33.5651 15.985 34.6494 15.6426L38.5791 14.4023L38.9346 14.29L38.9277 13.917L38.8857 11.4766C38.8642 10.2495 38.7323 8.93592 38.5527 7.8916C38.4632 7.37082 38.3595 6.90449 38.2471 6.54395C38.1912 6.36479 38.1295 6.19819 38.0596 6.05957C38.0076 5.95655 37.921 5.80584 37.7822 5.69629L37.7197 5.65234L37.6064 5.59863C37.4961 5.56065 37.3981 5.56447 37.3545 5.56738ZM41.3193 5.2041C41.1607 5.15867 40.9802 5.13992 40.792 5.19922C40.6572 5.24171 40.5526 5.31381 40.4736 5.38281L40.4023 5.4502C40.3266 5.52658 40.2902 5.60853 40.2734 5.6543C40.255 5.70461 40.2459 5.75179 40.2402 5.78711C40.2289 5.8576 40.2262 5.93064 40.2266 5.99414C40.2272 6.12401 40.2402 6.2825 40.2617 6.45215C40.3052 6.79511 40.3877 7.23445 40.4961 7.69141C40.6722 8.43373 40.8259 9.66491 40.8652 10.5908L40.875 10.9668C40.8792 11.703 40.896 12.2276 40.9951 12.5635C41.05 12.7495 41.1497 12.9499 41.3496 13.0869C41.5426 13.2191 41.7518 13.2373 41.8984 13.2373C42.1387 13.2373 42.4732 13.1696 42.7998 13.0859C43.1421 12.9982 43.5288 12.8796 43.8965 12.752C44.2633 12.6246 44.6211 12.4846 44.9043 12.3545C45.0449 12.2899 45.1768 12.2231 45.2852 12.1572C45.3391 12.1244 45.3951 12.0873 45.4463 12.0459C45.4915 12.0093 45.5629 11.9456 45.6182 11.8555C45.7295 11.6736 45.7233 11.4674 45.7168 11.3682C45.7084 11.2388 45.6813 11.0958 45.6465 10.9521C45.5762 10.6619 45.4569 10.3068 45.3096 9.93066C45.0145 9.17723 44.586 8.28609 44.1436 7.56934C43.7453 6.92428 42.9878 6.12962 42.4121 5.77539L42.4111 5.77441C41.9466 5.48914 41.5954 5.2832 41.3193 5.2041Z" fill="white" stroke="black"/>
</svg>
