<svg width="68" height="73" viewBox="0 0 68 73" fill="none" xmlns="http://www.w3.org/2000/svg">
<path d="M32.4121 0.682617C33.3088 0.446142 34.6981 0.439042 35.5586 0.663086C37.2637 1.10742 38.9855 2.45822 39.7471 3.92871C40.0275 4.47034 40.1736 4.79897 40.2686 5.15332C40.3648 5.51271 40.4147 5.92127 40.4688 6.63281L40.5645 7.89453L40.5889 8.21191L40.8867 8.32422L42.1338 8.7959C47.2685 10.7363 51.7329 14.5876 54.1094 19.1045C54.5201 19.8852 54.6533 20.4361 54.6094 20.8486C54.5686 21.2307 54.366 21.5778 53.8828 21.9385C53.6709 22.0966 53.5537 22.1591 53.4346 22.1943C53.3055 22.2325 53.1338 22.25 52.791 22.25C52.4674 22.25 52.2757 22.2404 52.124 22.2031C51.9946 22.1713 51.881 22.1159 51.7393 21.9854C51.5844 21.8426 51.4004 21.6144 51.1436 21.2334C50.8887 20.8554 50.5796 20.3538 50.1699 19.6807C49.5952 18.7364 48.6587 17.623 47.6357 16.6016C46.6118 15.5791 45.4732 14.6201 44.4785 13.9941C39.4231 10.8126 33.5081 10.0809 27.8203 11.9316C22.3609 13.7083 17.688 18.2653 15.8828 23.5889C15.3994 25.0147 15.1488 25.6777 15.0186 27.3994C14.8917 29.0771 14.8742 31.8013 14.8252 37.3789C14.7766 42.9064 14.7651 45.4731 14.6621 46.8701C14.6111 47.5612 14.5396 47.9296 14.4443 48.2129C14.3452 48.5076 14.2183 48.7236 13.9951 49.1602C13.9951 49.1602 13.9935 49.164 13.9893 49.1709C13.9848 49.1782 13.9784 49.1884 13.9697 49.2012C13.952 49.2272 13.9269 49.2609 13.8945 49.3027C13.8294 49.3869 13.7394 49.4947 13.623 49.6279C13.3903 49.8944 13.0641 50.2484 12.6416 50.6895C11.7973 51.5708 10.5844 52.7882 9.00977 54.335L4.25098 59.0107L3.37891 59.8672H64.5977L63.7246 59.0107L59.6182 54.9775C57.3919 52.7912 56.3196 51.7327 55.8184 51.0664C55.5771 50.7457 55.509 50.5672 55.4883 50.4375C55.4655 50.295 55.4864 50.1494 55.5479 49.8291C55.6172 49.4678 55.9037 49.0883 56.3486 48.8145C56.7898 48.5431 57.3163 48.4205 57.7725 48.502C57.8612 48.5179 58.0407 48.5767 58.7441 49.1973C59.4245 49.7975 60.5211 50.8496 62.4287 52.7051C64.2703 54.4962 65.3663 55.5811 66.0469 56.3066C66.728 57.0328 66.961 57.3676 67.1055 57.6611C68.1339 59.7498 67.0703 62.3421 64.7939 63.1758C64.4846 63.2891 64.2683 63.3586 63.123 63.3955C61.9647 63.4328 59.9147 63.4355 55.96 63.4355H47.3477L47.2588 63.8242L47.083 64.5928C46.9734 65.0718 46.6765 65.7845 46.2793 66.5312C45.8852 67.2722 45.4148 68.0051 44.9834 68.5254C43.5757 70.2233 41.336 71.6496 39.1074 72.2588C38.3699 72.4604 37.7303 72.5003 33.9883 72.5C30.2488 72.4999 29.6053 72.4601 28.8682 72.2588C26.5886 71.6362 24.2916 70.1566 22.9248 68.4473C22.0355 67.3348 21.13 65.5906 20.8906 64.5742L20.7148 63.8301L20.625 63.4463L20.2305 63.4443L11.8301 63.4043C7.71056 63.3846 5.61845 63.3727 4.47168 63.3291C3.89675 63.3072 3.58381 63.2778 3.38184 63.2412C3.19989 63.2082 3.1063 63.1697 2.95996 63.1035C1.4314 62.4118 0.50032 60.998 0.5 59.4287V59.4277C0.499923 58.9129 0.497971 58.6127 0.560547 58.3271C0.618239 58.0641 0.738517 57.7898 1.03809 57.3857C1.66498 56.5402 2.95819 55.2726 5.68848 52.5859C7.30977 50.9906 8.54764 49.7464 9.40039 48.8555C9.82627 48.4105 10.16 48.0499 10.3984 47.7754C10.5174 47.6384 10.6169 47.5179 10.6934 47.417C10.7614 47.3272 10.8387 47.2176 10.8838 47.1113L10.8828 47.1104C10.9617 46.9243 11.0064 46.6967 11.0381 46.373C11.0703 46.0439 11.0934 45.5761 11.1094 44.8877C11.1415 43.508 11.1484 41.1938 11.1484 37.2275C11.1484 29.6485 11.1903 27.8306 11.3711 26.626C12.1239 21.6086 14.2467 17.4419 17.8545 13.9014C20.1386 11.6599 22.6902 10.0139 25.6348 8.87988L27.0928 8.31836L27.3877 8.20508L27.4121 7.89062L27.5029 6.70312C27.5838 5.64887 27.7352 4.91534 28.0205 4.28418C28.3047 3.65551 28.7388 3.09041 29.4434 2.40039C30.4393 1.42521 31.1543 1.01437 32.4121 0.682617ZM34.0039 63.4355C31.5516 63.4355 29.3215 63.4442 27.7041 63.458C26.8957 63.4649 26.2387 63.4733 25.7832 63.4824C25.5561 63.487 25.3757 63.4909 25.251 63.4961C25.1899 63.4986 25.136 63.5024 25.0947 63.5059C25.0763 63.5074 25.0482 63.5099 25.0195 63.5146C25.0088 63.5164 24.9746 63.5218 24.9346 63.5352C24.918 63.5407 24.8685 63.558 24.8135 63.5947C24.7865 63.6127 24.6359 63.7149 24.5986 63.918L24.5898 64.0117L24.5967 64.1074C24.6095 64.2003 24.6374 64.2832 24.6582 64.3389C24.6912 64.4274 24.7355 64.5226 24.7842 64.6182C24.8821 64.8103 25.0146 65.0351 25.1621 65.2637C25.4552 65.7179 25.8325 66.2278 26.1602 66.5771C27.1256 67.6064 28.4285 68.3842 29.7686 68.7266C30.1438 68.8223 30.7635 68.8881 31.4658 68.9326C32.1813 68.9779 33.022 69.0029 33.8623 69.0078C34.7027 69.0127 35.5482 68.9969 36.2725 68.96C36.9854 68.9236 37.6159 68.8654 38.0059 68.7754C39.9368 68.3299 41.6876 67.0959 42.6865 65.46C42.7854 65.2981 42.8815 65.1646 42.9795 65.0215C43.0608 64.9027 43.1791 64.7289 43.2334 64.5498C43.2638 64.4493 43.2867 64.3099 43.2471 64.1553C43.2052 63.992 43.1087 63.868 42.998 63.7822C42.8099 63.6363 42.5522 63.5785 42.3203 63.543C41.8224 63.4668 40.9857 63.4415 39.6816 63.4336C38.3647 63.4256 36.5259 63.4355 34.0039 63.4355ZM55.1533 27.9443C55.5409 27.977 55.8446 28.0777 55.9775 28.1748C56.2167 28.3496 56.3518 28.458 56.4473 28.5664C56.5293 28.6597 56.5904 28.7638 56.6387 28.9404C56.691 29.1318 56.7274 29.403 56.752 29.8301C56.7764 30.2544 56.7874 30.8036 56.7998 31.54L56.8457 34.2334L56.8535 34.7168L57.3369 34.7246L60.0898 34.7695C61.6288 34.7943 62.3338 34.8172 62.7568 34.9297C62.94 34.9784 63.0491 35.0401 63.1475 35.124C63.2613 35.2213 63.3749 35.3588 63.5586 35.5996C63.6717 35.7479 63.7725 36.0932 63.7725 36.5264C63.7725 36.9595 63.6717 37.3048 63.5586 37.4531C63.3749 37.6939 63.2613 37.8315 63.1475 37.9287C63.0491 38.0127 62.9399 38.0743 62.7568 38.123C62.3338 38.2356 61.6288 38.2585 60.0898 38.2832L57.3369 38.3271L56.8535 38.335L56.8457 38.8193L56.7998 41.5127C56.7874 42.2519 56.7765 42.8017 56.752 43.2266C56.7272 43.6546 56.6907 43.9255 56.6377 44.1162C56.589 44.2913 56.5276 44.3957 56.4424 44.4912C56.3431 44.6025 56.2023 44.7136 55.9561 44.8936H55.9551C55.7991 45.0072 55.4403 45.1064 54.9941 45.1064C54.5476 45.1064 54.1881 45.0073 54.0322 44.8936C53.786 44.7137 53.6452 44.6025 53.5459 44.4912C53.4607 44.3957 53.3993 44.2913 53.3506 44.1162C53.2976 43.9255 53.2601 43.6546 53.2354 43.2266C53.2108 42.8017 53.1999 42.2519 53.1875 41.5127L53.1426 38.8193L53.1338 38.335L52.6504 38.3271L49.8975 38.2832C48.3583 38.2585 47.6534 38.2357 47.2305 38.123C47.0472 38.0743 46.9383 38.0128 46.8398 37.9287C46.726 37.8315 46.6133 37.6938 46.4297 37.4531C46.3165 37.3048 46.2158 36.9595 46.2158 36.5264C46.2158 36.0932 46.3165 35.7479 46.4297 35.5996C46.6134 35.3588 46.7261 35.2212 46.8398 35.124C46.9382 35.04 47.0477 34.9785 47.2314 34.9297C47.6555 34.8171 48.3626 34.7943 49.9062 34.7695L52.668 34.7246L53.1602 34.7168V31.7441C53.1602 31.0462 53.1769 30.3924 53.2041 29.8877C53.2178 29.6348 53.2336 29.4237 53.251 29.2656C53.2708 29.0849 53.2873 29.03 53.2822 29.043C53.4382 28.6404 53.8254 28.2324 54.252 28.0391C54.4322 27.9574 54.7704 27.9121 55.1533 27.9443ZM36.498 5.68066C35.8445 4.2724 34.2358 3.70933 32.8174 4.3584C31.998 4.73339 31.3538 5.50281 31.2119 6.35742L31.1348 6.82324L31.0381 7.4043H34.8398C35.0922 7.40315 35.3097 7.40036 35.4932 7.39355C35.6771 7.38672 35.841 7.3754 35.9814 7.35547C36.1166 7.33627 36.2644 7.3049 36.3965 7.24023C36.5405 7.16968 36.6892 7.0465 36.7637 6.84668C36.8314 6.66478 36.8093 6.49214 36.7822 6.37695C36.7332 6.16831 36.6032 5.90739 36.498 5.68066Z" fill="white" stroke="black"/>
</svg>
