<svg width="69" height="67" viewBox="0 0 69 67" fill="none" xmlns="http://www.w3.org/2000/svg">
<path d="M34.3828 0.50293C46.2949 0.495521 52.415 0.496128 55.7646 0.569336C59.114 0.642543 59.6338 0.789227 60.3818 1.04785C63.9649 2.2862 66.8731 5.26053 67.9434 8.76074C68.2005 9.60147 68.3419 10.2249 68.417 12.5176C68.4925 14.8255 68.5 18.7807 68.5 26.2725C68.5 33.7643 68.4926 37.7195 68.417 40.0273C68.3419 42.32 68.2005 42.9434 67.9434 43.7842C66.8619 47.3213 63.8233 50.3953 60.3418 51.4824L58.6445 52.0127L58.3018 52.1201L58.2939 52.4785L58.1504 58.8291C58.0719 62.2949 58.0062 64.0643 57.7842 65.0566C57.6773 65.5345 57.5455 65.7703 57.4033 65.9209C57.2543 66.0788 57.0477 66.1941 56.6738 66.3506C56.518 66.4157 56.285 66.4689 56.0312 66.4902C55.7764 66.5117 55.5468 66.4977 55.3984 66.4609L55.4102 66.4629C55.4087 66.4609 55.3644 66.4413 55.2617 66.3711C55.1448 66.2911 54.9893 66.1719 54.793 66.0107C54.4013 65.6892 53.8725 65.2204 53.2119 64.6064C51.8921 63.3797 50.0648 61.5937 47.7852 59.2998L40.7334 52.2041L40.5869 52.0566H25.3945C18.3263 52.0566 14.5647 52.0483 12.3516 51.9727C10.1536 51.8975 9.52639 51.7571 8.71484 51.5039C5.16607 50.3966 2.14553 47.3473 1.04785 43.7578C0.796401 42.9353 0.657395 42.3003 0.583008 39.999C0.508194 37.6841 0.5 33.7267 0.5 26.2725C0.5 18.8181 0.508194 14.8609 0.583008 12.5459C0.65739 10.2443 0.796398 9.60966 1.04785 8.78711C2.10496 5.32981 4.83232 2.46232 8.3291 1.14941L10.0088 0.517578L34.3828 0.50293ZM34.8838 31.3613L53.2852 31.418L53.6885 31.9219C54.3703 32.7723 54.4918 33.5546 54.168 34.3447C53.972 34.8227 53.9023 34.9923 53.6729 35.1406C53.4032 35.3148 52.8688 35.4746 51.627 35.583C49.1734 35.7972 44.3559 35.792 34.5 35.792C26.7247 35.792 22.2305 35.7772 19.5781 35.7139C18.2507 35.6822 17.3974 35.6384 16.8301 35.5801C16.2555 35.521 16.0197 35.4507 15.8965 35.3916C15.1353 35.0267 14.5879 34.1825 14.5879 33.5049C14.5879 33.2605 14.7459 32.8156 15.0303 32.3604C15.1653 32.1441 15.3144 31.9478 15.46 31.7959C15.5932 31.6568 15.7024 31.5781 15.7744 31.541C15.7869 31.5394 15.803 31.5373 15.8232 31.5352C15.896 31.5276 16.0012 31.5197 16.1406 31.5117C16.4186 31.4958 16.8128 31.481 17.3135 31.4668C18.3141 31.4385 19.727 31.4147 21.458 31.3965C24.9195 31.36 29.6472 31.3452 34.8838 31.3613ZM34.374 17.6016C38.9635 17.5945 43.5577 17.6197 47.0752 17.6807C48.8345 17.7112 50.3214 17.7509 51.4023 17.7988C51.9435 17.8228 52.3783 17.8483 52.6924 17.876C52.8495 17.8898 52.9703 17.9039 53.0566 17.917C53.1066 17.9246 53.1343 17.9302 53.1455 17.9326C53.4105 18.0606 53.7329 18.3674 53.9971 18.7725C54.2673 19.1868 54.4121 19.6048 54.4121 19.8828C54.4121 20.1609 54.2673 20.5788 53.9971 20.9932C53.7336 21.3971 53.412 21.7024 53.1475 21.8311C53.1353 21.8336 53.11 21.8393 53.0664 21.8457C52.9821 21.8581 52.8631 21.8706 52.708 21.8838C52.3985 21.9101 51.9685 21.9348 51.4326 21.958C50.3624 22.0044 48.8873 22.0432 47.1396 22.0742C43.645 22.1363 39.073 22.168 34.5 22.168C29.927 22.168 25.355 22.1363 21.8604 22.0742C20.1127 22.0432 18.6376 22.0044 17.5674 21.958C17.0315 21.9348 16.6015 21.9101 16.292 21.8838C16.1369 21.8706 16.0179 21.8581 15.9336 21.8457C15.8889 21.8391 15.8633 21.8335 15.8516 21.8311C15.5747 21.6967 15.2527 21.3876 14.9951 20.9805C14.7316 20.564 14.5921 20.1356 14.5977 19.835C14.6031 19.5574 14.7312 19.1794 14.9688 18.8057C15.1955 18.449 15.4868 18.1518 15.7686 17.9844C15.7822 17.9815 15.8017 17.9778 15.8271 17.9736C15.9061 17.9606 16.0202 17.9469 16.1719 17.9326C16.4745 17.9041 16.8988 17.8772 17.4307 17.8516C18.4927 17.8004 19.9634 17.7566 21.71 17.7207C25.2025 17.6489 29.7845 17.6087 34.374 17.6016ZM64.1816 10.4609L64.1201 10.3486L63.2686 8.79492C62.2286 6.89827 60.4494 5.50411 58.4375 5.03516C58.284 4.99941 57.9622 4.97713 57.5674 4.95801C57.1474 4.93766 56.5815 4.91949 55.8926 4.90234C54.5138 4.86803 52.6309 4.83889 50.4141 4.81641C45.9801 4.77145 40.2016 4.75041 34.4248 4.75195C28.6477 4.7535 22.8701 4.77786 18.4395 4.8252C16.2245 4.84886 14.3439 4.87803 12.9678 4.91309C12.2802 4.9306 11.7154 4.95013 11.2969 4.9707C11.0882 4.98097 10.9125 4.99143 10.7744 5.00293C10.6476 5.0135 10.5209 5.02739 10.4307 5.04883C8.55228 5.49521 6.73828 6.9586 5.73145 8.79492L4.87988 10.3486L4.81836 10.4609V26.2725C4.81836 34.0117 4.82082 37.9491 4.89941 40.0928C4.93861 41.1617 4.99742 41.8147 5.09277 42.2812C5.19322 42.7726 5.33337 43.0504 5.49512 43.3555C6.38592 45.0352 7.62994 46.2479 9.27441 47.0244C9.61073 47.1832 9.91821 47.3149 10.4385 47.4121C10.9391 47.5057 11.6311 47.5667 12.7422 47.6113C14.9677 47.7006 18.9778 47.7252 26.7354 47.7646L42.4834 47.8438L47.5859 52.9873L52.833 58.2754L53.6875 59.1377V53.5195C53.6875 51.3719 53.6945 50.3074 53.7803 49.6709C53.8213 49.367 53.8773 49.1918 53.9443 49.0566C54.0143 48.9158 54.1098 48.7896 54.2803 48.585C54.5605 48.2485 54.7395 48.1015 54.998 47.999C55.2919 47.8826 55.719 47.8116 56.5381 47.7344C58.1941 47.5782 59.5795 47.1697 60.7363 46.4453C61.8964 45.7188 62.7948 44.6944 63.5049 43.3555C63.6666 43.0504 63.8068 42.7726 63.9072 42.2812C64.0026 41.8147 64.0614 41.1617 64.1006 40.0928C64.1792 37.9491 64.1816 34.0117 64.1816 26.2725V10.4609Z" fill="white" stroke="black"/>
</svg>
